<?xml version="1.0" standalone="no"?>
<!DOCTYPE svg PUBLIC "-//W3C//DTD SVG 1.1//EN" "http://www.w3.org/Graphics/SVG/1.1/DTD/svg11.dtd" >
<svg xmlns="http://www.w3.org/2000/svg" xmlns:xlink="http://www.w3.org/1999/xlink" version="1.1">
<metadata>
Created by FontForge 20150318 at Mon Mar 30 19:34:16 2015
 By uniteet7
Copyright (c) JT Types Ltd., 1996-2004. All rights reserved.
</metadata>
<defs>
<font id="Bliss2I" horiz-adv-x="469" >
  <font-face 
    font-family="Bliss2I"
    font-weight="400"
    font-style="italic"
    font-stretch="normal"
    units-per-em="1000"
    panose-1="2 0 5 6 4 0 0 9 0 4"
    ascent="800"
    descent="-200"
    x-height="473"
    cap-height="659"
    bbox="-184 -237 1123 953"
    underline-thickness="50"
    underline-position="-100"
    slope="-12"
    unicode-range="U+0020-FB02"
  />
<missing-glyph horiz-adv-x="550" 
d="M50 0v659h450v-659h-450zM101 48h348v563h-348v-563zM231 222q-29 29 -29 60q0 25 20.5 48.5t44.5 38.5t44.5 37.5t20.5 47.5q0 21 -15.5 34t-39.5 13q-41 0 -85 -39l-27 35q49 51 117 51q48 0 77 -25.5t29 -65.5q0 -31 -20.5 -59t-45.5 -45t-45.5 -35.5t-20.5 -32.5
q0 -16 17 -35zM255 107q-16 0 -27 11t-11 28t11 28.5t27 11.5t26.5 -11.5t10.5 -28.5t-10.5 -28t-26.5 -11z" />
    <glyph glyph-name="fi" unicode="fi" horiz-adv-x="547" 
d="M324 0l101 473h87l-101 -473h-87zM493 571q-23 0 -37 13.5t-14 35.5q0 28 18.5 45.5t43.5 17.5q24 0 38 -13.5t14 -35.5q0 -27 -19 -45t-44 -18zM-34 -228l-56 58q91 88 130.5 205t74.5 368h-74l11 70h73l11 63q9 59 34 95q48 77 143 77q54 0 92 -23l-28 -68
q-30 15 -59 15q-77 0 -95 -98l-10 -61h111l-27 -70h-95q-16 -106 -26.5 -165.5t-29.5 -139.5t-41 -130t-57.5 -103t-81.5 -93z" />
    <glyph glyph-name="fl" unicode="fl" horiz-adv-x="575" 
d="M-34 -228l-56 58q91 88 130.5 205t74.5 368h-74l11 70h73l11 63q9 59 34 95q48 77 143 77q54 0 92 -23l-28 -68q-30 15 -59 15q-77 0 -95 -98l-10 -61h111l-27 -70h-95q-16 -106 -26.5 -165.5t-29.5 -139.5t-41 -130t-57.5 -103t-81.5 -93zM425 -6q-42 0 -66.5 21.5
t-24.5 62.5q0 18 7 49l124 581h86l-123 -580q-4 -17 -4 -31q0 -26 28 -26q18 0 38 7v-72q-30 -12 -65 -12z" />
    <glyph glyph-name=".notdef" horiz-adv-x="550" 
d="M50 0v659h450v-659h-450zM101 48h348v563h-348v-563zM231 222q-29 29 -29 60q0 25 20.5 48.5t44.5 38.5t44.5 37.5t20.5 47.5q0 21 -15.5 34t-39.5 13q-41 0 -85 -39l-27 35q49 51 117 51q48 0 77 -25.5t29 -65.5q0 -31 -20.5 -59t-45.5 -45t-45.5 -35.5t-20.5 -32.5
q0 -16 17 -35zM255 107q-16 0 -27 11t-11 28t11 28.5t27 11.5t26.5 -11.5t10.5 -28.5t-10.5 -28t-26.5 -11z" />
    <glyph glyph-name=".null" horiz-adv-x="0" 
 />
    <glyph glyph-name="nonmarkingreturn" horiz-adv-x="333" 
 />
    <glyph glyph-name="space" unicode=" " horiz-adv-x="180" 
 />
    <glyph glyph-name="space" unicode="&#xa0;" horiz-adv-x="180" 
 />
    <glyph glyph-name="exclam" unicode="!" horiz-adv-x="279" 
d="M78 -8q-21 0 -34.5 14.5t-13.5 35.5q0 26 16.5 43.5t41.5 17.5q21 0 35 -15t14 -36q0 -25 -17 -42.5t-42 -17.5zM84 181q4 90 15.5 162.5t52.5 263.5l11 52h88l-11 -52q-57 -266 -79 -336q-12 -40 -31 -90h-46z" />
    <glyph glyph-name="quotedbl" unicode="&#x22;" horiz-adv-x="443" 
d="M188 483l-61 12l47 220l83 -17zM356 483l-60 12l47 220l82 -17z" />
    <glyph glyph-name="numbersign" unicode="#" horiz-adv-x="679" 
d="M84 0l55 175h-124l7 71h140l54 170h-125l7 71h140l54 171h85l-54 -171h131l54 171h85l-54 -171h124l-8 -71h-138l-54 -170h124l-7 -71h-140l-55 -175h-85l55 175h-131l-55 -175h-85zM247 246h131l54 170h-131z" />
    <glyph glyph-name="dollar" unicode="$" horiz-adv-x="529" 
d="M141 -82l21 100q-65 6 -119 39l31 68q55 -35 122 -35q55 0 92.5 24t37.5 80q0 30 -15 55t-37 41t-48.5 35.5t-48.5 37.5t-37 48.5t-15 68.5q0 70 47 115t122 53l19 93h70l-20 -94q57 -7 101 -29l-16 -72q-55 31 -124 31q-46 0 -77.5 -21.5t-31.5 -64.5q0 -27 15 -49.5
t37 -37.5t48.5 -34t48.5 -38.5t37 -52.5t15 -75q0 -81 -51.5 -129t-132.5 -57l-21 -100h-70z" />
    <glyph glyph-name="percent" unicode="%" horiz-adv-x="874" 
d="M222 316q-60 0 -93 35.5t-33 98.5q0 92 48.5 153.5t128.5 61.5q60 0 93 -36t33 -99q0 -92 -48.5 -153t-128.5 -61zM228 374q45 0 72 47.5t27 106.5q0 79 -60 79q-45 0 -72 -48t-27 -107q0 -78 60 -78zM594 -10q-60 0 -93.5 35.5t-33.5 98.5q0 92 48.5 153.5t129.5 61.5
q60 0 93 -35.5t33 -98.5q0 -92 -48.5 -153.5t-128.5 -61.5zM600 48q45 0 72 48t27 107q0 78 -61 78q-44 0 -71 -48t-27 -107q0 -78 60 -78zM151 0l490 659h78l-490 -659h-78z" />
    <glyph glyph-name="ampersand" unicode="&#x26;" horiz-adv-x="776" 
d="M253 -10q-99 0 -160.5 49.5t-61.5 132.5t54 136.5t151 71.5v2q-83 39 -83 124q0 72 57.5 115.5t146.5 43.5q102 0 173 -41l-25 -70q-70 38 -145 38q-51 0 -84.5 -21.5t-33.5 -65.5q0 -80 107 -110l-14 -64q-101 0 -158 -40t-57 -104q0 -57 37 -90.5t105 -33.5
q98 0 176.5 64t107.5 190h-83l15 71h278l-29 -71h-98q-18 -85 -58 -149.5t-91.5 -102.5t-109 -56.5t-117.5 -18.5z" />
    <glyph glyph-name="quotesingle" unicode="'" horiz-adv-x="274" 
d="M188 483l-61 12l47 220l83 -17z" />
    <glyph glyph-name="parenleft" unicode="(" horiz-adv-x="332" 
d="M159 -233q-96 134 -96 366q0 166 65 337t198 301l50 -51q-106 -112 -164.5 -266.5t-58.5 -321.5q0 -110 17.5 -183t54.5 -142z" />
    <glyph glyph-name="parenright" unicode=")" horiz-adv-x="332" 
d="M3 -233l-50 52q106 111 165 265.5t59 321.5q0 109 -17.5 182t-54.5 143l65 40q96 -133 96 -365q0 -167 -65 -338t-198 -301z" />
    <glyph glyph-name="asterisk" unicode="*" horiz-adv-x="487" 
d="M234 337l-62 27q12 29 43 79.5t37 61.5q-7 -2 -66.5 -18t-91.5 -18l-7 66q19 4 83.5 2.5t76.5 -0.5q-7 8 -48.5 50.5t-59.5 68.5l53 40q19 -25 48 -78.5t34 -61.5q4 11 20 68.5t29 85.5l61 -26q-8 -22 -22.5 -47t-33 -53.5t-24.5 -39.5q11 2 69 17t90 17l7 -66
q-12 -5 -84 -3t-77 2q7 -8 48.5 -50.5t59.5 -68.5l-55 -40q-18 25 -45.5 76.5t-35.5 63.5q-4 -14 -12 -45.5t-16.5 -59.5t-18.5 -50z" />
    <glyph glyph-name="plus" unicode="+" horiz-adv-x="531" 
d="M209 0v215h-195v74h195v211h82v-211h196v-74h-196v-215h-82z" />
    <glyph glyph-name="comma" unicode="," horiz-adv-x="235" 
d="M-11 -133l-41 33q45 49 62 97t18 109h87q0 -149 -126 -239z" />
    <glyph glyph-name="hyphen" unicode="-" horiz-adv-x="342" 
d="M18 210l16 76h250l-16 -76h-250z" />
    <glyph glyph-name="hyphen" unicode="&#x2010;" horiz-adv-x="342" 
d="M18 210l16 76h250l-16 -76h-250z" />
    <glyph glyph-name="hyphen" unicode="&#xad;" horiz-adv-x="342" 
d="M18 210l16 76h250l-16 -76h-250z" />
    <glyph glyph-name="period" unicode="." horiz-adv-x="235" 
d="M58 -8q-21 0 -34.5 14.5t-13.5 35.5q0 26 16.5 43.5t41.5 17.5q21 0 34.5 -15t13.5 -36q0 -26 -16.5 -43t-41.5 -17z" />
    <glyph glyph-name="slash" unicode="/" horiz-adv-x="391" 
d="M-15 -32l329 728h92l-329 -728h-92z" />
    <glyph glyph-name="zero" unicode="0" horiz-adv-x="531" 
d="M210 -10q-88 0 -133.5 57t-45.5 167q0 78 19 156t53.5 144.5t91 108.5t124.5 42q88 0 133.5 -57.5t45.5 -166.5q0 -78 -19 -156t-53.5 -144.5t-91 -108.5t-124.5 -42zM215 66q78 0 134 116.5t56 267.5q0 139 -91 139q-52 0 -95.5 -55t-68.5 -143.5t-25 -186.5
q0 -138 90 -138z" />
    <glyph glyph-name="one" unicode="1" horiz-adv-x="413" 
d="M134 0l119 560q-67 -39 -168 -62v74q42 11 102.5 38t99.5 54h75l-142 -664h-86z" />
    <glyph glyph-name="two" unicode="2" horiz-adv-x="520" 
d="M6 0q10 70 36 128t59.5 95.5t72 68.5t75 55t66.5 46.5t48 50t18 60.5q0 85 -103 85q-73 0 -159 -41l-17 71q100 46 191 46q82 0 131.5 -41t49.5 -113q0 -56 -31 -100.5t-78 -78t-95.5 -67t-90.5 -83t-57 -109.5h305l-16 -73h-405z" />
    <glyph glyph-name="three" unicode="3" horiz-adv-x="523" 
d="M-4 29l37 70q58 -33 138 -33q67 0 120 32t53 101q0 54 -39 76t-118 22h-77l10 72h43q61 0 99 11q50 14 80 45t30 78q0 44 -29.5 65t-78.5 21q-71 0 -151 -35l-16 69q92 42 182 42q87 0 136.5 -41t49.5 -112q0 -125 -141 -172v-2q113 -24 113 -134q0 -93 -73.5 -153.5
t-192.5 -60.5q-104 0 -175 39z" />
    <glyph glyph-name="four" unicode="4" horiz-adv-x="575" 
d="M275 0l36 171h-262l-10 67l391 426h73l-89 -420h99l-16 -73h-99l-36 -171h-87zM328 244l28 128q16 74 38 154l-256 -283q14 0 43 0.5t46 0.5h101z" />
    <glyph glyph-name="five" unicode="5" horiz-adv-x="519" 
d="M1 29l37 70q55 -33 132 -33q70 0 122.5 38t52.5 110q0 110 -168 110h-83l69 335h346l-23 -73h-251l-39 -190h29q106 0 159.5 -48t53.5 -125q0 -104 -75 -168.5t-196 -64.5q-103 0 -166 39z" />
    <glyph glyph-name="six" unicode="6" horiz-adv-x="562" 
d="M264 -10q-93 0 -147.5 58.5t-54.5 177.5q0 188 102.5 313.5t264.5 125.5q48 0 96 -16l-27 -69q-30 11 -70 11q-107 0 -180 -76t-96 -192h2q25 37 69 59.5t93 22.5q81 0 129 -49.5t48 -134.5q0 -99 -67 -165t-162 -66zM265 64q56 0 95.5 42t39.5 109q0 52 -27.5 84.5
t-79.5 32.5q-57 0 -97 -41.5t-40 -108.5q0 -52 28.5 -85t80.5 -33z" />
    <glyph glyph-name="seven" unicode="7" horiz-adv-x="473" 
d="M63 0q80 318 308 586h-295l-12 73h425v-36q-255 -298 -333 -623h-93z" />
    <glyph glyph-name="eight" unicode="8" horiz-adv-x="564" 
d="M253 -10q-97 0 -155.5 45.5t-58.5 123.5q0 68 42.5 113.5t112.5 68.5v2q-87 51 -87 141q0 78 61.5 129.5t160.5 51.5q91 0 145.5 -43.5t54.5 -113.5q0 -60 -42 -104t-103 -67v-2q113 -44 113 -150q0 -90 -72 -142.5t-172 -52.5zM256 61q63 0 105.5 32t42.5 88
q0 45 -36.5 74t-105.5 49q-59 -19 -94.5 -55t-35.5 -84q0 -52 37 -78t87 -26zM303 370q133 40 133 131q0 45 -31.5 69t-80.5 24q-51 0 -87.5 -28.5t-36.5 -79.5q0 -38 27.5 -69.5t75.5 -46.5z" />
    <glyph glyph-name="nine" unicode="9" horiz-adv-x="570" 
d="M50 15l25 70q42 -21 98 -21q189 0 235 227h-2q-66 -49 -155 -49q-77 0 -127.5 47.5t-50.5 136.5q0 107 64.5 173t159.5 66q96 0 154.5 -63.5t58.5 -182.5q0 -204 -89.5 -316.5t-243.5 -112.5q-74 0 -127 25zM416 367q5 28 5 59q0 78 -33 122t-92 44q-56 0 -93 -46.5
t-37 -114.5q0 -52 28 -84t81 -32q69 0 141 52z" />
    <glyph glyph-name="colon" unicode=":" horiz-adv-x="235" 
d="M58 -8q-21 0 -34.5 14.5t-13.5 35.5q0 26 16.5 43.5t41.5 17.5q21 0 34.5 -15t13.5 -36q0 -26 -16.5 -43t-41.5 -17zM126 334q-21 0 -34.5 14.5t-13.5 35.5q0 26 16.5 43t41.5 17q21 0 34.5 -14.5t13.5 -35.5q0 -26 -16.5 -43t-41.5 -17z" />
    <glyph glyph-name="semicolon" unicode=";" horiz-adv-x="235" 
d="M-11 -133l-41 33q45 49 62 97t18 109h87q0 -149 -126 -239zM114 334q-21 0 -34.5 14.5t-13.5 35.5q0 26 16.5 43t41.5 17q21 0 35 -14.5t14 -35.5q0 -26 -17 -43t-42 -17z" />
    <glyph glyph-name="less" unicode="&#x3c;" horiz-adv-x="598" 
d="M64 223v74l421 184v-76l-341 -144v-2l341 -144v-76z" />
    <glyph glyph-name="equal" unicode="=" horiz-adv-x="531" 
d="M21 126v74h473v-74h-473zM21 305v74h473v-74h-473z" />
    <glyph glyph-name="greater" unicode="&#x3e;" horiz-adv-x="598" 
d="M103 39v76l341 144v2l-341 144v76l421 -184v-74z" />
    <glyph glyph-name="question" unicode="?" horiz-adv-x="451" 
d="M138 -8q-21 0 -34.5 14.5t-13.5 35.5q0 26 16.5 43.5t41.5 17.5q21 0 34.5 -15t13.5 -36q0 -26 -16.5 -43t-41.5 -17zM131 181q2 54 25 98.5t54.5 74t62.5 55t52.5 54t21.5 58.5q0 34 -21 51.5t-58 17.5q-67 0 -133 -49l-32 63q84 61 180 61q65 0 109 -35t44 -96
q0 -52 -29 -92q-18 -26 -54 -57.5t-66 -55.5t-59 -63.5t-40 -84.5h-57z" />
    <glyph glyph-name="at" unicode="@" horiz-adv-x="771" 
d="M336 -140q-135 0 -221.5 90.5t-86.5 239.5q0 171 105.5 275.5t257.5 104.5q147 0 241 -87t94 -229q0 -109 -47 -167t-121 -58q-40 0 -66 22t-32 62h-2q-15 -32 -52.5 -57t-84.5 -25q-52 0 -89.5 37.5t-37.5 118.5q0 98 58.5 160.5t147.5 62.5q75 0 141 -40l-21 -161
q-5 -32 -5 -52q0 -68 50 -68q43 0 69 43.5t26 117.5q0 110 -70.5 186t-200.5 76q-125 0 -209.5 -86.5t-84.5 -230.5q0 -131 70.5 -204t178.5 -73q74 0 127 24l18 -55q-69 -27 -153 -27zM337 92q41 0 74 37.5t43 123.5l10 79q-27 19 -65 19q-55 0 -92 -45t-37 -117
q0 -97 67 -97z" />
    <glyph glyph-name="A" unicode="A" horiz-adv-x="580" 
d="M-44 0l350 662h70l121 -662h-93l-30 173h-232l-88 -173h-98zM182 246h180l-30 195q-8 54 -13 87h-2q-33 -76 -41 -92z" />
    <glyph glyph-name="B" unicode="B" horiz-adv-x="544" 
d="M10 0l140 659h148q92 0 136.5 -43t44.5 -107q0 -110 -111 -164v-2q41 -10 70.5 -44t29.5 -84q0 -89 -73.5 -152t-210.5 -63h-174zM177 373h82q53 0 92 33.5t39 91.5q0 39 -24.5 63t-76.5 24h-67zM114 73h87q83 0 130 37.5t47 97.5q0 44 -30 68t-82 24h-105z" />
    <glyph glyph-name="C" unicode="C" horiz-adv-x="594" 
d="M321 -10q-126 0 -201 72.5t-75 199.5q0 173 109 288t273 115q91 0 164 -35l-18 -76q-65 35 -144 35q-128 0 -209 -92.5t-81 -224.5q0 -93 49.5 -149.5t139.5 -56.5q82 0 163 41l18 -73q-86 -44 -188 -44z" />
    <glyph glyph-name="D" unicode="D" horiz-adv-x="641" 
d="M10 0l140 659h116q113 0 186 -33q143 -63 143 -238q0 -122 -58.5 -215t-165.5 -138q-85 -35 -201 -35h-160zM114 73h64q91 0 155 29q81 36 125 112.5t44 178.5q0 125 -101 170q-54 23 -137 23h-42z" />
    <glyph glyph-name="E" unicode="E" 
d="M10 0l140 659h317l-27 -73h-218l-44 -212h213l-16 -73h-213l-48 -228h243l-16 -73h-331z" />
    <glyph glyph-name="F" unicode="F" horiz-adv-x="451" 
d="M10 0l140 659h317l-27 -73h-218l-44 -212h213l-16 -73h-213l-63 -301h-89z" />
    <glyph glyph-name="G" unicode="G" horiz-adv-x="666" 
d="M326 -10q-126 0 -203.5 72t-77.5 203q0 106 46.5 196.5t137 147t206.5 56.5q102 0 190 -40l-18 -76q-75 41 -166 41q-135 0 -218.5 -91t-83.5 -223q0 -104 53.5 -157t140.5 -53q79 0 126 24l48 224h88l-59 -276q-83 -48 -210 -48z" />
    <glyph glyph-name="H" unicode="H" horiz-adv-x="666" 
d="M10 0l141 659h87l-61 -286h330l61 286h88l-140 -659h-88l63 297h-330l-63 -297h-88z" />
    <glyph glyph-name="I" unicode="I" horiz-adv-x="248" 
d="M10 0l140 659h88l-140 -659h-88z" />
    <glyph glyph-name="J" unicode="J" horiz-adv-x="289" 
d="M-143 -166l27 71q25 -12 63 -12q57 0 82 45q17 33 25 78l137 643h88l-139 -652q-15 -74 -39 -115q-47 -75 -154 -75q-51 0 -90 17z" />
    <glyph glyph-name="K" unicode="K" horiz-adv-x="557" 
d="M10 0l140 659h88l-64 -303h3l287 303h107l-328 -340l222 -319h-108l-196 288h-2l-61 -288h-88z" />
    <glyph glyph-name="L" unicode="L" horiz-adv-x="433" 
d="M10 0l140 659h88l-124 -586h239l-16 -73h-327z" />
    <glyph glyph-name="M" unicode="M" horiz-adv-x="786" 
d="M10 0l140 659h84l102 -280q33 -90 44 -125h2q46 67 73 102l228 303h93l-140 -659h-88l73 342q21 101 39 166h-3q-42 -60 -80 -108l-191 -253h-48l-92 248q-31 88 -39 113h-2q-16 -79 -35 -168l-72 -340h-88z" />
    <glyph glyph-name="N" unicode="N" horiz-adv-x="701" 
d="M10 0l140 659h83l262 -514h2q6 37 19 97l88 417h88l-141 -659h-72l-270 525h-2q-5 -40 -16 -90l-93 -435h-88z" />
    <glyph glyph-name="O" unicode="O" horiz-adv-x="718" 
d="M312 -10q-123 0 -195 71t-72 201q0 164 100.5 283.5t260.5 119.5q124 0 195.5 -70t71.5 -201q0 -106 -43.5 -197.5t-127 -149t-190.5 -57.5zM318 66q79 0 140.5 49t91.5 121.5t30 152.5q0 96 -45.5 148t-133.5 52q-79 0 -140.5 -48.5t-92 -121t-30.5 -152.5
q0 -95 46 -148t134 -53z" />
    <glyph glyph-name="P" unicode="P" horiz-adv-x="512" 
d="M10 0l140 659h101q65 0 108 -15q56 -20 87.5 -64.5t31.5 -105.5q0 -78 -44.5 -137t-123.5 -82q-56 -17 -125 -17h-37l-50 -238h-88zM164 311h34q51 0 85 14q51 16 78 55t27 92q0 78 -69 103q-28 11 -70 11h-27z" />
    <glyph glyph-name="Q" unicode="Q" horiz-adv-x="718" 
d="M214 -23q-9 11 -57 52.5t-68 73.5q-44 69 -44 159q0 164 100.5 283.5t260.5 119.5q124 0 195.5 -70t71.5 -201q0 -152 -87 -267.5t-229 -128.5q-12 -2 -41 -2v-2q8 -4 42 -28.5t67.5 -38.5t72.5 -14q45 0 91 14l17 -69q-57 -20 -121 -20q-144 0 -271 139zM318 66
q79 0 140.5 49t91.5 121.5t30 152.5q0 96 -45.5 148t-133.5 52q-79 0 -140.5 -48.5t-92 -121t-30.5 -152.5q0 -95 46 -148t134 -53z" />
    <glyph glyph-name="R" unicode="R" horiz-adv-x="539" 
d="M10 0l140 659h130q105 0 156.5 -47.5t51.5 -118.5q0 -82 -47.5 -131.5t-130.5 -66.5v-2q15 -25 44 -87l93 -206h-96l-71 167q-38 82 -53 108h-71l-58 -275h-88zM172 348h56q79 0 124.5 35.5t45.5 101.5q0 46 -30 73.5t-94 27.5h-52z" />
    <glyph glyph-name="S" unicode="S" horiz-adv-x="482" 
d="M2 34l35 70q61 -38 131 -38q56 0 95.5 26.5t39.5 84.5q0 33 -15.5 60t-39.5 44.5t-51 38.5t-51 40.5t-39.5 51.5t-15.5 72q0 80 57.5 130.5t151.5 50.5q81 0 149 -33l-17 -76q-60 34 -132 34q-50 0 -83 -25t-33 -69q0 -34 22 -61.5t53 -49t62 -46t53 -63.5t22 -89
q0 -96 -64.5 -146.5t-163.5 -50.5q-93 0 -166 44z" />
    <glyph glyph-name="T" unicode="T" horiz-adv-x="481" 
d="M125 0l125 586h-194l16 73h477l-30 -73h-181l-124 -586h-89z" />
    <glyph glyph-name="U" unicode="U" horiz-adv-x="651" 
d="M269 -10q-100 0 -156 50.5t-56 141.5q0 34 10 81l84 396h88l-83 -388q-10 -47 -10 -77q0 -64 35.5 -96.5t98.5 -32.5q84 0 129 47q39 40 56 120l91 427h88l-92 -436q-24 -112 -81 -166q-71 -67 -202 -67z" />
    <glyph glyph-name="V" unicode="V" horiz-adv-x="574" 
d="M208 -4l-137 663h93l74 -390q19 -107 23 -137h2q21 52 62 125l212 402h98l-363 -663h-64z" />
    <glyph glyph-name="W" unicode="W" horiz-adv-x="837" 
d="M163 -4l-91 663h96l44 -378q8 -67 15 -151h2q32 80 61 138l137 280l-15 111h88l46 -379q8 -58 16 -150h2q21 63 57 140l181 389h96l-324 -663h-72l-39 290q-12 77 -17 135h-2q-25 -60 -64 -138l-144 -287h-73z" />
    <glyph glyph-name="X" unicode="X" horiz-adv-x="590" 
d="M-40 0l279 338l-150 321h95l117 -254l209 254h105l-274 -333l152 -326h-94l-121 258l-213 -258h-105z" />
    <glyph glyph-name="Y" unicode="Y" horiz-adv-x="515" 
d="M163 0l54 255l-145 404h92l107 -318h2l205 318h99l-272 -407l-54 -252h-88z" />
    <glyph glyph-name="Z" unicode="Z" horiz-adv-x="526" 
d="M-27 0l416 586h-284l-8 73h441l-413 -586h319l-17 -73h-454z" />
    <glyph glyph-name="bracketleft" unicode="[" horiz-adv-x="328" 
d="M-13 -233l214 1005h181l-15 -68h-97l-184 -870h96l-14 -67h-181z" />
    <glyph glyph-name="backslash" unicode="\" horiz-adv-x="429" 
d="M266 -32l-196 728h86l196 -728h-86z" />
    <glyph glyph-name="bracketright" unicode="]" horiz-adv-x="328" 
d="M-93 -233l15 67h97l184 870h-96l14 68h181l-214 -1005h-181z" />
    <glyph glyph-name="asciicircum" unicode="^" horiz-adv-x="566" 
d="M87 287l158 372h76l158 -372h-76l-119 292h-2l-119 -292h-76z" />
    <glyph glyph-name="underscore" unicode="_" horiz-adv-x="438" 
d="M-89 -120l12 54h446l-12 -54h-446z" />
    <glyph glyph-name="grave" unicode="`" horiz-adv-x="368" 
d="M159 531l-81 147h100l49 -147h-68z" />
    <glyph glyph-name="grave" unicode="&#x300;" horiz-adv-x="368" 
d="M159 531l-81 147h100l49 -147h-68z" />
    <glyph glyph-name="a" unicode="a" 
d="M127 -10q-57 0 -91.5 35t-34.5 90q0 80 56 126q63 52 191 52l66 1q6 22 6 49q0 72 -87 72q-63 0 -140 -36l-12 67q83 39 166 39q68 0 114 -31.5t46 -105.5q0 -36 -17 -113l-10 -43q-17 -77 -17 -122q0 -31 8 -60l-75 -16q-13 41 -13 81q-67 -85 -156 -85zM150 62
q47 0 90.5 38.5t55.5 95.5l7 34h-37q-106 0 -146 -33q-33 -25 -33 -70q0 -65 63 -65z" />
    <glyph glyph-name="b" unicode="b" horiz-adv-x="508" 
d="M8 11l148 697h87l-46 -219q-10 -43 -25 -91h2q63 87 151 87q60 0 98.5 -42.5t38.5 -119.5q0 -144 -91.5 -238.5t-230.5 -94.5q-76 0 -132 21zM107 71q25 -7 54 -7q91 0 151.5 70.5t60.5 179.5q0 39 -19 67.5t-57 28.5q-48 0 -91 -46q-47 -49 -68 -145z" />
    <glyph glyph-name="c" unicode="c" horiz-adv-x="438" 
d="M221 -10q-92 0 -145.5 54t-53.5 145q0 125 77 210.5t196 85.5q65 0 120 -24l-17 -73q-50 24 -102 24q-77 0 -131.5 -61t-54.5 -153q0 -63 31 -99t90 -36q60 0 120 35l23 -63q-28 -20 -71 -32.5t-82 -12.5z" />
    <glyph glyph-name="d" unicode="d" horiz-adv-x="500" 
d="M231 -10q-93 0 -151 55.5t-58 152.5q0 130 79 208.5t193 78.5q56 0 99 -15l50 238h87l-147 -686q-73 -32 -152 -32zM238 64q36 0 71 14l67 319q-40 14 -75 14q-81 0 -136 -57.5t-55 -150.5q0 -63 33.5 -101t94.5 -38z" />
    <glyph glyph-name="e" unicode="e" 
d="M218 -10q-89 0 -142.5 54t-53.5 148q0 125 70.5 209t177.5 84q76 0 117 -42.5t41 -112.5q0 -50 -21 -110l-298 -4q-1 -8 -1 -24q0 -61 32.5 -95.5t85.5 -34.5q59 0 129 36l24 -64q-72 -44 -161 -44zM120 281l214 3q8 27 8 49q0 35 -19 58.5t-62 23.5q-50 0 -89.5 -39
t-51.5 -95z" />
    <glyph glyph-name="f" unicode="f" horiz-adv-x="311" 
d="M-34 -228l-56 58q91 88 130.5 205t74.5 368h-74l11 70h73l11 63q9 59 34 95q48 77 143 77q54 0 92 -23l-28 -68q-30 15 -59 15q-77 0 -95 -98l-10 -61h111l-27 -70h-95q-16 -106 -26.5 -165.5t-29.5 -139.5t-41 -130t-57.5 -103t-81.5 -93z" />
    <glyph glyph-name="g" unicode="g" horiz-adv-x="505" 
d="M-21 -201l31 73q57 -33 118 -33q69 0 105.5 37.5t54.5 118.5l17 75h-2q-63 -79 -148 -79q-60 0 -96.5 40.5t-36.5 120.5q0 88 31 161.5t100 122.5t166 49q88 0 154 -27l-101 -473q-22 -108 -77 -165t-170 -57q-78 0 -146 36zM181 64q45 0 93 47t71 156l29 135
q-27 9 -67 9q-89 0 -143 -72.5t-54 -170.5q0 -104 71 -104z" />
    <glyph glyph-name="h" unicode="h" horiz-adv-x="504" 
d="M3 0l152 708h86l-51 -239q-10 -46 -25 -90h2q30 47 77 76.5t97 29.5t80 -29t30 -87q0 -29 -12 -92l-59 -277h-87l58 274q10 44 10 74q0 59 -53 59q-28 0 -61.5 -19.5t-60.5 -56.5q-35 -48 -53 -130l-43 -201h-87z" />
    <glyph glyph-name="i" unicode="i" horiz-adv-x="223" 
d="M0 0l101 473h87l-101 -473h-87zM169 571q-23 0 -37 13.5t-14 35.5q0 28 18.5 45.5t43.5 17.5q24 0 38 -13.5t14 -35.5q0 -27 -19 -45t-44 -18z" />
    <glyph glyph-name="j" unicode="j" horiz-adv-x="250" 
d="M-148 -223l26 72q22 -9 47 -9q38 0 57.5 23t30.5 75l115 535h86l-122 -572q-31 -138 -163 -138q-44 0 -77 14zM196 571q-24 0 -38 14t-14 35q0 28 19 45.5t44 17.5q24 0 38 -14t14 -35q0 -27 -19 -45t-44 -18z" />
    <glyph glyph-name="k" unicode="k" horiz-adv-x="448" 
d="M3 0l152 708h86l-88 -411h2l199 176h107l-240 -211l166 -262h-99l-146 235h-2l-50 -235h-87z" />
    <glyph glyph-name="l" unicode="l" horiz-adv-x="268" 
d="M118 -6q-42 0 -66.5 21.5t-24.5 62.5q0 18 7 49l124 581h86l-123 -580q-4 -17 -4 -31q0 -26 28 -26q18 0 38 7v-72q-30 -12 -65 -12z" />
    <glyph glyph-name="m" unicode="m" horiz-adv-x="770" 
d="M0 0l101 473h70l-12 -94h2q32 47 77 76.5t93 29.5q49 0 76.5 -27.5t26.5 -83.5h2q32 48 78.5 79.5t97.5 31.5q48 0 77 -27.5t30 -80.5q0 -29 -13 -96l-60 -281h-86l60 284q9 40 9 66q0 57 -51 57q-58 0 -114 -73q-37 -49 -54 -131l-44 -203h-86l60 284q9 40 9 66
q0 57 -51 57q-58 0 -114 -74q-37 -47 -54 -130l-43 -203h-87z" />
    <glyph glyph-name="n" unicode="n" horiz-adv-x="501" 
d="M0 0l101 473h70l-12 -94h2q31 46 78.5 76t98.5 30q50 0 79.5 -29t29.5 -87q0 -36 -12 -92l-59 -277h-87l59 274q10 50 10 74q0 59 -53 59q-28 0 -61 -18.5t-60 -54.5q-36 -47 -55 -133l-42 -201h-87z" />
    <glyph glyph-name="o" unicode="o" horiz-adv-x="509" 
d="M22 182q0 129 75 216t181 87q89 0 136.5 -54t47.5 -136q0 -132 -75 -218.5t-181 -86.5q-90 0 -137 54t-47 138zM110 185q0 -122 99 -122q71 0 117.5 67.5t46.5 161.5q0 120 -98 120q-71 0 -118 -67.5t-47 -159.5z" />
    <glyph glyph-name="p" unicode="p" horiz-adv-x="506" 
d="M-51 -237l150 700q73 22 141 22q107 0 163 -55.5t56 -143.5q0 -134 -81 -215t-195 -81q-50 0 -95 14l-52 -241h-87zM104 77q30 -13 73 -13q86 0 139.5 62t53.5 153q0 65 -35.5 98.5t-98.5 33.5q-31 0 -63 -8z" />
    <glyph glyph-name="q" unicode="q" horiz-adv-x="507" 
d="M155 -10q-60 0 -96.5 41t-36.5 121q0 89 32 162.5t102 122t168 48.5q82 0 151 -27l-148 -695h-87l45 215q18 77 22 92h-2q-66 -80 -150 -80zM182 64q45 0 93.5 47t71.5 156l29 135q-31 9 -69 9q-89 0 -143 -73t-54 -172q0 -102 72 -102z" />
    <glyph glyph-name="r" unicode="r" horiz-adv-x="328" 
d="M0 0l101 473h70l-12 -94h2q51 106 134 106q33 0 58 -17l-37 -75q-20 10 -41 10q-45 0 -85 -52.5t-63 -157.5l-40 -193h-87z" />
    <glyph glyph-name="s" unicode="s" horiz-adv-x="360" 
d="M-26 28l29 66q53 -32 112 -32q37 0 63.5 17t26.5 49q0 23 -16 42t-38.5 34.5t-45 33t-38.5 46t-16 64.5q0 59 41.5 98t119.5 39q65 0 119 -21l-14 -71q-53 21 -101 21q-34 0 -55.5 -15.5t-21.5 -46.5q0 -23 16 -42t38.5 -35t45 -33.5t38.5 -46t16 -65.5
q0 -65 -49.5 -102.5t-125.5 -37.5q-82 0 -144 38z" />
    <glyph glyph-name="t" unicode="t" horiz-adv-x="341" 
d="M157 -10q-55 0 -82 25.5t-27 69.5q0 26 7 58l55 260h-78l15 70h79l23 107l92 26l-29 -133h129l-28 -70h-116l-57 -269q-4 -15 -4 -31q0 -40 42 -40q35 0 80 25l22 -64q-59 -34 -123 -34z" />
    <glyph glyph-name="u" unicode="u" horiz-adv-x="502" 
d="M144 -10q-51 0 -83 29.5t-32 89.5q0 33 12 93l57 271h87l-59 -279q-9 -40 -9 -66q0 -62 54 -62q56 0 100 48.5t60 119.5l51 239h86l-59 -281q-16 -78 -16 -120q0 -29 7 -62l-74 -16q-13 42 -12 92h-2q-30 -42 -75.5 -69t-92.5 -27z" />
    <glyph glyph-name="v" unicode="v" horiz-adv-x="441" 
d="M133 -3l-95 476h85l39 -228q16 -91 21 -133h2q36 74 63 128l120 233h92l-260 -476h-67z" />
    <glyph glyph-name="w" unicode="w" horiz-adv-x="674" 
d="M111 -3l-72 476h82l32 -227q10 -68 15 -129h2q18 45 50 112l118 244h62l28 -222q6 -48 14 -134h2q7 19 49 114l110 242h91l-236 -476h-68l-28 229q-10 80 -14 119h-2q-19 -45 -57 -122l-112 -226h-66z" />
    <glyph glyph-name="x" unicode="x" horiz-adv-x="449" 
d="M-50 0l211 242l-125 231h89l93 -173l147 173h95l-204 -237l128 -236h-91l-95 180l-154 -180h-94z" />
    <glyph glyph-name="y" unicode="y" horiz-adv-x="452" 
d="M-125 -219l31 68q27 -13 58 -13q49 0 91 35.5t87 127.5l-107 474h87l50 -241q6 -29 27 -135h2q31 68 57 123l123 253h90l-249 -489q-62 -123 -121.5 -172t-143.5 -49q-51 0 -82 18z" />
    <glyph glyph-name="z" unicode="z" horiz-adv-x="387" 
d="M-35 0l269 403h-189l-6 70h338l-271 -402h214l-14 -71h-341z" />
    <glyph glyph-name="braceleft" unicode="{" horiz-adv-x="346" 
d="M182 -225q-74 11 -108 42t-34 85q0 21 8 61l41 197q3 15 3 29q0 48 -54 51l14 66q45 2 66 28q11 14 16 41l47 227q14 68 45 103q49 56 157 65v-78q-65 -9 -93 -43q-18 -22 -27 -69l-41 -198q-10 -46 -25 -70q-21 -30 -69 -42v-2q51 -10 51 -67q0 -21 -7 -58l-36 -172
q-6 -24 -6 -46q0 -32 18 -49.5t59 -24.5z" />
    <glyph glyph-name="bar" unicode="|" horiz-adv-x="289" 
d="M103 -237v1017h84v-1017h-84z" />
    <glyph glyph-name="braceright" unicode="}" horiz-adv-x="346" 
d="M-63 -225v78q66 9 94 43q16 19 27 69l40 198q10 47 26 70q20 30 68 42v2q-50 10 -50 69q0 27 7 56l36 172q5 27 5 46q0 32 -18 49t-58 24l25 77q74 -11 107.5 -42t33.5 -85q0 -21 -8 -61l-41 -197q-3 -15 -3 -29q0 -48 54 -51l-14 -66q-46 -2 -65 -28q-12 -13 -17 -41
l-47 -227q-14 -68 -45 -103q-49 -56 -157 -65z" />
    <glyph glyph-name="asciitilde" unicode="~" horiz-adv-x="531" 
d="M66 207l-46 54q67 67 136 67q38 0 109.5 -30t100.5 -30q24 0 42.5 9.5t45.5 33.5l45 -54q-65 -66 -136 -66q-36 0 -108.5 29.5t-100.5 29.5q-25 0 -44 -9.5t-44 -33.5z" />
    <glyph glyph-name="exclamdown" unicode="&#xa1;" horiz-adv-x="279" 
d="M-11 -182l11 52q57 265 79 336q12 40 31 89h46q-4 -88 -15.5 -157.5t-52.5 -267.5l-11 -52h-88zM152 373q-21 0 -35 15t-14 36q0 25 17 42.5t42 17.5q21 0 34.5 -15t13.5 -36q0 -26 -16.5 -43t-41.5 -17z" />
    <glyph glyph-name="cent" unicode="&#xa2;" horiz-adv-x="524" 
d="M183 0l24 111q-56 17 -88.5 64t-32.5 116q0 108 60.5 181.5t152.5 87.5l21 99h70l-21 -97q52 -3 88 -21l-15 -69q-47 22 -97 22q-75 0 -123.5 -57t-48.5 -142q0 -57 29.5 -90t84.5 -33q56 0 111 32l18 -64q-62 -38 -141 -38l-22 -102h-70z" />
    <glyph glyph-name="sterling" unicode="&#xa3;" horiz-adv-x="529" 
d="M27 0l9 60q26 10 46.5 32.5t32.5 46t22.5 58.5t14 54.5t8.5 48.5h-75l11 73h74l12 79q10 71 34 112q56 101 181 101q59 0 112 -24l-30 -69q-36 18 -77 18q-77 0 -111 -70q-15 -28 -22 -77l-10 -70h178l-24 -73h-164q-29 -184 -99 -231v-2q50 6 108 6h173l-11 -73h-393z
" />
    <glyph glyph-name="currency" unicode="&#xa4;" horiz-adv-x="524" 
d="M69 78l-54 54l66 65q-43 61 -43 131q0 72 42 130l-66 65l54 54l66 -66q57 43 130 43t132 -43l64 65l54 -54l-65 -64q41 -58 41 -130t-43 -131l66 -64l-54 -55l-65 66q-58 -42 -130 -42q-71 0 -129 42zM264 169q65 0 109.5 46.5t44.5 112.5t-44.5 112.5t-109.5 46.5
q-64 0 -108.5 -46.5t-44.5 -112.5t44.5 -112.5t108.5 -46.5z" />
    <glyph glyph-name="yen" unicode="&#xa5;" horiz-adv-x="529" 
d="M152 0l25 120h-156l12 61h158l17 81h-160l12 61h131l-100 336h90l82 -309h2l189 309h96l-218 -336h132l-13 -61h-158l-17 -81h161l-13 -61h-161l-26 -120h-85z" />
    <glyph glyph-name="brokenbar" unicode="&#xa6;" horiz-adv-x="289" 
d="M103 -237v358h84v-358h-84zM103 423v357h84v-357h-84z" />
    <glyph glyph-name="section" unicode="&#xa7;" horiz-adv-x="546" 
d="M183 -165q-100 0 -171 47l37 68q64 -42 135 -42q56 0 94.5 25t38.5 77q0 36 -26.5 63.5t-64.5 46.5t-75.5 41t-64 59t-26.5 88q0 48 28 88.5t74 64.5q-35 37 -35 92q0 80 57.5 125t145.5 45q83 0 147 -33l-16 -74q-60 34 -129 34q-49 0 -83 -24t-34 -67q0 -35 27 -61
t65.5 -44.5t76.5 -40.5t65 -61t27 -93q0 -98 -99 -156q29 -35 29 -89q0 -88 -65 -133.5t-158 -45.5zM339 145q54 43 54 101q0 32 -19.5 58t-43.5 40.5t-64.5 37t-61.5 37.5q-61 -38 -61 -98q0 -40 28.5 -68t86 -58.5t81.5 -49.5z" />
    <glyph glyph-name="dieresis" unicode="&#xa8;" horiz-adv-x="368" 
d="M95 555q-19 0 -30.5 11.5t-11.5 30.5q0 25 15 41t37 16q19 0 31 -11.5t12 -30.5q0 -24 -15.5 -40.5t-37.5 -16.5zM275 555q-19 0 -30.5 11.5t-11.5 30.5q0 25 15 41t37 16q19 0 31 -11.5t12 -30.5q0 -24 -15.5 -40.5t-37.5 -16.5z" />
    <glyph glyph-name="dieresis" unicode="&#x308;" horiz-adv-x="368" 
d="M95 555q-19 0 -30.5 11.5t-11.5 30.5q0 25 15 41t37 16q19 0 31 -11.5t12 -30.5q0 -24 -15.5 -40.5t-37.5 -16.5zM275 555q-19 0 -30.5 11.5t-11.5 30.5q0 25 15 41t37 16q19 0 31 -11.5t12 -30.5q0 -24 -15.5 -40.5t-37.5 -16.5z" />
    <glyph glyph-name="copyright" unicode="&#xa9;" horiz-adv-x="777" 
d="M386 -10q-144 0 -238 96.5t-94 240.5t94 240.5t238 96.5q143 0 237 -97t94 -240t-94 -240t-237 -97zM386 39q118 0 196 81.5t78 206.5q0 124 -77.5 205.5t-196.5 81.5t-197 -81.5t-78 -205.5t78 -206t197 -82zM392 127q-83 0 -132 55t-49 140q0 87 51.5 146t137.5 59
q53 0 95 -23v-55q-43 25 -94 25q-59 0 -94.5 -41t-35.5 -106q0 -70 33.5 -109.5t91.5 -39.5q49 0 92 26l19 -45q-54 -32 -115 -32z" />
    <glyph glyph-name="ordfeminine" unicode="&#xaa;" horiz-adv-x="330" 
d="M90 263q-41 0 -65 25t-24 66q0 65 48 95.5t126 30.5h42q3 12 3 28q0 44 -56 44q-42 0 -99 -24l-13 55q60 28 122 28q53 0 84.5 -24.5t31.5 -74.5q0 -30 -12 -76l-8 -31q-12 -51 -12 -83q0 -18 7 -44l-59 -13q-9 26 -10 49h-1q-47 -51 -105 -51zM109 322q29 0 57.5 25.5
t36.5 62.5l4 16h-28q-110 0 -110 -63q0 -41 40 -41z" />
    <glyph glyph-name="guillemotleft" unicode="&#xab;" horiz-adv-x="540" 
d="M21 244l194 229l64 -46l-162 -187l109 -185l-69 -43zM240 244l194 229l64 -46l-162 -187l110 -185l-70 -43z" />
    <glyph glyph-name="logicalnot" unicode="&#xac;" horiz-adv-x="531" 
d="M6 238v74h473v-289h-82v215h-391z" />
    <glyph glyph-name="registered" unicode="&#xae;" horiz-adv-x="578" 
d="M313 180q-104 0 -171 69t-67 173t67.5 173.5t170.5 69.5q102 0 170.5 -70t68.5 -173t-68.5 -172.5t-170.5 -69.5zM313 220q85 0 139.5 58t54.5 144t-54.5 144t-139.5 58t-139.5 -58t-54.5 -144t54.5 -144t139.5 -58zM276 297h-41v260h69q27 0 46 -7q46 -15 46 -64
q0 -56 -62 -69v-1q18 -12 78 -119h-48q-53 95 -66 106q-3 2 -6 3h-16v-109zM276 439h18q57 0 57 44q0 27 -21 35q-12 5 -36 5h-18v-84z" />
    <glyph glyph-name="macron" unicode="&#xaf;" horiz-adv-x="368" 
d="M55 572l14 69h260l-15 -69h-259z" />
    <glyph glyph-name="macron" unicode="&#x304;" horiz-adv-x="368" 
d="M55 572l14 69h260l-15 -69h-259z" />
    <glyph glyph-name="macron" unicode="&#x2c9;" horiz-adv-x="368" 
d="M55 572l14 69h260l-15 -69h-259z" />
    <glyph glyph-name="degree" unicode="&#xb0;" horiz-adv-x="383" 
d="M223 353q-67 0 -110.5 43.5t-43.5 109.5t44 109.5t111 43.5q66 0 110 -43.5t44 -109.5t-44 -109.5t-111 -43.5zM224 412q37 0 62.5 26.5t25.5 67.5q0 40 -25.5 66.5t-62.5 26.5q-38 0 -63.5 -26.5t-25.5 -66.5q0 -41 25.5 -67.5t63.5 -26.5z" />
    <glyph glyph-name="plusminus" unicode="&#xb1;" horiz-adv-x="531" 
d="M9 0v74h473v-74h-473zM204 128v152h-195v74h195v152h83v-152h195v-74h-195v-152h-83z" />
    <glyph glyph-name="twosuperior" unicode="&#xb2;" horiz-adv-x="335" 
d="M50 404q6 47 26 85t45 60t53 42t51 33t38 30t15 37q0 41 -53 41q-47 0 -101 -29l-19 57q67 35 131 35q56 0 87 -27t31 -70q0 -34 -18.5 -61t-46 -46t-55.5 -36.5t-52.5 -40t-32.5 -47.5h176l-10 -63h-265z" />
    <glyph glyph-name="threesuperior" unicode="&#xb3;" horiz-adv-x="343" 
d="M58 419l24 56q41 -18 89 -18q42 0 66 16.5t24 46.5q0 51 -85 51h-50l9 56h40q49 1 75 18.5t26 45.5q0 42 -57 42q-42 0 -89 -20l-18 55q62 27 121 27q57 0 88 -25.5t31 -66.5q0 -38 -23.5 -64t-59.5 -37v-2q30 -6 48.5 -26.5t18.5 -52.5q0 -57 -43.5 -90.5t-122.5 -33.5
q-68 0 -112 22z" />
    <glyph glyph-name="acute" unicode="&#xb4;" horiz-adv-x="368" 
d="M134 531l76 147h100l-109 -147h-67z" />
    <glyph glyph-name="acute" unicode="&#x301;" horiz-adv-x="368" 
d="M134 531l76 147h100l-109 -147h-67z" />
    <glyph glyph-name="mu" unicode="&#xb5;" horiz-adv-x="536" 
d="M-49 -237l152 710h87l-59 -274q-9 -44 -9 -64q0 -35 18 -52t46 -17q51 0 94 43t61 126l51 238h87l-73 -340q-5 -27 -5 -37q0 -24 25 -24q13 0 31 5v-73q-27 -10 -57 -10q-32 0 -51.5 17.5t-20.5 48.5q0 15 1 22h-2q-61 -92 -154 -92q-57 0 -80 44h-2q-7 -62 -22 -126
l-31 -145h-87z" />
    <glyph glyph-name="mu" unicode="&#x3bc;" horiz-adv-x="536" 
d="M-49 -237l152 710h87l-59 -274q-9 -44 -9 -64q0 -35 18 -52t46 -17q51 0 94 43t61 126l51 238h87l-73 -340q-5 -27 -5 -37q0 -24 25 -24q13 0 31 5v-73q-27 -10 -57 -10q-32 0 -51.5 17.5t-20.5 48.5q0 15 1 22h-2q-61 -92 -154 -92q-57 0 -80 44h-2q-7 -62 -22 -126
l-31 -145h-87z" />
    <glyph glyph-name="paragraph" unicode="&#xb6;" horiz-adv-x="592" 
d="M131 -160l80 387q-68 3 -108 50t-40 122q0 114 77.5 187t206.5 73h174l-169 -819h-53l159 770h-115l-159 -770h-53z" />
    <glyph glyph-name="periodcentered" unicode="&#xb7;" horiz-adv-x="235" 
d="M95 198q-21 0 -34.5 14.5t-13.5 35.5q0 26 16.5 43.5t41.5 17.5q21 0 34.5 -15t13.5 -36q0 -26 -16.5 -43t-41.5 -17z" />
    <glyph glyph-name="periodcentered" unicode="&#x2219;" horiz-adv-x="235" 
d="M95 198q-21 0 -34.5 14.5t-13.5 35.5q0 26 16.5 43.5t41.5 17.5q21 0 34.5 -15t13.5 -36q0 -26 -16.5 -43t-41.5 -17z" />
    <glyph glyph-name="cedilla" unicode="&#xb8;" horiz-adv-x="368" 
d="M81 -198l21 45q19 -10 47 -10q60 0 60 41q0 35 -78 32l43 90h66l-25 -53q33 -2 52 -19.5t19 -45.5q0 -45 -36.5 -69.5t-94.5 -24.5q-42 0 -74 14z" />
    <glyph glyph-name="cedilla" unicode="&#x327;" horiz-adv-x="368" 
d="M81 -198l21 45q19 -10 47 -10q60 0 60 41q0 35 -78 32l43 90h66l-25 -53q33 -2 52 -19.5t19 -45.5q0 -45 -36.5 -69.5t-94.5 -24.5q-42 0 -74 14z" />
    <glyph glyph-name="onesuperior" unicode="&#xb9;" horiz-adv-x="307" 
d="M146 404l66 308q-47 -24 -117 -39v63q70 15 144 57h63l-83 -389h-73z" />
    <glyph glyph-name="ordmasculine" unicode="&#xba;" horiz-adv-x="357" 
d="M144 263q-61 0 -95.5 36t-34.5 93q0 94 53 156.5t129 62.5q61 0 95.5 -36.5t34.5 -94.5q0 -93 -53 -155t-129 -62zM146 324q49 0 79.5 46t30.5 105q0 75 -63 75q-48 0 -79 -46t-31 -104q0 -76 63 -76z" />
    <glyph glyph-name="guillemotright" unicode="&#xbb;" horiz-adv-x="540" 
d="M72 12l-64 46l161 188l-108 184l69 43l136 -233zM292 12l-64 46l162 188l-109 184l70 43l136 -233z" />
    <glyph glyph-name="onequarter" unicode="&#xbc;" horiz-adv-x="919" 
d="M171 269l66 308q-47 -24 -117 -39v63q70 15 144 57h63l-83 -389h-73zM158 0l490 659h77l-490 -659h-77zM629 0l17 86h-162l-11 50l238 253h72l-53 -246h54l-12 -57h-55l-18 -86h-70zM658 142l9 38q12 56 27 110l-139 -149z" />
    <glyph glyph-name="onehalf" unicode="&#xbd;" horiz-adv-x="919" 
d="M166 269l66 308q-47 -24 -117 -39v63q70 15 144 57h63l-83 -389h-73zM139 0l490 659h77l-490 -659h-77zM519 0q6 47 26 85t45 60t53 42t51 33t38 30t15 37q0 41 -53 41q-47 0 -101 -29l-19 57q67 35 131 35q56 0 87 -27t31 -70q0 -34 -18.5 -61t-46 -46t-55.5 -36.5
t-52.5 -40t-32.5 -47.5h176l-10 -63h-265z" />
    <glyph glyph-name="threequarters" unicode="&#xbe;" horiz-adv-x="919" 
d="M61 284l24 56q40 -18 89 -18q42 0 66 16.5t24 46.5q0 51 -85 51h-50l9 56h40q49 1 75 18.5t26 45.5q0 42 -57 42q-42 0 -89 -20l-18 55q62 27 121 27q57 0 88 -25.5t31 -66.5q0 -38 -23.5 -64t-59.5 -37v-2q30 -6 48.5 -26.5t18.5 -52.5q0 -57 -43.5 -90.5t-122.5 -33.5
q-68 0 -112 22zM184 0l490 659h77l-490 -659h-77zM652 0l17 86h-162l-11 50l238 253h72l-53 -246h54l-12 -57h-55l-18 -86h-70zM681 142l9 38q12 56 27 110l-139 -149z" />
    <glyph glyph-name="questiondown" unicode="&#xbf;" horiz-adv-x="451" 
d="M150 -188q-66 0 -110 34.5t-44 95.5q0 49 29 92q18 26 54 57.5t66.5 56t59 63.5t39.5 84h57q-2 -46 -18.5 -85t-40.5 -64.5t-51.5 -51t-51 -44.5t-39 -44t-15.5 -51q0 -34 21.5 -51t57.5 -17q65 0 134 48l32 -62q-82 -61 -180 -61zM284 374q-21 0 -34.5 14.5t-13.5 35.5
q0 26 17 43t41 17q21 0 35 -14.5t14 -35.5q0 -26 -17 -43t-42 -17z" />
    <glyph glyph-name="Agrave" unicode="&#xc0;" horiz-adv-x="580" 
d="M-44 0l350 662h70l121 -662h-93l-30 173h-232l-88 -173h-98zM182 246h180l-30 195q-8 54 -13 87h-2q-33 -76 -41 -92zM322 696l-81 147h100l50 -147h-69z" />
    <glyph glyph-name="Aacute" unicode="&#xc1;" horiz-adv-x="580" 
d="M-44 0l350 662h70l121 -662h-93l-30 173h-232l-88 -173h-98zM182 246h180l-30 195q-8 54 -13 87h-2q-33 -76 -41 -92zM294 696l76 147h100l-109 -147h-67z" />
    <glyph glyph-name="Acircumflex" unicode="&#xc2;" horiz-adv-x="580" 
d="M-44 0l350 662h70l121 -662h-93l-30 173h-232l-88 -173h-98zM182 246h180l-30 195q-8 54 -13 87h-2q-33 -76 -41 -92zM206 696l119 147h74l82 -147h-71l-52 94l-77 -94h-75z" />
    <glyph glyph-name="Atilde" unicode="&#xc3;" horiz-adv-x="580" 
d="M-44 0l350 662h70l121 -662h-93l-30 173h-232l-88 -173h-98zM182 246h180l-30 195q-8 54 -13 87h-2q-33 -76 -41 -92zM199 724q4 53 29 79.5t60 26.5q30 0 68 -23.5t53 -23.5q27 0 34 41h62q-4 -53 -28.5 -79.5t-59.5 -26.5q-30 0 -68.5 23.5t-53.5 23.5q-27 0 -33 -41
h-63z" />
    <glyph glyph-name="Adieresis" unicode="&#xc4;" horiz-adv-x="580" 
d="M-44 0l350 662h70l121 -662h-93l-30 173h-232l-88 -173h-98zM182 246h180l-30 195q-8 54 -13 87h-2q-33 -76 -41 -92zM256 704q-19 0 -31 11.5t-12 30.5q0 24 15.5 40t37.5 16q19 0 30.5 -11t11.5 -30q0 -25 -15 -41t-37 -16zM436 704q-19 0 -30.5 11.5t-11.5 30.5
q0 24 15 40t37 16q19 0 30.5 -11t11.5 -30q0 -25 -15 -41t-37 -16z" />
    <glyph glyph-name="Aring" unicode="&#xc5;" horiz-adv-x="580" 
d="M-44 0l346 656q-58 17 -58 77q0 49 33.5 78.5t84.5 29.5q43 0 70 -22.5t27 -61.5t-23 -66t-59 -36l120 -655h-93l-30 173h-232l-88 -173h-98zM182 246h180l-30 195q-8 54 -13 87h-2q-33 -76 -41 -92zM345 694q24 0 38.5 17.5t14.5 43.5q0 19 -10.5 30.5t-29.5 11.5
q-24 0 -38.5 -17.5t-14.5 -43.5q0 -19 11 -30.5t29 -11.5z" />
    <glyph glyph-name="AE" unicode="&#xc6;" horiz-adv-x="785" 
d="M-66 0l470 659h340l-22 -73h-215l-29 -212h212l-11 -73h-210l-31 -228h242l-11 -73h-328l23 173h-207l-122 -173h-101zM210 246h164l42 297h-2q-70 -106 -84 -125z" />
    <glyph glyph-name="Ccedilla" unicode="&#xc7;" horiz-adv-x="594" 
d="M167 -198l21 45q19 -10 47 -10q26 0 42.5 10.5t16.5 30.5q0 36 -77 32l40 86q-98 18 -155 87t-57 179q0 173 109 288t273 115q91 0 164 -35l-18 -76q-65 35 -144 35q-128 0 -209 -92.5t-81 -224.5q0 -93 49.5 -149.5t139.5 -56.5q82 0 163 41l18 -73q-83 -42 -189 -44
l-19 -43q33 -2 51.5 -19.5t18.5 -45.5q0 -45 -36.5 -69.5t-93.5 -24.5q-42 0 -74 14z" />
    <glyph glyph-name="Egrave" unicode="&#xc8;" 
d="M10 0l140 659h317l-27 -73h-218l-44 -212h213l-16 -73h-213l-48 -228h243l-16 -73h-331zM290 696l-81 147h100l50 -147h-69z" />
    <glyph glyph-name="Eacute" unicode="&#xc9;" 
d="M10 0l140 659h317l-27 -73h-218l-44 -212h213l-16 -73h-213l-48 -228h243l-16 -73h-331zM265 696l76 147h100l-109 -147h-67z" />
    <glyph glyph-name="Ecircumflex" unicode="&#xca;" 
d="M10 0l140 659h317l-27 -73h-218l-44 -212h213l-16 -73h-213l-48 -228h243l-16 -73h-331zM173 696l119 147h74l82 -147h-71l-52 94l-77 -94h-75z" />
    <glyph glyph-name="Edieresis" unicode="&#xcb;" 
d="M10 0l140 659h317l-27 -73h-218l-44 -212h213l-16 -73h-213l-48 -228h243l-16 -73h-331zM223 704q-19 0 -31 11.5t-12 30.5q0 24 15.5 40t37.5 16q19 0 30.5 -11t11.5 -30q0 -25 -15 -41t-37 -16zM403 704q-19 0 -30.5 11.5t-11.5 30.5q0 24 15 40t37 16q19 0 30.5 -11
t11.5 -30q0 -25 -15 -41t-37 -16z" />
    <glyph glyph-name="Igrave" unicode="&#xcc;" horiz-adv-x="248" 
d="M10 0l140 659h88l-140 -659h-88zM181 696l-81 147h100l50 -147h-69z" />
    <glyph glyph-name="Iacute" unicode="&#xcd;" horiz-adv-x="248" 
d="M10 0l140 659h88l-140 -659h-88zM156 696l76 147h100l-109 -147h-67z" />
    <glyph glyph-name="Icircumflex" unicode="&#xce;" horiz-adv-x="248" 
d="M10 0l140 659h88l-140 -659h-88zM63 696l119 147h74l82 -147h-71l-52 94l-77 -94h-75z" />
    <glyph glyph-name="Idieresis" unicode="&#xcf;" horiz-adv-x="248" 
d="M10 0l140 659h88l-140 -659h-88zM114 704q-19 0 -31 11.5t-12 30.5q0 24 15.5 40t37.5 16q19 0 30.5 -11t11.5 -30q0 -25 -15 -41t-37 -16zM294 704q-19 0 -30.5 11.5t-11.5 30.5q0 24 15 40t37 16q19 0 30.5 -11t11.5 -30q0 -25 -15 -41t-37 -16z" />
    <glyph glyph-name="Eth" unicode="&#xd0;" horiz-adv-x="641" 
d="M10 0l62 295h-78l16 73h78l62 291h116q113 0 186 -33q143 -63 143 -241q0 -117 -59 -211.5t-165 -138.5q-85 -35 -201 -35h-160zM114 73h64q91 0 155 29q81 36 125 112t44 177q0 127 -101 172q-54 23 -137 23h-42l-46 -218h159l-15 -73h-160z" />
    <glyph glyph-name="Ntilde" unicode="&#xd1;" horiz-adv-x="701" 
d="M10 0l140 659h83l262 -514h2q6 37 19 97l88 417h88l-141 -659h-72l-270 525h-2q-5 -40 -16 -90l-93 -435h-88zM283 724q4 53 29 79.5t60 26.5q30 0 68 -23.5t53 -23.5q27 0 34 41h62q-4 -53 -28.5 -79.5t-59.5 -26.5q-30 0 -68.5 23.5t-53.5 23.5q-27 0 -33 -41h-63z" />
    <glyph glyph-name="Ograve" unicode="&#xd2;" horiz-adv-x="718" 
d="M312 -10q-123 0 -195 71t-72 201q0 164 100.5 283.5t260.5 119.5q124 0 195.5 -70t71.5 -201q0 -106 -43.5 -197.5t-127 -149t-190.5 -57.5zM318 66q79 0 140.5 49t91.5 121.5t30 152.5q0 96 -45.5 148t-133.5 52q-79 0 -140.5 -48.5t-92 -121t-30.5 -152.5
q0 -95 46 -148t134 -53zM400 696l-81 147h100l50 -147h-69z" />
    <glyph glyph-name="Oacute" unicode="&#xd3;" horiz-adv-x="718" 
d="M312 -10q-123 0 -195 71t-72 201q0 164 100.5 283.5t260.5 119.5q124 0 195.5 -70t71.5 -201q0 -106 -43.5 -197.5t-127 -149t-190.5 -57.5zM318 66q79 0 140.5 49t91.5 121.5t30 152.5q0 96 -45.5 148t-133.5 52q-79 0 -140.5 -48.5t-92 -121t-30.5 -152.5
q0 -95 46 -148t134 -53zM379 696l76 147h100l-109 -147h-67z" />
    <glyph glyph-name="Ocircumflex" unicode="&#xd4;" horiz-adv-x="718" 
d="M312 -10q-123 0 -195 71t-72 201q0 164 100.5 283.5t260.5 119.5q124 0 195.5 -70t71.5 -201q0 -106 -43.5 -197.5t-127 -149t-190.5 -57.5zM318 66q79 0 140.5 49t91.5 121.5t30 152.5q0 96 -45.5 148t-133.5 52q-79 0 -140.5 -48.5t-92 -121t-30.5 -152.5
q0 -95 46 -148t134 -53zM288 696l119 147h74l82 -147h-71l-52 94l-77 -94h-75z" />
    <glyph glyph-name="Otilde" unicode="&#xd5;" horiz-adv-x="718" 
d="M312 -10q-123 0 -195 71t-72 201q0 164 100.5 283.5t260.5 119.5q124 0 195.5 -70t71.5 -201q0 -106 -43.5 -197.5t-127 -149t-190.5 -57.5zM318 66q79 0 140.5 49t91.5 121.5t30 152.5q0 96 -45.5 148t-133.5 52q-79 0 -140.5 -48.5t-92 -121t-30.5 -152.5
q0 -95 46 -148t134 -53zM280 724q4 53 29 79.5t60 26.5q30 0 68 -23.5t53 -23.5q27 0 34 41h62q-4 -53 -28.5 -79.5t-59.5 -26.5q-30 0 -68.5 23.5t-53.5 23.5q-27 0 -33 -41h-63z" />
    <glyph glyph-name="Odieresis" unicode="&#xd6;" horiz-adv-x="718" 
d="M312 -10q-123 0 -195 71t-72 201q0 164 100.5 283.5t260.5 119.5q124 0 195.5 -70t71.5 -201q0 -106 -43.5 -197.5t-127 -149t-190.5 -57.5zM318 66q79 0 140.5 49t91.5 121.5t30 152.5q0 96 -45.5 148t-133.5 52q-79 0 -140.5 -48.5t-92 -121t-30.5 -152.5
q0 -95 46 -148t134 -53zM334 704q-19 0 -31 11.5t-12 30.5q0 24 15.5 40t37.5 16q19 0 30.5 -11t11.5 -30q0 -25 -15 -41t-37 -16zM514 704q-19 0 -30.5 11.5t-11.5 30.5q0 24 15 40t37 16q19 0 30.5 -11t11.5 -30q0 -25 -15 -41t-37 -16z" />
    <glyph glyph-name="multiply" unicode="&#xd7;" horiz-adv-x="554" 
d="M77 13l-54 55l183 184l-183 182l54 55l184 -183l183 183l53 -55l-182 -182l182 -184l-54 -54l-182 183z" />
    <glyph glyph-name="Oslash" unicode="&#xd8;" horiz-adv-x="719" 
d="M94 -25l-54 46l58 66q-53 73 -53 184q0 163 99.5 278.5t260.5 115.5q98 0 163 -50l60 66l54 -45l-61 -68q53 -72 53 -183q0 -163 -99.5 -279t-260.5 -116q-98 0 -163 50zM206 105q42 -39 116 -39q116 0 187 96t71 224q0 61 -22 108zM139 271q0 -66 22 -111l352 391
q-43 38 -114 38q-117 0 -188.5 -95.5t-71.5 -222.5z" />
    <glyph glyph-name="Ugrave" unicode="&#xd9;" horiz-adv-x="651" 
d="M269 -10q-100 0 -156 50.5t-56 141.5q0 34 10 81l84 396h88l-83 -388q-10 -47 -10 -77q0 -64 35.5 -96.5t98.5 -32.5q84 0 129 47q39 40 56 120l91 427h88l-92 -436q-24 -112 -81 -166q-71 -67 -202 -67zM371 696l-81 147h100l50 -147h-69z" />
    <glyph glyph-name="Uacute" unicode="&#xda;" horiz-adv-x="651" 
d="M269 -10q-100 0 -156 50.5t-56 141.5q0 34 10 81l84 396h88l-83 -388q-10 -47 -10 -77q0 -64 35.5 -96.5t98.5 -32.5q84 0 129 47q39 40 56 120l91 427h88l-92 -436q-24 -112 -81 -166q-71 -67 -202 -67zM362 696l76 147h100l-109 -147h-67z" />
    <glyph glyph-name="Ucircumflex" unicode="&#xdb;" horiz-adv-x="651" 
d="M269 -10q-100 0 -156 50.5t-56 141.5q0 34 10 81l84 396h88l-83 -388q-10 -47 -10 -77q0 -64 35.5 -96.5t98.5 -32.5q84 0 129 47q39 40 56 120l91 427h88l-92 -436q-24 -112 -81 -166q-71 -67 -202 -67zM266 696l119 147h74l82 -147h-71l-52 94l-77 -94h-75z" />
    <glyph glyph-name="Udieresis" unicode="&#xdc;" horiz-adv-x="651" 
d="M269 -10q-100 0 -156 50.5t-56 141.5q0 34 10 81l84 396h88l-83 -388q-10 -47 -10 -77q0 -64 35.5 -96.5t98.5 -32.5q84 0 129 47q39 40 56 120l91 427h88l-92 -436q-24 -112 -81 -166q-71 -67 -202 -67zM317 704q-19 0 -31 11.5t-12 30.5q0 24 15.5 40t37.5 16
q19 0 30.5 -11t11.5 -30q0 -25 -15 -41t-37 -16zM497 704q-19 0 -30.5 11.5t-11.5 30.5q0 24 15 40t37 16q19 0 30.5 -11t11.5 -30q0 -25 -15 -41t-37 -16z" />
    <glyph glyph-name="Yacute" unicode="&#xdd;" horiz-adv-x="515" 
d="M163 0l54 255l-145 404h92l107 -318h2l205 318h99l-272 -407l-54 -252h-88zM285 696l76 147h100l-109 -147h-67z" />
    <glyph glyph-name="Thorn" unicode="&#xde;" horiz-adv-x="511" 
d="M10 0l140 659h88l-23 -111h13q66 0 107 -16q57 -20 88 -64t31 -106q0 -78 -44 -136.5t-124 -82.5q-53 -16 -125 -16h-36l-27 -127h-88zM141 200h33q54 0 86 13q50 16 77 55t27 92q0 79 -68 104q-30 11 -71 11h-26z" />
    <glyph glyph-name="germandbls" unicode="&#xdf;" horiz-adv-x="575" 
d="M-16 -141l140 656q16 72 50 116q60 77 171 77q83 0 135 -43t52 -125q0 -35 -9 -74q-71 -3 -110.5 -28.5t-39.5 -70.5q0 -29 19.5 -56t43 -46.5t43 -54t19.5 -75.5q0 -68 -48.5 -106.5t-123.5 -38.5q-81 0 -141 38l29 66q56 -32 108 -32q37 0 62.5 18.5t25.5 53.5
q0 28 -19.5 55t-43 46.5t-43 52.5t-19.5 72q0 63 42.5 104t116.5 49q2 6 2 25q0 47 -27 70.5t-72 23.5q-111 0 -139 -132l-136 -641h-88z" />
    <glyph glyph-name="agrave" unicode="&#xe0;" 
d="M127 -10q-57 0 -91.5 35t-34.5 90q0 80 56 126q63 52 191 52l66 1q6 22 6 49q0 72 -87 72q-63 0 -140 -36l-12 67q83 39 166 39q68 0 114 -31.5t46 -105.5q0 -36 -17 -113l-10 -43q-17 -77 -17 -122q0 -31 8 -60l-75 -16q-13 41 -13 81q-67 -85 -156 -85zM150 62
q47 0 90.5 38.5t55.5 95.5l7 34h-37q-106 0 -146 -33q-33 -25 -33 -70q0 -65 63 -65zM243 531l-81 147h100l49 -147h-68z" />
    <glyph glyph-name="aacute" unicode="&#xe1;" 
d="M127 -10q-57 0 -91.5 35t-34.5 90q0 80 56 126q63 52 191 52l66 1q6 22 6 49q0 72 -87 72q-63 0 -140 -36l-12 67q83 39 166 39q68 0 114 -31.5t46 -105.5q0 -36 -17 -113l-10 -43q-17 -77 -17 -122q0 -31 8 -60l-75 -16q-13 41 -13 81q-67 -85 -156 -85zM150 62
q47 0 90.5 38.5t55.5 95.5l7 34h-37q-106 0 -146 -33q-33 -25 -33 -70q0 -65 63 -65zM218 531l76 147h100l-109 -147h-67z" />
    <glyph glyph-name="acircumflex" unicode="&#xe2;" 
d="M127 -10q-57 0 -91.5 35t-34.5 90q0 80 56 126q63 52 191 52l66 1q6 22 6 49q0 72 -87 72q-63 0 -140 -36l-12 67q83 39 166 39q68 0 114 -31.5t46 -105.5q0 -36 -17 -113l-10 -43q-17 -77 -17 -122q0 -31 8 -60l-75 -16q-13 41 -13 81q-67 -85 -156 -85zM150 62
q47 0 90.5 38.5t55.5 95.5l7 34h-37q-106 0 -146 -33q-33 -25 -33 -70q0 -65 63 -65zM123 531l119 147h74l82 -147h-71l-52 94l-77 -94h-75z" />
    <glyph glyph-name="atilde" unicode="&#xe3;" 
d="M127 -10q-57 0 -91.5 35t-34.5 90q0 80 56 126q63 52 191 52l66 1q6 22 6 49q0 72 -87 72q-63 0 -140 -36l-12 67q83 39 166 39q68 0 114 -31.5t46 -105.5q0 -36 -17 -113l-10 -43q-17 -77 -17 -122q0 -31 8 -60l-75 -16q-13 41 -13 81q-67 -85 -156 -85zM150 62
q47 0 90.5 38.5t55.5 95.5l7 34h-37q-106 0 -146 -33q-33 -25 -33 -70q0 -65 63 -65zM117 552q4 53 29 79.5t60 26.5q30 0 68 -23.5t53 -23.5q28 0 34 41h62q-4 -53 -28.5 -79.5t-59.5 -26.5q-30 0 -68.5 23.5t-53.5 23.5q-27 0 -33 -41h-63z" />
    <glyph glyph-name="adieresis" unicode="&#xe4;" 
d="M127 -10q-57 0 -91.5 35t-34.5 90q0 80 56 126q63 52 191 52l66 1q6 22 6 49q0 72 -87 72q-63 0 -140 -36l-12 67q83 39 166 39q68 0 114 -31.5t46 -105.5q0 -36 -17 -113l-10 -43q-17 -77 -17 -122q0 -31 8 -60l-75 -16q-13 41 -13 81q-67 -85 -156 -85zM150 62
q47 0 90.5 38.5t55.5 95.5l7 34h-37q-106 0 -146 -33q-33 -25 -33 -70q0 -65 63 -65zM179 555q-19 0 -30.5 11.5t-11.5 30.5q0 25 15 41t37 16q19 0 31 -11.5t12 -30.5q0 -24 -15.5 -40.5t-37.5 -16.5zM359 555q-19 0 -30.5 11.5t-11.5 30.5q0 25 15 41t37 16q19 0 31 -11.5
t12 -30.5q0 -24 -15.5 -40.5t-37.5 -16.5z" />
    <glyph glyph-name="aring" unicode="&#xe5;" 
d="M127 -10q-57 0 -91.5 35t-34.5 90q0 80 56 126q63 52 191 52l66 1q6 22 6 49q0 72 -87 72q-63 0 -140 -36l-12 67q83 39 166 39q68 0 114 -31.5t46 -105.5q0 -36 -17 -113l-10 -43q-17 -77 -17 -122q0 -31 8 -60l-75 -16q-13 41 -13 81q-67 -85 -156 -85zM150 62
q47 0 90.5 38.5t55.5 95.5l7 34h-37q-106 0 -146 -33q-33 -25 -33 -70q0 -65 63 -65zM270 523q-44 0 -70.5 23t-26.5 61q0 48 33.5 78t83.5 30q44 0 71 -22.5t27 -61.5q0 -48 -34 -78t-84 -30zM274 567q24 0 38.5 17.5t14.5 43.5q0 20 -11 31.5t-30 11.5q-23 0 -38 -17.5
t-15 -43.5q0 -20 11 -31.5t30 -11.5z" />
    <glyph glyph-name="ae" unicode="&#xe6;" horiz-adv-x="749" 
d="M134 -10q-60 0 -96.5 35.5t-36.5 94.5q0 81 66 122.5t183 42.5l63 1q6 32 6 55q0 38 -20.5 56t-66.5 18q-62 0 -139 -36l-12 67q83 39 162 39q114 0 140 -80h2q62 80 163 80q77 0 117.5 -42.5t40.5 -112.5q0 -60 -20 -105l-298 -4q-2 -18 -2 -27q0 -62 32.5 -97t86.5 -35
q60 0 128 36l25 -64q-72 -44 -159 -44q-64 0 -108.5 30.5t-60.5 85.5h-2q-33 -56 -84.5 -86t-109.5 -30zM150 62q49 0 92 37t56 101l4 20h-49q-166 -3 -166 -93q0 -65 63 -65zM399 287l214 2q8 21 8 44q0 35 -19.5 58.5t-63.5 23.5q-48 0 -87.5 -37.5t-51.5 -90.5z" />
    <glyph glyph-name="ccedilla" unicode="&#xe7;" horiz-adv-x="438" 
d="M72 -198l21 45q19 -10 47 -10q26 0 43 10.5t17 30.5q0 36 -78 32l41 87q-65 15 -103 66.5t-38 125.5q0 126 77 211t196 85q65 0 120 -24l-17 -73q-50 24 -102 24q-77 0 -131.5 -61t-54.5 -153q0 -63 31 -99t90 -36q60 0 120 35l23 -63q-60 -42 -148 -45l-20 -43
q33 -2 52 -19.5t19 -45.5q0 -45 -36.5 -69.5t-94.5 -24.5q-42 0 -74 14z" />
    <glyph glyph-name="egrave" unicode="&#xe8;" 
d="M218 -10q-89 0 -142.5 54t-53.5 148q0 125 70.5 209t177.5 84q76 0 117 -42.5t41 -112.5q0 -50 -21 -110l-298 -4q-1 -8 -1 -24q0 -61 32.5 -95.5t85.5 -34.5q59 0 129 36l24 -64q-72 -44 -161 -44zM120 281l214 3q8 27 8 49q0 35 -19 58.5t-62 23.5q-50 0 -89.5 -39
t-51.5 -95zM255 531l-81 147h100l49 -147h-68z" />
    <glyph glyph-name="eacute" unicode="&#xe9;" 
d="M218 -10q-89 0 -142.5 54t-53.5 148q0 125 70.5 209t177.5 84q76 0 117 -42.5t41 -112.5q0 -50 -21 -110l-298 -4q-1 -8 -1 -24q0 -61 32.5 -95.5t85.5 -34.5q59 0 129 36l24 -64q-72 -44 -161 -44zM120 281l214 3q8 27 8 49q0 35 -19 58.5t-62 23.5q-50 0 -89.5 -39
t-51.5 -95zM240 531l76 147h100l-109 -147h-67z" />
    <glyph glyph-name="ecircumflex" unicode="&#xea;" 
d="M218 -10q-89 0 -142.5 54t-53.5 148q0 125 70.5 209t177.5 84q76 0 117 -42.5t41 -112.5q0 -50 -21 -110l-298 -4q-1 -8 -1 -24q0 -61 32.5 -95.5t85.5 -34.5q59 0 129 36l24 -64q-72 -44 -161 -44zM120 281l214 3q8 27 8 49q0 35 -19 58.5t-62 23.5q-50 0 -89.5 -39
t-51.5 -95zM141 531l119 147h74l82 -147h-71l-52 94l-77 -94h-75z" />
    <glyph glyph-name="edieresis" unicode="&#xeb;" 
d="M218 -10q-89 0 -142.5 54t-53.5 148q0 125 70.5 209t177.5 84q76 0 117 -42.5t41 -112.5q0 -50 -21 -110l-298 -4q-1 -8 -1 -24q0 -61 32.5 -95.5t85.5 -34.5q59 0 129 36l24 -64q-72 -44 -161 -44zM120 281l214 3q8 27 8 49q0 35 -19 58.5t-62 23.5q-50 0 -89.5 -39
t-51.5 -95zM191 555q-19 0 -30.5 11.5t-11.5 30.5q0 25 15 41t37 16q19 0 31 -11.5t12 -30.5q0 -24 -15.5 -40.5t-37.5 -16.5zM371 555q-19 0 -30.5 11.5t-11.5 30.5q0 25 15 41t37 16q19 0 31 -11.5t12 -30.5q0 -24 -15.5 -40.5t-37.5 -16.5z" />
    <glyph glyph-name="igrave" unicode="&#xec;" horiz-adv-x="223" 
d="M1 0l101 473h86l-101 -473h-86zM135 531l-81 147h100l49 -147h-68z" />
    <glyph glyph-name="iacute" unicode="&#xed;" horiz-adv-x="223" 
d="M1 0l101 473h86l-101 -473h-86zM110 531l76 147h100l-109 -147h-67z" />
    <glyph glyph-name="icircumflex" unicode="&#xee;" horiz-adv-x="223" 
d="M1 0l101 473h86l-101 -473h-86zM16 531l119 147h74l82 -147h-71l-52 94l-77 -94h-75z" />
    <glyph glyph-name="idieresis" unicode="&#xef;" horiz-adv-x="223" 
d="M1 0l101 473h86l-101 -473h-86zM69 555q-19 0 -30.5 11.5t-11.5 30.5q0 25 15 41t37 16q19 0 31 -11.5t12 -30.5q0 -24 -15.5 -40.5t-37.5 -16.5zM249 555q-19 0 -30.5 11.5t-11.5 30.5q0 25 15 41t37 16q19 0 31 -11.5t12 -30.5q0 -24 -15.5 -40.5t-37.5 -16.5z" />
    <glyph glyph-name="eth" unicode="&#xf0;" horiz-adv-x="509" 
d="M199 -10q-87 0 -134 54.5t-47 138.5q0 129 72.5 213.5t170.5 84.5q85 0 128 -63h3q-10 110 -95 167l-124 -60l-21 44l90 43q-58 22 -134 25l16 71q123 -6 203 -55l111 55l21 -44l-90 -44q94 -88 94 -268q0 -176 -75.5 -269t-188.5 -93zM206 63q71 0 117.5 65t46.5 156
q0 60 -26.5 92t-72.5 32q-72 0 -118 -65t-46 -157q0 -123 99 -123z" />
    <glyph glyph-name="ntilde" unicode="&#xf1;" horiz-adv-x="500" 
d="M0 0l101 473h70l-12 -94h2q31 46 78.5 76t98.5 30q50 0 79.5 -29t29.5 -87q0 -36 -12 -92l-59 -277h-87l59 274q10 50 10 74q0 59 -53 59q-28 0 -61 -18.5t-60 -54.5q-36 -47 -55 -133l-42 -201h-87zM148 552q4 53 29 79.5t60 26.5q30 0 68 -23.5t53 -23.5q28 0 34 41h62
q-4 -53 -28.5 -79.5t-59.5 -26.5q-30 0 -68.5 23.5t-53.5 23.5q-27 0 -33 -41h-63z" />
    <glyph glyph-name="ograve" unicode="&#xf2;" horiz-adv-x="509" 
d="M22 182q0 129 75 216t181 87q89 0 136.5 -54t47.5 -136q0 -132 -75 -218.5t-181 -86.5q-90 0 -137 54t-47 138zM110 185q0 -122 99 -122q71 0 117.5 67.5t46.5 161.5q0 120 -98 120q-71 0 -118 -67.5t-47 -159.5zM265 531l-81 147h100l49 -147h-68z" />
    <glyph glyph-name="oacute" unicode="&#xf3;" horiz-adv-x="509" 
d="M22 182q0 129 75 216t181 87q89 0 136.5 -54t47.5 -136q0 -132 -75 -218.5t-181 -86.5q-90 0 -137 54t-47 138zM110 185q0 -122 99 -122q71 0 117.5 67.5t46.5 161.5q0 120 -98 120q-71 0 -118 -67.5t-47 -159.5zM253 531l76 147h100l-109 -147h-67z" />
    <glyph glyph-name="ocircumflex" unicode="&#xf4;" horiz-adv-x="509" 
d="M22 182q0 129 75 216t181 87q89 0 136.5 -54t47.5 -136q0 -132 -75 -218.5t-181 -86.5q-90 0 -137 54t-47 138zM110 185q0 -122 99 -122q71 0 117.5 67.5t46.5 161.5q0 120 -98 120q-71 0 -118 -67.5t-47 -159.5zM160 531l119 147h74l82 -147h-71l-52 94l-77 -94h-75z
" />
    <glyph glyph-name="otilde" unicode="&#xf5;" horiz-adv-x="509" 
d="M22 182q0 129 75 216t181 87q89 0 136.5 -54t47.5 -136q0 -132 -75 -218.5t-181 -86.5q-90 0 -137 54t-47 138zM110 185q0 -122 99 -122q71 0 117.5 67.5t46.5 161.5q0 120 -98 120q-71 0 -118 -67.5t-47 -159.5zM152 552q4 53 29 79.5t60 26.5q30 0 68 -23.5t53 -23.5
q28 0 34 41h62q-4 -53 -28.5 -79.5t-59.5 -26.5q-30 0 -68.5 23.5t-53.5 23.5q-27 0 -33 -41h-63z" />
    <glyph glyph-name="odieresis" unicode="&#xf6;" horiz-adv-x="509" 
d="M22 182q0 129 75 216t181 87q89 0 136.5 -54t47.5 -136q0 -132 -75 -218.5t-181 -86.5q-90 0 -137 54t-47 138zM110 185q0 -122 99 -122q71 0 117.5 67.5t46.5 161.5q0 120 -98 120q-71 0 -118 -67.5t-47 -159.5zM212 555q-19 0 -30.5 11.5t-11.5 30.5q0 25 15 41t37 16
q19 0 31 -11.5t12 -30.5q0 -24 -15.5 -40.5t-37.5 -16.5zM392 555q-19 0 -30.5 11.5t-11.5 30.5q0 25 15 41t37 16q19 0 31 -11.5t12 -30.5q0 -24 -15.5 -40.5t-37.5 -16.5z" />
    <glyph glyph-name="divide" unicode="&#xf7;" horiz-adv-x="531" 
d="M247 29q-21 0 -35.5 15.5t-14.5 36.5q0 22 14.5 37t35.5 15t35.5 -15t14.5 -37q0 -21 -14.5 -36.5t-35.5 -15.5zM9 215v74h473v-74h-473zM247 370q-21 0 -35.5 15.5t-14.5 36.5q0 22 14.5 37.5t35.5 15.5t35.5 -15.5t14.5 -37.5q0 -21 -14.5 -36.5t-35.5 -15.5z" />
    <glyph glyph-name="oslash" unicode="&#xf8;" horiz-adv-x="509" 
d="M56 -23l-40 35l40 49q-34 49 -34 124q0 130 75 215t181 85q65 0 110 -32l38 45l40 -35l-40 -48q36 -51 36 -125q0 -130 -75 -215t-181 -85q-65 0 -111 33zM146 83q22 -21 63 -21q71 0 118.5 67t47.5 159q0 33 -9 57zM109 188q0 -35 7 -57l221 262q-25 20 -62 20
q-71 0 -118.5 -66.5t-47.5 -158.5z" />
    <glyph glyph-name="ugrave" unicode="&#xf9;" horiz-adv-x="502" 
d="M144 -10q-51 0 -83 29.5t-32 89.5q0 33 12 93l57 271h87l-59 -279q-9 -40 -9 -66q0 -62 54 -62q56 0 100 48.5t60 119.5l51 239h86l-59 -281q-16 -78 -16 -120q0 -29 7 -62l-74 -16q-13 42 -12 92h-2q-30 -42 -75.5 -69t-92.5 -27zM267 531l-81 147h100l49 -147h-68z" />
    <glyph glyph-name="uacute" unicode="&#xfa;" horiz-adv-x="502" 
d="M144 -10q-51 0 -83 29.5t-32 89.5q0 33 12 93l57 271h87l-59 -279q-9 -40 -9 -66q0 -62 54 -62q56 0 100 48.5t60 119.5l51 239h86l-59 -281q-16 -78 -16 -120q0 -29 7 -62l-74 -16q-13 42 -12 92h-2q-30 -42 -75.5 -69t-92.5 -27zM253 531l76 147h100l-109 -147h-67z
" />
    <glyph glyph-name="ucircumflex" unicode="&#xfb;" horiz-adv-x="502" 
d="M144 -10q-51 0 -83 29.5t-32 89.5q0 33 12 93l57 271h87l-59 -279q-9 -40 -9 -66q0 -62 54 -62q56 0 100 48.5t60 119.5l51 239h86l-59 -281q-16 -78 -16 -120q0 -29 7 -62l-74 -16q-13 42 -12 92h-2q-30 -42 -75.5 -69t-92.5 -27zM155 531l119 147h74l82 -147h-71
l-52 94l-77 -94h-75z" />
    <glyph glyph-name="udieresis" unicode="&#xfc;" horiz-adv-x="502" 
d="M144 -10q-51 0 -83 29.5t-32 89.5q0 33 12 93l57 271h87l-59 -279q-9 -40 -9 -66q0 -62 54 -62q56 0 100 48.5t60 119.5l51 239h86l-59 -281q-16 -78 -16 -120q0 -29 7 -62l-74 -16q-13 42 -12 92h-2q-30 -42 -75.5 -69t-92.5 -27zM206 555q-19 0 -30.5 11.5t-11.5 30.5
q0 25 15 41t37 16q19 0 31 -11.5t12 -30.5q0 -24 -15.5 -40.5t-37.5 -16.5zM386 555q-19 0 -30.5 11.5t-11.5 30.5q0 25 15 41t37 16q19 0 31 -11.5t12 -30.5q0 -24 -15.5 -40.5t-37.5 -16.5z" />
    <glyph glyph-name="yacute" unicode="&#xfd;" horiz-adv-x="452" 
d="M-125 -219l31 68q27 -13 58 -13q49 0 91 35.5t87 127.5l-107 474h87l50 -241q6 -29 27 -135h2q31 68 57 123l123 253h90l-249 -489q-62 -123 -121.5 -172t-143.5 -49q-51 0 -82 18zM217 531l76 147h100l-109 -147h-67z" />
    <glyph glyph-name="thorn" unicode="&#xfe;" horiz-adv-x="510" 
d="M-47 -237l202 945h86l-48 -228q23 5 51 5q107 0 163 -56t56 -146q0 -70 -24 -127t-63.5 -92.5t-88 -54.5t-100.5 -19q-49 0 -96 14l-51 -241h-87zM107 77q31 -13 73 -13q84 0 139 59t55 152q0 68 -35.5 102t-99.5 34q-31 0 -63 -8z" />
    <glyph glyph-name="ydieresis" unicode="&#xff;" horiz-adv-x="452" 
d="M-125 -219l31 68q27 -13 58 -13q49 0 91 35.5t87 127.5l-107 474h87l50 -241q6 -29 27 -135h2q31 68 57 123l123 253h90l-249 -489q-62 -123 -121.5 -172t-143.5 -49q-51 0 -82 18zM172 555q-19 0 -30.5 11.5t-11.5 30.5q0 25 15 41t37 16q19 0 31 -11.5t12 -30.5
q0 -24 -15.5 -40.5t-37.5 -16.5zM352 555q-19 0 -30.5 11.5t-11.5 30.5q0 25 15 41t37 16q19 0 31 -11.5t12 -30.5q0 -24 -15.5 -40.5t-37.5 -16.5z" />
    <glyph glyph-name="Amacron" unicode="&#x100;" horiz-adv-x="580" 
d="M-44 0l350 662h70l121 -662h-93l-30 173h-232l-88 -173h-98zM182 246h180l-30 195q-8 54 -13 87h-2q-33 -76 -41 -92zM214 713l14 69h260l-15 -69h-259z" />
    <glyph glyph-name="amacron" unicode="&#x101;" 
d="M127 -10q-57 0 -91.5 35t-34.5 90q0 80 56 126q63 52 191 52l66 1q6 22 6 49q0 72 -87 72q-63 0 -140 -36l-12 67q83 39 166 39q68 0 114 -31.5t46 -105.5q0 -36 -17 -113l-10 -43q-17 -77 -17 -122q0 -31 8 -60l-75 -16q-13 41 -13 81q-67 -85 -156 -85zM150 62
q47 0 90.5 38.5t55.5 95.5l7 34h-37q-106 0 -146 -33q-33 -25 -33 -70q0 -65 63 -65zM139 572l14 69h260l-15 -69h-259z" />
    <glyph glyph-name="Abreve" unicode="&#x102;" horiz-adv-x="580" 
d="M-44 0l350 662h70l121 -662h-93l-30 173h-232l-88 -173h-98zM182 246h180l-30 195q-8 54 -13 87h-2q-33 -76 -41 -92zM347 700q-58 0 -88.5 34.5t-25.5 93.5h62q-2 -69 58 -69q59 0 81 69h64q-13 -60 -53 -94t-98 -34z" />
    <glyph glyph-name="abreve" unicode="&#x103;" 
d="M127 -10q-57 0 -91.5 35t-34.5 90q0 80 56 126q63 52 191 52l66 1q6 22 6 49q0 72 -87 72q-63 0 -140 -36l-12 67q83 39 166 39q68 0 114 -31.5t46 -105.5q0 -36 -17 -113l-10 -43q-17 -77 -17 -122q0 -31 8 -60l-75 -16q-13 41 -13 81q-67 -85 -156 -85zM150 62
q47 0 90.5 38.5t55.5 95.5l7 34h-37q-106 0 -146 -33q-33 -25 -33 -70q0 -65 63 -65zM265 543q-58 0 -88 34.5t-25 93.5h62q-2 -69 57 -69q60 0 81 69h65q-13 -60 -53.5 -94t-98.5 -34z" />
    <glyph glyph-name="Aogonek" unicode="&#x104;" horiz-adv-x="580" 
d="M-44 0l350 662h70l120 -662q-56 -20 -98 -54.5t-42 -70.5q0 -32 34 -32q14 0 38 8l6 -53q-31 -11 -69 -11q-43 0 -63.5 19.5t-20.5 51.5q0 90 122 150l-29 165h-232l-88 -173h-98zM182 246h180l-30 195q-8 54 -13 87h-2q-33 -76 -41 -92z" />
    <glyph glyph-name="aogonek" unicode="&#x105;" 
d="M127 -10q-57 0 -91.5 35t-34.5 90q0 80 56 126q63 52 191 52l66 1q6 22 6 49q0 72 -87 72q-63 0 -140 -36l-12 67q83 39 166 39q68 0 114 -31.5t46 -105.5q0 -36 -17 -113l-10 -43q-17 -79 -17 -125q0 -33 8 -62q-56 -25 -96.5 -60t-40.5 -70q0 -32 34 -32q16 0 38 8
l7 -53q-33 -11 -69 -11q-43 0 -64 20t-21 51q0 88 132 155q-8 36 -8 62q-67 -85 -156 -85zM150 62q47 0 90.5 38.5t55.5 95.5l7 34h-37q-106 0 -146 -33q-33 -25 -33 -70q0 -65 63 -65z" />
    <glyph glyph-name="Cacute" unicode="&#x106;" horiz-adv-x="594" 
d="M321 -10q-126 0 -201 72.5t-75 199.5q0 173 109 288t273 115q91 0 164 -35l-18 -76q-65 35 -144 35q-128 0 -209 -92.5t-81 -224.5q0 -93 49.5 -149.5t139.5 -56.5q82 0 163 41l18 -73q-86 -44 -188 -44zM350 696l76 147h100l-109 -147h-67z" />
    <glyph glyph-name="cacute" unicode="&#x107;" horiz-adv-x="438" 
d="M221 -10q-92 0 -145.5 54t-53.5 145q0 125 77 210.5t196 85.5q65 0 120 -24l-17 -73q-50 24 -102 24q-77 0 -131.5 -61t-54.5 -153q0 -63 31 -99t90 -36q60 0 120 35l23 -63q-28 -20 -71 -32.5t-82 -12.5zM238 531l76 147h100l-109 -147h-67z" />
    <glyph glyph-name="Ccircumflex" unicode="&#x108;" horiz-adv-x="594" 
d="M321 -10q-126 0 -201 72.5t-75 199.5q0 173 109 288t273 115q91 0 164 -35l-18 -76q-65 35 -144 35q-128 0 -209 -92.5t-81 -224.5q0 -93 49.5 -149.5t139.5 -56.5q82 0 163 41l18 -73q-86 -44 -188 -44zM262 696l119 147h74l82 -147h-71l-52 94l-77 -94h-75z" />
    <glyph glyph-name="ccircumflex" unicode="&#x109;" horiz-adv-x="438" 
d="M221 -10q-92 0 -145.5 54t-53.5 145q0 125 77 210.5t196 85.5q65 0 120 -24l-17 -73q-50 24 -102 24q-77 0 -131.5 -61t-54.5 -153q0 -63 31 -99t90 -36q60 0 120 35l23 -63q-28 -20 -71 -32.5t-82 -12.5zM145 531l119 147h74l82 -147h-71l-52 94l-77 -94h-75z" />
    <glyph glyph-name="Cdotaccent" unicode="&#x10a;" horiz-adv-x="594" 
d="M321 -10q-126 0 -201 72.5t-75 199.5q0 173 109 288t273 115q91 0 164 -35l-18 -76q-65 35 -144 35q-128 0 -209 -92.5t-81 -224.5q0 -93 49.5 -149.5t139.5 -56.5q82 0 163 41l18 -73q-86 -44 -188 -44zM401 704q-24 0 -38 14t-14 35q0 28 19 46t44 18q24 0 38 -14
t14 -35q0 -28 -19 -46t-44 -18z" />
    <glyph glyph-name="cdotaccent" unicode="&#x10b;" horiz-adv-x="438" 
d="M221 -10q-92 0 -145.5 54t-53.5 145q0 125 77 210.5t196 85.5q65 0 120 -24l-17 -73q-50 24 -102 24q-77 0 -131.5 -61t-54.5 -153q0 -63 31 -99t90 -36q60 0 120 35l23 -63q-28 -20 -71 -32.5t-82 -12.5zM292 571q-24 0 -38 14t-14 35q0 28 19 45.5t44 17.5q24 0 38 -14
t14 -35q0 -27 -19 -45t-44 -18z" />
    <glyph glyph-name="Ccaron" unicode="&#x10c;" horiz-adv-x="594" 
d="M321 -10q-126 0 -201 72.5t-75 199.5q0 173 109 288t273 115q91 0 164 -35l-18 -76q-65 35 -144 35q-128 0 -209 -92.5t-81 -224.5q0 -93 49.5 -149.5t139.5 -56.5q82 0 163 41l18 -73q-86 -44 -188 -44zM363 697l-81 147h71l52 -95l77 95h75l-119 -147h-75z" />
    <glyph glyph-name="ccaron" unicode="&#x10d;" horiz-adv-x="438" 
d="M221 -10q-92 0 -145.5 54t-53.5 145q0 125 77 210.5t196 85.5q65 0 120 -24l-17 -73q-50 24 -102 24q-77 0 -131.5 -61t-54.5 -153q0 -63 31 -99t90 -36q60 0 120 35l23 -63q-28 -20 -71 -32.5t-82 -12.5zM246 532l-81 147h71l52 -95l77 95h75l-119 -147h-75z" />
    <glyph glyph-name="Dcaron" unicode="&#x10e;" horiz-adv-x="641" 
d="M10 0l140 659h116q113 0 186 -33q143 -63 143 -238q0 -122 -58.5 -215t-165.5 -138q-85 -35 -201 -35h-160zM114 73h64q91 0 155 29q81 36 125 112.5t44 178.5q0 125 -101 170q-54 23 -137 23h-42zM306 697l-81 147h71l52 -95l77 95h75l-119 -147h-75z" />
    <glyph glyph-name="dcaron" unicode="&#x10f;" horiz-adv-x="500" 
d="M231 -10q-93 0 -151 55.5t-58 152.5q0 130 79 208.5t193 78.5q56 0 99 -15l50 238h87l-147 -686q-73 -32 -152 -32zM238 64q36 0 71 14l67 319q-40 14 -75 14q-81 0 -136 -57.5t-55 -150.5q0 -63 33.5 -101t94.5 -38zM562 509l-32 57q72 31 72 92q0 25 -11 50h78
q12 -22 12 -51q0 -98 -119 -148z" />
    <glyph glyph-name="Dcroat" unicode="&#x110;" horiz-adv-x="641" 
d="M10 0l62 295h-78l16 73h78l62 291h116q113 0 186 -33q143 -63 143 -241q0 -117 -59 -211.5t-165 -138.5q-85 -35 -201 -35h-160zM114 73h64q91 0 155 29q81 36 125 112t44 177q0 127 -101 172q-54 23 -137 23h-42l-46 -218h159l-15 -73h-160z" />
    <glyph glyph-name="dcroat" unicode="&#x111;" horiz-adv-x="500" 
d="M231 -10q-93 0 -151 55.5t-58 152.5q0 130 79 208.5t193 78.5q56 0 99 -15l18 91h-137l15 68h137l17 79h87l-17 -79h60l-15 -68h-60l-115 -539q-73 -32 -152 -32zM238 64q36 0 71 14l67 319q-40 14 -75 14q-81 0 -136 -57.5t-55 -150.5q0 -63 33.5 -101t94.5 -38z" />
    <glyph glyph-name="Emacron" unicode="&#x112;" horiz-adv-x="468" 
d="M10 0l140 659h317l-27 -73h-218l-44 -212h213l-16 -73h-213l-48 -228h243l-16 -73h-331zM181 713l14 69h260l-15 -69h-259z" />
    <glyph glyph-name="emacron" unicode="&#x113;" 
d="M218 -10q-89 0 -142.5 54t-53.5 148q0 125 70.5 209t177.5 84q76 0 117 -42.5t41 -112.5q0 -50 -21 -110l-298 -4q-1 -8 -1 -24q0 -61 32.5 -95.5t85.5 -34.5q59 0 129 36l24 -64q-72 -44 -161 -44zM120 281l214 3q8 27 8 49q0 35 -19 58.5t-62 23.5q-50 0 -89.5 -39
t-51.5 -95zM157 572l14 69h260l-15 -69h-259z" />
    <glyph glyph-name="Ebreve" unicode="&#x114;" 
d="M10 0l140 659h317l-27 -73h-218l-44 -212h213l-16 -73h-213l-48 -228h243l-16 -73h-331zM314 700q-58 0 -88.5 34.5t-25.5 93.5h62q-2 -69 58 -69q59 0 81 69h64q-13 -60 -53 -94t-98 -34z" />
    <glyph glyph-name="ebreve" unicode="&#x115;" 
d="M218 -10q-89 0 -142.5 54t-53.5 148q0 125 70.5 209t177.5 84q76 0 117 -42.5t41 -112.5q0 -50 -21 -110l-298 -4q-1 -8 -1 -24q0 -61 32.5 -95.5t85.5 -34.5q59 0 129 36l24 -64q-72 -44 -161 -44zM120 281l214 3q8 27 8 49q0 35 -19 58.5t-62 23.5q-50 0 -89.5 -39
t-51.5 -95zM278 543q-58 0 -88 34.5t-25 93.5h62q-2 -69 57 -69q60 0 81 69h65q-13 -60 -53.5 -94t-98.5 -34z" />
    <glyph glyph-name="Edotaccent" unicode="&#x116;" 
d="M10 0l140 659h317l-27 -73h-218l-44 -212h213l-16 -73h-213l-48 -228h243l-16 -73h-331zM316 704q-24 0 -38 14t-14 35q0 28 19 46t44 18q24 0 38 -14t14 -35q0 -28 -19 -46t-44 -18z" />
    <glyph glyph-name="edotaccent" unicode="&#x117;" 
d="M218 -10q-89 0 -142.5 54t-53.5 148q0 125 70.5 209t177.5 84q76 0 117 -42.5t41 -112.5q0 -50 -21 -110l-298 -4q-1 -8 -1 -24q0 -61 32.5 -95.5t85.5 -34.5q59 0 129 36l24 -64q-72 -44 -161 -44zM120 281l214 3q8 27 8 49q0 35 -19 58.5t-62 23.5q-50 0 -89.5 -39
t-51.5 -95zM284 571q-24 0 -38 14t-14 35q0 28 19 45.5t44 17.5q24 0 38 -14t14 -35q0 -27 -19 -45t-44 -18z" />
    <glyph glyph-name="Eogonek" unicode="&#x118;" 
d="M10 0l140 659h317l-27 -73h-218l-44 -212h213l-16 -73h-213l-48 -228h243l-16 -73h-17q-135 -62 -135 -125q0 -32 33 -32q15 0 39 8l6 -53q-38 -11 -69 -11q-43 0 -64 20t-21 51q0 80 110 142h-213z" />
    <glyph glyph-name="eogonek" unicode="&#x119;" 
d="M226 -213q-43 0 -63.5 19.5t-20.5 51.5q0 70 86 132v2q-13 -2 -31 0q-79 5 -127 58t-48 141q0 126 70.5 210t177.5 84q76 0 117 -42.5t41 -112.5q0 -50 -21 -110l-298 -4q-1 -6 -1 -25q0 -61 32.5 -95t85.5 -34q59 0 129 36l24 -63q-61 -31 -111.5 -77t-50.5 -83
q0 -32 34 -32q16 0 38 8l7 -53q-33 -11 -70 -11zM120 281l214 3q8 27 8 49q0 35 -19 58.5t-62 23.5q-50 0 -89.5 -39t-51.5 -95z" />
    <glyph glyph-name="Ecaron" unicode="&#x11a;" horiz-adv-x="473" 
d="M10 0l140 659h317l-27 -73h-218l-44 -212h213l-16 -73h-213l-48 -228h243l-16 -73h-331zM274 697l-81 147h71l52 -95l77 95h75l-119 -147h-75z" />
    <glyph glyph-name="ecaron" unicode="&#x11b;" 
d="M218 -10q-89 0 -142.5 54t-53.5 148q0 125 70.5 209t177.5 84q76 0 117 -42.5t41 -112.5q0 -50 -21 -110l-298 -4q-1 -8 -1 -24q0 -61 32.5 -95.5t85.5 -34.5q59 0 129 36l24 -64q-72 -44 -161 -44zM120 281l214 3q8 27 8 49q0 35 -19 58.5t-62 23.5q-50 0 -89.5 -39
t-51.5 -95zM242 532l-81 147h71l52 -95l77 95h75l-119 -147h-75z" />
    <glyph glyph-name="Gcircumflex" unicode="&#x11c;" horiz-adv-x="666" 
d="M326 -10q-126 0 -203.5 72t-77.5 203q0 106 46.5 196.5t137 147t206.5 56.5q102 0 190 -40l-18 -76q-75 41 -166 41q-135 0 -218.5 -91t-83.5 -223q0 -104 53.5 -157t140.5 -53q79 0 126 24l48 224h88l-59 -276q-83 -48 -210 -48zM278 696l119 147h74l82 -147h-71l-52 94
l-77 -94h-75z" />
    <glyph glyph-name="gcircumflex" unicode="&#x11d;" horiz-adv-x="491" 
d="M-21 -201l31 73q57 -33 118 -33q69 0 105.5 37.5t54.5 118.5l17 75h-2q-63 -79 -148 -79q-60 0 -96.5 40.5t-36.5 120.5q0 88 31 161.5t100 122.5t166 49q88 0 154 -27l-101 -473q-22 -108 -77 -165t-170 -57q-78 0 -146 36zM181 64q45 0 93 47t71 156l29 135
q-27 9 -67 9q-89 0 -143 -72.5t-54 -170.5q0 -104 71 -104zM175 531l119 147h74l82 -147h-71l-52 94l-77 -94h-75z" />
    <glyph glyph-name="Gbreve" unicode="&#x11e;" horiz-adv-x="666" 
d="M326 -10q-126 0 -203.5 72t-77.5 203q0 106 46.5 196.5t137 147t206.5 56.5q102 0 190 -40l-18 -76q-75 41 -166 41q-135 0 -218.5 -91t-83.5 -223q0 -104 53.5 -157t140.5 -53q79 0 126 24l48 224h88l-59 -276q-83 -48 -210 -48zM415 700q-58 0 -88.5 34.5t-25.5 93.5
h62q-2 -69 58 -69q59 0 81 69h64q-13 -60 -53 -94t-98 -34z" />
    <glyph glyph-name="gbreve" unicode="&#x11f;" horiz-adv-x="491" 
d="M-21 -201l31 73q57 -33 118 -33q69 0 105.5 37.5t54.5 118.5l17 75h-2q-63 -79 -148 -79q-60 0 -96.5 40.5t-36.5 120.5q0 88 31 161.5t100 122.5t166 49q88 0 154 -27l-101 -473q-22 -108 -77 -165t-170 -57q-78 0 -146 36zM181 64q45 0 93 47t71 156l29 135
q-27 9 -67 9q-89 0 -143 -72.5t-54 -170.5q0 -104 71 -104zM316 543q-58 0 -88 34.5t-25 93.5h62q-2 -69 57 -69q60 0 81 69h65q-13 -60 -53.5 -94t-98.5 -34z" />
    <glyph glyph-name="Gdotaccent" unicode="&#x120;" horiz-adv-x="666" 
d="M326 -10q-126 0 -203.5 72t-77.5 203q0 106 46.5 196.5t137 147t206.5 56.5q102 0 190 -40l-18 -76q-75 41 -166 41q-135 0 -218.5 -91t-83.5 -223q0 -104 53.5 -157t140.5 -53q79 0 126 24l48 224h88l-59 -276q-83 -48 -210 -48zM417 704q-24 0 -38 14t-14 35
q0 28 19 46t44 18q24 0 38 -14t14 -35q0 -28 -19 -46t-44 -18z" />
    <glyph glyph-name="gdotaccent" unicode="&#x121;" horiz-adv-x="491" 
d="M-21 -201l31 73q57 -33 118 -33q69 0 105.5 37.5t54.5 118.5l17 75h-2q-63 -79 -148 -79q-60 0 -96.5 40.5t-36.5 120.5q0 88 31 161.5t100 122.5t166 49q88 0 154 -27l-101 -473q-22 -108 -77 -165t-170 -57q-78 0 -146 36zM181 64q45 0 93 47t71 156l29 135
q-27 9 -67 9q-89 0 -143 -72.5t-54 -170.5q0 -104 71 -104zM317 571q-24 0 -38 14t-14 35q0 28 19 45.5t44 17.5q24 0 38 -14t14 -35q0 -27 -19 -45t-44 -18z" />
    <glyph glyph-name="Gcommaaccent" unicode="&#x122;" horiz-adv-x="666" 
d="M326 -10q-126 0 -203.5 72t-77.5 203q0 106 46.5 196.5t137 147t206.5 56.5q102 0 190 -40l-18 -76q-75 41 -166 41q-135 0 -218.5 -91t-83.5 -223q0 -104 53.5 -157t140.5 -53q79 0 126 24l48 224h88l-59 -276q-83 -48 -210 -48zM205 -237l-20 58q87 21 87 79
q0 19 -12 48h80q12 -24 12 -55q0 -104 -147 -130z" />
    <glyph glyph-name="gcommaaccent" unicode="&#x123;" horiz-adv-x="491" 
d="M264 531q-13 23 -13 49q0 111 151 136l19 -57q-89 -22 -89 -80q0 -21 11 -48h-79zM-21 -201l31 73q57 -33 118 -33q69 0 105.5 37.5t54.5 118.5l17 75h-2q-63 -79 -148 -79q-61 0 -97 42t-36 125q0 85 31 157.5t100.5 121t165.5 48.5q88 0 154 -27l-101 -473
q-22 -108 -77 -165t-170 -57q-78 0 -146 36zM181 64q45 0 93 47t71 156l29 135q-27 9 -67 9q-89 0 -143 -71.5t-54 -165.5q0 -110 71 -110z" />
    <glyph glyph-name="Hcircumflex" unicode="&#x124;" horiz-adv-x="666" 
d="M10 0l141 659h87l-61 -286h330l61 286h88l-140 -659h-88l63 297h-330l-63 -297h-88zM271 696l119 147h74l82 -147h-71l-52 94l-77 -94h-75z" />
    <glyph glyph-name="hcircumflex" unicode="&#x125;" horiz-adv-x="505" 
d="M3 0l152 708h86l-51 -239q-10 -46 -25 -90h2q30 47 77 76.5t97 29.5t80 -29t30 -87q0 -29 -12 -92l-59 -277h-87l58 274q10 44 10 74q0 59 -53 59q-28 0 -61.5 -19.5t-60.5 -56.5q-35 -48 -53 -130l-43 -201h-87zM62 726l119 147h74l82 -147h-71l-52 94l-77 -94h-75z" />
    <glyph glyph-name="Hbar" unicode="&#x126;" horiz-adv-x="666" 
d="M10 0l102 478h-71l15 69h70l25 112h87l-24 -112h330l24 112h88l-24 -112h73l-15 -69h-72l-102 -478h-88l63 297h-330l-63 -297h-88zM177 373h330l23 105h-330z" />
    <glyph glyph-name="hbar" unicode="&#x127;" horiz-adv-x="504" 
d="M3 0l118 555h-61l16 69h61l18 84h86l-18 -84h120l-15 -69h-120l-18 -86q-10 -46 -25 -90h2q30 47 77 76.5t97 29.5t80 -29t30 -87q0 -29 -12 -92l-59 -277h-87l58 274q10 44 10 74q0 59 -53 59q-28 0 -61 -18.5t-59 -54.5q-38 -50 -56 -135l-42 -199h-87z" />
    <glyph glyph-name="Itilde" unicode="&#x128;" horiz-adv-x="248" 
d="M10 0l140 659h88l-140 -659h-88zM57 724q4 53 29 79.5t60 26.5q30 0 68 -23.5t53 -23.5q27 0 34 41h62q-4 -53 -28.5 -79.5t-59.5 -26.5q-30 0 -68.5 23.5t-53.5 23.5q-27 0 -33 -41h-63z" />
    <glyph glyph-name="itilde" unicode="&#x129;" horiz-adv-x="223" 
d="M1 0l101 473h86l-101 -473h-86zM10 552q4 53 29 79.5t60 26.5q30 0 68 -23.5t53 -23.5q28 0 34 41h62q-4 -53 -28.5 -79.5t-59.5 -26.5q-30 0 -68.5 23.5t-53.5 23.5q-27 0 -33 -41h-63z" />
    <glyph glyph-name="Imacron" unicode="&#x12a;" horiz-adv-x="248" 
d="M10 0l140 659h88l-140 -659h-88zM72 713l14 69h260l-15 -69h-259z" />
    <glyph glyph-name="imacron" unicode="&#x12b;" horiz-adv-x="223" 
d="M1 0l101 473h86l-101 -473h-86zM31 572l14 69h260l-15 -69h-259z" />
    <glyph glyph-name="Ibreve" unicode="&#x12c;" horiz-adv-x="248" 
d="M10 0l140 659h88l-140 -659h-88zM205 700q-58 0 -88.5 34.5t-25.5 93.5h62q-2 -69 58 -69q59 0 81 69h64q-13 -60 -53 -94t-98 -34z" />
    <glyph glyph-name="ibreve" unicode="&#x12d;" horiz-adv-x="223" 
d="M1 0l101 473h86l-101 -473h-86zM157 543q-58 0 -88 34.5t-25 93.5h62q-2 -69 57 -69q60 0 81 69h65q-13 -60 -53.5 -94t-98.5 -34z" />
    <glyph glyph-name="Iogonek" unicode="&#x12e;" horiz-adv-x="248" 
d="M12 9l138 650h88l-140 -659q-98 -69 -98 -125q0 -32 34 -32q16 0 38 8l7 -53q-39 -11 -70 -11q-43 0 -63.5 20t-20.5 53q0 68 87 149z" />
    <glyph glyph-name="iogonek" unicode="&#x12f;" horiz-adv-x="223" 
d="M-1 -213q-43 0 -63.5 20t-20.5 53q0 68 87 149l99 464h87l-101 -473q-97 -70 -97 -125q0 -32 34 -32q16 0 38 8l7 -53q-38 -11 -70 -11zM169 571q-23 0 -37 13.5t-14 35.5q0 28 18.5 45.5t43.5 17.5q24 0 38 -14t14 -36q0 -27 -18.5 -44.5t-44.5 -17.5z" />
    <glyph glyph-name="Idotaccent" unicode="&#x130;" horiz-adv-x="248" 
d="M10 0l140 659h88l-140 -659h-88zM209 704q-24 0 -38 14t-14 35q0 28 19 46t44 18q24 0 38 -14t14 -35q0 -28 -19 -46t-44 -18z" />
    <glyph glyph-name="dotlessi" unicode="&#x131;" horiz-adv-x="223" 
d="M1 0l101 473h86l-101 -473h-86z" />
    <glyph glyph-name="IJ" unicode="&#x132;" horiz-adv-x="531" 
d="M10 0l140 659h88l-140 -659h-88zM99 -166l27 71q25 -12 63 -12q57 0 82 45q17 33 25 78l137 643h88l-139 -652q-15 -74 -39 -115q-47 -75 -154 -75q-51 0 -90 17z" />
    <glyph glyph-name="ij" unicode="&#x133;" horiz-adv-x="455" 
d="M0 0l101 473h87l-101 -473h-87zM169 571q-23 0 -37 13.5t-14 35.5q0 28 18.5 45.5t43.5 17.5q24 0 38 -13.5t14 -35.5q0 -27 -19 -45t-44 -18zM58 -223l26 72q22 -9 47 -9q38 0 57.5 23t30.5 75l115 535h86l-122 -572q-31 -138 -163 -138q-44 0 -77 14zM402 571
q-24 0 -38 14t-14 35q0 28 19 45.5t44 17.5q24 0 38 -14t14 -35q0 -27 -19 -45t-44 -18z" />
    <glyph glyph-name="Jcircumflex" unicode="&#x134;" horiz-adv-x="289" 
d="M-143 -166l27 71q25 -12 63 -12q57 0 82 45q17 33 25 78l137 643h88l-139 -652q-15 -74 -39 -115q-47 -75 -154 -75q-51 0 -90 17zM98 696l119 147h74l82 -147h-71l-52 94l-77 -94h-75z" />
    <glyph glyph-name="jcircumflex" unicode="&#x135;" horiz-adv-x="250" 
d="M-148 -223l24 68q23 -10 49 -10q37 0 56.5 24t30.5 76l116 538h86l-122 -572q-31 -138 -163 -138q-44 0 -77 14zM36 531l119 147h75l81 -147h-71l-52 94l-77 -94h-75z" />
    <glyph glyph-name="Kcommaaccent" unicode="&#x136;" horiz-adv-x="557" 
d="M10 0l140 659h88l-64 -303h3l287 303h107l-328 -340l222 -319h-108l-196 288h-2l-61 -288h-88zM116 -237l-20 58q87 21 87 79q0 19 -12 48h80q12 -24 12 -55q0 -104 -147 -130z" />
    <glyph glyph-name="kcommaaccent" unicode="&#x137;" horiz-adv-x="448" 
d="M3 0l152 708h86l-88 -411h2l199 176h107l-240 -211l166 -262h-99l-146 235h-2l-50 -235h-87zM81 -237l-20 58q87 21 87 79q0 19 -12 48h80q12 -24 12 -55q0 -104 -147 -130z" />
    <glyph glyph-name="Lacute" unicode="&#x139;" horiz-adv-x="433" 
d="M10 0l140 659h88l-124 -586h239l-16 -73h-327zM168 696l76 147h100l-109 -147h-67z" />
    <glyph glyph-name="lacute" unicode="&#x13a;" horiz-adv-x="268" 
d="M165 732l65 127h96l-93 -127h-68zM118 -6q-42 0 -66.5 21.5t-24.5 62.5q0 18 7 49l124 581h86l-123 -580q-4 -17 -4 -31q0 -26 28 -26q18 0 38 7v-72q-30 -12 -65 -12z" />
    <glyph glyph-name="Lcommaaccent" unicode="&#x13b;" horiz-adv-x="433" 
d="M10 0l140 659h88l-124 -586h239l-16 -73h-327zM65 -237l-20 58q87 21 87 79q0 19 -12 48h80q12 -24 12 -55q0 -104 -147 -130z" />
    <glyph glyph-name="lcommaaccent" unicode="&#x13c;" horiz-adv-x="268" 
d="M119 -6q-42 0 -66.5 21.5t-24.5 62.5q0 18 7 49l124 581h86l-123 -580q-4 -17 -4 -31q0 -26 28 -26q18 0 38 7v-72q-30 -12 -65 -12zM-25 -237l-20 58q87 21 87 79q0 19 -12 48h80q12 -24 12 -55q0 -104 -147 -130z" />
    <glyph glyph-name="Lcaron" unicode="&#x13d;" horiz-adv-x="433" 
d="M10 0l140 659h88l-124 -586h239l-16 -73h-327zM322 509l-32 57q72 31 72 92q0 25 -11 50h78q12 -22 12 -51q0 -98 -119 -148z" />
    <glyph glyph-name="lcaron" unicode="&#x13e;" horiz-adv-x="268" 
d="M118 -6q-42 0 -66.5 21.5t-24.5 62.5q0 18 7 49l124 581h86l-123 -580q-4 -17 -4 -31q0 -26 28 -26q18 0 38 7v-72q-30 -12 -65 -12zM275 509l-32 57q72 31 72 92q0 25 -11 50h78q12 -22 12 -51q0 -98 -119 -148z" />
    <glyph glyph-name="Ldot" unicode="&#x13f;" horiz-adv-x="433" 
d="M10 0l140 659h88l-124 -586h239l-16 -73h-327zM328 285q-21 0 -34.5 14.5t-13.5 35.5q0 26 16.5 43.5t41.5 17.5q21 0 34.5 -15t13.5 -36q0 -26 -16.5 -43t-41.5 -17z" />
    <glyph glyph-name="ldot" unicode="&#x140;" horiz-adv-x="289" 
d="M118 -6q-42 0 -66.5 21.5t-24.5 62.5q0 18 7 49l124 581h86l-123 -580q-4 -17 -4 -31q0 -26 28 -26q18 0 38 7v-72q-30 -12 -65 -12zM241 198q-21 0 -34.5 14.5t-13.5 35.5q0 26 16.5 43.5t41.5 17.5q21 0 34.5 -15t13.5 -36q0 -26 -16.5 -43t-41.5 -17z" />
    <glyph glyph-name="Lslash" unicode="&#x141;" horiz-adv-x="436" 
d="M14 0l51 238l-63 -34l18 85l63 34l71 336h88l-60 -285l162 85l-19 -84l-161 -85l-46 -217h240l-17 -73h-327z" />
    <glyph glyph-name="lslash" unicode="&#x142;" horiz-adv-x="274" 
d="M124 -6q-42 0 -66.5 21.5t-24.5 62.5q0 18 7 49l31 149l-60 -30l19 85l60 31l74 346h86l-62 -295l69 36l-19 -86l-69 -37l-42 -198q-4 -17 -4 -31q0 -26 28 -26q18 0 38 7v-72q-30 -12 -65 -12z" />
    <glyph glyph-name="Nacute" unicode="&#x143;" horiz-adv-x="701" 
d="M10 0l140 659h83l262 -514h2q6 37 19 97l88 417h88l-141 -659h-72l-270 525h-2q-5 -40 -16 -90l-93 -435h-88zM382 696l76 147h100l-109 -147h-67z" />
    <glyph glyph-name="nacute" unicode="&#x144;" horiz-adv-x="500" 
d="M0 0l101 473h70l-12 -94h2q31 46 78.5 76t98.5 30q50 0 79.5 -29t29.5 -87q0 -36 -12 -92l-59 -277h-87l59 274q10 50 10 74q0 59 -53 59q-28 0 -61 -18.5t-60 -54.5q-36 -47 -55 -133l-42 -201h-87zM250 531l76 147h100l-109 -147h-67z" />
    <glyph glyph-name="Ncommaaccent" unicode="&#x145;" horiz-adv-x="701" 
d="M10 0l140 659h83l262 -514h2q6 37 19 97l88 417h88l-141 -659h-72l-270 525h-2q-5 -40 -16 -90l-93 -435h-88zM186 -237l-20 58q87 21 87 79q0 19 -12 48h80q12 -24 12 -55q0 -104 -147 -130z" />
    <glyph glyph-name="ncommaaccent" unicode="&#x146;" horiz-adv-x="500" 
d="M0 0l101 473h70l-12 -94h2q31 46 78.5 76t98.5 30q50 0 79.5 -29t29.5 -87q0 -36 -12 -92l-59 -277h-87l59 274q10 50 10 74q0 59 -53 59q-28 0 -61 -18.5t-60 -54.5q-36 -47 -55 -133l-42 -201h-87zM80 -237l-20 58q87 21 87 79q0 19 -12 48h80q12 -24 12 -55
q0 -104 -147 -130z" />
    <glyph glyph-name="Ncaron" unicode="&#x147;" horiz-adv-x="701" 
d="M10 0l140 659h83l262 -514h2q6 37 19 97l88 417h88l-141 -659h-72l-270 525h-2q-5 -40 -16 -90l-93 -435h-88zM390 697l-81 147h71l52 -95l77 95h75l-119 -147h-75z" />
    <glyph glyph-name="ncaron" unicode="&#x148;" horiz-adv-x="500" 
d="M0 0l101 473h70l-12 -94h2q31 46 78.5 76t98.5 30q50 0 79.5 -29t29.5 -87q0 -36 -12 -92l-59 -277h-87l59 274q10 50 10 74q0 59 -53 59q-28 0 -61 -18.5t-60 -54.5q-36 -47 -55 -133l-42 -201h-87zM250 532l-81 147h71l52 -95l77 95h75l-119 -147h-75z" />
    <glyph glyph-name="Eng" unicode="&#x14a;" horiz-adv-x="701" 
d="M10 0l140 659h83l262 -514h2q6 37 19 97l88 417h88l-154 -719q-29 -138 -168 -138q-43 0 -79 15l24 72q22 -11 52 -11q38 0 58.5 22.5t33.5 81.5l8 39l-258 504h-2q-5 -40 -16 -90l-93 -435h-88z" />
    <glyph glyph-name="eng" unicode="&#x14b;" horiz-adv-x="501" 
d="M0 0l101 473h70l-12 -94h2q31 46 78.5 76t98.5 30q50 0 79.5 -29t29.5 -87q0 -36 -12 -92l-71 -334q-31 -138 -163 -138q-45 0 -76 14l25 72q22 -9 48 -9q37 0 56.5 23t30.5 75l63 294q10 50 10 74q0 59 -53 59q-29 0 -62 -19t-61 -56q-34 -45 -53 -131l-42 -201h-87z
" />
    <glyph glyph-name="Omacron" unicode="&#x14c;" horiz-adv-x="718" 
d="M312 -10q-123 0 -195 71t-72 201q0 164 100.5 283.5t260.5 119.5q124 0 195.5 -70t71.5 -201q0 -106 -43.5 -197.5t-127 -149t-190.5 -57.5zM318 66q79 0 140.5 49t91.5 121.5t30 152.5q0 96 -45.5 148t-133.5 52q-79 0 -140.5 -48.5t-92 -121t-30.5 -152.5
q0 -95 46 -148t134 -53zM287 713l14 69h260l-15 -69h-259z" />
    <glyph glyph-name="omacron" unicode="&#x14d;" horiz-adv-x="509" 
d="M22 182q0 129 75 216t181 87q89 0 136.5 -54t47.5 -136q0 -132 -75 -218.5t-181 -86.5q-90 0 -137 54t-47 138zM110 185q0 -122 99 -122q71 0 117.5 67.5t46.5 161.5q0 120 -98 120q-71 0 -118 -67.5t-47 -159.5zM171 572l14 69h260l-15 -69h-259z" />
    <glyph glyph-name="Obreve" unicode="&#x14e;" horiz-adv-x="718" 
d="M312 -10q-123 0 -195 71t-72 201q0 164 100.5 283.5t260.5 119.5q124 0 195.5 -70t71.5 -201q0 -106 -43.5 -197.5t-127 -149t-190.5 -57.5zM318 66q79 0 140.5 49t91.5 121.5t30 152.5q0 96 -45.5 148t-133.5 52q-79 0 -140.5 -48.5t-92 -121t-30.5 -152.5
q0 -95 46 -148t134 -53zM425 700q-58 0 -88.5 34.5t-25.5 93.5h62q-2 -69 58 -69q59 0 81 69h64q-13 -60 -53 -94t-98 -34z" />
    <glyph glyph-name="obreve" unicode="&#x14f;" horiz-adv-x="509" 
d="M22 182q0 129 75 216t181 87q89 0 136.5 -54t47.5 -136q0 -132 -75 -218.5t-181 -86.5q-90 0 -137 54t-47 138zM110 185q0 -122 99 -122q71 0 117.5 67.5t46.5 161.5q0 120 -98 120q-71 0 -118 -67.5t-47 -159.5zM294 543q-58 0 -88 34.5t-25 93.5h62q-2 -69 57 -69
q60 0 81 69h65q-13 -60 -53.5 -94t-98.5 -34z" />
    <glyph glyph-name="Ohungarumlaut" unicode="&#x150;" horiz-adv-x="718" 
d="M312 -10q-123 0 -195 71t-72 201q0 164 100.5 283.5t260.5 119.5q124 0 195.5 -70t71.5 -201q0 -106 -43.5 -197.5t-127 -149t-190.5 -57.5zM318 66q79 0 140.5 49t91.5 121.5t30 152.5q0 96 -45.5 148t-133.5 52q-79 0 -140.5 -48.5t-92 -121t-30.5 -152.5
q0 -95 46 -148t134 -53zM304 696l76 147h100l-108 -147h-68zM470 696l77 147h100l-109 -147h-68z" />
    <glyph glyph-name="ohungarumlaut" unicode="&#x151;" horiz-adv-x="509" 
d="M22 182q0 129 75 216t181 87q89 0 136.5 -54t47.5 -136q0 -132 -75 -218.5t-181 -86.5q-90 0 -137 54t-47 138zM110 185q0 -122 99 -122q71 0 117.5 67.5t46.5 161.5q0 120 -98 120q-71 0 -118 -67.5t-47 -159.5zM179 531l76 147h100l-108 -147h-68zM345 531l77 147h100
l-109 -147h-68z" />
    <glyph glyph-name="OE" unicode="&#x152;" horiz-adv-x="854" 
d="M491 0q-28 0 -86.5 -4.5t-85.5 -4.5q-127 0 -200.5 73t-73.5 203q0 108 44.5 197.5t135 145t212.5 55.5q25 0 87.5 -3t94.5 -3h233l-27 -73h-217l-45 -212h213l-16 -73h-213l-48 -228h243l-16 -73h-235zM411 72l108 512q-40 6 -91 6q-92 0 -159.5 -47t-98.5 -118.5
t-31 -154.5q0 -96 48 -150t144 -54q36 0 80 6z" />
    <glyph glyph-name="oe" unicode="&#x153;" horiz-adv-x="814" 
d="M202 -10q-87 0 -133.5 54t-46.5 136q0 132 74.5 218.5t177.5 86.5q115 0 155 -101h2q29 47 78 74t107 27q76 0 116 -42.5t40 -112.5q0 -55 -21 -110l-297 -4q-2 -16 -2 -25q0 -60 32.5 -94.5t86.5 -34.5q60 0 128 36l25 -64q-74 -44 -162 -44q-60 0 -104 28.5t-62 80.5
h-2q-33 -51 -84.5 -80t-107.5 -29zM209 63q72 0 118 66t46 159q0 124 -98 124q-70 0 -117.5 -68t-47.5 -162q0 -56 24.5 -87.5t74.5 -31.5zM465 281l214 3q8 27 8 49q0 35 -19.5 58.5t-63.5 23.5q-49 0 -88 -39t-51 -95z" />
    <glyph glyph-name="Racute" unicode="&#x154;" horiz-adv-x="539" 
d="M10 0l140 659h130q105 0 156.5 -47.5t51.5 -118.5q0 -82 -47.5 -131.5t-130.5 -66.5v-2q15 -25 44 -87l93 -206h-96l-71 167q-38 82 -53 108h-71l-58 -275h-88zM172 348h56q79 0 124.5 35.5t45.5 101.5q0 46 -30 73.5t-94 27.5h-52zM259 696l76 147h100l-109 -147h-67z
" />
    <glyph glyph-name="racute" unicode="&#x155;" horiz-adv-x="328" 
d="M0 0l101 473h70l-12 -94h2q51 106 134 106q33 0 58 -17l-37 -75q-20 10 -41 10q-45 0 -85 -52.5t-63 -157.5l-40 -193h-87zM188 531l76 147h100l-109 -147h-67z" />
    <glyph glyph-name="Rcommaaccent" unicode="&#x156;" horiz-adv-x="539" 
d="M10 0l140 659h130q105 0 156.5 -47.5t51.5 -118.5q0 -82 -47.5 -131.5t-130.5 -66.5v-2q15 -25 44 -87l93 -206h-96l-71 167q-38 82 -53 108h-71l-58 -275h-88zM172 348h56q79 0 124.5 35.5t45.5 101.5q0 46 -30 73.5t-94 27.5h-52zM111 -237l-20 58q87 21 87 79
q0 19 -12 48h80q12 -24 12 -55q0 -104 -147 -130z" />
    <glyph glyph-name="rcommaaccent" unicode="&#x157;" horiz-adv-x="328" 
d="M0 0l101 473h70l-12 -94h2q51 106 134 106q33 0 58 -17l-37 -75q-20 10 -41 10q-45 0 -85 -52.5t-63 -157.5l-40 -193h-87zM-54 -237l-20 58q87 21 87 79q0 19 -12 48h80q12 -24 12 -55q0 -104 -147 -130z" />
    <glyph glyph-name="Rcaron" unicode="&#x158;" horiz-adv-x="539" 
d="M10 0l140 659h130q105 0 156.5 -47.5t51.5 -118.5q0 -82 -47.5 -131.5t-130.5 -66.5v-2q15 -25 44 -87l93 -206h-96l-71 167q-38 82 -53 108h-71l-58 -275h-88zM172 348h56q79 0 124.5 35.5t45.5 101.5q0 46 -30 73.5t-94 27.5h-52zM270 697l-81 147h71l52 -95l77 95h75
l-119 -147h-75z" />
    <glyph glyph-name="rcaron" unicode="&#x159;" horiz-adv-x="328" 
d="M0 0l101 473h70l-12 -94h2q51 106 134 106q33 0 58 -17l-37 -75q-20 10 -41 10q-45 0 -85 -52.5t-63 -157.5l-40 -193h-87zM188 532l-81 147h71l52 -95l77 95h75l-119 -147h-75z" />
    <glyph glyph-name="Sacute" unicode="&#x15a;" horiz-adv-x="482" 
d="M2 34l35 70q61 -38 131 -38q56 0 95.5 26.5t39.5 84.5q0 33 -15.5 60t-39.5 44.5t-51 38.5t-51 40.5t-39.5 51.5t-15.5 72q0 80 57.5 130.5t151.5 50.5q81 0 149 -33l-17 -76q-60 34 -132 34q-50 0 -83 -25t-33 -69q0 -34 22 -61.5t53 -49t62 -46t53 -63.5t22 -89
q0 -96 -64.5 -146.5t-163.5 -50.5q-93 0 -166 44zM262 696l76 147h100l-109 -147h-67z" />
    <glyph glyph-name="sacute" unicode="&#x15b;" horiz-adv-x="360" 
d="M-26 28l29 66q53 -32 112 -32q37 0 63.5 17t26.5 49q0 23 -16 42t-38.5 34.5t-45 33t-38.5 46t-16 64.5q0 59 41.5 98t119.5 39q65 0 119 -21l-14 -71q-53 21 -101 21q-34 0 -55.5 -15.5t-21.5 -46.5q0 -23 16 -42t38.5 -35t45 -33.5t38.5 -46t16 -65.5
q0 -65 -49.5 -102.5t-125.5 -37.5q-82 0 -144 38zM180 531l76 147h100l-109 -147h-67z" />
    <glyph glyph-name="Scircumflex" unicode="&#x15c;" horiz-adv-x="482" 
d="M2 34l35 70q61 -38 131 -38q56 0 95.5 26.5t39.5 84.5q0 33 -15.5 60t-39.5 44.5t-51 38.5t-51 40.5t-39.5 51.5t-15.5 72q0 80 57.5 130.5t151.5 50.5q81 0 149 -33l-17 -76q-60 34 -132 34q-50 0 -83 -25t-33 -69q0 -34 22 -61.5t53 -49t62 -46t53 -63.5t22 -89
q0 -96 -64.5 -146.5t-163.5 -50.5q-93 0 -166 44zM162 696l119 147h74l82 -147h-71l-52 94l-77 -94h-75z" />
    <glyph glyph-name="scircumflex" unicode="&#x15d;" horiz-adv-x="360" 
d="M-26 28l29 66q53 -32 112 -32q37 0 63.5 17t26.5 49q0 23 -16 42t-38.5 34.5t-45 33t-38.5 46t-16 64.5q0 59 41.5 98t119.5 39q65 0 119 -21l-14 -71q-53 21 -101 21q-34 0 -55.5 -15.5t-21.5 -46.5q0 -23 16 -42t38.5 -35t45 -33.5t38.5 -46t16 -65.5
q0 -65 -49.5 -102.5t-125.5 -37.5q-82 0 -144 38zM85 531l119 147h74l82 -147h-71l-52 94l-77 -94h-75z" />
    <glyph glyph-name="Scedilla" unicode="&#x15e;" horiz-adv-x="482" 
d="M43 -198l21 45q19 -10 47 -10q26 0 42.5 10.5t16.5 30.5q0 35 -78 32l39 82q-74 8 -129 42l35 70q61 -38 131 -38q56 0 95.5 26.5t39.5 84.5q0 33 -15.5 60t-39.5 44.5t-51 38.5t-51 40.5t-39.5 51.5t-15.5 72q0 80 57.5 130.5t151.5 50.5q81 0 149 -33l-17 -76
q-60 34 -132 34q-50 0 -83 -25t-33 -69q0 -34 22 -61.5t53 -49t62 -46t53 -63.5t22 -89q0 -89 -56 -139t-143 -56l-21 -45q33 -2 52 -19.5t19 -45.5q0 -45 -36.5 -69.5t-93.5 -24.5q-42 0 -74 14z" />
    <glyph glyph-name="scedilla" unicode="&#x15f;" horiz-adv-x="360" 
d="M-17 -198l21 45q19 -10 47 -10q26 0 43 10.5t17 30.5q0 36 -78 32l39 84q-56 7 -98 34l29 66q53 -32 112 -32q37 0 63.5 17t26.5 49q0 22 -16 41t-38.5 35t-45 33.5t-38.5 46t-16 64.5q0 59 41.5 98t119.5 39q65 0 119 -21l-14 -71q-53 21 -101 21q-34 0 -55.5 -15.5
t-21.5 -46.5q0 -22 16 -41t38.5 -35t45 -34t38.5 -46.5t16 -65.5q0 -61 -43 -97.5t-113 -41.5l-20 -44q33 -2 51.5 -19.5t18.5 -45.5q0 -45 -36.5 -69.5t-93.5 -24.5q-42 0 -74 14z" />
    <glyph glyph-name="Scaron" unicode="&#x160;" horiz-adv-x="482" 
d="M2 34l35 70q61 -38 131 -38q56 0 95.5 26.5t39.5 84.5q0 33 -15.5 60t-39.5 44.5t-51 38.5t-51 40.5t-39.5 51.5t-15.5 72q0 80 57.5 130.5t151.5 50.5q81 0 149 -33l-17 -76q-60 34 -132 34q-50 0 -83 -25t-33 -69q0 -34 22 -61.5t53 -49t62 -46t53 -63.5t22 -89
q0 -96 -64.5 -146.5t-163.5 -50.5q-93 0 -166 44zM263 697l-81 147h71l52 -95l77 95h75l-119 -147h-75z" />
    <glyph glyph-name="scaron" unicode="&#x161;" horiz-adv-x="360" 
d="M-26 28l29 66q53 -32 112 -32q37 0 63.5 17t26.5 49q0 23 -16 42t-38.5 34.5t-45 33t-38.5 46t-16 64.5q0 59 41.5 98t119.5 39q65 0 119 -21l-14 -71q-53 21 -101 21q-34 0 -55.5 -15.5t-21.5 -46.5q0 -23 16 -42t38.5 -35t45 -33.5t38.5 -46t16 -65.5
q0 -65 -49.5 -102.5t-125.5 -37.5q-82 0 -144 38zM186 532l-81 147h71l52 -95l77 95h75l-119 -147h-75z" />
    <glyph glyph-name="Tcommaaccent" unicode="&#x162;" horiz-adv-x="481" 
d="M125 0l125 586h-194l16 73h477l-30 -73h-181l-124 -586h-89zM66 -237l-20 58q87 21 87 79q0 19 -12 48h80q12 -24 12 -55q0 -104 -147 -130z" />
    <glyph glyph-name="Tcommaaccent" unicode="&#x21a;" horiz-adv-x="481" 
d="M125 0l125 586h-194l16 73h477l-30 -73h-181l-124 -586h-89zM66 -237l-20 58q87 21 87 79q0 19 -12 48h80q12 -24 12 -55q0 -104 -147 -130z" />
    <glyph glyph-name="tcommaaccent" unicode="&#x163;" horiz-adv-x="341" 
d="M152 -10q-55 0 -82 25.5t-27 69.5q0 26 7 58l55 260h-78l15 70h79l23 107l92 26l-29 -133h129l-28 -70h-116l-57 -269q-4 -15 -4 -31q0 -40 42 -40q35 0 80 25l22 -64q-59 -34 -123 -34zM20 -237l-20 58q87 21 87 79q0 19 -12 48h80q12 -24 12 -55q0 -104 -147 -130z" />
    <glyph glyph-name="tcommaaccent" unicode="&#x21b;" horiz-adv-x="341" 
d="M152 -10q-55 0 -82 25.5t-27 69.5q0 26 7 58l55 260h-78l15 70h79l23 107l92 26l-29 -133h129l-28 -70h-116l-57 -269q-4 -15 -4 -31q0 -40 42 -40q35 0 80 25l22 -64q-59 -34 -123 -34zM20 -237l-20 58q87 21 87 79q0 19 -12 48h80q12 -24 12 -55q0 -104 -147 -130z" />
    <glyph glyph-name="Tcaron" unicode="&#x164;" horiz-adv-x="481" 
d="M125 0l125 586h-194l16 73h477l-30 -73h-181l-124 -586h-89zM281 697l-81 147h71l52 -95l77 95h75l-119 -147h-75z" />
    <glyph glyph-name="tcaron" unicode="&#x165;" horiz-adv-x="341" 
d="M157 -10q-55 0 -82 25.5t-27 69.5q0 26 7 58l55 260h-78l15 70h79l23 107l92 26l-29 -133h129l-28 -70h-116l-57 -269q-4 -15 -4 -31q0 -40 42 -40q35 0 80 25l22 -64q-59 -34 -123 -34zM307 509l-32 57q72 31 72 92q0 25 -11 50h78q12 -22 12 -51q0 -98 -119 -148z" />
    <glyph glyph-name="Tbar" unicode="&#x166;" horiz-adv-x="481" 
d="M125 0l60 283h-116l16 74h116l49 229h-194l16 73h477l-30 -73h-181l-49 -229h119l-16 -74h-119l-59 -283h-89z" />
    <glyph glyph-name="tbar" unicode="&#x167;" horiz-adv-x="341" 
d="M157 -10q-55 0 -82 25.5t-27 69.5q0 26 7 55l17 86h-75l15 69h75l23 108h-78l15 70h79l23 109l92 21l-29 -130h129l-28 -70h-116l-23 -108h95l-16 -69h-93l-19 -89q-5 -18 -5 -34q0 -40 42 -40q35 0 80 25l22 -64q-59 -34 -123 -34z" />
    <glyph glyph-name="Utilde" unicode="&#x168;" horiz-adv-x="651" 
d="M269 -10q-100 0 -156 50.5t-56 141.5q0 34 10 81l84 396h88l-83 -388q-10 -47 -10 -77q0 -64 35.5 -96.5t98.5 -32.5q84 0 129 47q39 40 56 120l91 427h88l-92 -436q-24 -112 -81 -166q-71 -67 -202 -67zM262 724q4 53 29 79.5t60 26.5q30 0 68 -23.5t53 -23.5
q27 0 34 41h62q-4 -53 -28.5 -79.5t-59.5 -26.5q-30 0 -68.5 23.5t-53.5 23.5q-27 0 -33 -41h-63z" />
    <glyph glyph-name="utilde" unicode="&#x169;" horiz-adv-x="502" 
d="M144 -10q-51 0 -83 29.5t-32 89.5q0 33 12 93l57 271h87l-59 -279q-9 -40 -9 -66q0 -62 54 -62q56 0 100 48.5t60 119.5l51 239h86l-59 -281q-16 -78 -16 -120q0 -29 7 -62l-74 -16q-13 42 -12 92h-2q-30 -42 -75.5 -69t-92.5 -27zM154 552q4 53 29 79.5t60 26.5
q30 0 68 -23.5t53 -23.5q28 0 34 41h62q-4 -53 -28.5 -79.5t-59.5 -26.5q-30 0 -68.5 23.5t-53.5 23.5q-27 0 -33 -41h-63z" />
    <glyph glyph-name="Umacron" unicode="&#x16a;" horiz-adv-x="651" 
d="M269 -10q-100 0 -156 50.5t-56 141.5q0 34 10 81l84 396h88l-83 -388q-10 -47 -10 -77q0 -64 35.5 -96.5t98.5 -32.5q84 0 129 47q39 40 56 120l91 427h88l-92 -436q-24 -112 -81 -166q-71 -67 -202 -67zM277 713l14 69h260l-15 -69h-259z" />
    <glyph glyph-name="umacron" unicode="&#x16b;" horiz-adv-x="502" 
d="M144 -10q-51 0 -83 29.5t-32 89.5q0 33 12 93l57 271h87l-59 -279q-9 -40 -9 -66q0 -62 54 -62q56 0 100 48.5t60 119.5l51 239h86l-59 -281q-16 -78 -16 -120q0 -29 7 -62l-74 -16q-13 42 -12 92h-2q-30 -42 -75.5 -69t-92.5 -27zM170 572l14 69h260l-15 -69h-259z" />
    <glyph glyph-name="Ubreve" unicode="&#x16c;" horiz-adv-x="651" 
d="M269 -10q-100 0 -156 50.5t-56 141.5q0 34 10 81l84 396h88l-83 -388q-10 -47 -10 -77q0 -64 35.5 -96.5t98.5 -32.5q84 0 129 47q39 40 56 120l91 427h88l-92 -436q-24 -112 -81 -166q-71 -67 -202 -67zM404 700q-58 0 -88.5 34.5t-25.5 93.5h62q-2 -69 58 -69
q59 0 81 69h64q-13 -60 -53 -94t-98 -34z" />
    <glyph glyph-name="ubreve" unicode="&#x16d;" horiz-adv-x="502" 
d="M144 -10q-51 0 -83 29.5t-32 89.5q0 33 12 93l57 271h87l-59 -279q-9 -40 -9 -66q0 -62 54 -62q56 0 100 48.5t60 119.5l51 239h86l-59 -281q-16 -78 -16 -120q0 -29 7 -62l-74 -16q-13 42 -12 92h-2q-30 -42 -75.5 -69t-92.5 -27zM294 543q-58 0 -88 34.5t-25 93.5h62
q-2 -69 57 -69q60 0 81 69h65q-13 -60 -53.5 -94t-98.5 -34z" />
    <glyph glyph-name="Uring" unicode="&#x16e;" horiz-adv-x="651" 
d="M269 -10q-100 0 -156 50.5t-56 141.5q0 34 10 81l84 396h88l-83 -388q-10 -47 -10 -77q0 -64 35.5 -96.5t98.5 -32.5q84 0 129 47q39 40 56 120l91 427h88l-92 -436q-24 -112 -81 -166q-71 -67 -202 -67zM397 650q-44 0 -71 22.5t-27 60.5q0 49 33.5 78.5t84.5 29.5
q43 0 70 -22.5t27 -61.5q0 -48 -33.5 -77.5t-83.5 -29.5zM400 694q24 0 38.5 17.5t14.5 43.5q0 19 -10.5 30.5t-29.5 11.5q-24 0 -38.5 -17.5t-14.5 -43.5q0 -19 11 -30.5t29 -11.5z" />
    <glyph glyph-name="uring" unicode="&#x16f;" horiz-adv-x="502" 
d="M144 -10q-51 0 -83 29.5t-32 89.5q0 33 12 93l57 271h87l-59 -279q-9 -40 -9 -66q0 -62 54 -62q56 0 100 48.5t60 119.5l51 239h86l-59 -281q-16 -78 -16 -120q0 -29 7 -62l-74 -16q-13 42 -12 92h-2q-30 -42 -75.5 -69t-92.5 -27zM292 523q-44 0 -70.5 23t-26.5 61
q0 48 33.5 78t83.5 30q44 0 71 -22.5t27 -61.5q0 -48 -34 -78t-84 -30zM296 567q24 0 38.5 17.5t14.5 43.5q0 20 -11 31.5t-30 11.5q-23 0 -38 -17.5t-15 -43.5q0 -20 11 -31.5t30 -11.5z" />
    <glyph glyph-name="Uhungarumlaut" unicode="&#x170;" horiz-adv-x="651" 
d="M269 -10q-100 0 -156 50.5t-56 141.5q0 34 10 81l84 396h88l-83 -388q-10 -47 -10 -77q0 -64 35.5 -96.5t98.5 -32.5q84 0 129 47q39 40 56 120l91 427h88l-92 -436q-24 -112 -81 -166q-71 -67 -202 -67zM282 696l76 147h100l-108 -147h-68zM448 696l77 147h100
l-109 -147h-68z" />
    <glyph glyph-name="uhungarumlaut" unicode="&#x171;" horiz-adv-x="502" 
d="M144 -10q-51 0 -83 29.5t-32 89.5q0 33 12 93l57 271h87l-59 -279q-9 -40 -9 -66q0 -62 54 -62q56 0 100 48.5t60 119.5l51 239h86l-59 -281q-16 -78 -16 -120q0 -29 7 -62l-74 -16q-13 42 -12 92h-2q-30 -42 -75.5 -69t-92.5 -27zM174 531l76 147h100l-108 -147h-68z
M340 531l77 147h100l-109 -147h-68z" />
    <glyph glyph-name="Uogonek" unicode="&#x172;" horiz-adv-x="651" 
d="M308 -202q-38 -11 -69 -11q-43 0 -64 20t-21 51q0 74 93 131v2q-90 5 -140 55t-50 136q0 34 10 81l84 396h88l-83 -388q-10 -47 -10 -77q0 -64 35 -96.5t99 -32.5q81 0 124.5 43t60.5 124l91 427h88l-92 -436q-20 -93 -61.5 -144.5t-108.5 -73.5q-60 -20 -106.5 -56.5
t-46.5 -73.5q0 -32 34 -32q15 0 39 8z" />
    <glyph glyph-name="uogonek" unicode="&#x173;" horiz-adv-x="502" 
d="M144 -10q-51 0 -83 29.5t-32 89.5q0 33 12 93l57 271h87l-59 -279q-9 -40 -9 -66q0 -62 54 -62q56 0 100 48.5t60 119.5l51 239h86l-59 -281q-16 -78 -16 -121q0 -32 7 -65q-58 -26 -98 -61t-40 -70q0 -32 33 -32q15 0 39 8l6 -53q-33 -11 -69 -11q-43 0 -64 20t-21 51
q0 89 134 158q-8 41 -7 70h-2q-30 -43 -75 -69.5t-92 -26.5z" />
    <glyph glyph-name="Wcircumflex" unicode="&#x174;" horiz-adv-x="837" 
d="M163 -4l-91 663h96l44 -378q8 -67 15 -151h2q32 80 61 138l137 280l-15 111h88l46 -379q8 -58 16 -150h2q21 63 57 140l181 389h96l-324 -663h-72l-39 290q-12 77 -17 135h-2q-25 -60 -64 -138l-144 -287h-73zM354 696l119 147h74l82 -147h-71l-52 94l-77 -94h-75z" />
    <glyph glyph-name="wcircumflex" unicode="&#x175;" horiz-adv-x="674" 
d="M111 -3l-72 476h82l32 -227q10 -68 15 -129h2q18 45 50 112l118 244h62l28 -222q6 -48 14 -134h2q7 19 49 114l110 242h91l-236 -476h-68l-28 229q-10 80 -14 119h-2q-19 -45 -57 -122l-112 -226h-66zM238 531l119 147h74l82 -147h-71l-52 94l-77 -94h-75z" />
    <glyph glyph-name="Ycircumflex" unicode="&#x176;" horiz-adv-x="515" 
d="M163 0l54 255l-145 404h92l107 -318h2l205 318h99l-272 -407l-54 -252h-88zM187 696l119 147h74l82 -147h-71l-52 94l-77 -94h-75z" />
    <glyph glyph-name="ycircumflex" unicode="&#x177;" horiz-adv-x="452" 
d="M-125 -219l31 68q27 -13 58 -13q49 0 91 35.5t87 127.5l-107 474h87l50 -241q6 -29 27 -135h2q31 68 57 123l123 253h90l-249 -489q-62 -123 -121.5 -172t-143.5 -49q-51 0 -82 18zM119 531l119 147h74l82 -147h-71l-52 94l-77 -94h-75z" />
    <glyph glyph-name="Ydieresis" unicode="&#x178;" horiz-adv-x="515" 
d="M163 0l54 255l-145 404h92l107 -318h2l205 318h99l-272 -407l-54 -252h-88zM242 704q-19 0 -31 11.5t-12 30.5q0 24 15.5 40t37.5 16q19 0 30.5 -11t11.5 -30q0 -25 -15 -41t-37 -16zM422 704q-19 0 -30.5 11.5t-11.5 30.5q0 24 15 40t37 16q19 0 30.5 -11t11.5 -30
q0 -25 -15 -41t-37 -16z" />
    <glyph glyph-name="Zacute" unicode="&#x179;" horiz-adv-x="526" 
d="M-27 0l416 586h-284l-8 73h441l-413 -586h319l-17 -73h-454zM268 696l76 147h100l-109 -147h-67z" />
    <glyph glyph-name="zacute" unicode="&#x17a;" horiz-adv-x="387" 
d="M-35 0l269 403h-189l-6 70h338l-271 -402h214l-14 -71h-341zM172 531l76 147h100l-109 -147h-67z" />
    <glyph glyph-name="Zdotaccent" unicode="&#x17b;" horiz-adv-x="526" 
d="M-27 0l416 586h-284l-8 73h441l-413 -586h319l-17 -73h-454zM311 704q-24 0 -38 14t-14 35q0 28 19 46t44 18q24 0 38 -14t14 -35q0 -28 -19 -46t-44 -18z" />
    <glyph glyph-name="zdotaccent" unicode="&#x17c;" horiz-adv-x="387" 
d="M-35 0l269 403h-189l-6 70h338l-271 -402h214l-14 -71h-341zM227 571q-24 0 -38 14t-14 35q0 28 19 45.5t44 17.5q24 0 38 -14t14 -35q0 -27 -19 -45t-44 -18z" />
    <glyph glyph-name="Zcaron" unicode="&#x17d;" horiz-adv-x="526" 
d="M-27 0l416 586h-284l-8 73h441l-413 -586h319l-17 -73h-454zM273 697l-81 147h71l52 -95l77 95h75l-119 -147h-75z" />
    <glyph glyph-name="zcaron" unicode="&#x17e;" horiz-adv-x="387" 
d="M-35 0l269 403h-189l-6 70h338l-271 -402h214l-14 -71h-341zM183 532l-81 147h71l52 -95l77 95h75l-119 -147h-75z" />
    <glyph glyph-name="florin" unicode="&#x192;" horiz-adv-x="524" 
d="M-87 -143l31 71q30 -20 76 -20q42 0 69.5 27t43.5 95l64 284h-100l10 70h105l33 144q40 180 195 180q62 0 110 -27l-31 -71q-30 20 -76 20q-41 0 -69 -27.5t-44 -94.5l-27 -124h126l-25 -70h-118l-68 -304q-40 -180 -194 -180q-63 0 -111 27z" />
    <glyph glyph-name="Aringacute" unicode="&#x1fa;" horiz-adv-x="580" 
d="M-44 0l346 656q-58 17 -58 77q0 46 30.5 75.5t76.5 31.5l58 113h99l-93 -124q44 -21 44 -72q0 -39 -23 -66t-59 -36l120 -655h-93l-30 173h-232l-88 -173h-98zM182 246h180l-30 195q-8 54 -13 87h-2q-33 -76 -41 -92zM345 694q24 0 38.5 17.5t14.5 43.5q0 19 -10.5 30.5
t-29.5 11.5q-24 0 -38.5 -17.5t-14.5 -43.5q0 -19 11 -30.5t29 -11.5z" />
    <glyph glyph-name="aringacute" unicode="&#x1fb;" 
d="M268 516q-44 0 -70.5 23t-26.5 61q0 45 29 74t74 33l70 136h100l-108 -144q50 -21 50 -75q0 -48 -34 -78t-84 -30zM272 560q24 0 38.5 17.5t14.5 43.5q0 20 -11 31.5t-30 11.5q-23 0 -38 -17.5t-15 -43.5q0 -20 11 -31.5t30 -11.5zM127 -10q-57 0 -91.5 35t-34.5 90
q0 80 56 126q63 52 191 52l66 1q6 22 6 49q0 72 -87 72q-63 0 -140 -36l-12 67q83 39 166 39q68 0 114 -31.5t46 -105.5q0 -36 -17 -113l-10 -43q-17 -77 -17 -122q0 -31 8 -60l-75 -16q-13 41 -13 81q-67 -85 -156 -85zM150 62q47 0 90.5 38.5t55.5 95.5l7 34h-37
q-106 0 -146 -33q-33 -25 -33 -70q0 -65 63 -65z" />
    <glyph glyph-name="AEacute" unicode="&#x1fc;" horiz-adv-x="785" 
d="M-66 0l470 659h340l-22 -73h-215l-29 -212h212l-11 -73h-210l-31 -228h242l-11 -73h-328l23 173h-207l-122 -173h-101zM210 246h164l42 297h-2q-70 -106 -84 -125zM475 696l76 147h100l-109 -147h-67z" />
    <glyph glyph-name="aeacute" unicode="&#x1fd;" horiz-adv-x="749" 
d="M134 -10q-60 0 -96.5 35.5t-36.5 94.5q0 81 66 122.5t183 42.5l63 1q6 32 6 55q0 38 -20.5 56t-66.5 18q-62 0 -139 -36l-12 67q83 39 162 39q114 0 140 -80h2q62 80 163 80q77 0 117.5 -42.5t40.5 -112.5q0 -60 -20 -105l-298 -4q-2 -18 -2 -27q0 -62 32.5 -97t86.5 -35
q60 0 128 36l25 -64q-72 -44 -159 -44q-64 0 -108.5 30.5t-60.5 85.5h-2q-33 -56 -84.5 -86t-109.5 -30zM150 62q49 0 92 37t56 101l4 20h-49q-166 -3 -166 -93q0 -65 63 -65zM399 287l214 2q8 21 8 44q0 35 -19.5 58.5t-63.5 23.5q-48 0 -87.5 -37.5t-51.5 -90.5zM369 531
l76 147h100l-109 -147h-67z" />
    <glyph glyph-name="Oslashacute" unicode="&#x1fe;" horiz-adv-x="719" 
d="M94 -25l-54 46l58 66q-53 73 -53 184q0 163 99.5 278.5t260.5 115.5q98 0 163 -50l60 66l54 -45l-61 -68q53 -72 53 -183q0 -163 -99.5 -279t-260.5 -116q-98 0 -163 50zM206 105q42 -39 116 -39q116 0 187 96t71 224q0 61 -22 108zM139 271q0 -66 22 -111l352 391
q-43 38 -114 38q-117 0 -188.5 -95.5t-71.5 -222.5zM377 696l76 147h100l-109 -147h-67z" />
    <glyph glyph-name="oslashacute" unicode="&#x1ff;" horiz-adv-x="509" 
d="M56 -23l-40 35l40 49q-34 49 -34 124q0 130 75 215t181 85q65 0 110 -32l38 45l40 -35l-40 -48q36 -51 36 -125q0 -130 -75 -215t-181 -85q-65 0 -111 33zM146 83q22 -21 63 -21q71 0 118.5 67t47.5 159q0 33 -9 57zM109 188q0 -35 7 -57l221 262q-25 20 -62 20
q-71 0 -118.5 -66.5t-47.5 -158.5zM254 531l76 147h100l-109 -147h-67z" />
    <glyph glyph-name="Scommaaccent" unicode="&#x218;" horiz-adv-x="482" 
d="M2 34l35 70q61 -38 131 -38q56 0 95.5 26.5t39.5 84.5q0 33 -15.5 60t-39.5 44.5t-51 38.5t-51 40.5t-39.5 51.5t-15.5 72q0 80 57.5 130.5t151.5 50.5q81 0 149 -33l-17 -76q-60 34 -132 34q-50 0 -83 -25t-33 -69q0 -34 22 -61.5t53 -49t62 -46t53 -63.5t22 -89
q0 -96 -64.5 -146.5t-163.5 -50.5q-93 0 -166 44zM59 -237l-20 58q87 21 87 79q0 19 -12 48h80q12 -24 12 -55q0 -104 -147 -130z" />
    <glyph glyph-name="scommaaccent" unicode="&#x219;" horiz-adv-x="360" 
d="M-26 28l29 66q53 -32 112 -32q37 0 63.5 17t26.5 49q0 23 -16 42t-38.5 34.5t-45 33t-38.5 46t-16 64.5q0 59 41.5 98t119.5 39q65 0 119 -21l-14 -71q-53 21 -101 21q-34 0 -55.5 -15.5t-21.5 -46.5q0 -23 16 -42t38.5 -35t45 -33.5t38.5 -46t16 -65.5
q0 -65 -49.5 -102.5t-125.5 -37.5q-82 0 -144 38zM4 -237l-20 58q87 21 87 79q0 19 -12 48h80q12 -24 12 -55q0 -104 -147 -130z" />
    <glyph glyph-name="circumflex" unicode="&#x2c6;" horiz-adv-x="368" 
d="M46 531l119 147h74l82 -147h-71l-52 94l-77 -94h-75z" />
    <glyph glyph-name="circumflex" unicode="&#x302;" horiz-adv-x="368" 
d="M46 531l119 147h74l82 -147h-71l-52 94l-77 -94h-75z" />
    <glyph glyph-name="caron" unicode="&#x2c7;" horiz-adv-x="368" 
d="M147 532l-81 147h71l52 -95l77 95h75l-119 -147h-75z" />
    <glyph glyph-name="caron" unicode="&#x30c;" horiz-adv-x="368" 
d="M147 532l-81 147h71l52 -95l77 95h75l-119 -147h-75z" />
    <glyph glyph-name="breve" unicode="&#x2d8;" horiz-adv-x="368" 
d="M184 543q-58 0 -88 34.5t-25 93.5h62q-2 -69 57 -69q60 0 81 69h65q-13 -60 -53.5 -94t-98.5 -34z" />
    <glyph glyph-name="breve" unicode="&#x306;" horiz-adv-x="368" 
d="M184 543q-58 0 -88 34.5t-25 93.5h62q-2 -69 57 -69q60 0 81 69h65q-13 -60 -53.5 -94t-98.5 -34z" />
    <glyph glyph-name="dotaccent" unicode="&#x2d9;" horiz-adv-x="368" 
d="M191 571q-24 0 -38 14t-14 35q0 28 19 45.5t44 17.5q24 0 38 -14t14 -35q0 -27 -19 -45t-44 -18z" />
    <glyph glyph-name="dotaccent" unicode="&#x307;" horiz-adv-x="368" 
d="M191 571q-24 0 -38 14t-14 35q0 28 19 45.5t44 17.5q24 0 38 -14t14 -35q0 -27 -19 -45t-44 -18z" />
    <glyph glyph-name="ring" unicode="&#x2da;" horiz-adv-x="368" 
d="M186 523q-44 0 -70.5 23t-26.5 61q0 48 33.5 78t83.5 30q44 0 71 -22.5t27 -61.5q0 -48 -34 -78t-84 -30zM190 567q24 0 38.5 17.5t14.5 43.5q0 20 -11 31.5t-30 11.5q-23 0 -38 -17.5t-15 -43.5q0 -20 11 -31.5t30 -11.5z" />
    <glyph glyph-name="ring" unicode="&#x30a;" horiz-adv-x="368" 
d="M186 523q-44 0 -70.5 23t-26.5 61q0 48 33.5 78t83.5 30q44 0 71 -22.5t27 -61.5q0 -48 -34 -78t-84 -30zM190 567q24 0 38.5 17.5t14.5 43.5q0 20 -11 31.5t-30 11.5q-23 0 -38 -17.5t-15 -43.5q0 -20 11 -31.5t30 -11.5z" />
    <glyph glyph-name="ogonek" unicode="&#x2db;" horiz-adv-x="368" 
d="M163 -213q-43 0 -64 20t-21 51q0 87 132 155l79 -13q-136 -62 -136 -125q0 -32 34 -32q16 0 38 8l7 -53q-38 -11 -69 -11z" />
    <glyph glyph-name="ogonek" unicode="&#x328;" horiz-adv-x="368" 
d="M163 -213q-43 0 -64 20t-21 51q0 87 132 155l79 -13q-136 -62 -136 -125q0 -32 34 -32q16 0 38 8l7 -53q-38 -11 -69 -11z" />
    <glyph glyph-name="tilde" unicode="&#x2dc;" horiz-adv-x="368" 
d="M33 552q4 53 29 79.5t60 26.5q30 0 68 -23.5t53 -23.5q28 0 34 41h62q-4 -53 -28.5 -79.5t-59.5 -26.5q-30 0 -68.5 23.5t-53.5 23.5q-27 0 -33 -41h-63z" />
    <glyph glyph-name="tilde" unicode="&#x303;" horiz-adv-x="368" 
d="M33 552q4 53 29 79.5t60 26.5q30 0 68 -23.5t53 -23.5q28 0 34 41h62q-4 -53 -28.5 -79.5t-59.5 -26.5q-30 0 -68.5 23.5t-53.5 23.5q-27 0 -33 -41h-63z" />
    <glyph glyph-name="hungarumlaut" unicode="&#x2dd;" horiz-adv-x="368" 
d="M66 531l76 147h100l-108 -147h-68zM232 531l77 147h100l-109 -147h-68z" />
    <glyph glyph-name="hungarumlaut" unicode="&#x30b;" horiz-adv-x="368" 
d="M66 531l76 147h100l-108 -147h-68zM232 531l77 147h100l-109 -147h-68z" />
    <glyph glyph-name="caronSlovak" unicode="&#x313;" horiz-adv-x="368" 
d="M136 509l-32 57q72 31 72 92q0 25 -11 50h78q12 -22 12 -51q0 -98 -119 -148z" />
    <glyph glyph-name="caronSlovak" unicode="&#x315;" horiz-adv-x="368" 
d="M136 509l-32 57q72 31 72 92q0 25 -11 50h78q12 -22 12 -51q0 -98 -119 -148z" />
    <glyph glyph-name="commaaccent" unicode="&#x326;" horiz-adv-x="368" 
d="M120 -237l-20 58q87 21 87 79q0 19 -12 48h80q12 -24 12 -55q0 -104 -147 -130z" />
    <glyph glyph-name="commaaccent" unicode="&#xf6c3;" horiz-adv-x="368" 
d="M120 -237l-20 58q87 21 87 79q0 19 -12 48h80q12 -24 12 -55q0 -104 -147 -130z" />
    <glyph glyph-name="Omega" unicode="&#x3a9;" horiz-adv-x="718" 
d="M-2 0l15 73h64q47 0 76 -5l1 2q-41 38 -68.5 97.5t-27.5 128.5q0 154 97.5 261.5t251.5 107.5q127 0 197.5 -72t70.5 -183q0 -203 -205 -341v-2q34 6 76 6h59l-15 -73h-243l13 60q104 64 162.5 151t58.5 191q0 81 -46.5 134t-134.5 53q-107 0 -179 -86t-72 -221
q0 -64 26.5 -122.5t75.5 -99.5l-13 -60h-240z" />
    <glyph glyph-name="Omega" unicode="&#x2126;" horiz-adv-x="718" 
d="M-2 0l15 73h64q47 0 76 -5l1 2q-41 38 -68.5 97.5t-27.5 128.5q0 154 97.5 261.5t251.5 107.5q127 0 197.5 -72t70.5 -183q0 -203 -205 -341v-2q34 6 76 6h59l-15 -73h-243l13 60q104 64 162.5 151t58.5 191q0 81 -46.5 134t-134.5 53q-107 0 -179 -86t-72 -221
q0 -64 26.5 -122.5t75.5 -99.5l-13 -60h-240z" />
    <glyph glyph-name="pi" unicode="&#x3c0;" horiz-adv-x="565" 
d="M36 0l85 403h-81l15 70h515l-28 -70h-86l-59 -282q-3 -15 -3 -25q0 -24 27 -24q11 0 29 5v-74q-27 -9 -62 -9q-85 0 -85 75q0 21 8 58l59 276h-162l-85 -403h-87z" />
    <glyph glyph-name="Wgrave" unicode="&#x1e80;" horiz-adv-x="837" 
d="M163 -4l-91 663h96l44 -378q8 -67 15 -151h2q32 80 61 138l137 280l-15 111h88l46 -379q8 -58 16 -150h2q21 63 57 140l181 389h96l-324 -663h-72l-39 290q-12 77 -17 135h-2q-25 -60 -64 -138l-144 -287h-73zM451 696l-81 147h100l50 -147h-69z" />
    <glyph glyph-name="wgrave" unicode="&#x1e81;" horiz-adv-x="674" 
d="M111 -3l-72 476h82l32 -227q10 -68 15 -129h2q18 45 50 112l118 244h62l28 -222q6 -48 14 -134h2q7 19 49 114l110 242h91l-236 -476h-68l-28 229q-10 80 -14 119h-2q-19 -45 -57 -122l-112 -226h-66zM357 531l-81 147h100l49 -147h-68z" />
    <glyph glyph-name="Wacute" unicode="&#x1e82;" horiz-adv-x="837" 
d="M163 -4l-91 663h96l44 -378q8 -67 15 -151h2q32 80 61 138l137 280l-15 111h88l46 -379q8 -58 16 -150h2q21 63 57 140l181 389h96l-324 -663h-72l-39 290q-12 77 -17 135h-2q-25 -60 -64 -138l-144 -287h-73zM442 696l76 147h100l-109 -147h-67z" />
    <glyph glyph-name="wacute" unicode="&#x1e83;" horiz-adv-x="674" 
d="M111 -3l-72 476h82l32 -227q10 -68 15 -129h2q18 45 50 112l118 244h62l28 -222q6 -48 14 -134h2q7 19 49 114l110 242h91l-236 -476h-68l-28 229q-10 80 -14 119h-2q-19 -45 -57 -122l-112 -226h-66zM332 531l76 147h100l-109 -147h-67z" />
    <glyph glyph-name="Wdieresis" unicode="&#x1e84;" horiz-adv-x="837" 
d="M163 -4l-91 663h96l44 -378q8 -67 15 -151h2q32 80 61 138l137 280l-15 111h88l46 -379q8 -58 16 -150h2q21 63 57 140l181 389h96l-324 -663h-72l-39 290q-12 77 -17 135h-2q-25 -60 -64 -138l-144 -287h-73zM400 704q-19 0 -31 11.5t-12 30.5q0 24 15.5 40t37.5 16
q19 0 30.5 -11t11.5 -30q0 -25 -15 -41t-37 -16zM580 704q-19 0 -30.5 11.5t-11.5 30.5q0 24 15 40t37 16q19 0 30.5 -11t11.5 -30q0 -25 -15 -41t-37 -16z" />
    <glyph glyph-name="wdieresis" unicode="&#x1e85;" horiz-adv-x="674" 
d="M111 -3l-72 476h82l32 -227q10 -68 15 -129h2q18 45 50 112l118 244h62l28 -222q6 -48 14 -134h2q7 19 49 114l110 242h91l-236 -476h-68l-28 229q-10 80 -14 119h-2q-19 -45 -57 -122l-112 -226h-66zM293 555q-19 0 -30.5 11.5t-11.5 30.5q0 25 15 41t37 16
q19 0 31 -11.5t12 -30.5q0 -24 -15.5 -40.5t-37.5 -16.5zM473 555q-19 0 -30.5 11.5t-11.5 30.5q0 25 15 41t37 16q19 0 31 -11.5t12 -30.5q0 -24 -15.5 -40.5t-37.5 -16.5z" />
    <glyph glyph-name="Ygrave" unicode="&#x1ef2;" horiz-adv-x="515" 
d="M163 0l54 255l-145 404h92l107 -318h2l205 318h99l-272 -407l-54 -252h-88zM288 696l-81 147h100l50 -147h-69z" />
    <glyph glyph-name="ygrave" unicode="&#x1ef3;" horiz-adv-x="452" 
d="M-125 -219l31 68q27 -13 58 -13q49 0 91 35.5t87 127.5l-107 474h87l50 -241q6 -29 27 -135h2q31 68 57 123l123 253h90l-249 -489q-62 -123 -121.5 -172t-143.5 -49q-51 0 -82 18zM224 531l-81 147h100l49 -147h-68z" />
    <glyph glyph-name="endash" unicode="&#x2013;" horiz-adv-x="450" 
d="M0 219v68h450v-68h-450z" />
    <glyph glyph-name="emdash" unicode="&#x2014;" horiz-adv-x="800" 
d="M0 219v68h800v-68h-800z" />
    <glyph glyph-name="quoteleft" unicode="&#x2018;" horiz-adv-x="215" 
d="M124 448q-11 37 -11 82q0 98 71 181l48 -20q-37 -66 -37 -136q0 -38 11 -84z" />
    <glyph glyph-name="quoteright" unicode="&#x2019;" horiz-adv-x="220" 
d="M118 461l-41 32q78 88 80 207h85q-1 -75 -29 -133.5t-95 -105.5z" />
    <glyph glyph-name="quotesinglbase" unicode="&#x201a;" horiz-adv-x="248" 
d="M-1 -133l-41 32q78 88 80 207h85q-1 -75 -29 -133.5t-95 -105.5z" />
    <glyph glyph-name="quotedblleft" unicode="&#x201c;" horiz-adv-x="396" 
d="M124 448q-11 37 -11 82q0 98 71 181l48 -20q-37 -66 -37 -136q0 -38 11 -84zM305 448q-12 41 -12 82q0 97 72 181l48 -20q-37 -66 -37 -136q0 -38 11 -84z" />
    <glyph glyph-name="quotedblright" unicode="&#x201d;" horiz-adv-x="397" 
d="M118 461l-41 32q78 88 80 207h85q-1 -75 -29 -133.5t-95 -105.5zM295 461l-41 32q78 88 80 207h85q0 -152 -124 -239z" />
    <glyph glyph-name="quotedblbase" unicode="&#x201e;" horiz-adv-x="426" 
d="M-1 -130l-41 32q78 88 80 207h85q-1 -75 -29 -133.5t-95 -105.5zM176 -130l-41 32q78 88 80 207h85q0 -152 -124 -239z" />
    <glyph glyph-name="dagger" unicode="&#x2020;" horiz-adv-x="487" 
d="M119 -47l29 139q22 106 47 204t27 109q-19 0 -76.5 -5.5t-80.5 -5.5l19 88q23 -1 78 -7t72 -7q5 22 12.5 79.5t12.5 80.5h87q-5 -24 -22.5 -81t-21.5 -79q16 1 74.5 7t82.5 6l-18 -88q-23 1 -77.5 6.5t-73.5 5.5q-3 -15 -18.5 -104t-35.5 -183l-34 -165h-83z" />
    <glyph glyph-name="daggerdbl" unicode="&#x2021;" horiz-adv-x="487" 
d="M118 -47q5 27 22 84.5t21 75.5q-16 -1 -74.5 -7t-82.5 -6l18 88q23 -1 77.5 -6.5t73.5 -5.5q3 11 8.5 49.5t12.5 70.5q6 27 16 62.5t12 46.5q-19 0 -76.5 -5.5t-80.5 -5.5l19 88q23 -1 78 -7t72 -7q5 23 12.5 81t11.5 79h88q-5 -24 -22.5 -81t-21.5 -79q14 1 73 7t84 6
l-18 -88q-23 1 -77.5 6.5t-73.5 5.5q-3 -14 -9.5 -52t-10.5 -62q-6 -32 -16.5 -69.5t-12.5 -45.5q18 0 76 5.5t81 5.5l-19 -88q-24 1 -79 7t-71 7q-6 -25 -14 -85l-10 -75h-87z" />
    <glyph glyph-name="bullet" unicode="&#x2022;" horiz-adv-x="310" 
d="M150 207q-45 0 -76 32.5t-31 78.5q0 47 30.5 79t76.5 32t77 -32t31 -79q0 -46 -31 -78.5t-77 -32.5z" />
    <glyph glyph-name="ellipsis" unicode="&#x2026;" horiz-adv-x="892" 
d="M93 -8q-21 0 -34.5 14.5t-13.5 35.5q0 26 16.5 43.5t41.5 17.5q21 0 35 -15t14 -36q0 -25 -17 -42.5t-42 -17.5zM384 -8q-21 0 -34.5 14.5t-13.5 35.5q0 26 16.5 43.5t41.5 17.5q21 0 35 -15t14 -36q0 -25 -17 -42.5t-42 -17.5zM677 -8q-21 0 -35 14.5t-14 35.5
q0 26 17 43.5t42 17.5q21 0 34.5 -15t13.5 -36q0 -25 -17 -42.5t-41 -17.5z" />
    <glyph glyph-name="perthousand" unicode="&#x2030;" horiz-adv-x="1208" 
d="M222 316q-60 0 -93 35.5t-33 98.5q0 92 48.5 153.5t128.5 61.5q60 0 93 -36t33 -99q0 -92 -48.5 -153t-128.5 -61zM228 374q45 0 72 47.5t27 106.5q0 79 -60 79q-45 0 -72 -48t-27 -107q0 -78 60 -78zM594 -10q-60 0 -93.5 35.5t-33.5 98.5q0 92 48.5 153.5t129.5 61.5
q60 0 93 -35.5t33 -98.5q0 -92 -48.5 -153.5t-128.5 -61.5zM600 48q45 0 72 48t27 107q0 78 -61 78q-44 0 -71 -48t-27 -107q0 -78 60 -78zM945 -10q-60 0 -93 35.5t-33 98.5q0 92 48.5 153.5t129.5 61.5q60 0 93 -35.5t33 -98.5q0 -92 -48.5 -153.5t-129.5 -61.5zM952 48
q44 0 71 48t27 107q0 78 -60 78q-44 0 -71.5 -48t-27.5 -107q0 -78 61 -78zM151 0l490 659h78l-490 -659h-78z" />
    <glyph glyph-name="guilsinglleft" unicode="&#x2039;" horiz-adv-x="321" 
d="M21 244l194 229l64 -46l-162 -187l109 -185l-69 -43z" />
    <glyph glyph-name="guilsinglright" unicode="&#x203a;" horiz-adv-x="321" 
d="M8 58l161 188l-108 184l69 43l136 -233l-194 -228z" />
    <glyph glyph-name="fraction" unicode="&#x2044;" horiz-adv-x="136" 
d="M-184 0l490 659h77l-490 -659h-77z" />
    <glyph glyph-name="fraction" unicode="&#x2215;" horiz-adv-x="136" 
d="M-184 0l490 659h77l-490 -659h-77z" />
    <glyph glyph-name="zerosuperior" unicode="&#x2070;" horiz-adv-x="374" 
d="M209 397q-60 0 -91.5 40.5t-31.5 108.5q0 107 47.5 178t124.5 71q60 0 91.5 -40.5t31.5 -109.5q0 -107 -47.5 -177.5t-124.5 -70.5zM212 457q40 0 67.5 59.5t27.5 128.5q0 89 -52 89q-40 0 -67 -59t-27 -129q0 -89 51 -89z" />
    <glyph glyph-name="foursuperior" unicode="&#x2074;" horiz-adv-x="374" 
d="M228 404l17 86h-162l-11 50l238 253h72l-53 -246h54l-12 -57h-55l-18 -86h-70zM257 546l9 38q12 56 27 110l-139 -149z" />
    <glyph glyph-name="fivesuperior" unicode="&#x2075;" horiz-adv-x="342" 
d="M51 418l23 57q41 -18 88 -18q42 0 68 17.5t26 51.5q0 35 -31 48q-21 8 -54 8h-64l42 204h225l-17 -62h-149l-19 -88h10q42 0 66 -9q66 -27 66 -95q0 -64 -46.5 -99.5t-125.5 -35.5q-60 0 -108 21z" />
    <glyph glyph-name="sixsuperior" unicode="&#x2076;" horiz-adv-x="357" 
d="M212 397q-58 0 -94.5 36.5t-36.5 106.5q0 107 61.5 181t154.5 74q43 0 80 -17l-21 -56q-31 12 -60 12q-47 0 -82 -33t-50 -81h2q32 26 77 26q48 0 79.5 -30t31.5 -80q0 -61 -40 -100t-102 -39zM213 456q30 0 49 20t19 51q0 26 -14.5 42.5t-41.5 16.5q-31 0 -50.5 -18
t-19.5 -49q0 -27 15 -45t43 -18z" />
    <glyph glyph-name="sevensuperior" unicode="&#x2077;" horiz-adv-x="306" 
d="M85 404q46 176 176 320h-166l-9 62h267v-38q-140 -159 -188 -344h-80z" />
    <glyph glyph-name="eightsuperior" unicode="&#x2078;" horiz-adv-x="374" 
d="M215 397q-60 0 -96.5 26.5t-36.5 74.5q0 75 83 106v1q-45 31 -45 80q0 50 39 80t98 30q60 0 93.5 -27t33.5 -72q0 -68 -74 -95v-1q59 -24 59 -86q0 -55 -43.5 -86t-110.5 -31zM219 457q30 0 52.5 14.5t22.5 44.5q0 39 -68 59q-32 -9 -51 -26t-19 -40q0 -26 18 -39t45 -13
zM245 627q65 19 65 64q0 21 -15 32.5t-39 11.5q-26 0 -43.5 -13.5t-17.5 -37.5q0 -41 50 -57z" />
    <glyph glyph-name="ninesuperior" unicode="&#x2079;" horiz-adv-x="359" 
d="M67 412l21 58q24 -13 61 -13q101 0 130 106l-2 1q-31 -22 -78 -22q-49 0 -80.5 29t-31.5 82q0 65 39 103.5t100 38.5q63 0 100 -40t37 -110q0 -114 -57 -181t-155 -67q-49 0 -84 15zM285 626q2 20 2 28q0 39 -18 60t-44 21q-28 0 -46.5 -20.5t-18.5 -54.5q0 -60 56 -60
q34 0 69 26z" />
    <glyph glyph-name="plussuperior" unicode="&#x207a;" horiz-adv-x="409" 
d="M191 434v132h-123v60h123v128h63v-128h123v-60h-123v-132h-63z" />
    <glyph glyph-name="minussuperior" unicode="&#x207b;" horiz-adv-x="409" 
d="M68 566v60h309v-60h-309z" />
    <glyph glyph-name="equalsuperior" unicode="&#x207c;" horiz-adv-x="409" 
d="M68 502v59h309v-59h-309zM68 631v59h309v-59h-309z" />
    <glyph glyph-name="parenleftsuperior" unicode="&#x207d;" horiz-adv-x="236" 
d="M145 356q-57 68 -57 179q0 174 154 301l39 -44q-122 -114 -122 -254q0 -91 37 -148z" />
    <glyph glyph-name="parenrightsuperior" unicode="&#x207e;" horiz-adv-x="236" 
d="M72 356l-39 43q123 115 123 254q0 92 -37 149l50 34q58 -71 58 -179q0 -175 -155 -301z" />
    <glyph glyph-name="n.superior" unicode="&#x207f;" horiz-adv-x="350" 
d="M-5 270l71 332h59l-7 -56h2q49 65 116 65q36 0 58.5 -21t22.5 -63q0 -21 -9 -66l-40 -191h-71l42 200q5 21 5 43q0 34 -31 34q-32 0 -67.5 -33.5t-49.5 -100.5l-30 -143h-71z" />
    <glyph glyph-name="zeroinferior" unicode="&#x2080;" horiz-adv-x="374" 
d="M103 -187q-60 0 -91.5 40.5t-31.5 108.5q0 107 47.5 178t124.5 71q60 0 91.5 -40.5t31.5 -109.5q0 -107 -47.5 -177.5t-124.5 -70.5zM106 -127q40 0 67.5 59.5t27.5 128.5q0 89 -52 89q-40 0 -67 -59t-27 -129q0 -89 51 -89z" />
    <glyph glyph-name="oneinferior" unicode="&#x2081;" horiz-adv-x="307" 
d="M45 -180l66 308q-47 -24 -117 -39v63q70 15 144 57h63l-83 -389h-73z" />
    <glyph glyph-name="twoinferior" unicode="&#x2082;" horiz-adv-x="335" 
d="M-50 -180q6 47 26 85t45 60t53 42t51 33t38 30t15 37q0 41 -53 41q-47 0 -101 -29l-19 57q67 35 131 35q56 0 87 -27t31 -70q0 -34 -18.5 -61t-46 -46t-55.5 -36.5t-52.5 -40t-32.5 -47.5h176l-10 -63h-265z" />
    <glyph glyph-name="threeinferior" unicode="&#x2083;" horiz-adv-x="343" 
d="M-49 -165l24 56q40 -18 89 -18q42 0 66 16.5t24 46.5q0 51 -85 51h-50l9 56h40q49 1 75 18.5t26 45.5q0 42 -57 42q-42 0 -89 -20l-18 55q62 27 121 27q57 0 88 -25.5t31 -66.5q0 -38 -23.5 -64t-59.5 -37v-2q30 -6 48.5 -26.5t18.5 -52.5q0 -57 -43.5 -90.5
t-122.5 -33.5q-68 0 -112 22z" />
    <glyph glyph-name="fourinferior" unicode="&#x2084;" horiz-adv-x="374" 
d="M122 -180l17 86h-162l-11 50l238 253h72l-53 -246h54l-12 -57h-55l-18 -86h-70zM151 -38l9 38q12 56 27 110l-139 -149z" />
    <glyph glyph-name="fiveinferior" unicode="&#x2085;" horiz-adv-x="342" 
d="M-53 -166l23 57q41 -18 88 -18q42 0 68 17.5t26 51.5q0 35 -31 48q-21 8 -54 8h-64l42 204h225l-17 -62h-149l-19 -88h10q42 0 66 -9q66 -27 66 -95q0 -64 -46.5 -99.5t-125.5 -35.5q-60 0 -108 21z" />
    <glyph glyph-name="sixinferior" unicode="&#x2086;" horiz-adv-x="357" 
d="M104 -187q-58 0 -94.5 36.5t-36.5 106.5q0 107 61.5 181t154.5 74q43 0 80 -17l-21 -56q-31 12 -60 12q-47 0 -82 -33t-50 -81h2q32 26 77 26q48 0 79.5 -30t31.5 -80q0 -61 -40 -100t-102 -39zM105 -128q30 0 49 20t19 51q0 26 -14.5 42.5t-41.5 16.5q-31 0 -50.5 -18
t-19.5 -49q0 -27 15 -45t43 -18z" />
    <glyph glyph-name="seveninferior" unicode="&#x2087;" horiz-adv-x="306" 
d="M-20 -180q46 176 176 320h-166l-9 62h267v-38q-140 -159 -188 -344h-80z" />
    <glyph glyph-name="eightinferior" unicode="&#x2088;" horiz-adv-x="374" 
d="M109 -187q-60 0 -96.5 26.5t-36.5 74.5q0 75 83 106v1q-45 31 -45 80q0 50 39 80t98 30q60 0 93.5 -27t33.5 -72q0 -68 -74 -95v-1q59 -24 59 -86q0 -55 -43.5 -86t-110.5 -31zM113 -127q30 0 52.5 14.5t22.5 44.5q0 39 -68 59q-32 -9 -51 -26t-19 -40q0 -26 18 -39
t45 -13zM139 43q65 19 65 64q0 21 -15 32.5t-39 11.5q-26 0 -43.5 -13.5t-17.5 -37.5q0 -41 50 -57z" />
    <glyph glyph-name="nineinferior" unicode="&#x2089;" horiz-adv-x="359" 
d="M-39 -172l21 58q24 -13 61 -13q101 0 130 106l-2 1q-31 -22 -78 -22q-49 0 -80.5 29t-31.5 82q0 65 39 103.5t100 38.5q63 0 100 -40t37 -110q0 -114 -57 -181t-155 -67q-49 0 -84 15zM179 42q2 20 2 28q0 39 -18 60t-44 21q-28 0 -46.5 -20.5t-18.5 -54.5q0 -60 56 -60
q34 0 69 26z" />
    <glyph glyph-name="plusinferior" unicode="&#x208a;" horiz-adv-x="409" 
d="M85 -150v132h-123v60h123v128h63v-128h123v-60h-123v-132h-63z" />
    <glyph glyph-name="minusinferior" unicode="&#x208b;" horiz-adv-x="409" 
d="M-38 -18v60h309v-60h-309z" />
    <glyph glyph-name="equalinferior" unicode="&#x208c;" horiz-adv-x="409" 
d="M-38 -82v59h309v-59h-309zM-38 47v59h309v-59h-309z" />
    <glyph glyph-name="parenleftinferior" unicode="&#x208d;" horiz-adv-x="236" 
d="M39 -228q-57 68 -57 179q0 174 154 301l39 -44q-122 -114 -122 -254q0 -91 37 -148z" />
    <glyph glyph-name="parenrightinferior" unicode="&#x208e;" horiz-adv-x="236" 
d="M-34 -228l-39 43q123 115 123 254q0 92 -37 149l50 34q58 -71 58 -179q0 -175 -155 -301z" />
    <glyph glyph-name="Euro" unicode="&#x20ac;" horiz-adv-x="529" 
d="M20 213l8 62h64v5q0 54 10 100h-67l9 61h74q36 104 113 164t176 60q81 0 136 -35l-16 -77q-56 35 -115 35q-68 0 -118.5 -39.5t-78.5 -107.5h242l-21 -61h-241q-10 -47 -10 -92v-13h234l-21 -62h-208q19 -146 139 -146q63 0 125 38l18 -71q-67 -44 -154 -44
q-97 0 -153.5 57t-69.5 166h-75z" />
    <glyph glyph-name="litre" unicode="&#x2113;" horiz-adv-x="468" 
d="M209 -10q-67 0 -103 36.5t-36 103.5q0 21 4 41q-22 -8 -68 -20l-11 76q47 11 90 27l31 148q28 131 88 197t141 66q57 0 89.5 -31.5t32.5 -83.5q0 -95 -83.5 -190.5t-221.5 -156.5q-5 -28 -5 -52q0 -83 69 -83q54 0 122 47l32 -66q-87 -59 -171 -59zM181 297
q84 42 141 113.5t57 135.5q0 47 -42 47q-41 0 -78.5 -53.5t-59.5 -158.5z" />
    <glyph glyph-name="numero" unicode="&#x2116;" horiz-adv-x="1002" 
d="M10 0l140 659h82l164 -408q24 -60 34 -93h2q5 49 15 99l85 402h88l-140 -659h-73l-173 425q-19 48 -31 88h-2q-6 -57 -14 -95l-89 -418h-88zM600 137l11 58h308l-12 -58h-307zM782 263q-61 0 -95.5 36t-34.5 93q0 94 53 156.5t129 62.5q61 0 95.5 -36.5t34.5 -94.5
q0 -93 -53 -155t-129 -62zM785 324q49 0 79.5 46t30.5 104q0 76 -63 76q-48 0 -79 -46t-31 -104q0 -76 63 -76z" />
    <glyph glyph-name="published" unicode="&#x2117;" horiz-adv-x="777" 
d="M386 -10q-144 0 -238 96.5t-94 240.5t94 240.5t238 96.5q143 0 237 -97t94 -240t-94 -240t-237 -97zM386 39q118 0 196 81.5t78 206.5q0 124 -77.5 205.5t-196.5 81.5t-197 -81.5t-78 -205.5t78 -206t197 -82zM343 132h-58v389h106q66 0 103 -34t37 -93q0 -58 -37 -92.5
t-106 -34.5h-45v-135zM343 319h48q81 0 81 74q0 76 -77 76h-52v-150z" />
    <glyph glyph-name="published" unicode="&#x24c5;" horiz-adv-x="777" 
d="M386 -10q-144 0 -238 96.5t-94 240.5t94 240.5t238 96.5q143 0 237 -97t94 -240t-94 -240t-237 -97zM386 39q118 0 196 81.5t78 206.5q0 124 -77.5 205.5t-196.5 81.5t-197 -81.5t-78 -205.5t78 -206t197 -82zM343 132h-58v389h106q66 0 103 -34t37 -93q0 -58 -37 -92.5
t-106 -34.5h-45v-135zM343 319h48q81 0 81 74q0 76 -77 76h-52v-150z" />
    <glyph glyph-name="trademark" unicode="&#x2122;" horiz-adv-x="841" 
d="M184 264v336h-109v59h300l-15 -59h-105v-336h-71zM410 264v395h62l95 -140q29 -43 42 -70h3q14 27 41 69l94 141h65v-395h-70v208q0 58 3 80h-2q-17 -33 -36 -60l-79 -117h-35l-79 117q-20 32 -35 60h-2q3 -33 3 -80v-208h-70z" />
    <glyph glyph-name="estimated" unicode="&#x212e;" horiz-adv-x="754" 
d="M376 -10q-146 0 -248.5 84.5t-102.5 226.5q0 143 103 226.5t252 83.5q86 0 154.5 -28t110.5 -74.5t63.5 -104t19.5 -119.5h-556v-160q32 -46 88 -71.5t121 -25.5q134 0 209 91h90q-103 -129 -304 -129zM172 324h414v152q-68 97 -206 97q-139 0 -208 -97v-152z" />
    <glyph glyph-name="partialdiff" unicode="&#x2202;" horiz-adv-x="519" 
d="M194 -10q-82 0 -130 51t-46 134q1 113 72 181.5t174 68.5q69 0 128 -37h2v10.5v14v10.5q-3 89 -43 129.5t-99 40.5q-63 0 -131 -42l-32 62q87 52 169 52q101 0 163 -69t62 -193q0 -181 -81 -297t-208 -116zM204 63q69 0 118.5 68.5t65.5 178.5q-55 42 -118 42
q-69 0 -115.5 -47.5t-47.5 -119.5q-2 -55 23.5 -88.5t73.5 -33.5z" />
    <glyph glyph-name="Delta" unicode="&#x2206;" horiz-adv-x="591" 
d="M-40 0l351 662h70l126 -662h-547zM92 73h314l-63 353q-4 25 -9.5 60t-6.5 44h-2q-16 -37 -48 -100z" />
    <glyph glyph-name="product" unicode="&#x220f;" horiz-adv-x="651" 
d="M8 -180l162 766h-88l16 73h609l-29 -73h-90l-162 -766h-88l162 766h-242l-162 -766h-88z" />
    <glyph glyph-name="summation" unicode="&#x2211;" horiz-adv-x="584" 
d="M-47 -180l336 435l-162 404h520l-34 -73h-357l135 -343l-272 -350h362l-16 -73h-512z" />
    <glyph glyph-name="minus" unicode="&#x2212;" horiz-adv-x="531" 
d="M11 215v74h473v-74h-473z" />
    <glyph glyph-name="radical" unicode="&#x221a;" horiz-adv-x="668" 
d="M213 -122l-55 434l-98 -29l-20 76l193 57l34 -296q5 -59 10 -142h2q23 61 59 132l342 717h95l-463 -949h-99z" />
    <glyph glyph-name="infinity" unicode="&#x221e;" horiz-adv-x="768" 
d="M197 99q-76 0 -121.5 49t-45.5 120q0 70 45.5 119.5t121.5 49.5q55 0 98 -29.5t88 -82.5q44 53 87 82.5t101 29.5q76 0 121.5 -49.5t45.5 -119.5q0 -71 -45.5 -120t-121.5 -49q-58 0 -101.5 29.5t-86.5 81.5q-46 -53 -88.5 -82t-97.5 -29zM205 178q37 0 67 23t66 67
q-37 44 -66.5 67t-66.5 23q-38 0 -62 -25t-24 -65q0 -41 23.5 -65.5t62.5 -24.5zM563 178q39 0 62.5 24.5t23.5 65.5q0 40 -24 65t-62 25q-36 0 -66 -23t-68 -67q37 -44 67.5 -67t66.5 -23z" />
    <glyph glyph-name="integral" unicode="&#x222b;" horiz-adv-x="313" 
d="M-158 -215l28 69q27 -15 60 -15q75 0 94 98l122 597q11 56 35 96q49 78 144 78q53 0 92 -23l-29 -68q-28 15 -59 15q-39 0 -61.5 -24t-33.5 -74l-122 -597q-13 -64 -34 -96q-49 -78 -144 -78q-53 0 -92 22z" />
    <glyph glyph-name="approxequal" unicode="&#x2248;" horiz-adv-x="531" 
d="M72 109l-46 54q66 66 136 66q37 0 109 -29.5t101 -29.5q41 0 88 43l45 -54q-66 -67 -136 -67q-36 0 -108.5 30t-100.5 30q-41 0 -88 -43zM72 292l-46 54q67 67 136 67q37 0 109 -30t101 -30q24 0 42.5 9.5t45.5 33.5l45 -54q-65 -66 -136 -66q-36 0 -108.5 30t-100.5 30
q-25 0 -43.5 -10t-44.5 -34z" />
    <glyph glyph-name="notequal" unicode="&#x2260;" horiz-adv-x="531" 
d="M102 26l48 100h-134v74h170l51 105h-221v74h257l46 94h87l-46 -94h129v-74h-165l-51 -105h216v-74h-252l-48 -100h-87z" />
    <glyph glyph-name="lessequal" unicode="&#x2264;" horiz-adv-x="531" 
d="M16 0v74h473v-74h-473zM38 274v78l421 153v-77l-331 -114v-2l331 -115v-76z" />
    <glyph glyph-name="greaterequal" unicode="&#x2265;" horiz-adv-x="531" 
d="M16 0v74h473v-74h-473zM46 121v76l332 115v2l-332 114v77l421 -153v-78z" />
    <glyph glyph-name="lozenge" unicode="&#x25ca;" horiz-adv-x="467" 
d="M133 0l-83 289l198 289h81l83 -289l-197 -289h-82zM183 71h2l154 223l-59 213h-2l-153 -223z" />
    <glyph glyph-name="fi.small" unicode="&#xe09c;" horiz-adv-x="615" 
d="M20 0l104 486h265l-23 -72h-171l-29 -138h169l-16 -68h-168l-45 -208h-86zM405 0l104 486h87l-105 -486h-86z" />
    <glyph glyph-name="fl.small" unicode="&#xe09d;" horiz-adv-x="739" 
d="M20 0l104 486h265l-23 -72h-171l-29 -138h169l-16 -68h-168l-45 -208h-86zM405 0l104 486h87l-89 -415h180l-15 -71h-267z" />
    <glyph glyph-name="ampersand.alt" unicode="&#xf030;" horiz-adv-x="721" 
d="M210 -10q-88 0 -139.5 46.5t-51.5 121.5q0 73 44.5 123t129.5 86q-44 79 -44 138q0 70 48.5 115t136.5 45q74 0 117 -36t43 -91q0 -65 -49 -112.5t-136 -85.5q51 -73 135 -172q72 66 123 163l67 -33q-51 -101 -136 -182q52 -50 100 -50q14 0 26 4l8 -69q-26 -7 -49 -7
q-73 0 -148 72q-110 -76 -225 -76zM220 63q79 0 160 56q-95 111 -150 188q-123 -51 -123 -141q0 -47 29 -75t84 -28zM271 398q137 56 137 135q0 26 -19 45.5t-57 19.5q-45 0 -70 -25.5t-25 -65.5q0 -47 34 -109z" />
    <glyph glyph-name="ampersand.smallalt" unicode="&#xf031;" horiz-adv-x="561" 
d="M167 -10q-70 0 -109.5 35t-39.5 92q0 104 128 156q-32 54 -32 98q0 53 39.5 88t107.5 35q60 0 94 -28t34 -71q0 -91 -135 -147q40 -56 92 -111q43 39 87 113l64 -29q-42 -77 -101 -131q33 -30 67 -30q5 0 23 3l8 -63q-22 -6 -42 -6q-59 0 -115 50q-87 -54 -170 -54z
M176 56q53 0 111 37q-86 100 -105 128q-86 -35 -86 -98q0 -29 21 -48t59 -19zM218 300q94 35 94 89q0 17 -13.5 29t-38.5 12q-30 0 -48 -17t-18 -42t24 -71z" />
    <glyph glyph-name="CR" horiz-adv-x="180" 
 />
    <glyph glyph-name="fi.cap" horiz-adv-x="699" 
d="M10 0l140 659h317l-27 -73h-218l-44 -212h213l-16 -73h-213l-63 -301h-89zM461 0l140 659h88l-140 -659h-88z" />
    <glyph glyph-name="fl.cap" horiz-adv-x="864" 
d="M10 0l140 659h317l-27 -73h-218l-44 -212h213l-16 -73h-213l-63 -301h-89zM461 0l140 659h88l-124 -586h239l-16 -73h-327z" />
    <glyph glyph-name="germandbls.cap" horiz-adv-x="960" 
d="M2 34l35 70q61 -38 131 -38q56 0 95.5 26.5t39.5 84.5q0 33 -15.5 60t-39.5 44.5t-51 38.5t-51 40.5t-39.5 51.5t-15.5 72q0 80 57.5 130.5t151.5 50.5q81 0 149 -33l-17 -76q-60 34 -132 34q-50 0 -83 -25t-33 -69q0 -34 22 -61.5t53 -49t62 -46t53 -63.5t22 -89
q0 -96 -64.5 -146.5t-163.5 -50.5q-93 0 -166 44zM484 34l35 70q61 -38 131 -38q56 0 95.5 26.5t39.5 84.5q0 33 -15.5 60t-39.5 44.5t-51 38.5t-51 40.5t-39.5 51.5t-15.5 72q0 80 57.5 130.5t151.5 50.5q81 0 149 -33l-17 -76q-60 34 -132 34q-50 0 -83 -25t-33 -69
q0 -34 22 -61.5t53 -49t62 -46t53 -63.5t22 -89q0 -96 -64.5 -146.5t-163.5 -50.5q-93 0 -166 44z" />
    <glyph glyph-name="A.small" horiz-adv-x="472" 
d="M-37 0l267 488h59l119 -488h-87l-26 114h-180l-61 -114h-91zM150 180h131l-22 105q-7 30 -15 80h-2q-23 -52 -37 -78z" />
    <glyph glyph-name="B.small" horiz-adv-x="455" 
d="M20 0l104 486h132q72 0 107.5 -32.5t35.5 -79.5q0 -39 -20.5 -71.5t-56.5 -48.5v-2q26 -6 46.5 -30t20.5 -57q0 -68 -55.5 -116.5t-155.5 -48.5h-158zM121 67h61q58 0 88.5 25.5t30.5 63.5q0 59 -83 59h-66zM166 278h58q39 0 63 24.5t24 57.5q0 59 -70 59h-45z" />
    <glyph glyph-name="C.small" 
d="M245 -10q-95 0 -152 54t-57 147q0 130 78 216.5t201 86.5q67 0 127 -28l-18 -69q-50 27 -107 27q-79 0 -136.5 -61.5t-57.5 -163.5q0 -64 36.5 -101.5t97.5 -37.5q62 0 119 33l21 -66q-73 -37 -152 -37z" />
    <glyph glyph-name="D.small" horiz-adv-x="504" 
d="M20 0l104 486h120q105 0 168 -55t63 -153q0 -119 -80 -198.5t-232 -79.5h-143zM122 72h59q100 0 153.5 58t53.5 145q0 65 -40 102t-113 37h-40z" />
    <glyph glyph-name="E.small" horiz-adv-x="403" 
d="M20 0l104 486h265l-23 -70h-171l-28 -135h168l-15 -69h-168l-30 -142h192l-16 -70h-278z" />
    <glyph glyph-name="F.small" horiz-adv-x="385" 
d="M20 0l104 486h265l-23 -72h-171l-29 -138h169l-16 -68h-168l-45 -208h-86z" />
    <glyph glyph-name="G.small" horiz-adv-x="518" 
d="M253 -10q-102 0 -159.5 56.5t-57.5 152.5q0 120 77.5 207.5t204.5 87.5q79 0 146 -31l-19 -70q-57 31 -123 31q-81 0 -139.5 -60t-59.5 -158q-1 -67 35.5 -106.5t103.5 -39.5q37 0 68 13l33 161h87l-45 -211q-72 -33 -152 -33z" />
    <glyph glyph-name="H.small" horiz-adv-x="547" 
d="M20 0l104 486h87l-44 -203h230l44 203h86l-104 -486h-87l45 211h-230l-45 -211h-86z" />
    <glyph glyph-name="I.small" horiz-adv-x="230" 
d="M20 0l104 486h87l-105 -486h-86z" />
    <glyph glyph-name="J.small" horiz-adv-x="244" 
d="M-102 -110l23 67q24 -9 45 -9q36 0 53 23q14 18 20 50l99 465h87l-102 -475q-11 -58 -37 -89q-39 -45 -113 -45q-40 0 -75 13z" />
    <glyph glyph-name="K.small" horiz-adv-x="459" 
d="M20 0l104 486h87l-47 -217h2l195 217h97l-229 -248l166 -238h-96l-145 212h-2l-46 -212h-86z" />
    <glyph glyph-name="L.small" horiz-adv-x="354" 
d="M20 0l104 486h87l-89 -415h180l-15 -71h-267z" />
    <glyph glyph-name="M.small" horiz-adv-x="638" 
d="M20 0l104 486h72l78 -195q19 -47 33 -88h2q18 26 66 88l158 195h85l-104 -486h-86l47 222q5 28 26 116h-2q-6 -9 -60 -78l-125 -154h-43l-57 142q-28 68 -35 91h-2q-13 -69 -19 -97l-52 -242h-86z" />
    <glyph glyph-name="N.small" horiz-adv-x="564" 
d="M20 0l104 486h70l145 -263q24 -45 44 -86h2q13 74 19 99l53 250h87l-104 -486h-68l-141 259q-44 86 -49 96h-2q-5 -36 -20 -106l-54 -249h-86z" />
    <glyph glyph-name="O.small" horiz-adv-x="534" 
d="M228 -10q-89 0 -140.5 53t-51.5 140q0 133 77 222t193 89q90 0 141.5 -53t51.5 -141q0 -133 -77.5 -221.5t-193.5 -88.5zM235 60q73 0 124.5 68t51.5 166q0 59 -30 94.5t-82 35.5q-73 0 -124.5 -67.5t-51.5 -167.5q0 -58 30 -93.5t82 -35.5z" />
    <glyph glyph-name="P.small" horiz-adv-x="428" 
d="M20 0l104 486h108q81 0 124 -38.5t43 -99.5q0 -82 -59.5 -131.5t-169.5 -49.5h-28l-36 -167h-86zM157 237h33q60 0 92 29.5t32 77.5q0 32 -20.5 52.5t-62.5 20.5h-36z" />
    <glyph glyph-name="Q.small" horiz-adv-x="534" 
d="M162 -1q-60 17 -93 66t-33 118q0 133 77 222t193 89q90 0 141.5 -53t51.5 -141q0 -122 -66.5 -207.5t-167.5 -99.5q17 -22 47.5 -36.5t63.5 -14.5t56 9l17 -66q-30 -13 -77 -13q-67 0 -121 33t-89 94zM235 60q73 0 124.5 68t51.5 166q0 59 -30 94.5t-82 35.5
q-73 0 -124.5 -67.5t-51.5 -167.5q0 -58 30 -93.5t82 -35.5z" />
    <glyph glyph-name="R.small" horiz-adv-x="451" 
d="M20 0l104 486h114q84 0 126 -35t42 -91q0 -55 -33.5 -95.5t-95.5 -57.5v-2q22 -26 60 -106l46 -99h-91l-40 88q-36 77 -55 98h-51l-40 -186h-86zM161 255h42q52 0 84 26t32 70q0 29 -21.5 47.5t-61.5 18.5h-41z" />
    <glyph glyph-name="S.small" horiz-adv-x="410" 
d="M6 27l28 67q58 -34 120 -34q42 0 69 18.5t27 54.5q0 25 -18.5 44.5t-45 34t-53 31t-45 45t-18.5 66.5q0 63 46 101.5t120 38.5q71 0 135 -28l-19 -70q-53 28 -113 28q-36 0 -57.5 -17t-21.5 -47q0 -24 18.5 -43t45 -34t52.5 -31.5t44.5 -44.5t18.5 -66q0 -75 -52 -113
t-133 -38q-85 0 -148 37z" />
    <glyph glyph-name="T.small" horiz-adv-x="408" 
d="M111 0l88 416h-152l14 70h387l-24 -70h-138l-88 -416h-87z" />
    <glyph glyph-name="U.small" horiz-adv-x="535" 
d="M220 -10q-77 0 -126 35.5t-49 107.5q0 30 8 67l62 286h86l-63 -294q-6 -28 -6 -46q0 -42 25.5 -63t69.5 -21q76 0 114 55q18 27 30 87l60 282h87l-64 -298q-16 -74 -44 -114q-58 -84 -190 -84z" />
    <glyph glyph-name="V.small" horiz-adv-x="461" 
d="M162 -2l-106 488h84l47 -236q11 -57 23 -136h2q24 55 63 126l133 246h90l-274 -488h-62z" />
    <glyph glyph-name="W.small" horiz-adv-x="681" 
d="M142 -2l-86 488h84l42 -258q2 -15 7 -51t7 -49h2q15 33 46 95l87 168l-18 95h79l46 -257q10 -60 16 -103h2q39 84 49 104l123 256h89l-250 -488h-63l-40 212q-7 34 -11 70h-2q-8 -17 -35 -69l-111 -213h-63z" />
    <glyph glyph-name="X.small" horiz-adv-x="486" 
d="M-28 0l220 250l-134 236h91l99 -178l154 178h98l-214 -244l138 -242h-90l-104 184l-159 -184h-99z" />
    <glyph glyph-name="Y.small" horiz-adv-x="416" 
d="M114 0l41 195l-99 291h84l69 -219h2l150 219h92l-211 -293l-42 -193h-86z" />
    <glyph glyph-name="Z.small" horiz-adv-x="429" 
d="M-19 0l286 416h-208l-12 70h364l-287 -415h240l-15 -71h-368z" />
    <glyph glyph-name="Agrave.small" horiz-adv-x="472" 
d="M-37 0l267 488h59l119 -488h-87l-26 114h-180l-61 -114h-91zM150 180h131l-22 105q-7 30 -15 80h-2q-23 -52 -37 -78zM243 540l-81 147h100l49 -147h-68z" />
    <glyph glyph-name="Aacute.small" horiz-adv-x="472" 
d="M-37 0l267 488h59l119 -488h-87l-26 114h-180l-61 -114h-91zM150 180h131l-22 105q-7 30 -15 80h-2q-23 -52 -37 -78zM231 540l76 147h100l-109 -147h-67z" />
    <glyph glyph-name="Acircumflex.small" horiz-adv-x="472" 
d="M-37 0l267 488h59l119 -488h-87l-26 114h-180l-61 -114h-91zM150 180h131l-22 105q-7 30 -15 80h-2q-23 -52 -37 -78zM125 540l119 147h74l82 -147h-71l-52 94l-77 -94h-75z" />
    <glyph glyph-name="Atilde.small" horiz-adv-x="472" 
d="M-37 0l267 488h59l119 -488h-87l-26 114h-180l-61 -114h-91zM150 180h131l-22 105q-7 30 -15 80h-2q-23 -52 -37 -78zM128 561q4 53 29 79.5t60 26.5q30 0 68 -23.5t53 -23.5q28 0 34 41h62q-4 -53 -28.5 -79.5t-59.5 -26.5q-30 0 -68.5 23.5t-53.5 23.5q-27 0 -33 -41
h-63z" />
    <glyph glyph-name="Adieresis.small" horiz-adv-x="472" 
d="M-37 0l267 488h59l119 -488h-87l-26 114h-180l-61 -114h-91zM150 180h131l-22 105q-7 30 -15 80h-2q-23 -52 -37 -78zM180 564q-19 0 -30.5 11.5t-11.5 30.5q0 25 15 41t37 16q19 0 31 -11.5t12 -30.5q0 -24 -15.5 -40.5t-37.5 -16.5zM360 564q-19 0 -30.5 11.5
t-11.5 30.5q0 25 15 41t37 16q19 0 31 -11.5t12 -30.5q0 -24 -15.5 -40.5t-37.5 -16.5z" />
    <glyph glyph-name="Amacron.small" horiz-adv-x="472" 
d="M-37 0l267 488h59l119 -488h-87l-26 114h-180l-61 -114h-91zM150 180h131l-22 105q-7 30 -15 80h-2q-23 -52 -37 -78zM141 581l14 69h260l-15 -69h-259z" />
    <glyph glyph-name="Abreve.small" horiz-adv-x="472" 
d="M-37 0l267 488h59l119 -488h-87l-26 114h-180l-61 -114h-91zM150 180h131l-22 105q-7 30 -15 80h-2q-23 -52 -37 -78zM266 552q-58 0 -88 34.5t-25 93.5h62q-2 -69 57 -69q60 0 81 69h65q-13 -60 -53.5 -94t-98.5 -34z" />
    <glyph glyph-name="Aring.small" horiz-adv-x="472" 
d="M-37 0l266 487q-30 6 -48 27.5t-18 52.5q0 48 34 77.5t84 29.5q44 0 70.5 -22.5t26.5 -61.5q0 -41 -25 -68.5t-64 -35.5l120 -486h-87l-26 114h-181l-60 -114h-92zM150 180h132l-22 105q-7 30 -15 80h-2q-16 -36 -37 -78zM264 527q24 0 39 17.5t15 43.5q0 19 -11 30.5
t-30 11.5q-24 0 -38.5 -17.5t-14.5 -43.5q0 -19 11 -30.5t29 -11.5z" />
    <glyph glyph-name="Aringacute.small" horiz-adv-x="472" 
d="M-37 0l266 487q-30 6 -48 27.5t-18 52.5q0 45 29.5 74t74.5 33l64 124h100l-100 -134q47 -21 47 -74q0 -41 -25 -68.5t-64 -35.5l120 -486h-87l-26 114h-181l-60 -114h-92zM150 180h132l-22 105q-7 30 -15 80h-2q-16 -36 -37 -78zM264 527q24 0 39 17.5t15 43.5
q0 19 -11 30.5t-30 11.5q-24 0 -38.5 -17.5t-14.5 -43.5q0 -19 11 -30.5t29 -11.5z" />
    <glyph glyph-name="Aogonek.small" horiz-adv-x="472" 
d="M-37 0l267 488h59l119 -488q-136 -63 -136 -125q0 -32 34 -32q16 0 38 8l7 -53q-38 -11 -70 -11q-43 0 -63.5 19.5t-20.5 51.5q0 85 122 150l-24 106h-180l-61 -114h-91zM150 180h131l-22 105q-7 30 -15 80h-2q-23 -52 -37 -78z" />
    <glyph glyph-name="AE.small" horiz-adv-x="633" 
d="M-53 0l361 486h291l-18 -70h-174l-18 -135h172l-9 -69h-172l-19 -142h196l-10 -70h-276l15 114h-160l-82 -114h-97zM173 180h122l29 208h-3z" />
    <glyph glyph-name="AEacute.small" horiz-adv-x="633" 
d="M-53 0l361 486h291l-18 -70h-174l-18 -135h172l-9 -69h-172l-19 -142h196l-10 -70h-276l15 114h-160l-82 -114h-97zM173 180h122l29 208h-3zM376 540l76 147h100l-109 -147h-67z" />
    <glyph glyph-name="Cacute.small" 
d="M245 -10q-95 0 -152 54t-57 147q0 130 78 216.5t201 86.5q67 0 127 -28l-18 -69q-50 27 -107 27q-79 0 -136.5 -61.5t-57.5 -163.5q0 -64 36.5 -101.5t97.5 -37.5q62 0 119 33l21 -66q-73 -37 -152 -37zM264 540l76 147h100l-109 -147h-67z" />
    <glyph glyph-name="Ccircumflex.small" 
d="M245 -10q-95 0 -152 54t-57 147q0 130 78 216.5t201 86.5q67 0 127 -28l-18 -69q-50 27 -107 27q-79 0 -136.5 -61.5t-57.5 -163.5q0 -64 36.5 -101.5t97.5 -37.5q62 0 119 33l21 -66q-73 -37 -152 -37zM166 540l119 147h74l82 -147h-71l-52 94l-77 -94h-75z" />
    <glyph glyph-name="Ccaron.small" 
d="M245 -10q-95 0 -152 54t-57 147q0 130 78 216.5t201 86.5q67 0 127 -28l-18 -69q-50 27 -107 27q-79 0 -136.5 -61.5t-57.5 -163.5q0 -64 36.5 -101.5t97.5 -37.5q62 0 119 33l21 -66q-73 -37 -152 -37zM267 541l-81 147h71l52 -95l77 95h75l-119 -147h-75z" />
    <glyph glyph-name="Cdotaccent.small" 
d="M245 -10q-95 0 -152 54t-57 147q0 130 78 216.5t201 86.5q67 0 127 -28l-18 -69q-50 27 -107 27q-79 0 -136.5 -61.5t-57.5 -163.5q0 -64 36.5 -101.5t97.5 -37.5q62 0 119 33l21 -66q-73 -37 -152 -37zM314 580q-24 0 -38 14t-14 35q0 28 19 45.5t44 17.5q24 0 38 -14
t14 -35q0 -27 -19 -45t-44 -18z" />
    <glyph glyph-name="Ccedilla.small" 
d="M94 -198l21 45q19 -10 47 -10q26 0 42.5 10.5t16.5 30.5q0 35 -78 32l42 86q-69 14 -109 66t-40 129q0 130 78 216.5t201 86.5q67 0 127 -28l-18 -69q-50 27 -107 27q-79 0 -136.5 -61.5t-57.5 -163.5q0 -64 36.5 -101.5t97.5 -37.5q62 0 119 33l21 -66q-66 -35 -149 -37
l-21 -43q33 -2 52 -19.5t19 -45.5q0 -45 -36.5 -69.5t-93.5 -24.5q-42 0 -74 14z" />
    <glyph glyph-name="Dcaron.small" horiz-adv-x="504" 
d="M20 0l104 486h120q105 0 168 -55t63 -153q0 -119 -80 -198.5t-232 -79.5h-143zM122 72h59q100 0 153.5 58t53.5 145q0 65 -40 102t-113 37h-40zM251 541l-81 147h71l52 -95l77 95h75l-119 -147h-75z" />
    <glyph glyph-name="Dcroat.small" horiz-adv-x="507" 
d="M23 0l46 215h-64l14 63h64l44 208h120q105 0 168 -55t63 -153q0 -119 -79.5 -198.5t-232.5 -79.5h-143zM126 72h59q99 0 152.5 58t53.5 145q0 65 -40 102t-113 37h-40l-29 -136h115l-14 -63h-114z" />
    <glyph glyph-name="Egrave.small" horiz-adv-x="403" 
d="M20 0l104 486h265l-23 -70h-171l-28 -135h168l-15 -69h-168l-30 -142h192l-16 -70h-278zM232 540l-81 147h100l49 -147h-68z" />
    <glyph glyph-name="Eacute.small" horiz-adv-x="403" 
d="M20 0l104 486h265l-23 -70h-171l-28 -135h168l-15 -69h-168l-30 -142h192l-16 -70h-278zM225 540l76 147h100l-109 -147h-67z" />
    <glyph glyph-name="Ecircumflex.small" horiz-adv-x="403" 
d="M20 0l104 486h265l-23 -70h-171l-28 -135h168l-15 -69h-168l-30 -142h192l-16 -70h-278zM128 540l119 147h74l82 -147h-71l-52 94l-77 -94h-75z" />
    <glyph glyph-name="Ecaron.small" horiz-adv-x="403" 
d="M20 0l104 486h265l-23 -70h-171l-28 -135h168l-15 -69h-168l-30 -142h192l-16 -70h-278zM226 541l-81 147h71l52 -95l77 95h75l-119 -147h-75z" />
    <glyph glyph-name="Edieresis.small" horiz-adv-x="403" 
d="M20 0l104 486h265l-23 -70h-171l-28 -135h168l-15 -69h-168l-30 -142h192l-16 -70h-278zM180 564q-19 0 -30.5 11.5t-11.5 30.5q0 25 15 41t37 16q19 0 31 -11.5t12 -30.5q0 -24 -15.5 -40.5t-37.5 -16.5zM360 564q-19 0 -30.5 11.5t-11.5 30.5q0 25 15 41t37 16
q19 0 31 -11.5t12 -30.5q0 -24 -15.5 -40.5t-37.5 -16.5z" />
    <glyph glyph-name="Emacron.small" horiz-adv-x="403" 
d="M20 0l104 486h265l-23 -70h-171l-28 -135h168l-15 -69h-168l-30 -142h192l-16 -70h-278zM140 581l14 69h260l-15 -69h-259z" />
    <glyph glyph-name="Ebreve.small" horiz-adv-x="403" 
d="M20 0l104 486h265l-23 -70h-171l-28 -135h168l-15 -69h-168l-30 -142h192l-16 -70h-278zM265 552q-58 0 -88 34.5t-25 93.5h62q-2 -69 57 -69q60 0 81 69h65q-13 -60 -53.5 -94t-98.5 -34z" />
    <glyph glyph-name="Edotaccent.small" horiz-adv-x="403" 
d="M20 0l104 486h265l-23 -70h-171l-28 -135h168l-15 -69h-168l-30 -142h192l-16 -70h-278zM269 580q-24 0 -38 14t-14 35q0 28 19 45.5t44 17.5q24 0 38 -14t14 -35q0 -27 -19 -45t-44 -18z" />
    <glyph glyph-name="Eogonek.small" horiz-adv-x="403" 
d="M20 0l104 486h265l-23 -70h-171l-28 -135h168l-15 -69h-168l-30 -142h192l-16 -70h-13q-134 -61 -134 -125q0 -32 34 -32q14 0 38 8l6 -53q-38 -11 -69 -11q-43 0 -64 20t-21 51q0 80 110 142h-165z" />
    <glyph glyph-name="Gcircumflex.small" horiz-adv-x="518" 
d="M253 -10q-102 0 -159.5 56.5t-57.5 152.5q0 120 77.5 207.5t204.5 87.5q79 0 146 -31l-19 -70q-57 31 -123 31q-81 0 -139.5 -60t-59.5 -158q-1 -67 35.5 -106.5t103.5 -39.5q37 0 68 13l33 161h87l-45 -211q-72 -33 -152 -33zM175 540l119 147h74l82 -147h-71l-52 94
l-77 -94h-75z" />
    <glyph glyph-name="Gbreve.small" horiz-adv-x="518" 
d="M253 -10q-102 0 -159.5 56.5t-57.5 152.5q0 120 77.5 207.5t204.5 87.5q79 0 146 -31l-19 -70q-57 31 -123 31q-81 0 -139.5 -60t-59.5 -158q-1 -67 35.5 -106.5t103.5 -39.5q37 0 68 13l33 161h87l-45 -211q-72 -33 -152 -33zM320 552q-58 0 -88 34.5t-25 93.5h62
q-2 -69 57 -69q60 0 81 69h65q-13 -60 -53.5 -94t-98.5 -34z" />
    <glyph glyph-name="Gdotaccent.small" horiz-adv-x="518" 
d="M253 -10q-102 0 -159.5 56.5t-57.5 152.5q0 120 77.5 207.5t204.5 87.5q79 0 146 -31l-19 -70q-57 31 -123 31q-81 0 -139.5 -60t-59.5 -158q-1 -67 35.5 -106.5t103.5 -39.5q37 0 68 13l33 161h87l-45 -211q-72 -33 -152 -33zM326 580q-24 0 -38 14t-14 35q0 28 19 45.5
t44 17.5q24 0 38 -14t14 -35q0 -27 -19 -45t-44 -18z" />
    <glyph glyph-name="Gcommaaccent.small" horiz-adv-x="518" 
d="M253 -10q-102 0 -159.5 56.5t-57.5 152.5q0 120 77.5 207.5t204.5 87.5q79 0 146 -31l-19 -70q-57 31 -123 31q-81 0 -139.5 -60t-59.5 -158q-1 -67 35.5 -106.5t103.5 -39.5q37 0 68 13l33 161h87l-45 -211q-72 -33 -152 -33zM122 -237l-20 58q87 21 87 79q0 19 -12 48
h80q12 -24 12 -55q0 -104 -147 -130z" />
    <glyph glyph-name="Hcircumflex.small" horiz-adv-x="547" 
d="M20 0l104 486h87l-44 -203h230l44 203h86l-104 -486h-87l45 211h-230l-45 -211h-86zM196 540l119 147h74l82 -147h-71l-52 94l-77 -94h-75z" />
    <glyph glyph-name="Hbar.small" horiz-adv-x="547" 
d="M20 0l75 352h-50l13 60h50l16 74h87l-16 -74h230l16 74h86l-16 -74h50l-13 -60h-50l-75 -352h-87l45 211h-230l-45 -211h-86zM167 283h230l15 69h-230z" />
    <glyph glyph-name="Igrave.small" horiz-adv-x="230" 
d="M20 0l104 486h87l-105 -486h-86zM152 540l-81 147h100l49 -147h-68z" />
    <glyph glyph-name="Iacute.small" horiz-adv-x="230" 
d="M20 0l104 486h87l-105 -486h-86zM134 540l76 147h100l-109 -147h-67z" />
    <glyph glyph-name="Icircumflex.small" horiz-adv-x="230" 
d="M20 0l104 486h87l-105 -486h-86zM36 540l119 147h74l82 -147h-71l-52 94l-77 -94h-75z" />
    <glyph glyph-name="Itilde.small" horiz-adv-x="230" 
d="M20 0l104 486h87l-105 -486h-86zM34 561q4 53 29 79.5t60 26.5q30 0 68 -23.5t53 -23.5q28 0 34 41h62q-4 -53 -28.5 -79.5t-59.5 -26.5q-30 0 -68.5 23.5t-53.5 23.5q-27 0 -33 -41h-63z" />
    <glyph glyph-name="Idieresis.small" horiz-adv-x="230" 
d="M20 0l104 486h87l-105 -486h-86zM93 564q-19 0 -30.5 11.5t-11.5 30.5q0 25 15 41t37 16q19 0 31 -11.5t12 -30.5q0 -24 -15.5 -40.5t-37.5 -16.5zM273 564q-19 0 -30.5 11.5t-11.5 30.5q0 25 15 41t37 16q19 0 31 -11.5t12 -30.5q0 -24 -15.5 -40.5t-37.5 -16.5z" />
    <glyph glyph-name="Imacron.small" horiz-adv-x="230" 
d="M20 0l104 486h87l-105 -486h-86zM52 581l14 69h260l-15 -69h-259z" />
    <glyph glyph-name="Ibreve.small" horiz-adv-x="230" 
d="M20 0l104 486h87l-105 -486h-86zM179 552q-58 0 -88 34.5t-25 93.5h62q-2 -69 57 -69q60 0 81 69h65q-13 -60 -53.5 -94t-98.5 -34z" />
    <glyph glyph-name="Idotaccent.small" horiz-adv-x="230" 
d="M20 0l104 486h87l-105 -486h-86zM192 580q-24 0 -38 14t-14 35q0 28 19 45.5t44 17.5q24 0 38 -14t14 -35q0 -27 -19 -45t-44 -18z" />
    <glyph glyph-name="Iogonek.small" horiz-adv-x="230" 
d="M21 9l103 477h87l-105 -486q-95 -71 -95 -125q0 -32 33 -32q14 0 38 8l6 -53q-38 -11 -70 -11q-43 0 -63.5 20t-20.5 53q0 64 87 149z" />
    <glyph glyph-name="dotlessi.small" horiz-adv-x="230" 
d="M20 0l104 486h87l-105 -486h-86z" />
    <glyph glyph-name="IJ.small" horiz-adv-x="475" 
d="M20 0l104 486h87l-105 -486h-86zM129 -110l23 67q24 -9 45 -9q36 0 53 23q14 18 20 50l99 465h87l-102 -475q-12 -57 -37 -89q-39 -45 -113 -45q-40 0 -75 13z" />
    <glyph glyph-name="Jcircumflex.small" horiz-adv-x="244" 
d="M-102 -110l23 67q24 -9 45 -9q36 0 53 23q14 18 20 50l99 465h87l-102 -475q-11 -58 -37 -89q-39 -45 -113 -45q-40 0 -75 13zM48 540l119 147h74l82 -147h-71l-52 94l-77 -94h-75z" />
    <glyph glyph-name="Kcommaaccent.small" horiz-adv-x="459" 
d="M20 0l104 486h87l-47 -217h2l195 217h97l-229 -248l166 -238h-96l-145 212h-2l-46 -212h-86zM93 -237l-20 58q87 21 87 79q0 19 -12 48h80q12 -24 12 -55q0 -104 -147 -130z" />
    <glyph glyph-name="Lacute.small" horiz-adv-x="368" 
d="M20 0l104 486h87l-89 -415h180l-15 -71h-267zM136 540l76 147h100l-109 -147h-67z" />
    <glyph glyph-name="Lcaron.small" horiz-adv-x="362" 
d="M20 0l104 486h87l-89 -415h180l-15 -71h-267zM265 336l-32 57q72 31 72 92q0 25 -11 50h78q12 -22 12 -51q0 -98 -119 -148z" />
    <glyph glyph-name="Lcommaaccent.small" horiz-adv-x="354" 
d="M20 0l104 486h87l-89 -415h180l-15 -71h-267zM46 -237l-20 58q87 21 87 79q0 19 -12 48h80q12 -24 12 -55q0 -104 -147 -130z" />
    <glyph glyph-name="Lslash.small" horiz-adv-x="354" 
d="M20 0l36 173l-51 -27l18 81l51 27l50 232h87l-39 -180l120 62l-18 -81l-120 -62l-32 -154h180l-15 -71h-267z" />
    <glyph glyph-name="Ldot.small" horiz-adv-x="359" 
d="M20 0l104 486h87l-89 -415h180l-15 -71h-267zM287 202q-21 0 -34.5 14.5t-13.5 35.5q0 26 16.5 43.5t41.5 17.5q21 0 34.5 -15t13.5 -36q0 -26 -16.5 -43t-41.5 -17z" />
    <glyph glyph-name="Nacute.small" horiz-adv-x="564" 
d="M20 0l104 486h70l145 -263q24 -45 44 -86h2q13 74 19 99l53 250h87l-104 -486h-68l-141 259q-44 86 -49 96h-2q-5 -36 -20 -106l-54 -249h-86zM303 540l76 147h100l-109 -147h-67z" />
    <glyph glyph-name="Ncaron.small" horiz-adv-x="564" 
d="M20 0l104 486h70l145 -263q24 -45 44 -86h2q13 74 19 99l53 250h87l-104 -486h-68l-141 259q-44 86 -49 96h-2q-5 -36 -20 -106l-54 -249h-86zM304 541l-81 147h71l52 -95l77 95h75l-119 -147h-75z" />
    <glyph glyph-name="Ntilde.small" horiz-adv-x="564" 
d="M20 0l104 486h70l145 -263q24 -45 44 -86h2q13 74 19 99l53 250h87l-104 -486h-68l-141 259q-44 86 -49 96h-2q-5 -36 -20 -106l-54 -249h-86zM202 561q4 53 29 79.5t60 26.5q30 0 68 -23.5t53 -23.5q28 0 34 41h62q-4 -53 -28.5 -79.5t-59.5 -26.5q-30 0 -68.5 23.5
t-53.5 23.5q-27 0 -33 -41h-63z" />
    <glyph glyph-name="Ncommaaccent.small" horiz-adv-x="564" 
d="M20 0l104 486h70l145 -263q24 -45 44 -86h2q13 74 19 99l53 250h87l-104 -486h-68l-141 259q-44 86 -49 96h-2q-5 -36 -20 -106l-54 -249h-86zM131 -237l-20 58q87 21 87 79q0 19 -12 48h80q12 -24 12 -55q0 -104 -147 -130z" />
    <glyph glyph-name="Ograve.small" horiz-adv-x="534" 
d="M228 -10q-89 0 -140.5 53t-51.5 140q0 133 77 222t193 89q90 0 141.5 -53t51.5 -141q0 -133 -77.5 -221.5t-193.5 -88.5zM235 60q73 0 124.5 68t51.5 166q0 59 -30 94.5t-82 35.5q-73 0 -124.5 -67.5t-51.5 -167.5q0 -58 30 -93.5t82 -35.5zM298 540l-81 147h100l49 -147
h-68z" />
    <glyph glyph-name="Oacute.small" horiz-adv-x="534" 
d="M228 -10q-89 0 -140.5 53t-51.5 140q0 133 77 222t193 89q90 0 141.5 -53t51.5 -141q0 -133 -77.5 -221.5t-193.5 -88.5zM235 60q73 0 124.5 68t51.5 166q0 59 -30 94.5t-82 35.5q-73 0 -124.5 -67.5t-51.5 -167.5q0 -58 30 -93.5t82 -35.5zM285 540l76 147h100
l-109 -147h-67z" />
    <glyph glyph-name="Ocircumflex.small" horiz-adv-x="534" 
d="M228 -10q-89 0 -140.5 53t-51.5 140q0 133 77 222t193 89q90 0 141.5 -53t51.5 -141q0 -133 -77.5 -221.5t-193.5 -88.5zM235 60q73 0 124.5 68t51.5 166q0 59 -30 94.5t-82 35.5q-73 0 -124.5 -67.5t-51.5 -167.5q0 -58 30 -93.5t82 -35.5zM180 540l119 147h74l82 -147
h-71l-52 94l-77 -94h-75z" />
    <glyph glyph-name="Otilde.small" horiz-adv-x="534" 
d="M228 -10q-89 0 -140.5 53t-51.5 140q0 133 77 222t193 89q90 0 141.5 -53t51.5 -141q0 -133 -77.5 -221.5t-193.5 -88.5zM235 60q73 0 124.5 68t51.5 166q0 59 -30 94.5t-82 35.5q-73 0 -124.5 -67.5t-51.5 -167.5q0 -58 30 -93.5t82 -35.5zM177 561q4 53 29 79.5
t60 26.5q30 0 68 -23.5t53 -23.5q28 0 34 41h62q-4 -53 -28.5 -79.5t-59.5 -26.5q-30 0 -68.5 23.5t-53.5 23.5q-27 0 -33 -41h-63z" />
    <glyph glyph-name="Odieresis.small" horiz-adv-x="534" 
d="M228 -10q-89 0 -140.5 53t-51.5 140q0 133 77 222t193 89q90 0 141.5 -53t51.5 -141q0 -133 -77.5 -221.5t-193.5 -88.5zM235 60q73 0 124.5 68t51.5 166q0 59 -30 94.5t-82 35.5q-73 0 -124.5 -67.5t-51.5 -167.5q0 -58 30 -93.5t82 -35.5zM238 564q-19 0 -30.5 11.5
t-11.5 30.5q0 25 15 41t37 16q19 0 31 -11.5t12 -30.5q0 -24 -15.5 -40.5t-37.5 -16.5zM418 564q-19 0 -30.5 11.5t-11.5 30.5q0 25 15 41t37 16q19 0 31 -11.5t12 -30.5q0 -24 -15.5 -40.5t-37.5 -16.5z" />
    <glyph glyph-name="Omacron.small" horiz-adv-x="534" 
d="M228 -10q-89 0 -140.5 53t-51.5 140q0 133 77 222t193 89q90 0 141.5 -53t51.5 -141q0 -133 -77.5 -221.5t-193.5 -88.5zM235 60q73 0 124.5 68t51.5 166q0 59 -30 94.5t-82 35.5q-73 0 -124.5 -67.5t-51.5 -167.5q0 -58 30 -93.5t82 -35.5zM197 581l14 69h260l-15 -69
h-259z" />
    <glyph glyph-name="Obreve.small" horiz-adv-x="534" 
d="M228 -10q-89 0 -140.5 53t-51.5 140q0 133 77 222t193 89q90 0 141.5 -53t51.5 -141q0 -133 -77.5 -221.5t-193.5 -88.5zM235 60q73 0 124.5 68t51.5 166q0 59 -30 94.5t-82 35.5q-73 0 -124.5 -67.5t-51.5 -167.5q0 -58 30 -93.5t82 -35.5zM323 552q-58 0 -88 34.5
t-25 93.5h62q-2 -69 57 -69q60 0 81 69h65q-13 -60 -53.5 -94t-98.5 -34z" />
    <glyph glyph-name="Ohungarumlaut.small" horiz-adv-x="534" 
d="M228 -10q-89 0 -140.5 53t-51.5 140q0 133 77 222t193 89q90 0 141.5 -53t51.5 -141q0 -133 -77.5 -221.5t-193.5 -88.5zM235 60q73 0 124.5 68t51.5 166q0 59 -30 94.5t-82 35.5q-73 0 -124.5 -67.5t-51.5 -167.5q0 -58 30 -93.5t82 -35.5zM205 540l76 147h100
l-108 -147h-68zM371 540l77 147h100l-109 -147h-68z" />
    <glyph glyph-name="Oslash.small" horiz-adv-x="534" 
d="M78 -18l-41 36l36 41q-37 51 -37 127q0 134 77 221t193 87q73 0 120 -38l40 45l41 -36l-42 -48q34 -50 34 -119q0 -133 -77.5 -220.5t-193.5 -87.5q-66 0 -114 32zM167 82q28 -23 68 -23q73 0 125 67.5t52 165.5q0 26 -9 55zM135 129l238 266q-28 30 -74 30
q-73 0 -125 -67.5t-52 -165.5q0 -37 13 -63z" />
    <glyph glyph-name="Oslashacute.small" horiz-adv-x="534" 
d="M77 -18l-41 36l36 41q-37 51 -37 127q0 134 77 221t193 87q73 0 120 -38l40 45l41 -36l-42 -48q34 -50 34 -119q0 -133 -77.5 -220.5t-193.5 -87.5q-66 0 -114 32zM166 82q28 -23 68 -23q73 0 125 67.5t52 165.5q0 26 -9 55zM134 129l238 266q-28 30 -74 30
q-73 0 -125 -67.5t-52 -165.5q0 -37 13 -63zM269 540l76 147h100l-109 -147h-67z" />
    <glyph glyph-name="OE.small" horiz-adv-x="689" 
d="M243 -7q-99 0 -153 53t-54 140q0 131 81 218.5t207 87.5q28 0 82.5 -3t77.5 -3h191l-23 -70h-171l-28 -135h168l-15 -69h-168l-30 -142h192l-16 -70h-205q-27 0 -73 -3.5t-63 -3.5zM253 62q24 0 67 5l75 350q-53 5 -69 5q-88 0 -145.5 -65.5t-57.5 -164.5q0 -58 33 -94
t97 -36z" />
    <glyph glyph-name="Racute.small" horiz-adv-x="451" 
d="M20 0l104 486h114q84 0 126 -35t42 -91q0 -55 -33.5 -95.5t-95.5 -57.5v-2q22 -26 60 -106l46 -99h-91l-40 88q-36 77 -55 98h-51l-40 -186h-86zM161 255h42q52 0 84 26t32 70q0 29 -21.5 47.5t-61.5 18.5h-41zM217 540l76 147h100l-109 -147h-67z" />
    <glyph glyph-name="Rcaron.small" horiz-adv-x="451" 
d="M20 0l104 486h114q84 0 126 -35t42 -91q0 -55 -33.5 -95.5t-95.5 -57.5v-2q22 -26 60 -106l46 -99h-91l-40 88q-36 77 -55 98h-51l-40 -186h-86zM161 255h42q52 0 84 26t32 70q0 29 -21.5 47.5t-61.5 18.5h-41zM227 541l-81 147h71l52 -95l77 95h75l-119 -147h-75z" />
    <glyph glyph-name="Rcommaaccent.small" horiz-adv-x="451" 
d="M20 0l104 486h114q84 0 126 -35t42 -91q0 -55 -33.5 -95.5t-95.5 -57.5v-2q22 -26 60 -106l46 -99h-91l-40 88q-36 77 -55 98h-51l-40 -186h-86zM161 255h42q52 0 84 26t32 70q0 29 -21.5 47.5t-61.5 18.5h-41zM91 -237l-20 58q87 21 87 79q0 19 -12 48h80q12 -24 12 -55
q0 -104 -147 -130z" />
    <glyph glyph-name="germandbls.small" horiz-adv-x="821" 
d="M6 27l28 67q58 -34 120 -34q42 0 69 18.5t27 54.5q0 25 -18.5 44.5t-45 34t-53 31t-45 45t-18.5 66.5q0 63 46 101.5t120 38.5q71 0 135 -28l-19 -70q-53 28 -113 28q-36 0 -57.5 -17t-21.5 -47q0 -24 18.5 -43t45 -34t52.5 -31.5t44.5 -44.5t18.5 -66q0 -75 -52 -113
t-133 -38q-85 0 -148 37zM416 27l28 67q58 -34 120 -34q42 0 69 18.5t27 54.5q0 25 -18.5 44.5t-45 34t-53 31t-45 45t-18.5 66.5q0 63 46 101.5t120 38.5q71 0 135 -28l-19 -70q-53 28 -113 28q-36 0 -57.5 -17t-21.5 -47q0 -24 18.5 -43t45 -34t52.5 -31.5t44.5 -44.5
t18.5 -66q0 -75 -52 -113t-133 -38q-85 0 -148 37z" />
    <glyph glyph-name="Sacute.small" horiz-adv-x="410" 
d="M6 27l28 67q58 -34 120 -34q42 0 69 18.5t27 54.5q0 25 -18.5 44.5t-45 34t-53 31t-45 45t-18.5 66.5q0 63 46 101.5t120 38.5q71 0 135 -28l-19 -70q-53 28 -113 28q-36 0 -57.5 -17t-21.5 -47q0 -24 18.5 -43t45 -34t52.5 -31.5t44.5 -44.5t18.5 -66q0 -75 -52 -113
t-133 -38q-85 0 -148 37zM209 540l76 147h100l-109 -147h-67z" />
    <glyph glyph-name="Scircumflex.small" horiz-adv-x="410" 
d="M6 27l28 67q58 -34 120 -34q42 0 69 18.5t27 54.5q0 25 -18.5 44.5t-45 34t-53 31t-45 45t-18.5 66.5q0 63 46 101.5t120 38.5q71 0 135 -28l-19 -70q-53 28 -113 28q-36 0 -57.5 -17t-21.5 -47q0 -24 18.5 -43t45 -34t52.5 -31.5t44.5 -44.5t18.5 -66q0 -75 -52 -113
t-133 -38q-85 0 -148 37zM113 540l119 147h74l82 -147h-71l-52 94l-77 -94h-75z" />
    <glyph glyph-name="Scaron.small" horiz-adv-x="410" 
d="M6 27l28 67q58 -34 120 -34q42 0 69 18.5t27 54.5q0 25 -18.5 44.5t-45 34t-53 31t-45 45t-18.5 66.5q0 63 46 101.5t120 38.5q71 0 135 -28l-19 -70q-53 28 -113 28q-36 0 -57.5 -17t-21.5 -47q0 -24 18.5 -43t45 -34t52.5 -31.5t44.5 -44.5t18.5 -66q0 -75 -52 -113
t-133 -38q-85 0 -148 37zM213 541l-81 147h71l52 -95l77 95h75l-119 -147h-75z" />
    <glyph glyph-name="Scedilla.small" horiz-adv-x="410" 
d="M22 -198l21 45q19 -10 47 -10q26 0 43 10.5t17 30.5q0 36 -78 32l39 83q-62 8 -105 34l28 67q58 -34 120 -34q42 0 69 18.5t27 54.5q0 25 -18.5 44.5t-45 34t-53 31t-45 45t-18.5 66.5q0 63 46 101.5t120 38.5q71 0 135 -28l-19 -70q-53 28 -113 28q-36 0 -57.5 -17
t-21.5 -47q0 -24 18.5 -43t45 -34t52.5 -31.5t44.5 -44.5t18.5 -66q0 -70 -45.5 -107.5t-117.5 -42.5l-20 -44q33 -2 52 -19.5t19 -45.5q0 -45 -36.5 -69.5t-94.5 -24.5q-42 0 -74 14z" />
    <glyph glyph-name="Scommaaccent.small" horiz-adv-x="410" 
d="M6 27l28 67q58 -34 120 -34q42 0 69 18.5t27 54.5q0 25 -18.5 44.5t-45 34t-53 31t-45 45t-18.5 66.5q0 63 46 101.5t120 38.5q71 0 135 -28l-19 -70q-53 28 -113 28q-36 0 -57.5 -17t-21.5 -47q0 -24 18.5 -43t45 -34t52.5 -31.5t44.5 -44.5t18.5 -66q0 -75 -52 -113
t-133 -38q-85 0 -148 37zM39 -237l-20 58q87 21 87 79q0 19 -12 48h80q12 -24 12 -55q0 -104 -147 -130z" />
    <glyph glyph-name="Tcaron.small" horiz-adv-x="408" 
d="M111 0l88 416h-152l14 70h387l-24 -70h-138l-88 -416h-87zM224 541l-81 147h71l52 -95l77 95h75l-119 -147h-75z" />
    <glyph glyph-name="Tcommaaccent.small" horiz-adv-x="408" 
d="M111 0l88 416h-152l14 70h387l-24 -70h-138l-88 -416h-87zM48 -237l-20 58q87 21 87 79q0 19 -12 48h80q12 -24 12 -55q0 -104 -147 -130z" />
    <glyph glyph-name="Tbar.small" horiz-adv-x="408" 
d="M111 0l42 199h-86l14 63h86l32 154h-152l14 70h387l-24 -70h-138l-32 -154h90l-14 -63h-90l-42 -199h-87z" />
    <glyph glyph-name="Ugrave.small" horiz-adv-x="535" 
d="M220 -10q-77 0 -126 35.5t-49 107.5q0 30 8 67l62 286h86l-63 -294q-6 -28 -6 -46q0 -42 25.5 -63t69.5 -21q76 0 114 55q18 27 30 87l60 282h87l-64 -298q-16 -74 -44 -114q-58 -84 -190 -84zM300 540l-81 147h100l49 -147h-68z" />
    <glyph glyph-name="Uacute.small" horiz-adv-x="535" 
d="M220 -10q-77 0 -126 35.5t-49 107.5q0 30 8 67l62 286h86l-63 -294q-6 -28 -6 -46q0 -42 25.5 -63t69.5 -21q76 0 114 55q18 27 30 87l60 282h87l-64 -298q-16 -74 -44 -114q-58 -84 -190 -84zM284 540l76 147h100l-109 -147h-67z" />
    <glyph glyph-name="Ucircumflex.small" horiz-adv-x="535" 
d="M220 -10q-77 0 -126 35.5t-49 107.5q0 30 8 67l62 286h86l-63 -294q-6 -28 -6 -46q0 -42 25.5 -63t69.5 -21q76 0 114 55q18 27 30 87l60 282h87l-64 -298q-16 -74 -44 -114q-58 -84 -190 -84zM190 540l119 147h74l82 -147h-71l-52 94l-77 -94h-75z" />
    <glyph glyph-name="Utilde.small" horiz-adv-x="535" 
d="M220 -10q-77 0 -126 35.5t-49 107.5q0 30 8 67l62 286h86l-63 -294q-6 -28 -6 -46q0 -42 25.5 -63t69.5 -21q76 0 114 55q18 27 30 87l60 282h87l-64 -298q-16 -74 -44 -114q-58 -84 -190 -84zM185 561q4 53 29 79.5t60 26.5q30 0 68 -23.5t53 -23.5q28 0 34 41h62
q-4 -53 -28.5 -79.5t-59.5 -26.5q-30 0 -68.5 23.5t-53.5 23.5q-27 0 -33 -41h-63z" />
    <glyph glyph-name="Udieresis.small" horiz-adv-x="535" 
d="M220 -10q-77 0 -126 35.5t-49 107.5q0 30 8 67l62 286h86l-63 -294q-6 -28 -6 -46q0 -42 25.5 -63t69.5 -21q76 0 114 55q18 27 30 87l60 282h87l-64 -298q-16 -74 -44 -114q-58 -84 -190 -84zM243 564q-19 0 -30.5 11.5t-11.5 30.5q0 25 15 41t37 16q19 0 31 -11.5
t12 -30.5q0 -24 -15.5 -40.5t-37.5 -16.5zM423 564q-19 0 -30.5 11.5t-11.5 30.5q0 25 15 41t37 16q19 0 31 -11.5t12 -30.5q0 -24 -15.5 -40.5t-37.5 -16.5z" />
    <glyph glyph-name="Umacron.small" horiz-adv-x="535" 
d="M220 -10q-77 0 -126 35.5t-49 107.5q0 30 8 67l62 286h86l-63 -294q-6 -28 -6 -46q0 -42 25.5 -63t69.5 -21q76 0 114 55q18 27 30 87l60 282h87l-64 -298q-16 -74 -44 -114q-58 -84 -190 -84zM199 581l14 69h260l-15 -69h-259z" />
    <glyph glyph-name="Ubreve.small" horiz-adv-x="535" 
d="M220 -10q-77 0 -126 35.5t-49 107.5q0 30 8 67l62 286h86l-63 -294q-6 -28 -6 -46q0 -42 25.5 -63t69.5 -21q76 0 114 55q18 27 30 87l60 282h87l-64 -298q-16 -74 -44 -114q-58 -84 -190 -84zM324 552q-58 0 -88 34.5t-25 93.5h62q-2 -69 57 -69q60 0 81 69h65
q-13 -60 -53.5 -94t-98.5 -34z" />
    <glyph glyph-name="Uring.small" horiz-adv-x="535" 
d="M220 -10q-77 0 -126 35.5t-49 107.5q0 30 8 67l62 286h86l-63 -294q-6 -28 -6 -46q0 -42 25.5 -63t69.5 -21q76 0 114 55q18 27 30 87l60 282h87l-64 -298q-16 -74 -44 -114q-58 -84 -190 -84zM321 532q-44 0 -70.5 23t-26.5 61q0 48 33.5 78t83.5 30q44 0 71 -22.5
t27 -61.5q0 -48 -34 -78t-84 -30zM325 576q24 0 38.5 17.5t14.5 43.5q0 20 -11 31.5t-30 11.5q-23 0 -38 -17.5t-15 -43.5q0 -20 11 -31.5t30 -11.5z" />
    <glyph glyph-name="Uhungarumlaut.small" horiz-adv-x="535" 
d="M220 -10q-77 0 -126 35.5t-49 107.5q0 30 8 67l62 286h86l-63 -294q-6 -28 -6 -46q0 -42 25.5 -63t69.5 -21q76 0 114 55q18 27 30 87l60 282h87l-64 -298q-16 -74 -44 -114q-58 -84 -190 -84zM204 540l76 147h100l-108 -147h-68zM370 540l77 147h100l-109 -147h-68z" />
    <glyph glyph-name="Uogonek.small" horiz-adv-x="535" 
d="M122 -142q0 75 90 131v2q-74 2 -120.5 37t-46.5 105q0 30 8 67l62 286h86l-63 -294q-6 -28 -6 -46q0 -42 25.5 -63t69.5 -21q77 0 115 56q17 25 28 83l61 285h87l-64 -298q-17 -78 -48 -119q-22 -30 -62 -53q-3 -2 -17 -10.5t-19.5 -11.5t-19 -11.5t-20 -13.5t-18 -13.5
t-17.5 -15t-14 -15t-11.5 -16.5t-6.5 -16.5t-3 -17.5q0 -32 34 -32q14 0 38 8l6 -53q-38 -11 -69 -11q-43 0 -64 20t-21 51z" />
    <glyph glyph-name="Wgrave.small" horiz-adv-x="681" 
d="M142 -2l-86 488h84l42 -258q2 -15 7 -51t7 -49h2q15 33 46 95l87 168l-18 95h79l46 -257q10 -60 16 -103h2q39 84 49 104l123 256h89l-250 -488h-63l-40 212q-7 34 -11 70h-2q-8 -17 -35 -69l-111 -213h-63zM355 540l-81 147h100l49 -147h-68z" />
    <glyph glyph-name="Wacute.small" horiz-adv-x="681" 
d="M142 -2l-86 488h84l42 -258q2 -15 7 -51t7 -49h2q15 33 46 95l87 168l-18 95h79l46 -257q10 -60 16 -103h2q39 84 49 104l123 256h89l-250 -488h-63l-40 212q-7 34 -11 70h-2q-8 -17 -35 -69l-111 -213h-63zM349 540l76 147h100l-109 -147h-67z" />
    <glyph glyph-name="Wcircumflex.small" horiz-adv-x="681" 
d="M142 -2l-86 488h84l42 -258q2 -15 7 -51t7 -49h2q15 33 46 95l87 168l-18 95h79l46 -257q10 -60 16 -103h2q39 84 49 104l123 256h89l-250 -488h-63l-40 212q-7 34 -11 70h-2q-8 -17 -35 -69l-111 -213h-63zM259 540l119 147h74l82 -147h-71l-52 94l-77 -94h-75z" />
    <glyph glyph-name="Wdieresis.small" horiz-adv-x="681" 
d="M142 -2l-86 488h84l42 -258q2 -15 7 -51t7 -49h2q15 33 46 95l87 168l-18 95h79l46 -257q10 -60 16 -103h2q39 84 49 104l123 256h89l-250 -488h-63l-40 212q-7 34 -11 70h-2q-8 -17 -35 -69l-111 -213h-63zM310 564q-19 0 -30.5 11.5t-11.5 30.5q0 25 15 41t37 16
q19 0 31 -11.5t12 -30.5q0 -24 -15.5 -40.5t-37.5 -16.5zM490 564q-19 0 -30.5 11.5t-11.5 30.5q0 25 15 41t37 16q19 0 31 -11.5t12 -30.5q0 -24 -15.5 -40.5t-37.5 -16.5z" />
    <glyph glyph-name="Ygrave.small" horiz-adv-x="416" 
d="M114 0l41 195l-99 291h84l69 -219h2l150 219h92l-211 -293l-42 -193h-86zM220 540l-81 147h100l49 -147h-68z" />
    <glyph glyph-name="Yacute.small" horiz-adv-x="416" 
d="M114 0l41 195l-99 291h84l69 -219h2l150 219h92l-211 -293l-42 -193h-86zM220 540l76 147h100l-109 -147h-67z" />
    <glyph glyph-name="Ycircumflex.small" horiz-adv-x="416" 
d="M114 0l41 195l-99 291h84l69 -219h2l150 219h92l-211 -293l-42 -193h-86zM116 540l119 147h74l82 -147h-71l-52 94l-77 -94h-75z" />
    <glyph glyph-name="Ydieresis.small" horiz-adv-x="416" 
d="M114 0l41 195l-99 291h84l69 -219h2l150 219h92l-211 -293l-42 -193h-86zM174 564q-19 0 -30.5 11.5t-11.5 30.5q0 25 15 41t37 16q19 0 31 -11.5t12 -30.5q0 -24 -15.5 -40.5t-37.5 -16.5zM354 564q-19 0 -30.5 11.5t-11.5 30.5q0 25 15 41t37 16q19 0 31 -11.5
t12 -30.5q0 -24 -15.5 -40.5t-37.5 -16.5z" />
    <glyph glyph-name="Zacute.small" horiz-adv-x="429" 
d="M-19 0l286 416h-208l-12 70h364l-287 -415h240l-15 -71h-368zM189 540l76 147h100l-109 -147h-67z" />
    <glyph glyph-name="Zcaron.small" horiz-adv-x="429" 
d="M-19 0l286 416h-208l-12 70h364l-287 -415h240l-15 -71h-368zM194 541l-81 147h71l52 -95l77 95h75l-119 -147h-75z" />
    <glyph glyph-name="Zdotaccent.small" horiz-adv-x="433" 
d="M-19 0l286 416h-208l-12 70h364l-287 -415h240l-15 -71h-368zM246 580q-24 0 -38 14t-14 35q0 28 19 45.5t44 17.5q24 0 38 -14t14 -35q0 -27 -19 -45t-44 -18z" />
    <glyph glyph-name="Eng.small" horiz-adv-x="564" 
d="M193 -182l22 70q25 -11 51 -11q35 0 53 21t29 72l11 54l-128 235q-44 86 -49 96h-2q-5 -36 -20 -106l-54 -249h-86l104 486h70l145 -262q24 -45 44 -86h2q10 59 19 99l53 249h87l-118 -554q-28 -127 -157 -127q-40 0 -76 13z" />
    <glyph glyph-name="Eth.small" horiz-adv-x="507" 
d="M23 0l46 215h-64l14 63h64l44 208h120q105 0 168 -55t63 -153q0 -119 -79.5 -198.5t-232.5 -79.5h-143zM126 72h59q99 0 152.5 58t53.5 145q0 65 -40 102t-113 37h-40l-29 -136h115l-14 -63h-114z" />
    <glyph glyph-name="Thorn.small" horiz-adv-x="431" 
d="M20 0l104 486h87l-18 -80h22q81 0 124 -38.5t43 -99.5q0 -82 -59.5 -131.5t-169.5 -49.5h-27l-20 -87h-86zM140 157h34q60 0 91.5 29t31.5 77q0 32 -20 53t-63 21h-35z" />
    <glyph glyph-name="a.superior" horiz-adv-x="333" 
d="M90 263q-41 0 -65 25t-24 66q0 65 48 95.5t126 30.5h42q3 12 3 28q0 44 -56 44q-42 0 -99 -24l-13 55q60 28 122 28q53 0 84.5 -24.5t31.5 -74.5q0 -30 -12 -76l-8 -31q-12 -51 -12 -83q0 -18 7 -44l-59 -13q-9 26 -10 49h-1q-47 -51 -105 -51zM109 322q29 0 57.5 25.5
t36.5 62.5l4 16h-28q-110 0 -110 -63q0 -41 40 -41z" />
    <glyph glyph-name="b.superior" horiz-adv-x="353" 
d="M95 263q-55 0 -95 16l103 484h71l-33 -156q-8 -31 -12 -43h2q37 47 93 47q42 0 70 -30t28 -85q0 -102 -64 -167.5t-163 -65.5zM111 324q61 0 101 48t40 114q0 27 -11.5 45.5t-36.5 18.5q-32 0 -60.5 -30t-39.5 -82l-24 -111q15 -3 31 -3z" />
    <glyph glyph-name="c.superior" horiz-adv-x="306" 
d="M152 263q-63 0 -100.5 38.5t-37.5 104.5q0 85 53.5 145t135.5 60q49 0 89 -19l-14 -59q-37 17 -72 17q-53 0 -88 -40.5t-35 -98.5q0 -40 19.5 -63.5t56.5 -23.5q43 0 86 25l20 -55q-47 -31 -113 -31z" />
    <glyph glyph-name="d.superior" horiz-adv-x="352" 
d="M164 263q-67 0 -108 38t-41 104q0 91 56 148.5t136 57.5q38 0 62 -9l36 161h70l-102 -477q-49 -23 -109 -23zM167 324q24 0 45 7l45 211q-16 8 -46 8q-55 0 -90.5 -39t-35.5 -102q0 -40 21.5 -62.5t60.5 -22.5z" />
    <glyph glyph-name="e.superior" horiz-adv-x="329" 
d="M151 263q-63 0 -100.5 38t-37.5 104q0 87 50 146.5t125 59.5q55 0 84.5 -30.5t29.5 -80.5q0 -31 -17 -80l-203 -3q-1 -8 -1 -13q0 -38 21 -59.5t56 -21.5q43 0 92 26l20 -54q-55 -32 -119 -32zM92 473l137 2q5 15 5 28q0 20 -12.5 35t-39.5 15q-32 0 -56.5 -23t-33.5 -57
z" />
    <glyph glyph-name="f.superior" horiz-adv-x="218" 
d="M-22 114l-46 47q64 57 92 138.5t51 244.5h-51l9 58h50l6 37q10 61 45.5 92.5t84.5 31.5q39 0 69 -18l-24 -54q-22 10 -41 10q-52 0 -64 -68l-5 -31h78l-24 -58h-62q-13 -90 -23.5 -141.5t-29 -111t-46.5 -101t-69 -76.5z" />
    <glyph glyph-name="g.superior" horiz-adv-x="358" 
d="M110 263q-41 0 -68 28.5t-27 85.5q0 96 55 165t154 69q60 0 112 -20l-70 -325q-17 -78 -56.5 -117.5t-119.5 -39.5q-57 0 -107 28l24 58q45 -24 84 -24q46 0 70.5 24.5t36.5 75.5l9 36h-2q-38 -44 -95 -44zM128 324q30 0 61.5 31t46.5 102l19 88q-17 5 -39 5
q-62 0 -96.5 -48.5t-34.5 -114.5q0 -63 43 -63z" />
    <glyph glyph-name="h.superior" horiz-adv-x="350" 
d="M-4 270l105 493h71l-34 -161q-5 -21 -17 -54h2q48 63 113 63q36 0 58.5 -21t22.5 -63q0 -21 -9 -66l-40 -191h-71l42 200q5 21 5 43q0 34 -31 34q-32 0 -67 -33.5t-49 -100.5l-31 -143h-70z" />
    <glyph glyph-name="i.superior" horiz-adv-x="156" 
d="M-5 270l71 332h71l-71 -332h-71zM117 659q-18 0 -28.5 10.5t-10.5 27.5q0 22 14.5 35.5t34.5 13.5q17 0 28 -10.5t11 -27.5q0 -22 -14.5 -35.5t-34.5 -13.5z" />
    <glyph glyph-name="j.superior" horiz-adv-x="175" 
d="M-48 109q-36 0 -60 13l21 57q19 -8 35 -8q43 0 56 58l80 373h71l-84 -390q-22 -103 -119 -103zM135 659q-18 0 -28.5 10.5t-10.5 27.5q0 22 14.5 35.5t34.5 13.5q17 0 27.5 -10.5t10.5 -27.5q0 -22 -14 -35.5t-34 -13.5z" />
    <glyph glyph-name="k.superior" horiz-adv-x="311" 
d="M-5 270l106 493h71l-60 -278h2l127 117h87l-164 -149l107 -183h-78l-91 162h-2l-34 -162h-71z" />
    <glyph glyph-name="l.superior" horiz-adv-x="186" 
d="M78 266q-66 0 -66 61q0 17 6 39l85 397h71l-85 -392q-4 -13 -4 -24q0 -19 21 -19q13 0 24 4v-59q-23 -7 -52 -7z" />
    <glyph glyph-name="m.superior" horiz-adv-x="536" 
d="M-3 270l71 332h59l-7 -55h2q45 64 108 64q70 0 77 -69q53 69 117 69q36 0 58 -21t22 -62q0 -19 -8 -59l-42 -199h-71l43 200q5 28 5 43q0 34 -30 34q-32 0 -63.5 -34t-44.5 -96l-32 -147h-71l43 200q5 28 5 43q0 34 -30 34q-33 0 -64.5 -34.5t-44.5 -95.5l-31 -147h-71z
" />
    <glyph glyph-name="o.superior" horiz-adv-x="357" 
d="M144 263q-61 0 -95.5 36t-34.5 93q0 94 53 156.5t129 62.5q61 0 95.5 -36.5t34.5 -94.5q0 -93 -53 -155t-129 -62zM146 324q49 0 79.5 46t30.5 105q0 75 -63 75q-48 0 -79 -46t-31 -104q0 -76 63 -76z" />
    <glyph glyph-name="p.superior" horiz-adv-x="354" 
d="M-39 109l104 487q51 15 103 15q75 0 115 -39t40 -103q0 -95 -58.5 -150.5t-136.5 -55.5q-31 0 -61 8l-35 -162h-71zM79 331q20 -7 45 -7q57 0 93 40.5t36 103.5q0 41 -23.5 61.5t-63.5 20.5q-26 0 -41 -5z" />
    <glyph glyph-name="q.superior" horiz-adv-x="358" 
d="M110 263q-41 0 -68 28.5t-27 85.5q0 96 55 165t154 69q60 0 112 -20l-103 -482h-71l30 143q9 38 15 57h-2q-40 -46 -95 -46zM128 324q30 0 61.5 31t46.5 102l19 88q-17 5 -39 5q-62 0 -96.5 -48.5t-34.5 -114.5q0 -63 43 -63z" />
    <glyph glyph-name="r.superior" horiz-adv-x="230" 
d="M-5 270l71 332h58l-5 -47h1q35 56 84 56q27 0 48 -16l-31 -60q-14 8 -29 8q-30 0 -56 -33t-41 -103l-29 -137h-71z" />
    <glyph glyph-name="s.superior" horiz-adv-x="252" 
d="M84 263q-63 0 -107 30l25 54q39 -25 82 -25q23 0 38.5 10t15.5 30q0 16 -16.5 31.5t-37 27.5t-37 36.5t-16.5 54.5q0 42 30.5 70.5t85.5 28.5q45 0 88 -15l-11 -60q-36 16 -72 16q-50 0 -50 -37q0 -14 11 -26.5t26.5 -23.5t31.5 -23.5t27 -33t11 -45.5q0 -46 -35.5 -73
t-89.5 -27z" />
    <glyph glyph-name="t.superior" horiz-adv-x="239" 
d="M106 263q-36 0 -56 19t-20 48q0 18 5 36l38 178h-54l13 58h53l15 72l75 21l-19 -93h89l-23 -58h-79l-36 -167q-5 -23 -5 -30q0 -22 25 -22q23 0 52 19l21 -54q-47 -27 -94 -27z" />
    <glyph glyph-name="u.superior" horiz-adv-x="357" 
d="M100 263q-35 0 -59 21t-24 66q0 27 8 64l40 188h71l-41 -195q-6 -23 -6 -44q0 -37 33 -37q35 0 65.5 32.5t41.5 82.5q3 15 15.5 75t18.5 86h71l-43 -197q-11 -55 -11 -83q0 -23 6 -44l-60 -13q-11 27 -11 55h-1q-50 -57 -114 -57z" />
    <glyph glyph-name="v.superior" horiz-adv-x="309" 
d="M86 268l-65 334h71l36 -240h2l123 240h77l-186 -334h-58z" />
    <glyph glyph-name="w.superior" horiz-adv-x="472" 
d="M75 268l-52 334h68l30 -229h2l105 229h56l27 -229h3l102 229h75l-162 -334h-60l-27 227h-2l-106 -227h-59z" />
    <glyph glyph-name="x.superior" horiz-adv-x="314" 
d="M-48 270l156 174l-88 158h73l61 -113l99 113h82l-150 -167l93 -165h-73l-66 121l-106 -121h-81z" />
    <glyph glyph-name="y.superior" horiz-adv-x="316" 
d="M-90 124l25 58q22 -10 42 -10q63 0 116 103l-75 327h72l51 -246h1l116 246h80l-176 -344q-41 -81 -85 -115t-102 -34q-38 0 -65 15z" />
    <glyph glyph-name="z.superior" horiz-adv-x="271" 
d="M-31 270l186 274h-125l-4 58h246l-186 -274h142l-12 -58h-247z" />
    <glyph glyph-name="grave.cap" horiz-adv-x="368" 
d="M159 696l-81 147h100l50 -147h-69z" />
    <glyph glyph-name="acute.cap" horiz-adv-x="368" 
d="M134 696l76 147h100l-109 -147h-67z" />
    <glyph glyph-name="circumflex.cap" horiz-adv-x="368" 
d="M46 696l119 147h74l82 -147h-71l-52 94l-77 -94h-75z" />
    <glyph glyph-name="caron.cap" horiz-adv-x="368" 
d="M147 697l-81 147h71l52 -95l77 95h75l-119 -147h-75z" />
    <glyph glyph-name="tilde.cap" horiz-adv-x="368" 
d="M35 724q4 53 29 79.5t60 26.5q30 0 68 -23.5t53 -23.5q27 0 34 41h62q-4 -53 -28.5 -79.5t-59.5 -26.5q-30 0 -68.5 23.5t-53.5 23.5q-27 0 -33 -41h-63z" />
    <glyph glyph-name="dieresis.cap" horiz-adv-x="368" 
d="M92 704q-19 0 -31 11.5t-12 30.5q0 24 15.5 40t37.5 16q19 0 30.5 -11t11.5 -30q0 -25 -15 -41t-37 -16zM272 704q-19 0 -30.5 11.5t-11.5 30.5q0 24 15 40t37 16q19 0 30.5 -11t11.5 -30q0 -25 -15 -41t-37 -16z" />
    <glyph glyph-name="macron.cap" horiz-adv-x="368" 
d="M50 713l14 69h260l-15 -69h-259z" />
    <glyph glyph-name="breve.cap" horiz-adv-x="368" 
d="M183 700q-58 0 -88.5 34.5t-25.5 93.5h62q-2 -69 58 -69q59 0 81 69h64q-13 -60 -53 -94t-98 -34z" />
    <glyph glyph-name="ring.cap" horiz-adv-x="368" 
d="M178 650q-44 0 -71 22.5t-27 60.5q0 49 33.5 78.5t84.5 29.5q43 0 70 -22.5t27 -61.5q0 -48 -33.5 -77.5t-83.5 -29.5zM181 694q24 0 38.5 17.5t14.5 43.5q0 19 -10.5 30.5t-29.5 11.5q-24 0 -38.5 -17.5t-14.5 -43.5q0 -19 11 -30.5t29 -11.5z" />
    <glyph glyph-name="hungarumlaut.cap" horiz-adv-x="368" 
d="M66 696l76 147h100l-108 -147h-68zM232 696l77 147h100l-109 -147h-68z" />
    <glyph glyph-name="dotaccent.cap" horiz-adv-x="368" 
d="M185 704q-24 0 -38 14t-14 35q0 28 19 46t44 18q24 0 38 -14t14 -35q0 -28 -19 -46t-44 -18z" />
    <glyph glyph-name="hyphen.cap" horiz-adv-x="342" 
d="M36 297l16 76h250l-16 -76h-250z" />
    <glyph glyph-name="exclamdown.cap" horiz-adv-x="279" 
d="M22 -1l11 52q57 265 79 336q12 40 31 89h46q-4 -88 -15.5 -157.5t-52.5 -267.5l-11 -52h-88zM185 554q-21 0 -35 15t-14 36q0 25 17 42.5t42 17.5q21 0 34.5 -15t13.5 -36q0 -26 -16.5 -43t-41.5 -17z" />
    <glyph glyph-name="exclam.small" horiz-adv-x="239" 
d="M62 -8q-20 0 -32.5 13t-12.5 32q0 25 15 41t38 16q20 0 32.5 -13t12.5 -32q0 -25 -15 -41t-38 -16zM61 153q3 83 11.5 140.5t33.5 168.5l5 24h85l-6 -23q-28 -128 -41.5 -178t-42.5 -132h-45z" />
    <glyph glyph-name="exclamdown.small" horiz-adv-x="239" 
d="M7 0l5 23q30 133 43 181t41 128h46q-3 -81 -11.5 -137t-33.5 -171l-5 -24h-85zM132 391q-20 0 -32.5 13t-12.5 32q0 25 15.5 41t37.5 16q20 0 32.5 -13t12.5 -32q0 -25 -15 -41t-38 -16z" />
    <glyph glyph-name="questiondown.cap" horiz-adv-x="451" 
d="M169 -8q-66 0 -110 34.5t-44 95.5q0 49 29 92q18 26 54 57.5t66.5 56t59 63.5t39.5 84h57q-2 -46 -18.5 -85t-40.5 -64.5t-51.5 -51t-51 -44.5t-39 -44t-15.5 -51q0 -34 21.5 -51t57.5 -17q65 0 134 48l32 -62q-82 -61 -180 -61zM303 554q-21 0 -34.5 14.5t-13.5 35.5
q0 26 17 43t41 17q21 0 35 -14.5t14 -35.5q0 -26 -17 -43t-42 -17z" />
    <glyph glyph-name="question.small" horiz-adv-x="355" 
d="M91 -8q-20 0 -32.5 13t-12.5 32q0 25 15.5 41t37.5 16q20 0 32.5 -13t12.5 -32q0 -25 -15 -41t-38 -16zM81 153q2 39 19 70t40.5 50.5t46 35.5t38.5 33.5t16 36.5q0 23 -16 35t-43 12q-45 0 -98 -37l-29 56q71 49 144 49q56 0 91.5 -27t35.5 -77q0 -32 -15.5 -56
t-39.5 -41.5t-49.5 -34.5t-50 -44t-35.5 -61h-55z" />
    <glyph glyph-name="questiondown.small" horiz-adv-x="355" 
d="M121 -8q-56 0 -91.5 27t-35.5 77q0 32 15.5 56t40 41.5t50 34.5t50 44t35.5 61h55q-2 -47 -28 -84t-55.5 -55.5t-53.5 -41t-24 -45.5t16 -35t43 -12q46 0 98 37l30 -56q-71 -49 -145 -49zM221 392q-19 0 -32 13t-13 32q0 25 15.5 41t38.5 16q19 0 31.5 -13t12.5 -32
q0 -25 -15 -41t-38 -16z" />
    <glyph glyph-name="quoteleft.small" horiz-adv-x="215" 
d="M87 275q-11 37 -11 82q0 98 71 181l48 -20q-37 -66 -37 -136q0 -38 11 -84z" />
    <glyph glyph-name="quoteright.small" horiz-adv-x="220" 
d="M81 288l-41 32q78 88 80 207h85q-1 -75 -29 -133.5t-95 -105.5z" />
    <glyph glyph-name="quotedblleft.small" horiz-adv-x="396" 
d="M87 275q-11 37 -11 82q0 98 71 181l48 -20q-37 -66 -37 -136q0 -38 11 -84zM268 275q-12 40 -12 82q0 97 72 181l48 -20q-37 -66 -37 -136q0 -38 11 -84z" />
    <glyph glyph-name="quotedblright.small" horiz-adv-x="398" 
d="M81 288l-41 32q78 88 80 207h85q-1 -75 -29 -133.5t-95 -105.5zM258 288l-41 32q78 88 80 207h85q0 -152 -124 -239z" />
    <glyph glyph-name="guilsinglleft.cap" horiz-adv-x="321" 
d="M38 331l194 229l64 -46l-162 -187l109 -185l-69 -43z" />
    <glyph glyph-name="guilsinglright.cap" horiz-adv-x="321" 
d="M26 145l161 188l-108 184l69 43l136 -233l-194 -228z" />
    <glyph glyph-name="guillemotleft.cap" horiz-adv-x="540" 
d="M38 331l194 229l64 -46l-162 -187l109 -185l-69 -43zM257 331l194 229l64 -46l-162 -187l110 -185l-70 -43z" />
    <glyph glyph-name="guillemotright.cap" horiz-adv-x="540" 
d="M90 99l-64 46l161 188l-108 184l69 43l136 -233zM310 99l-64 46l162 188l-109 184l70 43l136 -233z" />
    <glyph glyph-name="endash.cap" horiz-adv-x="450" 
d="M0 306v68h450v-68h-450z" />
    <glyph glyph-name="emdash.cap" horiz-adv-x="800" 
d="M0 306v68h800v-68h-800z" />
    <glyph glyph-name="periodcentered.cap" horiz-adv-x="235" 
d="M108 262q-21 0 -34.5 14.5t-13.5 35.5q0 26 16.5 43.5t41.5 17.5q21 0 34.5 -15t13.5 -36q0 -26 -16.5 -43t-41.5 -17z" />
    <glyph glyph-name="parenleft.cap" horiz-adv-x="332" 
d="M170 -179q-96 134 -96 366q0 166 65 337t198 301l50 -51q-106 -112 -164.5 -266.5t-58.5 -321.5q0 -110 17.5 -183t54.5 -142z" />
    <glyph glyph-name="parenright.cap" horiz-adv-x="332" 
d="M14 -179l-50 52q106 111 165 265.5t59 321.5q0 109 -17.5 182t-54.5 143l65 40q96 -133 96 -365q0 -167 -65 -338t-198 -301z" />
    <glyph glyph-name="parenleft.small" horiz-adv-x="295" 
d="M145 -152q-81 113 -81 286q0 295 214 502l46 -49q-175 -181 -175 -456q0 -81 13 -135t42 -108z" />
    <glyph glyph-name="parenright.small" horiz-adv-x="295" 
d="M11 -152l-46 49q176 184 176 457q0 82 -13 135.5t-43 106.5l59 40q81 -112 81 -285q0 -296 -214 -503z" />
    <glyph glyph-name="bracketleft.cap" horiz-adv-x="328" 
d="M-2 -179l214 1005h181l-15 -68h-97l-184 -870h96l-14 -67h-181z" />
    <glyph glyph-name="bracketright.cap" horiz-adv-x="328" 
d="M-82 -179l15 67h97l184 870h-96l14 68h181l-214 -1005h-181z" />
    <glyph glyph-name="bracketleft.small" horiz-adv-x="293" 
d="M18 -147l166 778h156l-14 -63h-79l-138 -652h78l-13 -63h-156z" />
    <glyph glyph-name="bracketright.small" horiz-adv-x="293" 
d="M-51 -147l14 63h79l139 652h-78l13 63h156l-166 -778h-157z" />
    <glyph glyph-name="braceleft.cap" horiz-adv-x="346" 
d="M193 -171q-74 11 -108 42t-34 85q0 21 8 61l41 197q3 15 3 29q0 48 -54 51l14 66q45 2 66 28q11 14 16 41l47 227q14 68 45 103q49 56 157 65v-78q-65 -9 -93 -43q-18 -22 -27 -69l-41 -198q-10 -46 -25 -70q-21 -30 -69 -42v-2q51 -10 51 -67q0 -21 -7 -58l-36 -172
q-6 -24 -6 -46q0 -32 18 -49.5t59 -24.5z" />
    <glyph glyph-name="braceright.cap" horiz-adv-x="346" 
d="M-52 -171v78q66 9 94 43q16 19 27 69l40 198q10 47 26 70q20 30 68 42v2q-50 10 -50 69q0 27 7 56l36 172q5 27 5 46q0 32 -18 49t-58 24l25 77q74 -11 107.5 -42t33.5 -85q0 -21 -8 -61l-41 -197q-3 -15 -3 -29q0 -48 54 -51l-14 -66q-46 -2 -65 -28q-12 -13 -17 -41
l-47 -227q-14 -68 -45 -103q-49 -56 -157 -65z" />
    <glyph glyph-name="braceleft.small" horiz-adv-x="297" 
d="M169 -159q-118 14 -118 104q0 25 5 49l31 153q3 11 3 22q0 37 -43 40l12 60q54 3 65 56l36 171q13 65 53.5 99t118.5 41v-73q-42 -6 -63 -24.5t-29 -57.5l-30 -148q-16 -79 -72 -96v-2q36 -9 36 -57q0 -18 -4 -37l-30 -134q-5 -22 -5 -38q0 -49 58 -57z" />
    <glyph glyph-name="braceright.small" horiz-adv-x="297" 
d="M-42 -159v73q42 6 63 24.5t28 57.5l31 149q16 78 72 95v2q-37 11 -37 58q0 12 5 37l30 134q4 16 4 38q0 25 -13 38.5t-44 18.5l24 70q118 -14 118 -104q0 -16 -5 -49l-32 -152q-2 -16 -2 -23q0 -37 43 -40l-13 -60q-53 -3 -65 -56l-35 -171q-13 -64 -53 -98t-119 -42z
" />
    <glyph glyph-name="at.cap" horiz-adv-x="771" 
d="M345 -29q-135 0 -221.5 90.5t-86.5 239.5q0 171 105.5 275.5t257.5 104.5q147 0 241 -87t94 -229q0 -109 -47 -167t-121 -58q-40 0 -66 22t-32 62h-2q-15 -32 -52.5 -57t-84.5 -25q-52 0 -89.5 37.5t-37.5 118.5q0 98 58.5 160.5t147.5 62.5q75 0 141 -40l-21 -161
q-5 -32 -5 -52q0 -68 50 -68q43 0 69 43.5t26 117.5q0 110 -70.5 186t-200.5 76q-125 0 -209.5 -86.5t-84.5 -230.5q0 -131 70.5 -204t178.5 -73q75 0 127 24l18 -55q-69 -27 -153 -27zM346 203q41 0 74 37.5t43 123.5l10 79q-27 19 -65 19q-55 0 -92 -45t-37 -117
q0 -97 67 -97z" />
    <glyph glyph-name="at.small" horiz-adv-x="646" 
d="M408 16l18 -51q-58 -25 -132 -25q-116 0 -191 77.5t-75 204.5q0 146 89 235t218 89q126 0 206.5 -74t80.5 -196q0 -93 -41 -144t-105 -51q-34 0 -56.5 18.5t-28.5 51.5h-2q-39 -69 -111 -69q-48 0 -77 33.5t-29 99.5q0 87 50 143t122 56q65 0 124 -35l-25 -141
q-4 -26 -4 -44q0 -56 42 -56q33 0 56 38t23 97q0 92 -58 155t-166 63q-104 0 -174.5 -72.5t-70.5 -193.5q0 -108 58 -169t149 -61q64 0 110 21zM385 277l11 68q-26 14 -52 14q-45 0 -74.5 -39.5t-29.5 -101.5q0 -37 14 -58.5t38 -21.5q68 0 93 139z" />
    <glyph glyph-name="copyright.small" horiz-adv-x="656" 
d="M328 -43q-122 0 -202.5 82.5t-80.5 204.5t80.5 204.5t202.5 82.5t202 -82.5t80 -204.5t-80 -204.5t-202 -82.5zM328 4q98 0 163.5 68.5t65.5 171.5t-65.5 171.5t-163.5 68.5t-163.5 -68.5t-65.5 -171.5t65.5 -171.5t163.5 -68.5zM331 88q-65 0 -104 43t-39 109
q0 65 41 111.5t107 46.5q46 0 80 -19v-54q-38 23 -77 23q-43 0 -69 -29.5t-26 -74.5q0 -49 24.5 -77.5t67.5 -28.5q34 0 74 23l18 -44q-44 -29 -97 -29z" />
    <glyph glyph-name="published.small" horiz-adv-x="656" 
d="M328 -43q-122 0 -202.5 82.5t-80.5 204.5t80.5 204.5t202.5 82.5t202 -82.5t80 -204.5t-80 -204.5t-202 -82.5zM328 4q98 0 163.5 68.5t65.5 171.5t-65.5 171.5t-163.5 68.5t-163.5 -68.5t-65.5 -171.5t65.5 -171.5t163.5 -68.5zM241 92v302h93q55 0 85.5 -26t30.5 -72
t-31.5 -74.5t-89.5 -28.5h-33v-101h-55zM296 241h34q64 0 64 54q0 51 -62 51h-36v-105z" />
    <glyph glyph-name="Euro.OT" horiz-adv-x="524" 
d="M38 159l8 57h54q0 37 8 77h-57l9 57h65q30 77 91.5 123t142.5 46q64 0 121 -30l-17 -70q-51 29 -102 29q-46 0 -84.5 -25.5t-61.5 -72.5h190l-19 -57h-193q-8 -38 -8 -77h191l-20 -57h-166q17 -98 114 -98q56 0 111 34l18 -67q-64 -38 -137 -38q-79 0 -129 44t-63 125
h-66z" />
    <glyph glyph-name="dollar.OT" horiz-adv-x="524" 
d="M150 -64l17 78q-66 5 -120 33l28 65q56 -29 122 -29q52 0 81.5 18.5t29.5 53.5q0 25 -20 43.5t-48 31.5t-56 28.5t-48 42.5t-20 65q0 54 39 91.5t114 44.5q9 43 14 71h67l-14 -72q60 -9 99 -25l-14 -71q-58 28 -124 28q-44 0 -69.5 -15t-25.5 -43q0 -23 20 -41t48 -32
t56.5 -30t48.5 -44.5t20 -66.5q0 -62 -42.5 -100t-119.5 -46l-15 -79h-68z" />
    <glyph glyph-name="sterling.OT" horiz-adv-x="524" 
d="M45 0l7 56q71 26 92 172h-55l9 64h55l9 60q13 81 63 124t126 43q61 0 101 -21l-27 -67q-29 16 -69 16q-44 0 -71.5 -27t-35.5 -75l-8 -53h157l-21 -64h-146q-18 -115 -61 -161l1 -2q22 2 67 2h154l-9 -67h-338z" />
    <glyph glyph-name="yen.OT" horiz-adv-x="524" 
d="M154 0l18 86h-125l12 60h125l13 61h-127l12 61h96l-85 242h84l73 -222h2l152 222h92l-172 -242h96l-12 -61h-127l-13 -61h128l-12 -60h-129l-18 -86h-83z" />
    <glyph glyph-name="zero.OT" horiz-adv-x="524" 
d="M210 -10q-85 0 -134 53.5t-49 142.5q0 136 74 222t180 86q85 0 134 -53.5t49 -142.5q0 -136 -74 -222t-180 -86zM218 63q66 0 111.5 67.5t45.5 161.5q0 60 -26 95t-76 35q-66 0 -111.5 -68t-45.5 -161q0 -60 26 -95t76 -35z" />
    <glyph glyph-name="one.OT" horiz-adv-x="524" 
d="M203 0l81 381q-30 -17 -83.5 -36.5t-93.5 -26.5v72q45 11 110.5 40t104.5 56h71l-104 -486h-86z" />
    <glyph glyph-name="two.OT" horiz-adv-x="524" 
d="M23 0q9 58 36 105t61.5 74.5t72.5 52.5t69.5 42t52 39t20.5 46q0 27 -22.5 45t-63.5 18q-67 0 -141 -35l-18 66q82 41 173 41q74 0 117.5 -36t43.5 -92q0 -40 -24 -72.5t-60.5 -56t-74.5 -46t-72.5 -53.5t-48.5 -67h247l-15 -71h-353z" />
    <glyph glyph-name="three.OT" horiz-adv-x="524" 
d="M-17 -172l25 69q50 -20 110 -20q93 0 146.5 43.5t53.5 103.5q0 48 -34.5 72t-111.5 24h-85l9 68q118 2 182.5 39t64.5 108q0 43 -27 65t-72 22q-65 0 -149 -41l-22 64q92 49 182 49q80 0 128.5 -40t48.5 -107t-38.5 -112.5t-95.5 -66.5v-2q108 -26 108 -135
q0 -100 -78.5 -163t-210.5 -63q-75 0 -134 23z" />
    <glyph glyph-name="four.OT" horiz-adv-x="524" 
d="M219 -195l41 195h-260l-12 60l393 426h69l-87 -413h88l-15 -73h-89l-37 -174zM277 73l33 157q17 72 30 118h-2l-249 -276q14 0 47 0.5t49 0.5h92z" />
    <glyph glyph-name="five.OT" horiz-adv-x="524" 
d="M-22 -173l25 69q45 -19 107 -19q88 0 145.5 43.5t57.5 120.5q0 63 -44.5 85.5t-124.5 22.5h-71l68 337h339l-26 -70h-243l-40 -199h22q95 0 151.5 -42.5t56.5 -130.5q0 -102 -76.5 -170.5t-217.5 -68.5q-78 0 -129 22z" />
    <glyph glyph-name="six.OT" horiz-adv-x="524" 
d="M228 -10q-87 0 -141.5 60.5t-54.5 170.5q0 77 25 150t75 137.5t133.5 110.5t191.5 61l10 -73q-118 -15 -211 -86t-125 -179h2q26 29 68 49t89 20q75 0 123 -48.5t48 -131.5q0 -100 -64 -170.5t-169 -70.5zM234 63q57 0 97.5 43.5t40.5 114.5q0 51 -28.5 84t-75.5 33
q-41 0 -77 -21.5t-54 -59.5q-16 -32 -16 -70q0 -52 30 -88t83 -36z" />
    <glyph glyph-name="seven.OT" horiz-adv-x="524" 
d="M69 -200q46 175 128.5 336t179.5 280h-295l-11 70h427v-33q-108 -125 -199 -297t-130 -336z" />
    <glyph glyph-name="eight.OT" horiz-adv-x="524" 
d="M225 -10q-97 0 -155.5 45.5t-58.5 123.5q0 68 43 113.5t112 68.5v2q-87 51 -87 141q0 78 62 129.5t160 51.5q91 0 145.5 -43.5t54.5 -113.5q0 -60 -42 -104t-103 -67v-2q113 -44 113 -150q0 -90 -72 -142.5t-172 -52.5zM228 61q64 0 106 32t42 88q0 45 -36.5 74
t-105.5 49q-59 -19 -94.5 -55t-35.5 -84q0 -52 37 -78t87 -26zM275 370q134 40 134 131q0 45 -31.5 69t-81.5 24q-51 0 -87.5 -28.5t-36.5 -79.5q0 -38 27.5 -69.5t75.5 -46.5z" />
    <glyph glyph-name="nine.OT" horiz-adv-x="524" 
d="M16 -197l-10 72q117 15 207.5 75.5t130.5 156.5l-2 1q-64 -39 -134 -39q-80 0 -128.5 51.5t-48.5 136.5q0 106 63.5 171.5t160.5 65.5q98 0 152 -66t54 -166q0 -79 -25.5 -152t-77 -137t-139.5 -109t-203 -61zM362 185q9 30 9 79q0 64 -29 111t-89 47t-96.5 -43.5
t-36.5 -112.5q0 -56 26.5 -90.5t84.5 -34.5q70 0 131 44z" />
    <glyph glyph-name="Euro.LT" horiz-adv-x="529" 
d="M20 213l8 62h64v5q0 54 10 100h-67l9 61h74q36 104 113 164t176 60q81 0 136 -35l-16 -77q-56 35 -115 35q-68 0 -118.5 -39.5t-78.5 -107.5h242l-21 -61h-241q-10 -47 -10 -92v-13h234l-21 -62h-208q19 -146 139 -146q63 0 125 38l18 -71q-67 -44 -154 -44
q-97 0 -153.5 57t-69.5 166h-75z" />
    <glyph glyph-name="dollar.LT" horiz-adv-x="529" 
d="M141 -82l21 100q-65 6 -119 39l31 68q55 -35 122 -35q55 0 92.5 24t37.5 80q0 30 -15 55t-37 41t-48.5 35.5t-48.5 37.5t-37 48.5t-15 68.5q0 70 47 115t122 53l19 93h70l-20 -94q57 -7 101 -29l-16 -72q-55 31 -124 31q-46 0 -77.5 -21.5t-31.5 -64.5q0 -27 15 -49.5
t37 -37.5t48.5 -34t48.5 -38.5t37 -52.5t15 -75q0 -81 -51.5 -129t-132.5 -57l-21 -100h-70z" />
    <glyph glyph-name="sterling.LT" horiz-adv-x="529" 
d="M27 0l9 60q26 10 46.5 32.5t32.5 46t22.5 58.5t14 54.5t8.5 48.5h-75l11 73h74l12 79q10 71 34 112q56 101 181 101q59 0 112 -24l-30 -69q-36 18 -77 18q-77 0 -111 -70q-15 -28 -22 -77l-10 -70h178l-24 -73h-164q-29 -184 -99 -231v-2q50 6 108 6h173l-11 -73h-393z
" />
    <glyph glyph-name="yen.LT" horiz-adv-x="529" 
d="M152 0l25 120h-156l12 61h158l17 81h-160l12 61h131l-100 336h90l82 -309h2l189 309h96l-218 -336h132l-13 -61h-158l-17 -81h161l-13 -61h-161l-26 -120h-85z" />
    <glyph glyph-name="zero.LT" horiz-adv-x="529" 
d="M206 -10q-88 0 -133.5 57t-45.5 167q0 78 19 156t53.5 144.5t91 108.5t124.5 42q88 0 133.5 -57.5t45.5 -166.5q0 -78 -19 -156t-53.5 -144.5t-91 -108.5t-124.5 -42zM211 66q78 0 134 116.5t56 267.5q0 139 -91 139q-78 0 -134 -117t-56 -268q0 -138 91 -138z" />
    <glyph glyph-name="one.LT" horiz-adv-x="529" 
d="M195 0l120 560q-29 -16 -93 -38t-106 -32v74q47 12 121 43t112 57h75l-142 -664h-87z" />
    <glyph glyph-name="two.LT" horiz-adv-x="529" 
d="M8 0q10 70 36 128t59.5 95.5t72 68.5t75 55t66.5 46.5t48 50t18 60.5q0 85 -103 85q-73 0 -159 -41l-17 71q100 46 191 46q82 0 131.5 -41t49.5 -113q0 -56 -31 -100.5t-78 -78t-95.5 -67t-90.5 -83t-57 -109.5h305l-16 -73h-405z" />
    <glyph glyph-name="three.LT" horiz-adv-x="531" 
d="M1 29l37 70q58 -33 137 -33q68 0 120.5 32t52.5 101q0 54 -39 76t-117 22h-77l9 72h44q61 0 99 11q50 14 80 45t30 78q0 44 -30 65t-79 21q-70 0 -150 -35l-16 69q92 42 182 42q87 0 136.5 -41t49.5 -112q0 -125 -141 -172v-2q112 -25 112 -134q0 -93 -73 -153.5
t-192 -60.5q-105 0 -175 39z" />
    <glyph glyph-name="four.LT" horiz-adv-x="529" 
d="M255 0l36 171h-263l-10 67l391 426h73l-89 -420h96l-16 -73h-96l-36 -171h-86zM307 244l28 128q18 82 39 154l-257 -283q13 0 43 0.5t46 0.5h101z" />
    <glyph glyph-name="five.LT" horiz-adv-x="529" 
d="M3 29l37 70q53 -33 126 -33q74 0 127.5 38t53.5 110q0 110 -169 110h-83l69 335h346l-23 -73h-251l-39 -190h30q105 0 159 -48.5t54 -124.5q0 -104 -75.5 -168.5t-196.5 -64.5q-102 0 -165 39z" />
    <glyph glyph-name="six.LT" horiz-adv-x="529" 
d="M243 -10q-93 0 -147 58.5t-54 177.5q0 188 102 313.5t264 125.5q49 0 96 -16l-27 -69q-29 11 -70 11q-107 0 -180 -76t-96 -192h2q25 37 69.5 59.5t92.5 22.5q82 0 130 -49.5t48 -134.5q0 -99 -67 -165t-163 -66zM245 64q56 0 95.5 42t39.5 109q0 52 -27.5 84.5
t-79.5 32.5q-57 0 -97.5 -42t-40.5 -108q0 -52 28.5 -85t81.5 -33z" />
    <glyph glyph-name="seven.LT" horiz-adv-x="529" 
d="M92 0q78 311 312 586h-295l-12 73h425v-36q-258 -302 -337 -623h-93z" />
    <glyph glyph-name="eight.LT" horiz-adv-x="529" 
d="M229 -10q-97 0 -155.5 45.5t-58.5 123.5q0 68 42.5 113.5t111.5 68.5v2q-87 51 -87 141q0 78 62 129.5t160 51.5q92 0 146.5 -43.5t54.5 -113.5q0 -60 -42 -104t-104 -67v-2q113 -44 113 -150q0 -90 -72 -142.5t-171 -52.5zM232 61q63 0 105 32t42 88q0 45 -36.5 74
t-104.5 49q-59 -19 -94.5 -54.5t-35.5 -84.5q0 -52 37 -78t87 -26zM278 370q134 40 134 131q0 45 -31.5 69t-80.5 24q-51 0 -88 -28.5t-37 -79.5q0 -38 27.5 -69.5t75.5 -46.5z" />
    <glyph glyph-name="nine.LT" horiz-adv-x="529" 
d="M27 15l25 70q42 -21 97 -21q190 0 236 227h-2q-68 -49 -155 -49q-77 0 -127.5 47.5t-50.5 136.5q0 107 64.5 173t159.5 66q96 0 154.5 -63.5t58.5 -182.5q0 -204 -89.5 -316.5t-243.5 -112.5q-74 0 -127 25zM393 367q5 28 5 59q0 78 -33 122t-92 44q-56 0 -93 -46.5
t-37 -114.5q0 -52 28 -84t81 -32q69 0 141 52z" />
    <glyph glyph-name="Euro.OP" horiz-adv-x="524" 
d="M38 159l8 57h54q0 37 8 77h-57l9 57h65q30 77 91.5 123t142.5 46q64 0 121 -30l-17 -70q-51 29 -102 29q-46 0 -84.5 -25.5t-61.5 -72.5h190l-19 -57h-193q-8 -38 -8 -77h191l-20 -57h-166q17 -98 114 -98q56 0 111 34l18 -67q-64 -38 -137 -38q-79 0 -129 44t-63 125
h-66z" />
    <glyph glyph-name="dollar.OP" horiz-adv-x="524" 
d="M150 -64l17 78q-66 5 -120 33l28 65q56 -29 122 -29q52 0 81.5 18.5t29.5 53.5q0 25 -20 43.5t-48 31.5t-56 28.5t-48 42.5t-20 65q0 54 39 91.5t114 44.5q9 43 14 71h67l-14 -72q60 -9 99 -25l-14 -71q-58 28 -124 28q-44 0 -69.5 -15t-25.5 -43q0 -23 20 -41t48 -32
t56.5 -30t48.5 -44.5t20 -66.5q0 -62 -42.5 -100t-119.5 -46l-15 -79h-68z" />
    <glyph glyph-name="sterling.OP" horiz-adv-x="524" 
d="M45 0l7 56q71 26 92 172h-55l9 64h55l9 60q13 81 63 124t126 43q61 0 101 -21l-27 -67q-29 16 -69 16q-44 0 -71.5 -27t-35.5 -75l-8 -53h157l-21 -64h-146q-18 -115 -61 -161l1 -2q22 2 67 2h154l-9 -67h-338z" />
    <glyph glyph-name="yen.OP" horiz-adv-x="524" 
d="M154 0l18 86h-125l12 60h125l13 61h-127l12 61h96l-85 242h84l73 -222h2l152 222h92l-172 -242h96l-12 -61h-127l-13 -61h128l-12 -60h-129l-18 -86h-83z" />
    <glyph glyph-name="zero.OP" horiz-adv-x="524" 
d="M211 -10q-85 0 -133 53t-48 143q0 136 72.5 222t177.5 86q85 0 133 -53t48 -143q0 -136 -72.5 -222t-177.5 -86zM218 63q66 0 110 67.5t44 161.5q0 59 -25 94.5t-74 35.5q-66 0 -110.5 -67.5t-44.5 -161.5q0 -59 25.5 -94.5t74.5 -35.5z" />
    <glyph glyph-name="one.OP" horiz-adv-x="382" 
d="M123 0l82 381q-72 -41 -153 -58v72q97 26 191 91h71l-104 -486h-87z" />
    <glyph glyph-name="two.OP" horiz-adv-x="498" 
d="M12 0q9 58 36 105t61.5 74.5t72.5 52.5t69.5 42t52 39t20.5 46q0 27 -23 45t-64 18q-65 0 -141 -35l-17 66q80 41 173 41q74 0 117.5 -36t43.5 -92q0 -40 -24 -72.5t-60.5 -56t-75 -46t-72.5 -53.5t-48 -67h247l-15 -71h-353z" />
    <glyph glyph-name="three.OP" horiz-adv-x="494" 
d="M-33 -172l24 69q52 -20 111 -20q92 0 145.5 43.5t53.5 103.5q0 48 -34 72t-112 24h-84l9 68q117 2 182 39t65 108q0 43 -27 65t-72 22q-64 0 -150 -41l-21 64q90 49 182 49q80 0 128 -40t48 -107t-38 -112.5t-95 -66.5v-2q108 -27 108 -135q0 -100 -79 -163t-210 -63
q-77 0 -134 23z" />
    <glyph glyph-name="four.OP" horiz-adv-x="524" 
d="M214 -195l42 195h-261l-12 60l393 426h69l-87 -413h88l-15 -73h-89l-36 -174zM272 73l33 157q17 72 30 118h-2l-249 -276q15 0 47.5 0.5t48.5 0.5h92z" />
    <glyph glyph-name="five.OP" horiz-adv-x="472" 
d="M-41 -173l26 69q45 -19 107 -19q88 0 145 43.5t57 120.5q0 63 -44 85.5t-124 22.5h-71l68 337h338l-25 -70h-243l-40 -199h22q95 0 151.5 -42.5t56.5 -130.5q0 -102 -76.5 -170.5t-217.5 -68.5q-78 0 -130 22z" />
    <glyph glyph-name="six.OP" horiz-adv-x="531" 
d="M231 -10q-87 0 -141.5 60.5t-54.5 170.5q0 77 25 150t75 137.5t133.5 110.5t191.5 61l10 -73q-118 -15 -211 -86.5t-124 -178.5h2q26 29 67.5 49t88.5 20q75 0 123 -48t48 -132q0 -100 -64 -170.5t-169 -70.5zM237 63q58 0 98.5 43.5t40.5 114.5q0 51 -28.5 84t-76.5 33
q-40 0 -76 -22t-54 -59q-16 -29 -16 -70q0 -52 29.5 -88t82.5 -36z" />
    <glyph glyph-name="seven.OP" horiz-adv-x="472" 
d="M31 -200q46 175 128.5 336t179.5 280h-295l-11 70h428v-33q-108 -124 -199.5 -296.5t-130.5 -336.5z" />
    <glyph glyph-name="eight.OP" horiz-adv-x="552" 
d="M238 -10q-97 0 -155.5 45.5t-58.5 123.5q0 68 43 113.5t112 68.5v2q-87 51 -87 141q0 78 62 129.5t160 51.5q91 0 145.5 -43.5t54.5 -113.5q0 -61 -41.5 -104.5t-103.5 -66.5v-2q113 -44 113 -150q0 -90 -72 -142.5t-172 -52.5zM242 61q63 0 105 32t42 88q0 45 -36.5 74
t-104.5 49q-59 -19 -94.5 -54.5t-35.5 -84.5q0 -52 37 -78t87 -26zM288 370q134 40 134 131q0 45 -31.5 69t-81.5 24q-51 0 -87.5 -28.5t-36.5 -79.5q0 -38 27.5 -69.5t75.5 -46.5z" />
    <glyph glyph-name="nine.OP" horiz-adv-x="531" 
d="M19 -199l-9 72q117 14 207.5 76t130.5 158l-2 1q-64 -39 -135 -39q-80 0 -128 51.5t-48 136.5q0 106 63.5 171.5t160.5 65.5q98 0 151.5 -66t53.5 -166q0 -79 -25.5 -152.5t-77 -138t-139.5 -110t-203 -60.5zM366 185q9 30 9 79q0 64 -29.5 111t-88.5 47q-60 0 -97 -43.5
t-37 -112.5q0 -56 27 -90.5t85 -34.5q68 0 131 44z" />
    <glyph glyph-name="zero.dnom" horiz-adv-x="374" 
d="M136 -7q-60 0 -91.5 40.5t-31.5 108.5q0 107 47.5 178t124.5 71q60 0 91.5 -40.5t31.5 -109.5q0 -107 -47.5 -177.5t-124.5 -70.5zM139 53q40 0 67.5 59.5t27.5 128.5q0 89 -52 89q-40 0 -67 -59t-27 -129q0 -89 51 -89z" />
    <glyph glyph-name="one.dnom" horiz-adv-x="307" 
d="M79 0l66 308q-47 -24 -117 -39v63q70 15 144 57h63l-83 -389h-73z" />
    <glyph glyph-name="two.dnom" horiz-adv-x="335" 
d="M-22 0q6 47 26 85t45 60t53 42t51 33t38 30t15 37q0 41 -53 41q-47 0 -101 -29l-19 57q67 35 131 35q56 0 87 -27t31 -70q0 -34 -18.5 -61t-46 -46t-55.5 -36.5t-52.5 -40t-32.5 -47.5h176l-10 -63h-265z" />
    <glyph glyph-name="three.dnom" horiz-adv-x="343" 
d="M-13 15l24 56q40 -18 89 -18q42 0 66 16.5t24 46.5q0 51 -85 51h-50l9 56h40q49 1 75 18.5t26 45.5q0 42 -57 42q-42 0 -89 -20l-18 55q62 27 121 27q57 0 88 -25.5t31 -66.5q0 -38 -23.5 -64t-59.5 -37v-2q30 -6 48.5 -26.5t18.5 -52.5q0 -57 -43.5 -90.5t-122.5 -33.5
q-68 0 -112 22z" />
    <glyph glyph-name="four.dnom" horiz-adv-x="374" 
d="M155 0l17 86h-162l-11 50l238 253h72l-53 -246h54l-12 -57h-55l-18 -86h-70zM184 142l9 38q12 56 27 110l-139 -149z" />
    <glyph glyph-name="five.dnom" horiz-adv-x="342" 
d="M-20 14l23 57q41 -18 88 -18q42 0 68 17.5t26 51.5q0 35 -31 48q-21 8 -54 8h-64l42 204h225l-17 -62h-149l-19 -88h10q42 0 66 -9q66 -27 66 -95q0 -64 -46.5 -99.5t-125.5 -35.5q-60 0 -108 21z" />
    <glyph glyph-name="six.dnom" horiz-adv-x="357" 
d="M141 -7q-58 0 -94.5 36.5t-36.5 106.5q0 107 61.5 181t154.5 74q43 0 80 -17l-21 -56q-31 12 -60 12q-47 0 -82 -33t-50 -81h2q32 26 77 26q48 0 79.5 -30t31.5 -80q0 -61 -40 -100t-102 -39zM142 52q30 0 49 20t19 51q0 26 -14.5 42.5t-41.5 16.5q-31 0 -50.5 -18
t-19.5 -49q0 -27 15 -45t43 -18z" />
    <glyph glyph-name="seven.dnom" horiz-adv-x="306" 
d="M12 0q46 176 176 320h-166l-9 62h267v-38q-140 -159 -188 -344h-80z" />
    <glyph glyph-name="eight.dnom" horiz-adv-x="374" 
d="M142 -7q-60 0 -96.5 26.5t-36.5 74.5q0 75 83 106v1q-45 31 -45 80q0 50 39 80t98 30q60 0 93.5 -27t33.5 -72q0 -68 -74 -95v-1q59 -24 59 -86q0 -55 -43.5 -86t-110.5 -31zM146 53q30 0 52.5 14.5t22.5 44.5q0 39 -68 59q-32 -9 -51 -26t-19 -40q0 -26 18 -39t45 -13z
M172 223q65 19 65 64q0 21 -15 32.5t-39 11.5q-26 0 -43.5 -13.5t-17.5 -37.5q0 -41 50 -57z" />
    <glyph glyph-name="nine.dnom" horiz-adv-x="359" 
d="M-4 8l21 58q24 -13 61 -13q101 0 130 106l-2 1q-31 -22 -78 -22q-49 0 -80.5 29t-31.5 82q0 65 39 103.5t100 38.5q63 0 100 -40t37 -110q0 -114 -57 -181t-155 -67q-49 0 -84 15zM214 222q2 20 2 28q0 39 -18 60t-44 21q-28 0 -46.5 -20.5t-18.5 -54.5q0 -60 56 -60
q34 0 69 26z" />
    <glyph glyph-name="plus.dnom" horiz-adv-x="409" 
d="M118 30v132h-123v60h123v128h63v-128h123v-60h-123v-132h-63z" />
    <glyph glyph-name="minus.dnom" horiz-adv-x="409" 
d="M-5 162v60h309v-60h-309z" />
    <glyph glyph-name="equal.dnom" horiz-adv-x="409" 
d="M-5 98v59h309v-59h-309zM-5 227v59h309v-59h-309z" />
    <glyph glyph-name="parenleft.dnom" horiz-adv-x="236" 
d="M72 -48q-57 68 -57 179q0 174 154 301l39 -44q-122 -114 -122 -254q0 -91 37 -148z" />
    <glyph glyph-name="parenright.dnom" horiz-adv-x="236" 
d="M-1 -48l-39 43q123 115 123 254q0 92 -37 149l50 34q58 -71 58 -179q0 -175 -155 -301z" />
    <glyph glyph-name="zero.numr" horiz-adv-x="374" 
d="M188 263q-60 0 -91.5 40.5t-31.5 108.5q0 107 47.5 178t124.5 71q60 0 91.5 -40.5t31.5 -109.5q0 -107 -47.5 -177.5t-124.5 -70.5zM191 323q40 0 67.5 59.5t27.5 128.5q0 89 -52 89q-40 0 -67 -59t-27 -129q0 -89 51 -89z" />
    <glyph glyph-name="one.numr" horiz-adv-x="307" 
d="M125 269l66 308q-47 -24 -117 -39v63q70 15 144 57h63l-83 -389h-73z" />
    <glyph glyph-name="two.numr" horiz-adv-x="335" 
d="M31 269q6 47 26 85t45 60t53 42t51 33t38 30t15 37q0 41 -53 41q-47 0 -101 -29l-19 57q67 35 131 35q56 0 87 -27t31 -70q0 -34 -18.5 -61t-46 -46t-55.5 -36.5t-52.5 -40t-32.5 -47.5h176l-10 -63h-265z" />
    <glyph glyph-name="three.numr" horiz-adv-x="343" 
d="M38 285l24 56q40 -18 89 -18q42 0 66 16.5t24 46.5q0 51 -85 51h-50l9 56h40q49 1 75 18.5t26 45.5q0 42 -57 42q-42 0 -89 -20l-18 55q62 27 121 27q57 0 88 -25.5t31 -66.5q0 -38 -23.5 -64t-59.5 -37v-2q30 -6 48.5 -26.5t18.5 -52.5q0 -57 -43.5 -90.5t-122.5 -33.5
q-68 0 -112 22z" />
    <glyph glyph-name="four.numr" horiz-adv-x="374" 
d="M207 269l17 86h-162l-11 50l238 253h72l-53 -246h54l-12 -57h-55l-18 -86h-70zM236 411l9 38q12 56 27 110l-139 -149z" />
    <glyph glyph-name="five.numr" horiz-adv-x="342" 
d="M33 284l23 57q41 -18 88 -18q42 0 68 17.5t26 51.5q0 35 -31 48q-21 8 -54 8h-64l42 204h225l-17 -62h-149l-19 -88h10q42 0 66 -9q66 -27 66 -95q0 -64 -46.5 -99.5t-125.5 -35.5q-60 0 -108 21z" />
    <glyph glyph-name="six.numr" horiz-adv-x="357" 
d="M192 263q-58 0 -94.5 36.5t-36.5 106.5q0 107 61.5 181t154.5 74q43 0 80 -17l-21 -56q-31 12 -60 12q-47 0 -82 -33t-50 -81h2q32 26 77 26q48 0 79.5 -30t31.5 -80q0 -61 -40 -100t-102 -39zM193 322q30 0 49 20t19 51q0 26 -14.5 42.5t-41.5 16.5q-31 0 -50.5 -18
t-19.5 -49q0 -27 15 -45t43 -18z" />
    <glyph glyph-name="seven.numr" horiz-adv-x="306" 
d="M62 269q46 176 176 320h-166l-9 62h267v-38q-140 -159 -188 -344h-80z" />
    <glyph glyph-name="eight.numr" horiz-adv-x="374" 
d="M194 263q-60 0 -96.5 26.5t-36.5 74.5q0 75 83 106v1q-45 31 -45 80q0 50 39 80t98 30q60 0 93.5 -27t33.5 -72q0 -68 -74 -95v-1q59 -24 59 -86q0 -55 -43.5 -86t-110.5 -31zM198 323q30 0 52.5 14.5t22.5 44.5q0 39 -68 59q-32 -9 -51 -26t-19 -40q0 -26 18 -39t45 -13
zM224 493q65 19 65 64q0 21 -15 32.5t-39 11.5q-26 0 -43.5 -13.5t-17.5 -37.5q0 -41 50 -57z" />
    <glyph glyph-name="nine.numr" horiz-adv-x="359" 
d="M44 278l21 58q24 -13 61 -13q101 0 130 106l-2 1q-31 -22 -78 -22q-49 0 -80.5 29t-31.5 82q0 65 39 103.5t100 38.5q63 0 100 -40t37 -110q0 -114 -57 -181t-155 -67q-49 0 -84 15zM262 492q2 20 2 28q0 39 -18 60t-44 21q-28 0 -46.5 -20.5t-18.5 -54.5q0 -60 56 -60
q34 0 69 26z" />
    <glyph glyph-name="plus.numr" horiz-adv-x="409" 
d="M170 299v132h-123v60h123v128h63v-128h123v-60h-123v-132h-63z" />
    <glyph glyph-name="minus.numr" horiz-adv-x="409" 
d="M47 431v60h309v-60h-309z" />
    <glyph glyph-name="equal.numr" horiz-adv-x="409" 
d="M47 367v59h309v-59h-309zM47 496v59h309v-59h-309z" />
    <glyph glyph-name="parenleft.numr" horiz-adv-x="236" 
d="M124 221q-57 68 -57 179q0 174 154 301l39 -44q-122 -114 -122 -254q0 -91 37 -148z" />
    <glyph glyph-name="parenright.numr" horiz-adv-x="236" 
d="M51 221l-39 43q123 115 123 254q0 92 -37 149l50 34q58 -71 58 -179q0 -175 -155 -301z" />
    <glyph glyph-name="ampersand.small" horiz-adv-x="596" 
d="M196 -10q-78 0 -125.5 37.5t-47.5 101.5q0 60 39 100t115 54v2q-63 27 -63 90q0 54 44.5 86.5t116.5 32.5q75 0 139 -31l-22 -63q-57 27 -113 27q-36 0 -59.5 -14.5t-23.5 -44.5q0 -51 79 -71l-13 -58q-74 1 -115.5 -26.5t-41.5 -73.5q0 -36 27 -59t75 -23q68 0 125 44
t79 129h-60l13 63h220l-23 -63h-75q-28 -119 -110 -179.5t-180 -60.5z" />
    </font>
</defs>
</svg>
