<?xml version="1.0" standalone="no"?>
<!DOCTYPE svg PUBLIC "-//W3C//DTD SVG 1.1//EN" "http://www.w3.org/Graphics/SVG/1.1/DTD/svg11.dtd" >
<svg xmlns="http://www.w3.org/2000/svg" xmlns:xlink="http://www.w3.org/1999/xlink" version="1.1">
<metadata>
Created by FontForge 20150318 at Mon Mar 30 19:42:05 2015
 By uniteet7
Copyright (c) JT Types Ltd., 1996-2004. All rights reserved.
</metadata>
<defs>
<font id="Bliss2MI" horiz-adv-x="376" >
  <font-face 
    font-family="Bliss2MI"
    font-weight="500"
    font-style="italic"
    font-stretch="normal"
    units-per-em="1000"
    panose-1="2 0 5 6 4 0 0 9 0 4"
    ascent="800"
    descent="-200"
    x-height="473"
    cap-height="659"
    bbox="-191 -238 1153 953"
    underline-thickness="50"
    underline-position="-100"
    slope="-12"
    unicode-range="U+0020-FB02"
  />
<missing-glyph horiz-adv-x="550" 
d="M50 0v659h450v-659h-450zM101 48h348v563h-348v-563zM231 222q-29 29 -29 60q0 25 20.5 48.5t44.5 38.5t44.5 37.5t20.5 47.5q0 21 -15.5 34t-39.5 13q-41 0 -85 -39l-27 35q49 51 117 51q48 0 77 -25.5t29 -65.5q0 -31 -20.5 -59t-45.5 -45t-45.5 -35.5t-20.5 -32.5
q0 -16 17 -35zM255 107q-16 0 -27 11t-11 28t11 28.5t27 11.5t26.5 -11.5t10.5 -28.5t-10.5 -28t-26.5 -11z" />
    <glyph glyph-name="fi" unicode="fi" horiz-adv-x="567" 
d="M330 0l102 473h103l-102 -473h-103zM507 560q-27 0 -43 16t-16 41q0 32 21 51.5t50 19.5q27 0 43.5 -16t16.5 -40q0 -32 -21.5 -52t-50.5 -20zM-25 -226l-67 66q93 92 131 203t71 348h-79l13 82h77l10 59q9 57 37 100q50 76 148 76q57 0 102 -26l-34 -80q-32 16 -62 16
q-72 0 -88 -92l-9 -53h113l-30 -82h-96q-11 -74 -17.5 -113.5t-18 -101.5t-22.5 -99t-29 -85.5t-38 -82.5t-48.5 -70t-63.5 -65z" />
    <glyph glyph-name="fl" unicode="fl" horiz-adv-x="603" 
d="M-25 -226l-67 66q93 92 131 203t71 348h-79l13 82h77l10 59q9 57 37 100q50 76 148 76q57 0 102 -26l-34 -80q-32 16 -62 16q-72 0 -88 -92l-9 -53h113l-30 -82h-96q-11 -74 -17.5 -113.5t-18 -101.5t-22.5 -99t-29 -85.5t-38 -82.5t-48.5 -70t-63.5 -65zM448 -7
q-46 0 -74 24.5t-28 69.5q0 19 7 53l122 568h103l-122 -565q-4 -19 -4 -32q0 -27 29 -27q18 0 38 7v-84q-32 -14 -71 -14z" />
    <glyph glyph-name=".notdef" horiz-adv-x="550" 
d="M50 0v659h450v-659h-450zM101 48h348v563h-348v-563zM231 222q-29 29 -29 60q0 25 20.5 48.5t44.5 38.5t44.5 37.5t20.5 47.5q0 21 -15.5 34t-39.5 13q-41 0 -85 -39l-27 35q49 51 117 51q48 0 77 -25.5t29 -65.5q0 -31 -20.5 -59t-45.5 -45t-45.5 -35.5t-20.5 -32.5
q0 -16 17 -35zM255 107q-16 0 -27 11t-11 28t11 28.5t27 11.5t26.5 -11.5t10.5 -28.5t-10.5 -28t-26.5 -11z" />
    <glyph glyph-name=".null" horiz-adv-x="0" 
 />
    <glyph glyph-name="nonmarkingreturn" horiz-adv-x="333" 
 />
    <glyph glyph-name="space" unicode=" " horiz-adv-x="175" 
 />
    <glyph glyph-name="space" unicode="&#xa0;" horiz-adv-x="175" 
 />
    <glyph glyph-name="exclam" unicode="!" horiz-adv-x="284" 
d="M80 -9q-23 0 -38.5 16.5t-15.5 39.5q0 29 18.5 49t46.5 20q24 0 39.5 -16.5t15.5 -40.5q0 -28 -19.5 -48t-46.5 -20zM82 188q1 88 12.5 158.5t52.5 261.5l11 51h104l-11 -51q-42 -200 -59.5 -267t-52.5 -153h-57z" />
    <glyph glyph-name="quotedbl" unicode="&#x22;" horiz-adv-x="450" 
d="M192 477l-73 14l46 226l95 -20zM371 477l-73 14l46 226l95 -20z" />
    <glyph glyph-name="numbersign" unicode="#" horiz-adv-x="691" 
d="M76 0l54 171h-122l9 82h140l50 159h-123l8 82h141l52 165h100l-52 -165h128l51 165h101l-52 -165h120l-9 -82h-137l-51 -159h123l-8 -82h-141l-54 -171h-100l54 171h-127l-54 -171h-101zM257 253h127l50 159h-127z" />
    <glyph glyph-name="dollar" unicode="$" horiz-adv-x="537" 
d="M140 -84l22 101q-68 9 -123 42l37 77q56 -35 124 -35q51 0 88 22t37 72q0 33 -21 59t-51 45.5t-60 40.5t-51 55t-21 80q0 70 47.5 117t124.5 55l19 95h79l-20 -96q58 -6 107 -29l-19 -84q-61 33 -128 33q-43 0 -73 -20t-30 -59q0 -30 21 -54t51 -42t60 -39.5t51 -58
t21 -85.5q0 -80 -53 -130.5t-138 -60.5l-21 -101h-80z" />
    <glyph glyph-name="percent" unicode="%" horiz-adv-x="885" 
d="M219 314q-64 0 -98 37t-34 100q0 92 49.5 153t133.5 61q64 0 98 -37t34 -100q0 -92 -49.5 -153t-133.5 -61zM226 379q43 0 67.5 47.5t24.5 101.5q0 72 -55 72q-43 0 -67.5 -47.5t-24.5 -101.5q0 -72 55 -72zM609 -10q-64 0 -98 37t-34 100q0 92 49.5 153t133.5 61
q64 0 98 -37t34 -100q0 -92 -49.5 -153t-133.5 -61zM616 55q43 0 67.5 47.5t24.5 101.5q0 72 -55 72q-43 0 -67.5 -47.5t-24.5 -101.5q0 -72 55 -72zM150 0l493 659h89l-493 -659h-89z" />
    <glyph glyph-name="ampersand" unicode="&#x26;" horiz-adv-x="785" 
d="M256 -10q-102 0 -165.5 50t-63.5 134q0 82 53.5 136t150.5 71v2q-82 39 -82 121q0 71 60 116t152 45q109 0 180 -43l-29 -81q-73 40 -148 40q-48 0 -79 -20.5t-31 -59.5q0 -72 102 -102l-17 -73q-100 0 -153.5 -37.5t-53.5 -98.5q0 -53 35.5 -84.5t100.5 -31.5
q93 0 169 59t104 178h-83l18 82h295l-33 -82h-100q-36 -160 -143 -240.5t-239 -80.5z" />
    <glyph glyph-name="quotesingle" unicode="'" horiz-adv-x="271" 
d="M192 477l-73 14l46 226l95 -20z" />
    <glyph glyph-name="parenleft" unicode="(" horiz-adv-x="338" 
d="M153 -234q-99 133 -99 365q0 170 67 342t205 300l58 -62q-106 -106 -164.5 -258.5t-58.5 -324.5q0 -105 16.5 -176t51.5 -138z" />
    <glyph glyph-name="parenright" unicode=")" horiz-adv-x="338" 
d="M7 -234l-57 61q105 107 164 260t59 324q0 104 -17 175t-52 138l76 49q99 -135 99 -366q0 -170 -67 -341.5t-205 -299.5z" />
    <glyph glyph-name="asterisk" unicode="*" horiz-adv-x="490" 
d="M240 333l-70 30q12 30 44.5 79.5t38.5 60.5q-1 0 -62.5 -18t-94.5 -20l-8 75q18 5 85 1.5t76 -3.5q-4 5 -48.5 47.5t-63.5 69.5l62 45q20 -24 46.5 -78t32.5 -63q1 4 16.5 65t30.5 90l69 -30q-12 -30 -45 -80t-38 -59q13 3 43.5 12.5t60 16.5t54.5 8l8 -75
q-19 -5 -86 -1.5t-75 3.5q7 -9 49.5 -49.5t60.5 -67.5l-62 -45q-20 26 -47 80t-32 62q-4 -13 -10.5 -44.5t-15 -60.5t-19.5 -51z" />
    <glyph glyph-name="plus" unicode="+" horiz-adv-x="541" 
d="M206 0v208h-187v86h187v204h97v-204h188v-86h-188v-208h-97z" />
    <glyph glyph-name="comma" unicode="," horiz-adv-x="249" 
d="M2 -141l-52 39q45 51 61.5 99t18.5 110h99q2 -151 -127 -248z" />
    <glyph glyph-name="hyphen" unicode="-" horiz-adv-x="338" 
d="M12 204l19 88h254l-20 -88h-253z" />
    <glyph glyph-name="hyphen" unicode="&#x2010;" horiz-adv-x="338" 
d="M12 204l19 88h254l-20 -88h-253z" />
    <glyph glyph-name="hyphen" unicode="&#xad;" horiz-adv-x="338" 
d="M12 204l19 88h254l-20 -88h-253z" />
    <glyph glyph-name="period" unicode="." horiz-adv-x="249" 
d="M65 -9q-23 0 -38.5 16.5t-15.5 39.5q0 29 18.5 49t46.5 20q24 0 39.5 -16.5t15.5 -40.5q0 -28 -19.5 -48t-46.5 -20z" />
    <glyph glyph-name="slash" unicode="/" horiz-adv-x="396" 
d="M-23 -32l331 728h111l-332 -728h-110z" />
    <glyph glyph-name="zero" unicode="0" horiz-adv-x="543" 
d="M218 -10q-92 0 -138.5 58.5t-46.5 168.5q0 74 17.5 149.5t51.5 144t92 111.5t130 43q92 0 139 -58.5t47 -168.5q0 -73 -18 -149t-52 -144.5t-92 -111.5t-130 -43zM224 79q48 0 89 53.5t63.5 138t22.5 176.5q0 129 -81 129q-48 0 -89 -53.5t-63.5 -138t-22.5 -176.5
q0 -129 81 -129z" />
    <glyph glyph-name="one" unicode="1" horiz-adv-x="421" 
d="M134 0l117 545q-67 -37 -169 -60v86q44 12 106 39.5t102 53.5h90l-143 -664h-103z" />
    <glyph glyph-name="two" unicode="2" horiz-adv-x="528" 
d="M2 0q9 69 35 126t59.5 94.5t72 69t75 55t66.5 46t48 49.5t18 58q0 78 -99 78q-73 0 -161 -41l-18 83q104 47 199 47q87 0 138 -42t51 -116q0 -40 -16.5 -75.5t-43.5 -62t-60 -51t-68 -49t-66 -50.5t-56 -60t-35 -73h300l-19 -86h-420z" />
    <glyph glyph-name="three" unicode="3" horiz-adv-x="527" 
d="M-9 30l41 82q58 -33 141 -33q40 0 74.5 10t61.5 39.5t27 73.5q0 49 -35.5 68.5t-110.5 19.5h-83l12 84h45q59 0 102 11q100 29 100 112q0 79 -103 79q-70 0 -152 -33l-17 81q92 41 189 41q91 0 142 -41.5t51 -112.5q0 -125 -139 -170v-2q109 -26 109 -131
q0 -95 -75 -156.5t-199 -61.5q-111 0 -181 40z" />
    <glyph glyph-name="four" unicode="4" horiz-adv-x="583" 
d="M270 0l35 167h-258l-11 76l392 421h88l-89 -412h99l-19 -85h-99l-35 -167h-103zM325 252l24 109q17 76 37 144l-233 -255q54 2 88 2h84z" />
    <glyph glyph-name="five" unicode="5" horiz-adv-x="526" 
d="M-2 28l42 83q56 -32 132 -32q67 0 117.5 35t50.5 103q0 101 -166 101h-83l71 341h363l-27 -86h-250l-36 -172h28q105 0 158 -48.5t53 -124.5q0 -106 -77.5 -172t-203.5 -66q-107 0 -172 38z" />
    <glyph glyph-name="six" unicode="6" horiz-adv-x="568" 
d="M267 -10q-97 0 -153 59t-56 179q0 187 103 312t267 125q56 0 109 -19l-32 -80q-39 14 -79 14q-98 0 -167.5 -69.5t-94.5 -180.5h2q25 36 68 57.5t91 21.5q82 0 130.5 -49.5t48.5 -134.5q0 -103 -69.5 -169t-167.5 -66zM269 76q52 0 88.5 39t36.5 101q0 48 -25.5 77.5
t-73.5 29.5q-54 0 -90.5 -38.5t-36.5 -99.5q0 -48 26 -78.5t75 -30.5z" />
    <glyph glyph-name="seven" unicode="7" horiz-adv-x="483" 
d="M63 0q75 313 299 573h-288l-14 86h439v-41q-252 -298 -327 -618h-109z" />
    <glyph glyph-name="eight" unicode="8" horiz-adv-x="571" 
d="M257 -10q-100 0 -160 46t-60 124q0 68 42 113t111 67v3q-85 53 -85 139q0 78 62.5 130.5t165.5 52.5q96 0 151.5 -44t55.5 -114q0 -60 -40 -102.5t-101 -67.5v-2q108 -44 108 -148q0 -91 -73.5 -144t-176.5 -53zM262 72q58 0 96.5 29t38.5 80q0 42 -33.5 68t-99.5 48
q-52 -17 -84.5 -51t-32.5 -79q0 -47 34 -71t81 -24zM311 376q119 40 119 121q0 41 -28 63.5t-74 22.5q-47 0 -80 -27t-33 -72q0 -36 25.5 -64.5t70.5 -43.5z" />
    <glyph glyph-name="nine" unicode="9" horiz-adv-x="573" 
d="M45 17l31 81q44 -22 101 -22q179 0 223 208h-2q-62 -46 -148 -46q-78 0 -129.5 48t-51.5 137q0 109 66.5 175.5t166.5 66.5q96 0 157 -63t61 -185q0 -198 -90 -312.5t-249 -114.5q-79 0 -136 27zM409 368q6 32 6 59q0 72 -30.5 112.5t-83.5 40.5q-54 0 -87.5 -44
t-33.5 -106q0 -48 25 -77.5t75 -29.5q63 0 129 45z" />
    <glyph glyph-name="colon" unicode=":" horiz-adv-x="249" 
d="M65 -9q-23 0 -38.5 16.5t-15.5 39.5q0 29 18.5 49t46.5 20q24 0 39.5 -16.5t15.5 -40.5q0 -28 -19.5 -48t-46.5 -20zM129 324q-24 0 -39 16t-15 40q0 28 19 48t46 20q24 0 39.5 -16.5t15.5 -40.5q0 -28 -19 -47.5t-47 -19.5z" />
    <glyph glyph-name="semicolon" unicode=";" horiz-adv-x="249" 
d="M2 -141l-52 39q45 51 61.5 99t18.5 110h99q2 -151 -127 -248zM120 324q-24 0 -39 16t-15 40q0 29 19 48.5t47 19.5q24 0 39 -16.5t15 -40.5q0 -28 -19 -47.5t-47 -19.5z" />
    <glyph glyph-name="less" unicode="&#x3c;" horiz-adv-x="591" 
d="M57 218v84l424 181v-89l-332 -133v-2l332 -133v-89z" />
    <glyph glyph-name="equal" unicode="=" horiz-adv-x="541" 
d="M24 112v87h472v-87h-472zM24 303v86h472v-86h-472z" />
    <glyph glyph-name="greater" unicode="&#x3e;" horiz-adv-x="591" 
d="M94 37v89l333 133v2l-333 133v89l425 -181v-84z" />
    <glyph glyph-name="question" unicode="?" horiz-adv-x="451" 
d="M141 -9q-23 0 -38.5 16.5t-15.5 39.5q0 29 19 49t46 20q24 0 39.5 -16.5t15.5 -40.5q0 -29 -19 -48.5t-47 -19.5zM129 188q2 52 24 94.5t52.5 71t61 53t51.5 51.5t21 56q0 30 -19.5 46.5t-55.5 16.5q-64 0 -130 -48l-38 73q85 63 187 63q70 0 115.5 -36.5t45.5 -98.5
q0 -51 -32 -95q-18 -25 -53 -55.5t-64.5 -53.5t-58 -60t-39.5 -78h-68z" />
    <glyph glyph-name="at" unicode="@" horiz-adv-x="774" 
d="M333 -140q-136 0 -223 90.5t-87 240.5q0 114 50.5 201.5t133 132.5t182.5 45q149 0 243.5 -87t94.5 -231q0 -108 -46.5 -165.5t-122.5 -57.5q-40 0 -66.5 21.5t-33.5 61.5h-2q-15 -32 -52.5 -57t-85.5 -25q-53 0 -92.5 38.5t-39.5 119.5q0 98 60 160.5t152 62.5
q82 0 147 -41l-21 -158q-4 -40 -4 -53q0 -65 47 -65q40 0 64 41.5t24 111.5q0 110 -69 184.5t-199 74.5q-124 0 -207.5 -84.5t-83.5 -225.5q0 -129 69 -200.5t176 -71.5q76 0 130 24l19 -61q-68 -27 -157 -27zM336 98q40 0 71 36.5t41 117.5l10 76q-28 17 -62 17
q-52 0 -88 -42.5t-36 -111.5q0 -93 64 -93z" />
    <glyph glyph-name="A" unicode="A" horiz-adv-x="600" 
d="M-49 0l357 662h86l124 -662h-110l-29 169h-224l-88 -169h-116zM202 254h163l-27 178q-2 13 -5.5 39.5t-5.5 39.5h-2q-18 -45 -37 -83z" />
    <glyph glyph-name="B" unicode="B" horiz-adv-x="557" 
d="M8 0l141 659h159q95 0 140.5 -42t45.5 -108q0 -110 -108 -162v-2q39 -10 68 -43t29 -83q0 -91 -74 -155t-212 -64h-189zM194 378h74q49 0 85 31.5t36 84.5q0 78 -92 78h-62zM132 86h82q76 0 120 34t44 90q0 40 -28 61t-76 21h-99z" />
    <glyph glyph-name="C" unicode="C" horiz-adv-x="603" 
d="M330 -10q-133 0 -208.5 74.5t-75.5 201.5q0 175 111 287t277 112q91 0 166 -33l-21 -90q-68 34 -144 34q-124 0 -201 -87.5t-77 -211.5q0 -89 48 -143.5t136 -54.5q81 0 157 38l20 -85q-84 -42 -188 -42z" />
    <glyph glyph-name="D" unicode="D" horiz-adv-x="658" 
d="M8 0l141 659h130q113 0 191 -34q142 -64 142 -238q0 -122 -59 -214.5t-166 -136.5q-89 -36 -202 -36h-177zM132 86h61q84 0 148 28q76 34 118 107t42 172q0 116 -92 157q-51 23 -131 23h-42z" />
    <glyph glyph-name="E" unicode="E" horiz-adv-x="482" 
d="M8 0l141 659h333l-31 -86h-215l-42 -193h212l-19 -86h-211l-44 -208h240l-18 -86h-346z" />
    <glyph glyph-name="F" unicode="F" horiz-adv-x="465" 
d="M8 0l141 659h333l-31 -86h-215l-42 -193h211l-18 -86h-211l-63 -294h-105z" />
    <glyph glyph-name="G" unicode="G" horiz-adv-x="683" 
d="M338 -10q-136 0 -214 74t-78 205q0 104 46 193.5t138 146t212 56.5q111 0 198 -41l-20 -89q-77 42 -171 42q-134 0 -213 -87t-79 -209q0 -100 52 -151t137 -51q72 0 115 21l48 217h104l-61 -281q-88 -46 -214 -46z" />
    <glyph glyph-name="H" unicode="H" horiz-adv-x="687" 
d="M8 0l142 659h104l-60 -279h321l60 279h105l-142 -659h-105l62 290h-320l-62 -290h-105z" />
    <glyph glyph-name="I" unicode="I" horiz-adv-x="262" 
d="M8 0l141 659h105l-141 -659h-105z" />
    <glyph glyph-name="J" unicode="J" horiz-adv-x="303" 
d="M-145 -165l31 82q27 -12 64 -12q55 0 79 43q15 28 24 75l137 636h105l-140 -654q-17 -74 -40 -112q-51 -77 -161 -77q-53 0 -99 19z" />
    <glyph glyph-name="K" unicode="K" horiz-adv-x="581" 
d="M8 0l141 659h105l-63 -297h2l280 297h128l-327 -339l217 -320h-129l-187 282h-2l-60 -282h-105z" />
    <glyph glyph-name="L" unicode="L" horiz-adv-x="442" 
d="M8 0l141 659h105l-122 -573h235l-20 -86h-339z" />
    <glyph glyph-name="M" unicode="M" horiz-adv-x="800" 
d="M8 0l141 659h99l99 -265q37 -101 43 -120h2q19 29 73 101l217 284h110l-141 -659h-105l72 334q16 79 34 148h-2q-34 -49 -75 -100l-180 -234h-53l-88 230q-22 58 -37 104h-3q-3 -16 -33 -165l-68 -317h-105z" />
    <glyph glyph-name="N" unicode="N" horiz-adv-x="721" 
d="M8 0l141 659h99l256 -489h2q14 73 18 91l84 398h105l-141 -659h-89l-264 501h-1q-9 -55 -16 -86l-89 -415h-105z" />
    <glyph glyph-name="O" unicode="O" horiz-adv-x="728" 
d="M316 -10q-125 0 -197.5 70.5t-72.5 199.5q0 109 44 200.5t129 148t193 56.5q126 0 198 -70t72 -199q0 -167 -102 -286.5t-264 -119.5zM323 79q74 0 132.5 46.5t87.5 116.5t29 147q0 89 -43 138t-124 49q-74 0 -132.5 -46t-87.5 -115.5t-29 -146.5q0 -90 43 -139.5
t124 -49.5z" />
    <glyph glyph-name="P" unicode="P" horiz-adv-x="528" 
d="M8 0l141 659h117q66 0 112 -17q55 -21 86 -65t31 -105q0 -78 -42.5 -136.5t-120.5 -83.5q-57 -19 -136 -19h-33l-50 -233h-105zM181 318h31q51 0 86 16q44 16 67.5 51.5t23.5 82.5q0 72 -60 94q-28 11 -67 11h-26z" />
    <glyph glyph-name="Q" unicode="Q" horiz-adv-x="728" 
d="M221 -25q-9 10 -58 50t-71 73q-46 68 -46 162q0 109 44 200.5t129 148t193 56.5q126 0 198 -70t72 -199q0 -97 -35.5 -181t-105 -142t-159.5 -72q-18 -3 -40 -3v-2q8 -4 40 -25.5t63.5 -33.5t67.5 -12q45 0 89 14l20 -82q-56 -20 -125 -20q-148 0 -276 138zM323 79
q74 0 132.5 46.5t87.5 116.5t29 147q0 89 -43 138t-124 49q-74 0 -132.5 -46t-87.5 -115.5t-29 -146.5q0 -90 43 -139.5t124 -49.5z" />
    <glyph glyph-name="R" unicode="R" horiz-adv-x="555" 
d="M8 0l141 659h142q109 0 162 -47.5t53 -121.5q0 -81 -47.5 -131t-127.5 -67v-2q13 -20 43 -84l92 -206h-114l-70 169q-35 78 -48 97h-64l-57 -266h-105zM188 352h52q73 0 116 33.5t43 94.5q0 93 -115 93h-48z" />
    <glyph glyph-name="S" unicode="S" horiz-adv-x="496" 
d="M-1 36l42 83q64 -40 134 -40q53 0 90 24t37 76q0 36 -22 64.5t-53 49t-62.5 43t-53.5 58.5t-22 83q0 83 59 135.5t159 52.5q86 0 156 -34l-19 -90q-63 36 -136 36q-48 0 -78.5 -23t-30.5 -62q0 -32 22 -58t53.5 -47t62.5 -45t53 -62.5t22 -88.5q0 -98 -66.5 -149.5
t-169.5 -51.5q-96 0 -177 46z" />
    <glyph glyph-name="T" unicode="T" horiz-adv-x="502" 
d="M127 0l122 573h-194l19 86h494l-35 -86h-179l-122 -573h-105z" />
    <glyph glyph-name="U" unicode="U" horiz-adv-x="669" 
d="M277 -10q-105 0 -163 52t-58 145q0 34 10 79l84 393h105l-83 -384q-9 -40 -9 -73q0 -62 33.5 -93t94.5 -31q78 0 123 45q38 39 54 115l90 421h105l-92 -429q-24 -117 -85 -172q-74 -68 -209 -68z" />
    <glyph glyph-name="V" unicode="V" horiz-adv-x="598" 
d="M212 -4l-140 663h110l70 -370q16 -80 24 -136h2q23 52 61 124l205 382h115l-369 -663h-78z" />
    <glyph glyph-name="W" unicode="W" horiz-adv-x="862" 
d="M166 -4l-92 663h112l42 -358q9 -74 14 -149h2q27 69 61 135l130 260l-16 112h103l44 -359q11 -85 16 -148h2q23 67 56 137l170 370h114l-325 -663h-88l-38 273q-12 73 -17 131h-2q-28 -66 -62 -131l-139 -273h-87z" />
    <glyph glyph-name="X" unicode="X" horiz-adv-x="603" 
d="M-45 0l282 339l-151 320h112l112 -240l198 240h125l-277 -332l155 -327h-111l-117 246l-205 -246h-123z" />
    <glyph glyph-name="Y" unicode="Y" horiz-adv-x="536" 
d="M166 0l54 257l-146 402h108l103 -305h2l195 305h117l-274 -408l-54 -251h-105z" />
    <glyph glyph-name="Z" unicode="Z" horiz-adv-x="536" 
d="M-31 0l407 573h-273l-8 86h457l-403 -573h308l-20 -86h-468z" />
    <glyph glyph-name="bracketleft" unicode="[" horiz-adv-x="341" 
d="M-15 -234l216 1007h198l-17 -80h-98l-181 -848h97l-17 -79h-198z" />
    <glyph glyph-name="backslash" unicode="\" horiz-adv-x="453" 
d="M269 -32l-197 728h105l196 -728h-104z" />
    <glyph glyph-name="bracketright" unicode="]" horiz-adv-x="341" 
d="M-96 -234l17 79h97l182 848h-97l16 80h198l-215 -1007h-198z" />
    <glyph glyph-name="asciicircum" unicode="^" horiz-adv-x="543" 
d="M72 287l156 372h87l156 -372h-89l-109 280h-2l-110 -280h-89z" />
    <glyph glyph-name="underscore" unicode="_" horiz-adv-x="438" 
d="M-92 -125l13 59h444l-13 -59h-444z" />
    <glyph glyph-name="grave" unicode="`" 
d="M159 531l-85 147h116l49 -147h-80z" />
    <glyph glyph-name="grave" unicode="&#x300;" 
d="M159 531l-85 147h116l49 -147h-80z" />
    <glyph glyph-name="a" unicode="a" horiz-adv-x="479" 
d="M125 -10q-58 0 -93 35.5t-35 91.5q0 79 54 125q64 53 199 55h59q4 17 4 39q0 34 -19.5 51t-64.5 17q-61 0 -138 -34l-14 77q84 38 171 38q71 0 120 -32t49 -109q0 -34 -17 -111l-11 -46q-16 -74 -16 -114q0 -31 8 -61l-89 -19q-12 37 -14 80q-64 -83 -153 -83zM154 73
q44 0 85 35t52 89l6 28h-33q-103 0 -140 -33q-27 -22 -27 -61q0 -58 57 -58z" />
    <glyph glyph-name="b" unicode="b" horiz-adv-x="522" 
d="M4 13l150 695h103l-46 -215q-9 -44 -25 -92h2q63 84 150 84q60 0 98 -43t38 -118q0 -147 -94 -240.5t-236 -93.5q-87 0 -140 23zM122 82q20 -5 47 -5q87 0 144 66.5t57 166.5q0 36 -18 62t-52 26q-44 0 -84 -42q-44 -46 -66 -141z" />
    <glyph glyph-name="c" unicode="c" horiz-adv-x="441" 
d="M224 -10q-98 0 -152.5 55.5t-54.5 146.5q0 123 77 208t201 85q67 0 124 -25l-19 -85q-52 26 -103 26q-73 0 -124.5 -56.5t-51.5 -143.5q0 -59 29.5 -93t86.5 -34q58 0 116 34l28 -74q-28 -18 -72.5 -31t-84.5 -13z" />
    <glyph glyph-name="d" unicode="d" horiz-adv-x="513" 
d="M235 -10q-99 0 -158.5 57t-59.5 154q0 127 79 205.5t195 78.5q51 0 97 -14l51 237h103l-148 -684q-75 -34 -159 -34zM240 77q38 0 65 12l64 297q-36 12 -70 12q-77 0 -127.5 -53t-50.5 -139q0 -59 31 -94t88 -35z" />
    <glyph glyph-name="e" unicode="e" horiz-adv-x="478" 
d="M221 -10q-95 0 -149.5 55t-54.5 148q0 124 72 208t182 84q80 0 122.5 -43t42.5 -114q0 -50 -22 -114l-295 -4q-1 -7 -1 -20q0 -56 31 -86.5t81 -30.5q61 0 129 35l29 -74q-76 -44 -167 -44zM131 284l197 2q7 22 7 44q0 32 -18 53t-55 21q-46 0 -82.5 -34.5t-48.5 -85.5z
" />
    <glyph glyph-name="f" unicode="f" horiz-adv-x="325" 
d="M-25 -226l-67 66q93 92 131 203t71 348h-79l13 82h77l10 59q9 57 37 100q50 76 148 76q57 0 102 -26l-34 -80q-32 16 -62 16q-72 0 -88 -92l-9 -53h113l-30 -82h-96q-11 -74 -17.5 -113.5t-18 -101.5t-22.5 -99t-29 -85.5t-38 -82.5t-48.5 -70t-63.5 -65z" />
    <glyph glyph-name="g" unicode="g" horiz-adv-x="513" 
d="M-27 -202l35 87q58 -32 119 -32q67 0 103 35t52 110l16 69h-2q-62 -77 -146 -77q-59 0 -96 41.5t-37 123.5q0 137 78 233.5t223 96.5q92 0 164 -29l-99 -461q-25 -116 -82 -174t-177 -58q-81 0 -151 35zM186 77q18 0 37.5 8.5t42 28t42 59.5t31.5 96l26 121q-24 8 -62 8
q-82 0 -132 -67.5t-50 -158.5q0 -95 65 -95z" />
    <glyph glyph-name="h" unicode="h" horiz-adv-x="521" 
d="M0 0l153 708h103l-52 -239q-9 -43 -25 -89h2q31 46 76 75.5t97 29.5t82 -29.5t30 -88.5q0 -32 -13 -93l-59 -274h-103l58 269q10 45 10 70q0 55 -48 55q-62 0 -113 -72q-35 -48 -53 -130l-42 -192h-103z" />
    <glyph glyph-name="i" unicode="i" horiz-adv-x="232" 
d="M-5 0l102 473h103l-102 -473h-103zM172 560q-27 0 -43 16t-16 41q0 32 21 51.5t50 19.5q27 0 43.5 -16t16.5 -40q0 -32 -21.5 -52t-50.5 -20z" />
    <glyph glyph-name="j" unicode="j" horiz-adv-x="263" 
d="M-151 -221l31 84q23 -10 49 -10q37 0 56 22.5t29 70.5l113 527h103l-121 -562q-33 -148 -174 -148q-49 0 -86 16zM203 560q-27 0 -43.5 16t-16.5 41q0 32 21.5 51.5t49.5 19.5q27 0 43.5 -16t16.5 -40q0 -32 -21.5 -52t-49.5 -20z" />
    <glyph glyph-name="k" unicode="k" horiz-adv-x="469" 
d="M0 0l153 708h103l-88 -406h2l191 171h125l-239 -213l159 -260h-117l-135 227h-2l-49 -227h-103z" />
    <glyph glyph-name="l" unicode="l" horiz-adv-x="283" 
d="M128 -7q-46 0 -74 24.5t-28 69.5q0 19 7 53l122 568h103l-122 -565q-4 -19 -4 -32q0 -27 29 -27q18 0 38 7v-84q-32 -14 -71 -14z" />
    <glyph glyph-name="m" unicode="m" horiz-adv-x="789" 
d="M-5 0l102 473h82l-9 -93h2q32 45 77.5 75t95.5 30q49 0 76.5 -27.5t27.5 -81.5h2q32 47 79 78t98 31q50 0 79 -27t30 -79q0 -28 -13 -100l-61 -279h-102l61 283q8 38 8 60q0 51 -45 51q-56 0 -107 -68q-38 -49 -55 -132l-42 -194h-103l61 283q8 38 8 60q0 51 -45 51
q-56 0 -108 -69q-37 -48 -54 -131l-42 -194h-103z" />
    <glyph glyph-name="n" unicode="n" horiz-adv-x="516" 
d="M-5 0l102 473h82l-9 -93h2q32 45 78.5 75t97.5 30q52 0 82.5 -29.5t30.5 -88.5q0 -32 -13 -93l-59 -274h-103l58 269q10 45 10 70q0 55 -48 55q-62 0 -112 -67q-37 -49 -55 -135l-41 -192h-103z" />
    <glyph glyph-name="o" unicode="o" horiz-adv-x="519" 
d="M17 187q0 127 75.5 212.5t184.5 85.5q93 0 143.5 -55t50.5 -141q0 -128 -76 -213.5t-185 -85.5q-92 0 -142.5 55.5t-50.5 141.5zM121 189q0 -115 92 -115q65 0 109 62t44 151q0 114 -92 114q-65 0 -109 -62.5t-44 -149.5z" />
    <glyph glyph-name="p" unicode="p" horiz-adv-x="517" 
d="M-56 -237l151 699q76 23 147 23q111 0 169 -55.5t58 -145.5q0 -132 -80 -213t-195 -81q-50 0 -95 15l-52 -242h-103zM118 89q29 -12 68 -12q80 0 129.5 57t49.5 140q0 62 -34 93t-93 31q-28 0 -56 -6z" />
    <glyph glyph-name="q" unicode="q" horiz-adv-x="515" 
d="M150 -10q-59 0 -96 41t-37 123q0 89 32 162.5t103 121t170 47.5q85 0 162 -29l-149 -693h-103l45 210q16 70 22 94h-2q-63 -77 -147 -77zM187 77q18 0 37.5 8.5t42.5 28t42.5 60t31.5 95.5l26 121q-28 8 -64 8q-83 0 -132.5 -67.5t-49.5 -159.5q0 -94 66 -94z" />
    <glyph glyph-name="r" unicode="r" horiz-adv-x="345" 
d="M-5 0l102 473h82l-9 -93h2q51 105 132 105q35 0 63 -21l-44 -86q-21 12 -44 12q-42 0 -80.5 -50t-60.5 -154l-39 -186h-104z" />
    <glyph glyph-name="s" unicode="s" horiz-adv-x="370" 
d="M-30 31l34 77q56 -35 115 -35q35 0 58.5 14.5t23.5 42.5q0 21 -16 38.5t-39.5 32.5t-46.5 32.5t-39 46t-16 65.5q0 60 43.5 100t123.5 40q73 0 130 -23l-16 -83q-63 24 -108 24q-30 0 -49.5 -13.5t-19.5 -40.5q0 -21 16 -39t39 -33t46.5 -32.5t39.5 -46t16 -65.5
q0 -68 -50.5 -105.5t-129.5 -37.5q-87 0 -155 41z" />
    <glyph glyph-name="t" unicode="t" horiz-adv-x="355" 
d="M164 -10q-118 0 -118 101q0 28 8 61l51 239h-81l19 82h80l24 108l109 29l-30 -137h128l-33 -82h-113l-54 -249q-3 -16 -3 -30q0 -38 39 -38q32 0 80 25l25 -74q-64 -35 -131 -35z" />
    <glyph glyph-name="u" unicode="u" horiz-adv-x="515" 
d="M145 -10q-52 0 -85.5 31t-33.5 92q0 36 13 96l56 264h103l-59 -276q-8 -32 -8 -59q0 -59 50 -59t90.5 43.5t56.5 113.5l51 237h103l-62 -286q-15 -75 -15 -113q0 -32 8 -62l-89 -19q-13 39 -13 89h-2q-30 -41 -73.5 -66.5t-90.5 -25.5z" />
    <glyph glyph-name="v" unicode="v" horiz-adv-x="453" 
d="M135 -3l-98 476h100l35 -207q7 -35 22 -136h2q24 54 61 128l109 215h108l-259 -476h-80z" />
    <glyph glyph-name="w" unicode="w" horiz-adv-x="690" 
d="M112 -3l-75 476h98l29 -211q9 -72 14 -126h2q19 45 50 111l111 226h70l26 -203q11 -75 15 -134h2q23 54 50 114l101 223h107l-242 -476h-77l-28 213q-8 60 -14 114h-2q-17 -40 -56 -117l-107 -210h-74z" />
    <glyph glyph-name="x" unicode="x" horiz-adv-x="467" 
d="M-57 0l216 243l-128 230h105l90 -164l141 164h113l-210 -238l132 -235h-106l-93 170l-148 -170h-112z" />
    <glyph glyph-name="y" unicode="y" horiz-adv-x="470" 
d="M-123 -217l36 79q30 -15 61 -15q44 0 84.5 33.5t84.5 120.5l-109 472h102l47 -225q18 -90 27 -136h2q27 61 57 124l116 237h106l-251 -485q-65 -124 -125.5 -174.5t-148.5 -50.5q-56 0 -89 20z" />
    <glyph glyph-name="z" unicode="z" horiz-adv-x="402" 
d="M-41 0l266 391h-183l-8 82h359l-267 -391h211l-17 -82h-361z" />
    <glyph glyph-name="braceleft" unicode="{" horiz-adv-x="355" 
d="M195 -227q-82 10 -119 42t-37 89q0 21 8 59l40 192q3 17 3 31q0 26 -13.5 37.5t-40.5 13.5l16 72q44 2 64 26q11 14 17 42l46 224q14 68 46 105q55 59 168 65v-91q-65 -8 -93 -41q-16 -20 -25 -64l-38 -187q-10 -49 -27 -74q-22 -31 -71 -43v-2q53 -11 53 -71
q0 -26 -6 -54l-35 -164q-6 -24 -6 -47q0 -31 18 -47.5t59 -22.5z" />
    <glyph glyph-name="bar" unicode="|" horiz-adv-x="318" 
d="M109 -237v1017h100v-1017h-100z" />
    <glyph glyph-name="braceright" unicode="}" horiz-adv-x="355" 
d="M-61 -227v91q65 8 93 41q16 19 26 65l38 186q10 51 27 75q21 29 71 43v2q-54 9 -54 72q0 25 7 52l35 165q5 27 5 46q0 32 -18 48.5t-59 21.5l27 90q82 -10 119 -41.5t37 -88.5q0 -26 -7 -60l-40 -191q-4 -16 -4 -32q0 -47 54 -50l-15 -73q-46 -2 -64 -26q-12 -15 -17 -42
l-47 -223q-14 -71 -46 -105q-51 -59 -168 -66z" />
    <glyph glyph-name="asciitilde" unicode="~" horiz-adv-x="541" 
d="M72 203l-51 65q68 68 144 68q39 0 107 -29t98 -29q42 0 90 42l52 -65q-69 -68 -145 -68q-38 0 -106.5 29t-98.5 29q-42 0 -90 -42z" />
    <glyph glyph-name="exclamdown" unicode="&#xa1;" horiz-adv-x="284" 
d="M-17 -183l11 52q42 199 59.5 266t52.5 153h57q-1 -88 -12.5 -158.5t-52.5 -260.5l-11 -52h-104zM154 360q-24 0 -39.5 16t-15.5 40q0 29 19 48.5t47 19.5q24 0 39 -16t15 -40q0 -29 -18.5 -48.5t-46.5 -19.5z" />
    <glyph glyph-name="cent" unicode="&#xa2;" horiz-adv-x="533" 
d="M185 0l24 110q-58 18 -91 66t-33 116q0 106 60 179.5t152 88.5l21 99h80l-21 -96q54 -5 91 -23l-18 -79q-49 22 -99 22q-72 0 -117.5 -52.5t-45.5 -131.5q0 -53 29 -84.5t82 -31.5q54 0 107 29l21 -74q-64 -36 -141 -36l-22 -102h-79z" />
    <glyph glyph-name="sterling" unicode="&#xa3;" horiz-adv-x="537" 
d="M25 0l10 68q32 11 55.5 37.5t36 66t18 63t10.5 58.5h-74l13 86h73l11 74q10 71 37 114q57 98 185 98q64 0 123 -26l-36 -81q-35 19 -80 19q-72 0 -105 -64q-15 -26 -22 -74l-8 -60h176l-27 -86h-161q-26 -169 -92 -214v-2q61 9 116 9h162l-13 -86h-408z" />
    <glyph glyph-name="currency" unicode="&#xa4;" horiz-adv-x="533" 
d="M77 72l-63 63l68 66q-40 58 -40 126q0 70 39 125l-68 66l63 63l66 -67q56 39 126 39q71 0 127 -39l64 66l63 -63l-66 -65q38 -55 38 -125q0 -67 -39 -126l66 -65l-63 -63l-65 67q-57 -39 -125 -39t-124 39zM268 176q61 0 104 44.5t43 106.5q0 63 -43 107.5t-104 44.5
t-103.5 -44.5t-42.5 -107.5t42.5 -107t103.5 -44z" />
    <glyph glyph-name="yen" unicode="&#xa5;" horiz-adv-x="537" 
d="M148 0l24 116h-155l14 68h156l17 77h-158l15 69h125l-94 329h105l72 -299h2l181 299h113l-216 -329h126l-14 -69h-157l-16 -77h158l-14 -68h-159l-25 -116h-100z" />
    <glyph glyph-name="brokenbar" unicode="&#xa6;" horiz-adv-x="318" 
d="M109 -236v360h100v-360h-100zM109 419v361h100v-361h-100z" />
    <glyph glyph-name="section" unicode="&#xa7;" horiz-adv-x="550" 
d="M184 -165q-100 0 -177 47l40 81q64 -42 136 -42q53 0 89 22t36 71q0 34 -26.5 60t-64 44.5t-75 40.5t-64 59.5t-26.5 89.5q0 48 28 88.5t72 64.5q-30 35 -30 88q0 83 60 128t150 45t153 -34l-18 -86q-64 36 -132 36q-48 0 -78.5 -22t-30.5 -62q0 -33 27 -58t65 -43
t76.5 -39t65.5 -61t27 -95q0 -97 -99 -155q26 -36 26 -86q0 -90 -67.5 -136t-162.5 -46zM343 153q47 36 47 89q0 39 -25.5 65.5t-84.5 58t-79 45.5q-51 -33 -51 -87q0 -39 28 -65.5t84 -56t81 -49.5z" />
    <glyph glyph-name="dieresis" unicode="&#xa8;" 
d="M97 549q-22 0 -35 13t-13 34q0 28 17 46t42 18q21 0 34.5 -13t13.5 -34q0 -27 -17.5 -45.5t-41.5 -18.5zM282 549q-22 0 -35 13t-13 34q0 28 17 46t42 18q21 0 34.5 -13t13.5 -34q0 -27 -17.5 -45.5t-41.5 -18.5z" />
    <glyph glyph-name="dieresis" unicode="&#x308;" 
d="M97 549q-22 0 -35 13t-13 34q0 28 17 46t42 18q21 0 34.5 -13t13.5 -34q0 -27 -17.5 -45.5t-41.5 -18.5zM282 549q-22 0 -35 13t-13 34q0 28 17 46t42 18q21 0 34.5 -13t13.5 -34q0 -27 -17.5 -45.5t-41.5 -18.5z" />
    <glyph glyph-name="copyright" unicode="&#xa9;" horiz-adv-x="773" 
d="M385 -10q-144 0 -238 96.5t-94 240.5t94 240.5t238 96.5t237.5 -96.5t93.5 -240.5t-93.5 -240.5t-237.5 -96.5zM385 45q116 0 192 79.5t76 202.5t-76 202.5t-192 79.5q-117 0 -193 -79.5t-76 -202.5t76 -202.5t193 -79.5zM391 126q-83 0 -132.5 55.5t-49.5 141.5t52 145
t138 59q55 0 97 -22v-62q-42 26 -96 26q-56 0 -90.5 -40t-34.5 -103q0 -66 33 -104.5t89 -38.5q44 0 90 25l21 -50q-56 -32 -117 -32z" />
    <glyph glyph-name="ordfeminine" unicode="&#xaa;" horiz-adv-x="338" 
d="M88 263q-41 0 -65 25t-24 67q0 66 48.5 96.5t130.5 30.5h37q2 14 2 22q0 40 -55 40q-46 0 -98 -22l-14 62q59 27 126 27q54 0 88 -24.5t34 -77.5q0 -28 -11 -72l-9 -36q-12 -46 -12 -79q0 -13 6 -43l-68 -15q-9 26 -10 49h-1q-47 -50 -105 -50zM113 330q27 0 53.5 23
t34.5 57l3 13h-24q-103 0 -103 -58q0 -35 36 -35z" />
    <glyph glyph-name="guillemotleft" unicode="&#xab;" horiz-adv-x="559" 
d="M18 244l196 230l76 -52l-161 -183l106 -180l-83 -48zM250 244l197 230l75 -52l-161 -183l106 -180l-83 -48z" />
    <glyph glyph-name="logicalnot" unicode="&#xac;" horiz-adv-x="541" 
d="M12 242v86h472v-294h-97v208h-375z" />
    <glyph glyph-name="registered" unicode="&#xae;" horiz-adv-x="576" 
d="M313 180q-104 0 -171 69.5t-67 173.5t67 173t171 69q103 0 171.5 -69.5t68.5 -172.5t-69 -173t-171 -70zM313 224q83 0 136.5 57t53.5 142q0 84 -53.5 141t-136.5 57t-136.5 -57t-53.5 -141q0 -85 53.5 -142t136.5 -57zM278 296h-46v261h74q28 0 44 -6q48 -15 48 -65
q0 -56 -62 -70v-1q18 -11 78 -119h-53q-2 4 -7 12q-47 88 -60 95q-2 1 -3 1h-13v-108zM278 440h16q55 0 55 42q0 26 -21 34q-11 5 -34 5h-16v-81z" />
    <glyph glyph-name="macron" unicode="&#xaf;" 
d="M52 570l17 80h273l-17 -80h-273z" />
    <glyph glyph-name="macron" unicode="&#x304;" 
d="M52 570l17 80h273l-17 -80h-273z" />
    <glyph glyph-name="macron" unicode="&#x2c9;" 
d="M52 570l17 80h273l-17 -80h-273z" />
    <glyph glyph-name="degree" unicode="&#xb0;" horiz-adv-x="373" 
d="M219 353q-67 0 -110.5 43.5t-43.5 109.5t44 109.5t111 43.5t111 -43.5t44 -109.5t-44.5 -109.5t-111.5 -43.5zM220 420q34 0 57.5 24t23.5 61q0 38 -23.5 62t-57.5 24q-35 0 -58.5 -24t-23.5 -62q0 -37 23.5 -61t58.5 -24z" />
    <glyph glyph-name="plusminus" unicode="&#xb1;" horiz-adv-x="541" 
d="M14 0v87h472v-87h-472zM202 138v145h-188v86h188v145h97v-145h187v-86h-187v-145h-97z" />
    <glyph glyph-name="twosuperior" unicode="&#xb2;" horiz-adv-x="345" 
d="M49 403q8 56 35 99t59 67t63 42.5t51.5 37t20.5 39.5q0 36 -50 36q-47 0 -103 -28l-19 67q69 33 136 33q59 0 91.5 -27.5t32.5 -72.5q0 -41 -28 -74.5t-62 -51.5t-67.5 -43.5t-41.5 -51.5h172l-13 -72h-277z" />
    <glyph glyph-name="threesuperior" unicode="&#xb3;" horiz-adv-x="349" 
d="M57 419l27 64q42 -18 91 -18q40 0 61.5 15t21.5 42q0 46 -77 46h-54l11 63h40q47 1 72 16t25 41q0 38 -53 38q-43 0 -89 -18l-19 62q61 26 126 26q59 0 91 -26t32 -66q0 -75 -84 -101v-2q29 -5 48 -25.5t19 -52.5q0 -58 -45 -92.5t-127 -34.5q-66 0 -117 23z" />
    <glyph glyph-name="acute" unicode="&#xb4;" 
d="M133 531l76 147h115l-112 -147h-79z" />
    <glyph glyph-name="acute" unicode="&#x301;" 
d="M133 531l76 147h115l-112 -147h-79z" />
    <glyph glyph-name="mu" unicode="&#xb5;" horiz-adv-x="551" 
d="M-53 -237l153 710h103l-58 -270q-8 -36 -8 -58q0 -34 17 -50t45 -16q46 0 85 38.5t55 114.5l53 241h103l-72 -332q-4 -25 -4 -32q0 -23 25 -23q17 0 31 5v-86q-33 -12 -65 -12q-33 0 -53 17.5t-23 48.5v6v8v7h-2q-58 -90 -149 -90q-54 0 -78 42h-2q-7 -62 -23 -128
l-30 -141h-103z" />
    <glyph glyph-name="mu" unicode="&#x3bc;" horiz-adv-x="551" 
d="M-53 -237l153 710h103l-58 -270q-8 -36 -8 -58q0 -34 17 -50t45 -16q46 0 85 38.5t55 114.5l53 241h103l-72 -332q-4 -25 -4 -32q0 -23 25 -23q17 0 31 5v-86q-33 -12 -65 -12q-33 0 -53 17.5t-23 48.5v6v8v7h-2q-58 -90 -149 -90q-54 0 -78 42h-2q-7 -62 -23 -128
l-30 -141h-103z" />
    <glyph glyph-name="paragraph" unicode="&#xb6;" horiz-adv-x="604" 
d="M126 -160l80 387q-68 3 -108 50t-40 122q0 114 77.5 187t206.5 73h174l-169 -819h-53l159 770h-115l-159 -770h-53z" />
    <glyph glyph-name="periodcentered" unicode="&#xb7;" horiz-adv-x="249" 
d="M101 189q-23 0 -38.5 16.5t-15.5 39.5q0 29 18.5 49t46.5 20q24 0 39.5 -16.5t15.5 -40.5q0 -28 -19.5 -48t-46.5 -20z" />
    <glyph glyph-name="periodcentered" unicode="&#x2219;" horiz-adv-x="249" 
d="M101 189q-23 0 -38.5 16.5t-15.5 39.5q0 29 18.5 49t46.5 20q24 0 39.5 -16.5t15.5 -40.5q0 -28 -19.5 -48t-46.5 -20z" />
    <glyph glyph-name="cedilla" unicode="&#xb8;" 
d="M79 -198l23 49q20 -10 47 -10q25 0 41 10t16 29q0 33 -76 31l43 89h76l-25 -51q34 -2 53 -19t19 -46q0 -46 -38.5 -71t-100.5 -25q-42 0 -78 14z" />
    <glyph glyph-name="cedilla" unicode="&#x327;" 
d="M79 -198l23 49q20 -10 47 -10q25 0 41 10t16 29q0 33 -76 31l43 89h76l-25 -51q34 -2 53 -19t19 -46q0 -46 -38.5 -71t-100.5 -25q-42 0 -78 14z" />
    <glyph glyph-name="onesuperior" unicode="&#xb9;" horiz-adv-x="321" 
d="M153 403l64 299q-50 -25 -119 -37v73q74 14 149 57h74l-84 -392h-84z" />
    <glyph glyph-name="ordmasculine" unicode="&#xba;" horiz-adv-x="364" 
d="M146 263q-61 0 -98 36.5t-37 95.5q0 93 53 154.5t132 61.5q61 0 98.5 -36.5t37.5 -96.5q0 -92 -53 -153.5t-133 -61.5zM150 332q46 0 74 42t28 97q0 71 -60 71q-45 0 -73.5 -42.5t-28.5 -96.5q0 -71 60 -71z" />
    <glyph glyph-name="guillemotright" unicode="&#xbb;" horiz-adv-x="559" 
d="M76 11l-76 52l161 184l-104 179l82 48l135 -234zM310 11l-76 52l160 184l-104 179l82 48l135 -234z" />
    <glyph glyph-name="onequarter" unicode="&#xbc;" horiz-adv-x="939" 
d="M171 268l64 299q-50 -25 -119 -37v73q74 14 149 57h74l-84 -392h-84zM161 0l493 659h89l-493 -659h-89zM646 0l17 85h-160l-13 56l238 251h84l-53 -244h55l-13 -63h-56l-18 -85h-81zM677 147l8 35q17 72 25 101l-129 -137z" />
    <glyph glyph-name="onehalf" unicode="&#xbd;" horiz-adv-x="939" 
d="M164 268l64 299q-50 -25 -119 -37v73q74 14 149 57h74l-84 -392h-84zM143 0l493 659h89l-493 -659h-89zM532 0q8 56 35 99t59 67t63 42.5t51.5 37t20.5 39.5q0 36 -50 36q-47 0 -103 -28l-19 67q69 33 136 33q59 0 91.5 -27.5t32.5 -72.5q0 -41 -28 -74.5t-62 -51.5
t-67.5 -43.5t-41.5 -51.5h172l-13 -72h-277z" />
    <glyph glyph-name="threequarters" unicode="&#xbe;" horiz-adv-x="939" 
d="M53 284l27 64q42 -18 91 -18q40 0 61.5 15t21.5 42q0 46 -77 46h-54l11 63h40q47 1 72 16t25 41q0 38 -53 38q-43 0 -89 -18l-19 62q61 26 126 26q59 0 91 -26t32 -66q0 -75 -84 -101v-2q29 -5 48 -25.5t19 -52.5q0 -58 -45 -92.5t-127 -34.5q-66 0 -117 23zM180 0
l493 659h89l-493 -659h-89zM662 0l17 85h-160l-13 56l238 251h84l-53 -244h55l-13 -63h-56l-18 -85h-81zM693 147l8 35q17 72 25 101l-129 -137z" />
    <glyph glyph-name="questiondown" unicode="&#xbf;" horiz-adv-x="451" 
d="M151 -189q-69 0 -114.5 36.5t-45.5 98.5q0 53 31 95q21 30 71 69.5t90 82t54 95.5h68q-2 -52 -24 -94.5t-52.5 -71t-61 -53t-51.5 -51.5t-21 -56q0 -30 19.5 -46.5t55.5 -16.5q64 0 130 47l38 -72q-85 -63 -187 -63zM282 360q-24 0 -39.5 16.5t-15.5 40.5q0 28 19.5 48
t46.5 20q23 0 38.5 -16.5t15.5 -39.5q0 -29 -18.5 -49t-46.5 -20z" />
    <glyph glyph-name="Agrave" unicode="&#xc0;" horiz-adv-x="600" 
d="M-49 0l357 662h86l124 -662h-110l-29 169h-224l-88 -169h-116zM202 254h163l-27 178q-2 13 -5.5 39.5t-5.5 39.5h-2q-18 -45 -37 -83zM330 696l-85 147h115l49 -147h-79z" />
    <glyph glyph-name="Aacute" unicode="&#xc1;" horiz-adv-x="600" 
d="M-49 0l357 662h86l124 -662h-110l-29 169h-224l-88 -169h-116zM202 254h163l-27 178q-2 13 -5.5 39.5t-5.5 39.5h-2q-18 -45 -37 -83zM297 696l76 147h115l-112 -147h-79z" />
    <glyph glyph-name="Acircumflex" unicode="&#xc2;" horiz-adv-x="600" 
d="M-49 0l357 662h86l124 -662h-110l-29 169h-224l-88 -169h-116zM202 254h163l-27 178q-2 13 -5.5 39.5t-5.5 39.5h-2q-18 -45 -37 -83zM212 696l119 147h83l83 -147h-81l-49 87l-70 -87h-85z" />
    <glyph glyph-name="Atilde" unicode="&#xc3;" horiz-adv-x="600" 
d="M-49 0l357 662h86l124 -662h-110l-29 169h-224l-88 -169h-116zM202 254h163l-27 178q-2 13 -5.5 39.5t-5.5 39.5h-2q-18 -45 -37 -83zM204 722q4 56 30.5 85t63.5 29q31 0 69 -22.5t53 -22.5q26 0 32 39h71q-4 -56 -30 -85t-64 -29q-31 0 -69 22.5t-53 22.5
q-25 0 -31 -39h-72z" />
    <glyph glyph-name="Adieresis" unicode="&#xc4;" horiz-adv-x="600" 
d="M-49 0l357 662h86l124 -662h-110l-29 169h-224l-88 -169h-116zM202 254h163l-27 178q-2 13 -5.5 39.5t-5.5 39.5h-2q-18 -45 -37 -83zM266 702q-22 0 -35 13t-13 34q0 27 17 45.5t41 18.5q22 0 35 -13t13 -34q0 -27 -17 -45.5t-41 -18.5zM451 702q-22 0 -35 13t-13 34
q0 27 17 45.5t41 18.5q22 0 35 -13t13 -34q0 -27 -17 -45.5t-41 -18.5z" />
    <glyph glyph-name="Aring" unicode="&#xc5;" horiz-adv-x="600" 
d="M-49 0l354 655q-55 19 -55 76q0 49 35.5 79.5t88.5 30.5q46 0 73.5 -22t27.5 -61t-22 -66t-58 -36l123 -656h-110l-29 169h-224l-88 -169h-116zM202 254h163l-27 178q-2 13 -5.5 39.5t-5.5 39.5h-2q-18 -45 -37 -83zM356 696q22 0 36 17t14 41q0 18 -10 28.5t-27 10.5
q-22 0 -36 -17t-14 -42q0 -17 10 -27.5t27 -10.5z" />
    <glyph glyph-name="AE" unicode="&#xc6;" horiz-adv-x="814" 
d="M-66 0l479 659h361l-25 -86h-214l-26 -193h210l-12 -86h-210l-28 -208h240l-13 -86h-343l23 169h-200l-122 -169h-120zM239 254h149l38 267h-2q-70 -104 -78 -116z" />
    <glyph glyph-name="Ccedilla" unicode="&#xc7;" horiz-adv-x="603" 
d="M164 -198l23 49q20 -10 47 -10q25 0 41 10t16 29q0 33 -76 31l41 86q-99 20 -154.5 90.5t-55.5 178.5q0 175 111 287t277 112q91 0 166 -33l-21 -90q-68 34 -144 34q-124 0 -201 -87.5t-77 -211.5q0 -89 48 -143.5t136 -54.5q81 0 157 38l20 -85q-84 -42 -190 -42
l-19 -41q34 -2 53 -19t19 -46q0 -46 -38.5 -71t-100.5 -25q-42 0 -78 14z" />
    <glyph glyph-name="Egrave" unicode="&#xc8;" horiz-adv-x="482" 
d="M8 0l141 659h333l-31 -86h-215l-42 -193h212l-19 -86h-211l-44 -208h240l-18 -86h-346zM293 696l-85 147h115l49 -147h-79z" />
    <glyph glyph-name="Eacute" unicode="&#xc9;" horiz-adv-x="482" 
d="M8 0l141 659h333l-31 -86h-215l-42 -193h212l-19 -86h-211l-44 -208h240l-18 -86h-346zM266 696l76 147h115l-112 -147h-79z" />
    <glyph glyph-name="Ecircumflex" unicode="&#xca;" horiz-adv-x="482" 
d="M8 0l141 659h333l-31 -86h-215l-42 -193h212l-19 -86h-211l-44 -208h240l-18 -86h-346zM175 696l119 147h83l83 -147h-81l-49 87l-70 -87h-85z" />
    <glyph glyph-name="Edieresis" unicode="&#xcb;" horiz-adv-x="482" 
d="M8 0l141 659h333l-31 -86h-215l-42 -193h212l-19 -86h-211l-44 -208h240l-18 -86h-346zM228 702q-22 0 -35 13t-13 34q0 27 17 45.5t41 18.5q22 0 35 -13t13 -34q0 -27 -17 -45.5t-41 -18.5zM413 702q-22 0 -35 13t-13 34q0 27 17 45.5t41 18.5q22 0 35 -13t13 -34
q0 -27 -17 -45.5t-41 -18.5z" />
    <glyph glyph-name="Igrave" unicode="&#xcc;" horiz-adv-x="262" 
d="M8 0l141 659h105l-141 -659h-105zM186 696l-85 147h115l49 -147h-79z" />
    <glyph glyph-name="Iacute" unicode="&#xcd;" horiz-adv-x="262" 
d="M8 0l141 659h105l-141 -659h-105zM156 696l76 147h115l-112 -147h-79z" />
    <glyph glyph-name="Icircumflex" unicode="&#xce;" horiz-adv-x="262" 
d="M8 0l141 659h105l-141 -659h-105zM66 696l119 147h83l83 -147h-81l-49 87l-70 -87h-85z" />
    <glyph glyph-name="Idieresis" unicode="&#xcf;" horiz-adv-x="262" 
d="M8 0l141 659h105l-141 -659h-105zM120 702q-22 0 -35 13t-13 34q0 27 17 45.5t41 18.5q22 0 35 -13t13 -34q0 -27 -17 -45.5t-41 -18.5zM305 702q-22 0 -35 13t-13 34q0 27 17 45.5t41 18.5q22 0 35 -13t13 -34q0 -27 -17 -45.5t-41 -18.5z" />
    <glyph glyph-name="Eth" unicode="&#xd0;" horiz-adv-x="658" 
d="M8 0l62 290h-77l19 86h77l60 283h130q113 0 191 -34q142 -64 142 -241q0 -118 -59.5 -211t-165.5 -137q-89 -36 -202 -36h-177zM132 86h61q84 0 148 28q76 34 118 106.5t42 171.5q0 117 -92 158q-51 23 -131 23h-42l-43 -197h153l-18 -86h-153z" />
    <glyph glyph-name="Ntilde" unicode="&#xd1;" horiz-adv-x="721" 
d="M8 0l141 659h99l256 -489h2q14 73 18 91l84 398h105l-141 -659h-89l-264 501h-1q-9 -55 -16 -86l-89 -415h-105zM288 722q4 56 30.5 85t63.5 29q31 0 69 -22.5t53 -22.5q26 0 32 39h71q-4 -56 -30 -85t-64 -29q-31 0 -69 22.5t-53 22.5q-25 0 -31 -39h-72z" />
    <glyph glyph-name="Ograve" unicode="&#xd2;" horiz-adv-x="728" 
d="M316 -10q-125 0 -197.5 70.5t-72.5 199.5q0 109 44 200.5t129 148t193 56.5q126 0 198 -70t72 -199q0 -167 -102 -286.5t-264 -119.5zM323 79q74 0 132.5 46.5t87.5 116.5t29 147q0 89 -43 138t-124 49q-74 0 -132.5 -46t-87.5 -115.5t-29 -146.5q0 -90 43 -139.5
t124 -49.5zM402 696l-85 147h115l49 -147h-79z" />
    <glyph glyph-name="Oacute" unicode="&#xd3;" horiz-adv-x="728" 
d="M316 -10q-125 0 -197.5 70.5t-72.5 199.5q0 109 44 200.5t129 148t193 56.5q126 0 198 -70t72 -199q0 -167 -102 -286.5t-264 -119.5zM323 79q74 0 132.5 46.5t87.5 116.5t29 147q0 89 -43 138t-124 49q-74 0 -132.5 -46t-87.5 -115.5t-29 -146.5q0 -90 43 -139.5
t124 -49.5zM382 696l76 147h115l-112 -147h-79z" />
    <glyph glyph-name="Ocircumflex" unicode="&#xd4;" horiz-adv-x="728" 
d="M316 -10q-125 0 -197.5 70.5t-72.5 199.5q0 109 44 200.5t129 148t193 56.5q126 0 198 -70t72 -199q0 -167 -102 -286.5t-264 -119.5zM323 79q74 0 132.5 46.5t87.5 116.5t29 147q0 89 -43 138t-124 49q-74 0 -132.5 -46t-87.5 -115.5t-29 -146.5q0 -90 43 -139.5
t124 -49.5zM289 696l119 147h83l83 -147h-81l-49 87l-70 -87h-85z" />
    <glyph glyph-name="Otilde" unicode="&#xd5;" horiz-adv-x="728" 
d="M316 -10q-125 0 -197.5 70.5t-72.5 199.5q0 109 44 200.5t129 148t193 56.5q126 0 198 -70t72 -199q0 -167 -102 -286.5t-264 -119.5zM323 79q74 0 132.5 46.5t87.5 116.5t29 147q0 89 -43 138t-124 49q-74 0 -132.5 -46t-87.5 -115.5t-29 -146.5q0 -90 43 -139.5
t124 -49.5zM282 722q4 56 30.5 85t63.5 29q31 0 69 -22.5t53 -22.5q26 0 32 39h71q-4 -56 -30 -85t-64 -29q-31 0 -69 22.5t-53 22.5q-25 0 -31 -39h-72z" />
    <glyph glyph-name="Odieresis" unicode="&#xd6;" horiz-adv-x="728" 
d="M316 -10q-125 0 -197.5 70.5t-72.5 199.5q0 109 44 200.5t129 148t193 56.5q126 0 198 -70t72 -199q0 -167 -102 -286.5t-264 -119.5zM323 79q74 0 132.5 46.5t87.5 116.5t29 147q0 89 -43 138t-124 49q-74 0 -132.5 -46t-87.5 -115.5t-29 -146.5q0 -90 43 -139.5
t124 -49.5zM338 702q-22 0 -35 13t-13 34q0 27 17 45.5t41 18.5q22 0 35 -13t13 -34q0 -27 -17 -45.5t-41 -18.5zM523 702q-22 0 -35 13t-13 34q0 27 17 45.5t41 18.5q22 0 35 -13t13 -34q0 -27 -17 -45.5t-41 -18.5z" />
    <glyph glyph-name="multiply" unicode="&#xd7;" horiz-adv-x="575" 
d="M88 4l-63 63l183 183l-183 182l62 63l183 -182l182 182l62 -63l-181 -182l181 -182l-62 -63l-182 182z" />
    <glyph glyph-name="Oslash" unicode="&#xd8;" horiz-adv-x="729" 
d="M108 -33l-64 52l57 66q-55 72 -55 187q0 164 100.5 278.5t263.5 114.5q92 0 156 -43l58 66l64 -53l-59 -66q54 -73 54 -185q0 -164 -100.5 -279t-263.5 -115q-91 0 -154 43zM229 109q38 -30 100 -30q108 0 175.5 91.5t67.5 216.5q0 53 -18 92zM157 270q0 -60 18 -97
l328 372q-40 31 -102 31q-109 0 -176.5 -91t-67.5 -215z" />
    <glyph glyph-name="Ugrave" unicode="&#xd9;" horiz-adv-x="669" 
d="M277 -10q-105 0 -163 52t-58 145q0 34 10 79l84 393h105l-83 -384q-9 -40 -9 -73q0 -62 33.5 -93t94.5 -31q78 0 123 45q38 39 54 115l90 421h105l-92 -429q-24 -117 -85 -172q-74 -68 -209 -68zM376 696l-85 147h115l49 -147h-79z" />
    <glyph glyph-name="Uacute" unicode="&#xda;" horiz-adv-x="669" 
d="M277 -10q-105 0 -163 52t-58 145q0 34 10 79l84 393h105l-83 -384q-9 -40 -9 -73q0 -62 33.5 -93t94.5 -31q78 0 123 45q38 39 54 115l90 421h105l-92 -429q-24 -117 -85 -172q-74 -68 -209 -68zM366 696l76 147h115l-112 -147h-79z" />
    <glyph glyph-name="Ucircumflex" unicode="&#xdb;" horiz-adv-x="669" 
d="M277 -10q-105 0 -163 52t-58 145q0 34 10 79l84 393h105l-83 -384q-9 -40 -9 -73q0 -62 33.5 -93t94.5 -31q78 0 123 45q38 39 54 115l90 421h105l-92 -429q-24 -117 -85 -172q-74 -68 -209 -68zM270 696l119 147h83l83 -147h-81l-49 87l-70 -87h-85z" />
    <glyph glyph-name="Udieresis" unicode="&#xdc;" horiz-adv-x="669" 
d="M277 -10q-105 0 -163 52t-58 145q0 34 10 79l84 393h105l-83 -384q-9 -40 -9 -73q0 -62 33.5 -93t94.5 -31q78 0 123 45q38 39 54 115l90 421h105l-92 -429q-24 -117 -85 -172q-74 -68 -209 -68zM324 702q-22 0 -35 13t-13 34q0 27 17 45.5t41 18.5q22 0 35 -13t13 -34
q0 -27 -17 -45.5t-41 -18.5zM509 702q-22 0 -35 13t-13 34q0 27 17 45.5t41 18.5q22 0 35 -13t13 -34q0 -27 -17 -45.5t-41 -18.5z" />
    <glyph glyph-name="Yacute" unicode="&#xdd;" horiz-adv-x="536" 
d="M166 0l54 257l-146 402h108l103 -305h2l195 305h117l-274 -408l-54 -251h-105zM291 696l76 147h115l-112 -147h-79z" />
    <glyph glyph-name="Thorn" unicode="&#xde;" horiz-adv-x="527" 
d="M8 0l141 659h105l-23 -109h11q67 0 113 -17q55 -21 86 -65t31 -105q0 -78 -42.5 -136.5t-121.5 -83.5q-58 -20 -136 -20h-33l-26 -123h-105zM158 209h30q53 0 86 15q44 16 67.5 51.5t23.5 83.5q0 70 -60 94q-27 11 -66 11h-27z" />
    <glyph glyph-name="germandbls" unicode="&#xdf;" horiz-adv-x="588" 
d="M-23 -141l139 649q17 75 54 122q63 78 180 78q85 0 139.5 -44.5t54.5 -128.5q0 -35 -11 -81q-64 -4 -101.5 -27.5t-37.5 -66.5q0 -27 19 -52.5t41.5 -44.5t41.5 -52.5t19 -74.5q0 -68 -50 -107t-126 -39q-85 0 -151 41l34 77q59 -35 111 -35q34 0 56.5 16t22.5 47
q0 22 -12.5 41.5t-30.5 36.5t-36 35t-30.5 44.5t-12.5 58.5q0 62 40.5 102.5t110.5 49.5q2 12 2 26q0 44 -25 66t-68 22q-107 0 -134 -130l-135 -629h-104z" />
    <glyph glyph-name="agrave" unicode="&#xe0;" horiz-adv-x="479" 
d="M125 -10q-58 0 -93 35.5t-35 91.5q0 79 54 125q64 53 199 55h59q4 17 4 39q0 34 -19.5 51t-64.5 17q-61 0 -138 -34l-14 77q84 38 171 38q71 0 120 -32t49 -109q0 -34 -17 -111l-11 -46q-16 -74 -16 -114q0 -31 8 -61l-89 -19q-12 37 -14 80q-64 -83 -153 -83zM154 73
q44 0 85 35t52 89l6 28h-33q-103 0 -140 -33q-27 -22 -27 -61q0 -58 57 -58zM243 531l-85 147h116l49 -147h-80z" />
    <glyph glyph-name="aacute" unicode="&#xe1;" horiz-adv-x="479" 
d="M125 -10q-58 0 -93 35.5t-35 91.5q0 79 54 125q64 53 199 55h59q4 17 4 39q0 34 -19.5 51t-64.5 17q-61 0 -138 -34l-14 77q84 38 171 38q71 0 120 -32t49 -109q0 -34 -17 -111l-11 -46q-16 -74 -16 -114q0 -31 8 -61l-89 -19q-12 37 -14 80q-64 -83 -153 -83zM154 73
q44 0 85 35t52 89l6 28h-33q-103 0 -140 -33q-27 -22 -27 -61q0 -58 57 -58zM217 531l76 147h115l-112 -147h-79z" />
    <glyph glyph-name="acircumflex" unicode="&#xe2;" horiz-adv-x="479" 
d="M125 -10q-58 0 -93 35.5t-35 91.5q0 79 54 125q64 53 199 55h59q4 17 4 39q0 34 -19.5 51t-64.5 17q-61 0 -138 -34l-14 77q84 38 171 38q71 0 120 -32t49 -109q0 -34 -17 -111l-11 -46q-16 -74 -16 -114q0 -31 8 -61l-89 -19q-12 37 -14 80q-64 -83 -153 -83zM154 73
q44 0 85 35t52 89l6 28h-33q-103 0 -140 -33q-27 -22 -27 -61q0 -58 57 -58zM121 531l119 147h83l83 -147h-81l-49 87l-70 -87h-85z" />
    <glyph glyph-name="atilde" unicode="&#xe3;" horiz-adv-x="479" 
d="M125 -10q-58 0 -93 35.5t-35 91.5q0 79 54 125q64 53 199 55h59q4 17 4 39q0 34 -19.5 51t-64.5 17q-61 0 -138 -34l-14 77q84 38 171 38q71 0 120 -32t49 -109q0 -34 -17 -111l-11 -46q-16 -74 -16 -114q0 -31 8 -61l-89 -19q-12 37 -14 80q-64 -83 -153 -83zM154 73
q44 0 85 35t52 89l6 28h-33q-103 0 -140 -33q-27 -22 -27 -61q0 -58 57 -58zM115 549q4 57 30.5 85.5t63.5 28.5q31 0 69 -22.5t53 -22.5q26 0 32 39h71q-4 -56 -30 -85t-64 -29q-31 0 -69 23t-53 23q-25 0 -31 -40h-72z" />
    <glyph glyph-name="adieresis" unicode="&#xe4;" horiz-adv-x="479" 
d="M125 -10q-58 0 -93 35.5t-35 91.5q0 79 54 125q64 53 199 55h59q4 17 4 39q0 34 -19.5 51t-64.5 17q-61 0 -138 -34l-14 77q84 38 171 38q71 0 120 -32t49 -109q0 -34 -17 -111l-11 -46q-16 -74 -16 -114q0 -31 8 -61l-89 -19q-12 37 -14 80q-64 -83 -153 -83zM154 73
q44 0 85 35t52 89l6 28h-33q-103 0 -140 -33q-27 -22 -27 -61q0 -58 57 -58zM181 549q-22 0 -35 13t-13 34q0 28 17 46t42 18q21 0 34.5 -13t13.5 -34q0 -27 -17.5 -45.5t-41.5 -18.5zM366 549q-22 0 -35 13t-13 34q0 28 17 46t42 18q21 0 34.5 -13t13.5 -34
q0 -27 -17.5 -45.5t-41.5 -18.5z" />
    <glyph glyph-name="aring" unicode="&#xe5;" horiz-adv-x="479" 
d="M125 -10q-58 0 -93 35.5t-35 91.5q0 79 54 125q64 53 199 55h59q4 17 4 39q0 34 -19.5 51t-64.5 17q-61 0 -138 -34l-14 77q84 38 171 38q71 0 120 -32t49 -109q0 -34 -17 -111l-11 -46q-16 -74 -16 -114q0 -31 8 -61l-89 -19q-12 37 -14 80q-64 -83 -153 -83zM154 73
q44 0 85 35t52 89l6 28h-33q-103 0 -140 -33q-27 -22 -27 -61q0 -58 57 -58zM273 523q-46 0 -73.5 22t-27.5 61q0 49 35 79.5t88 30.5q46 0 74 -22t28 -61q0 -49 -35.5 -79.5t-88.5 -30.5zM278 571q22 0 36 17t14 42q0 17 -10 27.5t-27 10.5q-22 0 -36 -17t-14 -42
q0 -17 10 -27.5t27 -10.5z" />
    <glyph glyph-name="ae" unicode="&#xe6;" horiz-adv-x="757" 
d="M133 -10q-60 0 -98 36.5t-38 94.5q0 85 68.5 125.5t185.5 41.5l57 1q4 21 4 45q0 35 -19 52.5t-65 17.5q-60 0 -137 -34l-14 77q84 38 165 38q113 0 144 -76h2q63 76 162 76q79 0 121.5 -43t42.5 -114q0 -60 -21 -109l-296 -4q0 -3 -0.5 -11t-0.5 -12q0 -56 31.5 -87.5
t81.5 -31.5q61 0 129 35l28 -74q-74 -44 -163 -44q-66 0 -110.5 29.5t-62.5 81.5h-2q-34 -54 -85.5 -82.5t-109.5 -28.5zM154 73q46 0 86.5 33t52.5 91l3 17h-41q-158 -2 -158 -83q0 -28 15 -43t42 -15zM410 289l197 3q7 17 7 38q0 32 -18 53t-57 21q-45 0 -81.5 -33
t-47.5 -82z" />
    <glyph glyph-name="ccedilla" unicode="&#xe7;" horiz-adv-x="441" 
d="M65 -198l23 49q22 -10 47 -10t41 10t16 29q0 33 -76 31l42 87q-67 16 -104 68t-37 126q0 124 77 208.5t201 84.5q67 0 124 -25l-19 -85q-52 26 -103 26q-73 0 -124.5 -56.5t-51.5 -143.5q0 -59 29.5 -93t86.5 -34q58 0 116 34l28 -74q-26 -17 -69.5 -30t-82.5 -14
l-19 -41q34 -2 53 -19t19 -46q0 -46 -38.5 -71t-100.5 -25q-42 0 -78 14z" />
    <glyph glyph-name="egrave" unicode="&#xe8;" horiz-adv-x="478" 
d="M221 -10q-95 0 -149.5 55t-54.5 148q0 124 72 208t182 84q80 0 122.5 -43t42.5 -114q0 -50 -22 -114l-295 -4q-1 -7 -1 -20q0 -56 31 -86.5t81 -30.5q61 0 129 35l29 -74q-76 -44 -167 -44zM131 284l197 2q7 22 7 44q0 32 -18 53t-55 21q-46 0 -82.5 -34.5t-48.5 -85.5z
M256 531l-85 147h116l49 -147h-80z" />
    <glyph glyph-name="eacute" unicode="&#xe9;" horiz-adv-x="478" 
d="M221 -10q-95 0 -149.5 55t-54.5 148q0 124 72 208t182 84q80 0 122.5 -43t42.5 -114q0 -50 -22 -114l-295 -4q-1 -7 -1 -20q0 -56 31 -86.5t81 -30.5q61 0 129 35l29 -74q-76 -44 -167 -44zM131 284l197 2q7 22 7 44q0 32 -18 53t-55 21q-46 0 -82.5 -34.5t-48.5 -85.5z
M237 531l76 147h115l-112 -147h-79z" />
    <glyph glyph-name="ecircumflex" unicode="&#xea;" horiz-adv-x="478" 
d="M221 -10q-95 0 -149.5 55t-54.5 148q0 124 72 208t182 84q80 0 122.5 -43t42.5 -114q0 -50 -22 -114l-295 -4q-1 -7 -1 -20q0 -56 31 -86.5t81 -30.5q61 0 129 35l29 -74q-76 -44 -167 -44zM131 284l197 2q7 22 7 44q0 32 -18 53t-55 21q-46 0 -82.5 -34.5t-48.5 -85.5z
M139 531l119 147h83l83 -147h-81l-49 87l-70 -87h-85z" />
    <glyph glyph-name="edieresis" unicode="&#xeb;" horiz-adv-x="478" 
d="M221 -10q-95 0 -149.5 55t-54.5 148q0 124 72 208t182 84q80 0 122.5 -43t42.5 -114q0 -50 -22 -114l-295 -4q-1 -7 -1 -20q0 -56 31 -86.5t81 -30.5q61 0 129 35l29 -74q-76 -44 -167 -44zM131 284l197 2q7 22 7 44q0 32 -18 53t-55 21q-46 0 -82.5 -34.5t-48.5 -85.5z
M194 549q-22 0 -35 13t-13 34q0 28 17 46t42 18q21 0 34.5 -13t13.5 -34q0 -27 -17.5 -45.5t-41.5 -18.5zM379 549q-22 0 -35 13t-13 34q0 28 17 46t42 18q21 0 34.5 -13t13.5 -34q0 -27 -17.5 -45.5t-41.5 -18.5z" />
    <glyph glyph-name="igrave" unicode="&#xec;" horiz-adv-x="232" 
d="M-4 0l102 473h103l-103 -473h-102zM135 531l-85 147h116l49 -147h-80z" />
    <glyph glyph-name="iacute" unicode="&#xed;" horiz-adv-x="232" 
d="M-4 0l102 473h103l-103 -473h-102zM107 531l76 147h115l-112 -147h-79z" />
    <glyph glyph-name="icircumflex" unicode="&#xee;" horiz-adv-x="232" 
d="M-4 0l102 473h103l-103 -473h-102zM15 531l119 147h83l83 -147h-81l-49 87l-70 -87h-85z" />
    <glyph glyph-name="idieresis" unicode="&#xef;" horiz-adv-x="232" 
d="M-4 0l102 473h103l-103 -473h-102zM71 549q-22 0 -35 13t-13 34q0 28 17 46t42 18q21 0 34.5 -13t13.5 -34q0 -27 -17.5 -45.5t-41.5 -18.5zM256 549q-22 0 -35 13t-13 34q0 28 17 46t42 18q21 0 34.5 -13t13.5 -34q0 -27 -17.5 -45.5t-41.5 -18.5z" />
    <glyph glyph-name="eth" unicode="&#xf0;" horiz-adv-x="519" 
d="M202 -10q-89 0 -138.5 55t-49.5 142q0 126 72 209t171 83q86 0 130 -63h3q-9 105 -97 161l-123 -61l-22 48l85 39q-60 21 -134 21l20 84q132 -4 213 -56l112 56l23 -48l-90 -43q94 -86 94 -265q0 -176 -76 -269t-193 -93zM212 74q65 0 108.5 59.5t43.5 144.5
q0 57 -26 86.5t-68 29.5q-66 0 -109 -59t-43 -146q0 -115 94 -115z" />
    <glyph glyph-name="ntilde" unicode="&#xf1;" horiz-adv-x="514" 
d="M-5 0l102 473h82l-9 -93h2q32 45 78.5 75t97.5 30q52 0 82.5 -29.5t30.5 -88.5q0 -32 -13 -93l-59 -274h-103l58 269q10 45 10 70q0 55 -48 55q-62 0 -112 -67q-37 -49 -55 -135l-41 -192h-103zM149 549q4 57 30.5 85.5t63.5 28.5q31 0 69 -22.5t53 -22.5q26 0 32 39h71
q-4 -56 -30 -85t-64 -29q-31 0 -69 23t-53 23q-25 0 -31 -40h-72z" />
    <glyph glyph-name="ograve" unicode="&#xf2;" horiz-adv-x="519" 
d="M17 187q0 127 75.5 212.5t184.5 85.5q93 0 143.5 -55t50.5 -141q0 -128 -76 -213.5t-185 -85.5q-92 0 -142.5 55.5t-50.5 141.5zM121 189q0 -115 92 -115q65 0 109 62t44 151q0 114 -92 114q-65 0 -109 -62.5t-44 -149.5zM260 531l-85 147h116l49 -147h-80z" />
    <glyph glyph-name="oacute" unicode="&#xf3;" horiz-adv-x="519" 
d="M17 187q0 127 75.5 212.5t184.5 85.5q93 0 143.5 -55t50.5 -141q0 -128 -76 -213.5t-185 -85.5q-92 0 -142.5 55.5t-50.5 141.5zM121 189q0 -115 92 -115q65 0 109 62t44 151q0 114 -92 114q-65 0 -109 -62.5t-44 -149.5zM249 531l76 147h115l-112 -147h-79z" />
    <glyph glyph-name="ocircumflex" unicode="&#xf4;" horiz-adv-x="519" 
d="M17 187q0 127 75.5 212.5t184.5 85.5q93 0 143.5 -55t50.5 -141q0 -128 -76 -213.5t-185 -85.5q-92 0 -142.5 55.5t-50.5 141.5zM121 189q0 -115 92 -115q65 0 109 62t44 151q0 114 -92 114q-65 0 -109 -62.5t-44 -149.5zM153 531l119 147h83l83 -147h-81l-49 87l-70 -87
h-85z" />
    <glyph glyph-name="otilde" unicode="&#xf5;" horiz-adv-x="519" 
d="M17 187q0 127 75.5 212.5t184.5 85.5q93 0 143.5 -55t50.5 -141q0 -128 -76 -213.5t-185 -85.5q-92 0 -142.5 55.5t-50.5 141.5zM121 189q0 -115 92 -115q65 0 109 62t44 151q0 114 -92 114q-65 0 -109 -62.5t-44 -149.5zM147 549q4 57 30.5 85.5t63.5 28.5
q31 0 69 -22.5t53 -22.5q26 0 32 39h71q-4 -56 -30 -85t-64 -29q-31 0 -69 23t-53 23q-25 0 -31 -40h-72z" />
    <glyph glyph-name="odieresis" unicode="&#xf6;" horiz-adv-x="519" 
d="M17 187q0 127 75.5 212.5t184.5 85.5q93 0 143.5 -55t50.5 -141q0 -128 -76 -213.5t-185 -85.5q-92 0 -142.5 55.5t-50.5 141.5zM121 189q0 -115 92 -115q65 0 109 62t44 151q0 114 -92 114q-65 0 -109 -62.5t-44 -149.5zM209 549q-22 0 -35 13t-13 34q0 28 17 46t42 18
q21 0 34.5 -13t13.5 -34q0 -27 -17.5 -45.5t-41.5 -18.5zM394 549q-22 0 -35 13t-13 34q0 28 17 46t42 18q21 0 34.5 -13t13.5 -34q0 -27 -17.5 -45.5t-41.5 -18.5z" />
    <glyph glyph-name="divide" unicode="&#xf7;" horiz-adv-x="541" 
d="M252 22q-22 0 -38.5 17t-16.5 40q0 25 16 41.5t39 16.5t39.5 -16.5t16.5 -41.5q0 -23 -16.5 -40t-39.5 -17zM14 208v86h472v-86h-472zM252 365q-23 0 -39 16.5t-16 40.5t16 40.5t39 16.5t39.5 -16.5t16.5 -40.5t-16.5 -40.5t-39.5 -16.5z" />
    <glyph glyph-name="oslash" unicode="&#xf8;" horiz-adv-x="519" 
d="M58 -26l-44 38l41 48q-38 51 -38 130q0 127 75.5 211t184.5 84q68 0 113 -31l40 46l43 -38l-41 -48q39 -55 39 -129q0 -127 -76 -211t-185 -84q-65 0 -112 31zM158 91q20 -18 55 -18q65 0 110 62t45 149q0 28 -6 48zM119 192q0 -28 6 -51l205 243q-21 18 -56 18
q-65 0 -110 -62t-45 -148z" />
    <glyph glyph-name="ugrave" unicode="&#xf9;" horiz-adv-x="515" 
d="M145 -10q-52 0 -85.5 31t-33.5 92q0 36 13 96l56 264h103l-59 -276q-8 -32 -8 -59q0 -59 50 -59t90.5 43.5t56.5 113.5l51 237h103l-62 -286q-15 -75 -15 -113q0 -32 8 -62l-89 -19q-13 39 -13 89h-2q-30 -41 -73.5 -66.5t-90.5 -25.5zM265 531l-85 147h116l49 -147h-80z
" />
    <glyph glyph-name="uacute" unicode="&#xfa;" horiz-adv-x="515" 
d="M145 -10q-52 0 -85.5 31t-33.5 92q0 36 13 96l56 264h103l-59 -276q-8 -32 -8 -59q0 -59 50 -59t90.5 43.5t56.5 113.5l51 237h103l-62 -286q-15 -75 -15 -113q0 -32 8 -62l-89 -19q-13 39 -13 89h-2q-30 -41 -73.5 -66.5t-90.5 -25.5zM250 531l76 147h115l-112 -147h-79
z" />
    <glyph glyph-name="ucircumflex" unicode="&#xfb;" horiz-adv-x="515" 
d="M145 -10q-52 0 -85.5 31t-33.5 92q0 36 13 96l56 264h103l-59 -276q-8 -32 -8 -59q0 -59 50 -59t90.5 43.5t56.5 113.5l51 237h103l-62 -286q-15 -75 -15 -113q0 -32 8 -62l-89 -19q-13 39 -13 89h-2q-30 -41 -73.5 -66.5t-90.5 -25.5zM156 531l119 147h83l83 -147h-81
l-49 87l-70 -87h-85z" />
    <glyph glyph-name="udieresis" unicode="&#xfc;" horiz-adv-x="515" 
d="M145 -10q-52 0 -85.5 31t-33.5 92q0 36 13 96l56 264h103l-59 -276q-8 -32 -8 -59q0 -59 50 -59t90.5 43.5t56.5 113.5l51 237h103l-62 -286q-15 -75 -15 -113q0 -32 8 -62l-89 -19q-13 39 -13 89h-2q-30 -41 -73.5 -66.5t-90.5 -25.5zM209 549q-22 0 -35 13t-13 34
q0 28 17 46t42 18q21 0 34.5 -13t13.5 -34q0 -27 -17.5 -45.5t-41.5 -18.5zM394 549q-22 0 -35 13t-13 34q0 28 17 46t42 18q21 0 34.5 -13t13.5 -34q0 -27 -17.5 -45.5t-41.5 -18.5z" />
    <glyph glyph-name="yacute" unicode="&#xfd;" horiz-adv-x="470" 
d="M-123 -217l36 79q30 -15 61 -15q44 0 84.5 33.5t84.5 120.5l-109 472h102l47 -225q18 -90 27 -136h2q27 61 57 124l116 237h106l-251 -485q-65 -124 -125.5 -174.5t-148.5 -50.5q-56 0 -89 20zM220 531l76 147h115l-112 -147h-79z" />
    <glyph glyph-name="thorn" unicode="&#xfe;" horiz-adv-x="523" 
d="M-51 -237l204 945h103l-49 -227q15 4 40 4q111 0 169 -56t58 -148q0 -134 -80.5 -212.5t-193.5 -78.5q-51 0 -96 15l-52 -242h-103zM123 89q29 -12 68 -12q79 0 129 55t50 140q0 63 -34 94.5t-93 31.5q-28 0 -56 -6z" />
    <glyph glyph-name="ydieresis" unicode="&#xff;" horiz-adv-x="470" 
d="M-123 -217l36 79q30 -15 61 -15q44 0 84.5 33.5t84.5 120.5l-109 472h102l47 -225q18 -90 27 -136h2q27 61 57 124l116 237h106l-251 -485q-65 -124 -125.5 -174.5t-148.5 -50.5q-56 0 -89 20zM180 549q-22 0 -35 13t-13 34q0 28 17 46t42 18q21 0 34.5 -13t13.5 -34
q0 -27 -17.5 -45.5t-41.5 -18.5zM365 549q-22 0 -35 13t-13 34q0 28 17 46t42 18q21 0 34.5 -13t13.5 -34q0 -27 -17.5 -45.5t-41.5 -18.5z" />
    <glyph glyph-name="Amacron" unicode="&#x100;" horiz-adv-x="600" 
d="M-49 0l357 662h86l124 -662h-110l-29 169h-224l-88 -169h-116zM202 254h163l-27 178q-2 13 -5.5 39.5t-5.5 39.5h-2q-18 -45 -37 -83zM218 709l16 80h273l-17 -80h-272z" />
    <glyph glyph-name="amacron" unicode="&#x101;" horiz-adv-x="479" 
d="M125 -10q-58 0 -93 35.5t-35 91.5q0 79 54 125q64 53 199 55h59q4 17 4 39q0 34 -19.5 51t-64.5 17q-61 0 -138 -34l-14 77q84 38 171 38q71 0 120 -32t49 -109q0 -34 -17 -111l-11 -46q-16 -74 -16 -114q0 -31 8 -61l-89 -19q-12 37 -14 80q-64 -83 -153 -83zM154 73
q44 0 85 35t52 89l6 28h-33q-103 0 -140 -33q-27 -22 -27 -61q0 -58 57 -58zM136 570l17 80h273l-17 -80h-273z" />
    <glyph glyph-name="Abreve" unicode="&#x102;" horiz-adv-x="600" 
d="M-49 0l357 662h86l124 -662h-110l-29 169h-224l-88 -169h-116zM202 254h163l-27 178q-2 13 -5.5 39.5t-5.5 39.5h-2q-18 -45 -37 -83zM358 697q-60 0 -92.5 35.5t-27.5 97.5h72q-3 -67 55 -67q57 0 78 67h75q-14 -63 -56.5 -98t-103.5 -35z" />
    <glyph glyph-name="abreve" unicode="&#x103;" horiz-adv-x="479" 
d="M125 -10q-58 0 -93 35.5t-35 91.5q0 79 54 125q64 53 199 55h59q4 17 4 39q0 34 -19.5 51t-64.5 17q-61 0 -138 -34l-14 77q84 38 171 38q71 0 120 -32t49 -109q0 -34 -17 -111l-11 -46q-16 -74 -16 -114q0 -31 8 -61l-89 -19q-12 37 -14 80q-64 -83 -153 -83zM154 73
q44 0 85 35t52 89l6 28h-33q-103 0 -140 -33q-27 -22 -27 -61q0 -58 57 -58zM268 542q-60 0 -92.5 36t-27.5 97h72q-3 -66 55 -66t78 66h75q-13 -63 -56 -98t-104 -35z" />
    <glyph glyph-name="Aogonek" unicode="&#x104;" horiz-adv-x="600" 
d="M-49 0l357 662h86l123 -662q-55 -19 -97.5 -52.5t-42.5 -67.5q0 -30 33 -30q18 0 38 7l7 -60q-35 -11 -75 -11q-45 0 -67.5 20t-22.5 54q0 85 117 146l-28 163h-224l-88 -169h-116zM202 254h163l-27 178q-2 13 -5.5 39.5t-5.5 39.5h-2q-18 -45 -37 -83z" />
    <glyph glyph-name="aogonek" unicode="&#x105;" horiz-adv-x="479" 
d="M125 -10q-58 0 -93 35.5t-35 91.5q0 79 54 125q64 53 199 55h59q4 17 4 39q0 34 -19.5 51t-64.5 17q-61 0 -138 -34l-14 77q84 38 171 38q71 0 120 -32t49 -109q0 -34 -17 -111l-11 -46q-16 -74 -16 -117q0 -35 8 -65q-55 -24 -95.5 -58t-40.5 -67q0 -30 34 -30
q17 0 38 7l6 -60q-35 -11 -74 -11q-45 0 -68 20t-23 54q0 87 129 150q-9 41 -9 63q-64 -83 -153 -83zM154 73q44 0 85 35t52 89l6 28h-33q-103 0 -140 -33q-27 -22 -27 -61q0 -58 57 -58z" />
    <glyph glyph-name="Cacute" unicode="&#x106;" horiz-adv-x="603" 
d="M330 -10q-133 0 -208.5 74.5t-75.5 201.5q0 175 111 287t277 112q91 0 166 -33l-21 -90q-68 34 -144 34q-124 0 -201 -87.5t-77 -211.5q0 -89 48 -143.5t136 -54.5q81 0 157 38l20 -85q-84 -42 -188 -42zM350 696l76 147h115l-112 -147h-79z" />
    <glyph glyph-name="cacute" unicode="&#x107;" horiz-adv-x="441" 
d="M224 -10q-98 0 -152.5 55.5t-54.5 146.5q0 123 77 208t201 85q67 0 124 -25l-19 -85q-52 26 -103 26q-73 0 -124.5 -56.5t-51.5 -143.5q0 -59 29.5 -93t86.5 -34q58 0 116 34l28 -74q-28 -18 -72.5 -31t-84.5 -13zM233 531l76 147h115l-112 -147h-79z" />
    <glyph glyph-name="Ccircumflex" unicode="&#x108;" horiz-adv-x="603" 
d="M330 -10q-133 0 -208.5 74.5t-75.5 201.5q0 175 111 287t277 112q91 0 166 -33l-21 -90q-68 34 -144 34q-124 0 -201 -87.5t-77 -211.5q0 -89 48 -143.5t136 -54.5q81 0 157 38l20 -85q-84 -42 -188 -42zM262 696l119 147h83l83 -147h-81l-49 87l-70 -87h-85z" />
    <glyph glyph-name="ccircumflex" unicode="&#x109;" horiz-adv-x="441" 
d="M224 -10q-98 0 -152.5 55.5t-54.5 146.5q0 123 77 208t201 85q67 0 124 -25l-19 -85q-52 26 -103 26q-73 0 -124.5 -56.5t-51.5 -143.5q0 -59 29.5 -93t86.5 -34q58 0 116 34l28 -74q-28 -18 -72.5 -31t-84.5 -13zM142 531l119 147h83l83 -147h-81l-49 87l-70 -87h-85z
" />
    <glyph glyph-name="Cdotaccent" unicode="&#x10a;" horiz-adv-x="603" 
d="M330 -10q-133 0 -208.5 74.5t-75.5 201.5q0 175 111 287t277 112q91 0 166 -33l-21 -90q-68 34 -144 34q-124 0 -201 -87.5t-77 -211.5q0 -89 48 -143.5t136 -54.5q81 0 157 38l20 -85q-84 -42 -188 -42zM406 702q-27 0 -43 16t-16 41q0 32 21.5 51.5t49.5 19.5
q27 0 43.5 -16t16.5 -40q0 -32 -21.5 -52t-50.5 -20z" />
    <glyph glyph-name="cdotaccent" unicode="&#x10b;" horiz-adv-x="441" 
d="M224 -10q-98 0 -152.5 55.5t-54.5 146.5q0 123 77 208t201 85q67 0 124 -25l-19 -85q-52 26 -103 26q-73 0 -124.5 -56.5t-51.5 -143.5q0 -59 29.5 -93t86.5 -34q58 0 116 34l28 -74q-28 -18 -72.5 -31t-84.5 -13zM295 560q-27 0 -43.5 16t-16.5 41q0 32 21.5 51.5
t49.5 19.5q27 0 43.5 -16t16.5 -40q0 -32 -21.5 -52t-49.5 -20z" />
    <glyph glyph-name="Ccaron" unicode="&#x10c;" horiz-adv-x="603" 
d="M330 -10q-133 0 -208.5 74.5t-75.5 201.5q0 175 111 287t277 112q91 0 166 -33l-21 -90q-68 34 -144 34q-124 0 -201 -87.5t-77 -211.5q0 -89 48 -143.5t136 -54.5q81 0 157 38l20 -85q-84 -42 -188 -42zM365 696l-83 147h80l49 -87l71 87h85l-120 -147h-82z" />
    <glyph glyph-name="ccaron" unicode="&#x10d;" horiz-adv-x="441" 
d="M224 -10q-98 0 -152.5 55.5t-54.5 146.5q0 123 77 208t201 85q67 0 124 -25l-19 -85q-52 26 -103 26q-73 0 -124.5 -56.5t-51.5 -143.5q0 -59 29.5 -93t86.5 -34q58 0 116 34l28 -74q-28 -18 -72.5 -31t-84.5 -13zM245 531l-83 147h80l49 -87l71 87h85l-120 -147h-82z
" />
    <glyph glyph-name="Dcaron" unicode="&#x10e;" horiz-adv-x="658" 
d="M8 0l141 659h130q113 0 191 -34q142 -64 142 -238q0 -122 -59 -214.5t-166 -136.5q-89 -36 -202 -36h-177zM132 86h61q84 0 148 28q76 34 118 107t42 172q0 116 -92 157q-51 23 -131 23h-42zM310 696l-83 147h80l49 -87l71 87h85l-120 -147h-82z" />
    <glyph glyph-name="dcaron" unicode="&#x10f;" horiz-adv-x="513" 
d="M235 -10q-99 0 -158.5 57t-59.5 154q0 127 79 205.5t195 78.5q51 0 97 -14l51 237h103l-148 -684q-75 -34 -159 -34zM240 77q38 0 65 12l64 297q-36 12 -70 12q-77 0 -127.5 -53t-50.5 -139q0 -59 31 -94t88 -35zM577 503l-37 66q73 29 73 90q0 24 -11 49h90
q12 -22 12 -52q0 -105 -127 -153z" />
    <glyph glyph-name="Dcroat" unicode="&#x110;" horiz-adv-x="658" 
d="M8 0l62 290h-77l19 86h77l60 283h130q113 0 191 -34q142 -64 142 -241q0 -118 -59.5 -211t-165.5 -137q-89 -36 -202 -36h-177zM132 86h61q84 0 148 28q76 34 118 106.5t42 171.5q0 117 -92 158q-51 23 -131 23h-42l-43 -197h153l-18 -86h-153z" />
    <glyph glyph-name="dcroat" unicode="&#x111;" horiz-adv-x="513" 
d="M235 -10q-99 0 -158.5 57t-59.5 154q0 127 79 205.5t195 78.5q51 0 97 -14l17 85h-138l18 78h138l16 74h103l-16 -74h58l-17 -78h-59l-114 -532q-75 -34 -159 -34zM240 77q38 0 65 12l64 297q-36 12 -70 12q-77 0 -127.5 -53t-50.5 -139q0 -59 31 -94t88 -35z" />
    <glyph glyph-name="Emacron" unicode="&#x112;" horiz-adv-x="480" 
d="M8 0l141 659h333l-31 -86h-215l-42 -193h212l-19 -86h-211l-44 -208h240l-18 -86h-346zM180 709l16 80h273l-17 -80h-272z" />
    <glyph glyph-name="emacron" unicode="&#x113;" horiz-adv-x="478" 
d="M221 -10q-95 0 -149.5 55t-54.5 148q0 124 72 208t182 84q80 0 122.5 -43t42.5 -114q0 -50 -22 -114l-295 -4q-1 -7 -1 -20q0 -56 31 -86.5t81 -30.5q61 0 129 35l29 -74q-76 -44 -167 -44zM131 284l197 2q7 22 7 44q0 32 -18 53t-55 21q-46 0 -82.5 -34.5t-48.5 -85.5z
M151 570l17 80h273l-17 -80h-273z" />
    <glyph glyph-name="Ebreve" unicode="&#x114;" horiz-adv-x="482" 
d="M8 0l141 659h333l-31 -86h-215l-42 -193h212l-19 -86h-211l-44 -208h240l-18 -86h-346zM320 697q-60 0 -92.5 35.5t-27.5 97.5h72q-3 -67 55 -67q57 0 78 67h75q-14 -63 -56.5 -98t-103.5 -35z" />
    <glyph glyph-name="ebreve" unicode="&#x115;" horiz-adv-x="478" 
d="M221 -10q-95 0 -149.5 55t-54.5 148q0 124 72 208t182 84q80 0 122.5 -43t42.5 -114q0 -50 -22 -114l-295 -4q-1 -7 -1 -20q0 -56 31 -86.5t81 -30.5q61 0 129 35l29 -74q-76 -44 -167 -44zM131 284l197 2q7 22 7 44q0 32 -18 53t-55 21q-46 0 -82.5 -34.5t-48.5 -85.5z
M282 542q-60 0 -92.5 36t-27.5 97h72q-3 -66 55 -66t78 66h75q-13 -63 -56 -98t-104 -35z" />
    <glyph glyph-name="Edotaccent" unicode="&#x116;" horiz-adv-x="482" 
d="M8 0l141 659h333l-31 -86h-215l-42 -193h212l-19 -86h-211l-44 -208h240l-18 -86h-346zM322 702q-27 0 -43 16t-16 41q0 32 21.5 51.5t49.5 19.5q27 0 43.5 -16t16.5 -40q0 -32 -21.5 -52t-50.5 -20z" />
    <glyph glyph-name="edotaccent" unicode="&#x117;" horiz-adv-x="478" 
d="M221 -10q-95 0 -149.5 55t-54.5 148q0 124 72 208t182 84q80 0 122.5 -43t42.5 -114q0 -50 -22 -114l-295 -4q-1 -7 -1 -20q0 -56 31 -86.5t81 -30.5q61 0 129 35l29 -74q-76 -44 -167 -44zM131 284l197 2q7 22 7 44q0 32 -18 53t-55 21q-46 0 -82.5 -34.5t-48.5 -85.5z
M286 560q-27 0 -43.5 16t-16.5 41q0 32 21.5 51.5t49.5 19.5q27 0 43.5 -16t16.5 -40q0 -32 -21.5 -52t-49.5 -20z" />
    <glyph glyph-name="Eogonek" unicode="&#x118;" horiz-adv-x="482" 
d="M8 0l141 659h333l-31 -86h-215l-42 -193h212l-19 -86h-211l-44 -208h240l-18 -86h-17q-134 -59 -134 -120q0 -30 34 -30q17 0 38 7l6 -60q-38 -11 -74 -11q-45 0 -68 20t-23 54q0 78 108 140h-216z" />
    <glyph glyph-name="eogonek" unicode="&#x119;" horiz-adv-x="478" 
d="M226 -214q-45 0 -68 20t-23 54q0 69 87 130v2q-22 0 -32 1q-80 8 -126.5 61t-46.5 138q0 124 71.5 208.5t182.5 84.5q80 0 122.5 -43t42.5 -114q0 -50 -22 -114l-295 -4q-1 -5 -1 -21q0 -55 31 -85.5t81 -30.5q61 0 129 35l28 -74q-63 -31 -114 -75t-51 -79q0 -30 34 -30
q17 0 38 7l6 -60q-35 -11 -74 -11zM131 284l197 2q7 22 7 44q0 32 -18 53t-55 21q-46 0 -82.5 -34.5t-48.5 -85.5z" />
    <glyph glyph-name="Ecaron" unicode="&#x11a;" horiz-adv-x="485" 
d="M8 0l141 659h333l-31 -86h-215l-42 -193h212l-19 -86h-211l-44 -208h240l-18 -86h-346zM278 696l-83 147h80l49 -87l71 87h85l-120 -147h-82z" />
    <glyph glyph-name="ecaron" unicode="&#x11b;" horiz-adv-x="478" 
d="M221 -10q-95 0 -149.5 55t-54.5 148q0 124 72 208t182 84q80 0 122.5 -43t42.5 -114q0 -50 -22 -114l-295 -4q-1 -7 -1 -20q0 -56 31 -86.5t81 -30.5q61 0 129 35l29 -74q-76 -44 -167 -44zM131 284l197 2q7 22 7 44q0 32 -18 53t-55 21q-46 0 -82.5 -34.5t-48.5 -85.5z
M242 531l-83 147h80l49 -87l71 87h85l-120 -147h-82z" />
    <glyph glyph-name="Gcircumflex" unicode="&#x11c;" horiz-adv-x="683" 
d="M338 -10q-136 0 -214 74t-78 205q0 104 46 193.5t138 146t212 56.5q111 0 198 -41l-20 -89q-77 42 -171 42q-134 0 -213 -87t-79 -209q0 -100 52 -151t137 -51q72 0 115 21l48 217h104l-61 -281q-88 -46 -214 -46zM281 696l119 147h83l83 -147h-81l-49 87l-70 -87h-85z
" />
    <glyph glyph-name="gcircumflex" unicode="&#x11d;" horiz-adv-x="500" 
d="M-27 -202l35 87q58 -32 119 -32q67 0 103 35t52 110l16 69h-2q-62 -77 -146 -77q-59 0 -96 41.5t-37 123.5q0 137 78 233.5t223 96.5q92 0 164 -29l-99 -461q-25 -116 -82 -174t-177 -58q-81 0 -151 35zM186 77q18 0 37.5 8.5t42 28t42 59.5t31.5 96l26 121q-24 8 -62 8
q-82 0 -132 -67.5t-50 -158.5q0 -95 65 -95zM173 531l119 147h83l83 -147h-81l-49 87l-70 -87h-85z" />
    <glyph glyph-name="Gbreve" unicode="&#x11e;" horiz-adv-x="683" 
d="M338 -10q-136 0 -214 74t-78 205q0 104 46 193.5t138 146t212 56.5q111 0 198 -41l-20 -89q-77 42 -171 42q-134 0 -213 -87t-79 -209q0 -100 52 -151t137 -51q72 0 115 21l48 217h104l-61 -281q-88 -46 -214 -46zM423 697q-60 0 -92.5 35.5t-27.5 97.5h72q-3 -67 55 -67
q57 0 78 67h75q-14 -63 -56.5 -98t-103.5 -35z" />
    <glyph glyph-name="gbreve" unicode="&#x11f;" horiz-adv-x="500" 
d="M-27 -202l35 87q58 -32 119 -32q67 0 103 35t52 110l16 69h-2q-62 -77 -146 -77q-59 0 -96 41.5t-37 123.5q0 137 78 233.5t223 96.5q92 0 164 -29l-99 -461q-25 -116 -82 -174t-177 -58q-81 0 -151 35zM186 77q18 0 37.5 8.5t42 28t42 59.5t31.5 96l26 121q-24 8 -62 8
q-82 0 -132 -67.5t-50 -158.5q0 -95 65 -95zM319 542q-60 0 -92.5 36t-27.5 97h72q-3 -66 55 -66t78 66h75q-13 -63 -56 -98t-104 -35z" />
    <glyph glyph-name="Gdotaccent" unicode="&#x120;" horiz-adv-x="683" 
d="M338 -10q-136 0 -214 74t-78 205q0 104 46 193.5t138 146t212 56.5q111 0 198 -41l-20 -89q-77 42 -171 42q-134 0 -213 -87t-79 -209q0 -100 52 -151t137 -51q72 0 115 21l48 217h104l-61 -281q-88 -46 -214 -46zM425 702q-27 0 -43 16t-16 41q0 32 21.5 51.5t49.5 19.5
q27 0 43.5 -16t16.5 -40q0 -32 -21.5 -52t-50.5 -20z" />
    <glyph glyph-name="gdotaccent" unicode="&#x121;" horiz-adv-x="500" 
d="M-27 -202l35 87q58 -32 119 -32q67 0 103 35t52 110l16 69h-2q-62 -77 -146 -77q-59 0 -96 41.5t-37 123.5q0 137 78 233.5t223 96.5q92 0 164 -29l-99 -461q-25 -116 -82 -174t-177 -58q-81 0 -151 35zM186 77q18 0 37.5 8.5t42 28t42 59.5t31.5 96l26 121q-24 8 -62 8
q-82 0 -132 -67.5t-50 -158.5q0 -95 65 -95zM321 560q-27 0 -43.5 16t-16.5 41q0 32 21.5 51.5t49.5 19.5q27 0 43.5 -16t16.5 -40q0 -32 -21.5 -52t-49.5 -20z" />
    <glyph glyph-name="Gcommaaccent" unicode="&#x122;" horiz-adv-x="683" 
d="M338 -10q-136 0 -214 74t-78 205q0 104 46 193.5t138 146t212 56.5q111 0 198 -41l-20 -89q-77 42 -171 42q-134 0 -213 -87t-79 -209q0 -100 52 -151t137 -51q72 0 115 21l48 217h104l-61 -281q-88 -46 -214 -46zM211 -237l-21 67q85 20 85 73q0 18 -10 45h93
q11 -24 11 -54q0 -108 -158 -131z" />
    <glyph glyph-name="gcommaaccent" unicode="&#x123;" horiz-adv-x="500" 
d="M259 531q-11 24 -11 50q0 113 160 135l21 -66q-87 -20 -87 -74q0 -18 10 -45h-93zM-27 -202l35 87q58 -32 119 -32q67 0 103 35t52 110l16 69h-2q-62 -77 -146 -77q-59 0 -96 42t-37 127q0 86 31.5 158t101.5 120t168 48q92 0 164 -29l-99 -461q-25 -116 -82 -174
t-177 -58q-81 0 -151 35zM186 77q18 0 37.5 8.5t42 28t42 59.5t31.5 96l26 121q-24 8 -62 8q-82 0 -132 -66.5t-50 -154.5q0 -100 65 -100z" />
    <glyph glyph-name="Hcircumflex" unicode="&#x124;" horiz-adv-x="687" 
d="M8 0l142 659h104l-60 -279h321l60 279h105l-142 -659h-105l62 290h-320l-62 -290h-105zM278 696l119 147h83l83 -147h-81l-49 87l-70 -87h-85z" />
    <glyph glyph-name="hcircumflex" unicode="&#x125;" horiz-adv-x="522" 
d="M0 0l153 708h103l-52 -239q-9 -43 -25 -89h2q31 46 76 75.5t97 29.5t82 -29.5t30 -88.5q0 -32 -13 -93l-59 -274h-103l58 269q10 45 10 70q0 55 -48 55q-62 0 -113 -72q-35 -48 -53 -130l-42 -192h-103zM63 726l119 147h83l83 -147h-81l-49 87l-70 -87h-85z" />
    <glyph glyph-name="Hbar" unicode="&#x126;" horiz-adv-x="687" 
d="M8 0l102 477h-69l18 81h69l22 101h104l-21 -101h320l22 101h105l-22 -101h71l-18 -81h-71l-102 -477h-105l62 290h-320l-62 -290h-105zM194 380h321l21 97h-321z" />
    <glyph glyph-name="hbar" unicode="&#x127;" horiz-adv-x="521" 
d="M0 0l118 550h-59l19 79h58l17 79h103l-17 -79h119l-19 -79h-118l-17 -81q-9 -43 -25 -89h2q31 46 76 75.5t97 29.5t82 -29.5t30 -88.5q0 -32 -13 -93l-59 -274h-103l58 269q10 45 10 70q0 55 -48 55q-25 0 -55 -17.5t-56 -50.5q-37 -50 -57 -138l-40 -188h-103z" />
    <glyph glyph-name="Itilde" unicode="&#x128;" horiz-adv-x="262" 
d="M8 0l141 659h105l-141 -659h-105zM59 722q4 56 30.5 85t63.5 29q31 0 69 -22.5t53 -22.5q26 0 32 39h71q-4 -56 -30 -85t-64 -29q-31 0 -69 22.5t-53 22.5q-25 0 -31 -39h-72z" />
    <glyph glyph-name="itilde" unicode="&#x129;" horiz-adv-x="232" 
d="M-4 0l102 473h103l-103 -473h-102zM8 549q4 57 30.5 85.5t63.5 28.5q31 0 69 -22.5t53 -22.5q26 0 32 39h71q-4 -56 -30 -85t-64 -29q-31 0 -69 23t-53 23q-25 0 -31 -40h-72z" />
    <glyph glyph-name="Imacron" unicode="&#x12a;" horiz-adv-x="262" 
d="M8 0l141 659h105l-141 -659h-105zM72 709l16 80h273l-17 -80h-272z" />
    <glyph glyph-name="imacron" unicode="&#x12b;" horiz-adv-x="232" 
d="M-4 0l102 473h103l-103 -473h-102zM28 570l17 80h273l-17 -80h-273z" />
    <glyph glyph-name="Ibreve" unicode="&#x12c;" horiz-adv-x="262" 
d="M8 0l141 659h105l-141 -659h-105zM212 697q-60 0 -92.5 35.5t-27.5 97.5h72q-3 -67 55 -67q57 0 78 67h75q-14 -63 -56.5 -98t-103.5 -35z" />
    <glyph glyph-name="ibreve" unicode="&#x12d;" horiz-adv-x="232" 
d="M-4 0l102 473h103l-103 -473h-102zM162 542q-60 0 -92.5 36t-27.5 97h72q-3 -66 55 -66t78 66h75q-13 -63 -56 -98t-104 -35z" />
    <glyph glyph-name="Iogonek" unicode="&#x12e;" horiz-adv-x="262" 
d="M9 7l140 652h105l-141 -659q-44 -26 -72.5 -58.5t-28.5 -61.5q0 -30 34 -30q17 0 37 7l7 -60q-39 -11 -74 -11q-46 0 -68.5 20t-22.5 55q0 72 84 146z" />
    <glyph glyph-name="iogonek" unicode="&#x12f;" horiz-adv-x="232" 
d="M3 -214q-46 0 -68.5 20t-22.5 55q0 73 85 146l100 466h103l-102 -473q-99 -64 -99 -120q0 -30 34 -30q17 0 38 7l6 -60q-38 -11 -74 -11zM172 560q-27 0 -43 16t-16 41q0 32 21 51.5t49 19.5t44.5 -16.5t16.5 -40.5q0 -31 -21.5 -51t-50.5 -20z" />
    <glyph glyph-name="Idotaccent" unicode="&#x130;" horiz-adv-x="262" 
d="M8 0l141 659h105l-141 -659h-105zM217 702q-27 0 -43 16t-16 41q0 32 21.5 51.5t49.5 19.5q27 0 43.5 -16t16.5 -40q0 -32 -21.5 -52t-50.5 -20z" />
    <glyph glyph-name="dotlessi" unicode="&#x131;" horiz-adv-x="232" 
d="M-4 0l102 473h103l-103 -473h-102z" />
    <glyph glyph-name="IJ" unicode="&#x132;" horiz-adv-x="559" 
d="M8 0l141 659h105l-141 -659h-105zM111 -165l31 82q27 -12 64 -12q55 0 79 43q15 28 24 75l137 636h105l-140 -654q-17 -74 -40 -112q-51 -77 -161 -77q-53 0 -99 19z" />
    <glyph glyph-name="ij" unicode="&#x133;" horiz-adv-x="472" 
d="M-5 0l102 473h103l-102 -473h-103zM172 560q-27 0 -43 16t-16 41q0 32 21 51.5t50 19.5q27 0 43.5 -16t16.5 -40q0 -32 -21.5 -52t-50.5 -20zM59 -221l31 84q23 -10 49 -10q37 0 56 22.5t29 70.5l113 527h103l-121 -562q-33 -148 -174 -148q-49 0 -86 16zM413 560
q-27 0 -43.5 16t-16.5 41q0 32 21.5 51.5t49.5 19.5q27 0 43.5 -16t16.5 -40q0 -32 -21.5 -52t-49.5 -20z" />
    <glyph glyph-name="Jcircumflex" unicode="&#x134;" horiz-adv-x="303" 
d="M-145 -165l31 82q27 -12 64 -12q55 0 79 43q15 28 24 75l137 636h105l-140 -654q-17 -74 -40 -112q-51 -77 -161 -77q-53 0 -99 19zM99 696l119 147h83l83 -147h-81l-49 87l-70 -87h-85z" />
    <glyph glyph-name="jcircumflex" unicode="&#x135;" horiz-adv-x="263" 
d="M-151 -221l29 77q22 -9 50 -9q36 0 55.5 23.5t29.5 70.5l114 532h103l-121 -563q-33 -147 -174 -147q-49 0 -86 16zM39 531l119 147h83l83 -147h-81l-49 87l-70 -87h-85z" />
    <glyph glyph-name="Kcommaaccent" unicode="&#x136;" horiz-adv-x="581" 
d="M8 0l141 659h105l-63 -297h2l280 297h128l-327 -339l217 -320h-129l-187 282h-2l-60 -282h-105zM123 -237l-21 67q85 20 85 73q0 18 -10 45h93q11 -24 11 -54q0 -108 -158 -131z" />
    <glyph glyph-name="kcommaaccent" unicode="&#x137;" horiz-adv-x="469" 
d="M0 0l153 708h103l-88 -406h2l191 171h125l-239 -213l159 -260h-117l-135 227h-2l-49 -227h-103zM83 -237l-21 67q85 20 85 73q0 18 -10 45h93q11 -24 11 -54q0 -108 -158 -131z" />
    <glyph glyph-name="Lacute" unicode="&#x139;" horiz-adv-x="442" 
d="M8 0l141 659h105l-122 -573h235l-20 -86h-339zM168 696l76 147h115l-112 -147h-79z" />
    <glyph glyph-name="lacute" unicode="&#x13a;" horiz-adv-x="283" 
d="M163 732l65 127h110l-96 -127h-79zM128 -7q-46 0 -74 24.5t-28 69.5q0 19 7 53l122 568h103l-122 -565q-4 -19 -4 -32q0 -27 29 -27q18 0 38 7v-84q-32 -14 -71 -14z" />
    <glyph glyph-name="Lcommaaccent" unicode="&#x13b;" horiz-adv-x="442" 
d="M8 0l141 659h105l-122 -573h235l-20 -86h-339zM63 -237l-21 67q85 20 85 73q0 18 -10 45h93q11 -24 11 -54q0 -108 -158 -131z" />
    <glyph glyph-name="lcommaaccent" unicode="&#x13c;" horiz-adv-x="283" 
d="M129 -7q-46 0 -74 24.5t-28 69.5q0 19 7 53l122 568h103l-122 -565q-4 -19 -4 -32q0 -27 29 -27q18 0 38 7v-84q-32 -14 -71 -14zM-24 -237l-21 67q85 20 85 73q0 18 -10 45h93q11 -24 11 -54q0 -108 -158 -131z" />
    <glyph glyph-name="Lcaron" unicode="&#x13d;" horiz-adv-x="442" 
d="M8 0l141 659h105l-122 -573h235l-20 -86h-339zM337 503l-37 66q73 29 73 90q0 24 -11 49h90q12 -22 12 -52q0 -105 -127 -153z" />
    <glyph glyph-name="lcaron" unicode="&#x13e;" horiz-adv-x="283" 
d="M128 -7q-46 0 -74 24.5t-28 69.5q0 19 7 53l122 568h103l-122 -565q-4 -19 -4 -32q0 -27 29 -27q18 0 38 7v-84q-32 -14 -71 -14zM290 503l-37 66q73 29 73 90q0 24 -11 49h90q12 -22 12 -52q0 -105 -127 -153z" />
    <glyph glyph-name="Ldot" unicode="&#x13f;" horiz-adv-x="442" 
d="M8 0l141 659h105l-122 -573h235l-20 -86h-339zM340 276q-23 0 -38.5 16.5t-15.5 39.5q0 29 18.5 49t46.5 20q24 0 39.5 -16.5t15.5 -40.5q0 -28 -19.5 -48t-46.5 -20z" />
    <glyph glyph-name="ldot" unicode="&#x140;" horiz-adv-x="304" 
d="M128 -7q-46 0 -74 24.5t-28 69.5q0 19 7 53l122 568h103l-122 -565q-4 -19 -4 -32q0 -27 29 -27q18 0 38 7v-84q-32 -14 -71 -14zM252 189q-23 0 -38.5 16.5t-15.5 39.5q0 29 18.5 49t46.5 20q24 0 39.5 -16.5t15.5 -40.5q0 -28 -19.5 -48t-46.5 -20z" />
    <glyph glyph-name="Lslash" unicode="&#x141;" horiz-adv-x="447" 
d="M13 0l50 230l-63 -34l22 98l63 34l70 331h105l-57 -270l155 83l-22 -99l-155 -82l-44 -205h236l-20 -86h-340z" />
    <glyph glyph-name="lslash" unicode="&#x142;" horiz-adv-x="292" 
d="M137 -7q-46 0 -74 24.5t-28 69.5q0 19 7 53l26 128l-59 -31l22 100l60 30l73 341h103l-60 -280l67 35l-22 -100l-68 -36l-39 -184q-4 -19 -4 -32q0 -27 29 -27q18 0 38 7v-84q-32 -14 -71 -14z" />
    <glyph glyph-name="Nacute" unicode="&#x143;" horiz-adv-x="721" 
d="M8 0l141 659h99l256 -489h2q14 73 18 91l84 398h105l-141 -659h-89l-264 501h-1q-9 -55 -16 -86l-89 -415h-105zM388 696l76 147h115l-112 -147h-79z" />
    <glyph glyph-name="nacute" unicode="&#x144;" horiz-adv-x="514" 
d="M-5 0l102 473h82l-9 -93h2q32 45 78.5 75t97.5 30q52 0 82.5 -29.5t30.5 -88.5q0 -32 -13 -93l-59 -274h-103l58 269q10 45 10 70q0 55 -48 55q-62 0 -112 -67q-37 -49 -55 -135l-41 -192h-103zM249 531l76 147h115l-112 -147h-79z" />
    <glyph glyph-name="Ncommaaccent" unicode="&#x145;" horiz-adv-x="721" 
d="M8 0l141 659h99l256 -489h2q14 73 18 91l84 398h105l-141 -659h-89l-264 501h-1q-9 -55 -16 -86l-89 -415h-105zM191 -237l-21 67q85 20 85 73q0 18 -10 45h93q11 -24 11 -54q0 -108 -158 -131z" />
    <glyph glyph-name="ncommaaccent" unicode="&#x146;" horiz-adv-x="514" 
d="M-5 0l102 473h82l-9 -93h2q32 45 78.5 75t97.5 30q52 0 82.5 -29.5t30.5 -88.5q0 -32 -13 -93l-59 -274h-103l58 269q10 45 10 70q0 55 -48 55q-62 0 -112 -67q-37 -49 -55 -135l-41 -192h-103zM80 -237l-21 67q85 20 85 73q0 18 -10 45h93q11 -24 11 -54
q0 -108 -158 -131z" />
    <glyph glyph-name="Ncaron" unicode="&#x147;" horiz-adv-x="721" 
d="M8 0l141 659h99l256 -489h2q14 73 18 91l84 398h105l-141 -659h-89l-264 501h-1q-9 -55 -16 -86l-89 -415h-105zM396 696l-83 147h80l49 -87l71 87h85l-120 -147h-82z" />
    <glyph glyph-name="ncaron" unicode="&#x148;" horiz-adv-x="514" 
d="M-5 0l102 473h82l-9 -93h2q32 45 78.5 75t97.5 30q52 0 82.5 -29.5t30.5 -88.5q0 -32 -13 -93l-59 -274h-103l58 269q10 45 10 70q0 55 -48 55q-62 0 -112 -67q-37 -49 -55 -135l-41 -192h-103zM252 531l-83 147h80l49 -87l71 87h85l-120 -147h-82z" />
    <glyph glyph-name="Eng" unicode="&#x14a;" horiz-adv-x="721" 
d="M8 0l141 659h99l256 -489h2q14 73 18 91l84 398h105l-153 -711q-31 -147 -181 -147q-52 0 -90 17l29 83q26 -12 55 -12q38 0 58 22t33 80l7 31l-252 479h-1q-9 -55 -16 -86l-89 -415h-105z" />
    <glyph glyph-name="eng" unicode="&#x14b;" horiz-adv-x="516" 
d="M-5 0l102 473h82l-9 -93h2q32 45 78.5 75t97.5 30q52 0 82.5 -29.5t30.5 -88.5q0 -32 -13 -93l-69 -321q-33 -148 -174 -148q-48 0 -85 16l31 84q23 -10 48 -10q37 0 56 22.5t29 70.5l60 281q10 45 10 70q0 55 -48 55q-62 0 -114 -71q-34 -46 -53 -131l-41 -192h-103z
" />
    <glyph glyph-name="Omacron" unicode="&#x14c;" horiz-adv-x="728" 
d="M316 -10q-125 0 -197.5 70.5t-72.5 199.5q0 109 44 200.5t129 148t193 56.5q126 0 198 -70t72 -199q0 -167 -102 -286.5t-264 -119.5zM323 79q74 0 132.5 46.5t87.5 116.5t29 147q0 89 -43 138t-124 49q-74 0 -132.5 -46t-87.5 -115.5t-29 -146.5q0 -90 43 -139.5
t124 -49.5zM286 709l16 80h273l-17 -80h-272z" />
    <glyph glyph-name="omacron" unicode="&#x14d;" horiz-adv-x="519" 
d="M17 187q0 127 75.5 212.5t184.5 85.5q93 0 143.5 -55t50.5 -141q0 -128 -76 -213.5t-185 -85.5q-92 0 -142.5 55.5t-50.5 141.5zM121 189q0 -115 92 -115q65 0 109 62t44 151q0 114 -92 114q-65 0 -109 -62.5t-44 -149.5zM163 570l17 80h273l-17 -80h-273z" />
    <glyph glyph-name="Obreve" unicode="&#x14e;" horiz-adv-x="728" 
d="M316 -10q-125 0 -197.5 70.5t-72.5 199.5q0 109 44 200.5t129 148t193 56.5q126 0 198 -70t72 -199q0 -167 -102 -286.5t-264 -119.5zM323 79q74 0 132.5 46.5t87.5 116.5t29 147q0 89 -43 138t-124 49q-74 0 -132.5 -46t-87.5 -115.5t-29 -146.5q0 -90 43 -139.5
t124 -49.5zM431 697q-60 0 -92.5 35.5t-27.5 97.5h72q-3 -67 55 -67q57 0 78 67h75q-14 -63 -56.5 -98t-103.5 -35z" />
    <glyph glyph-name="obreve" unicode="&#x14f;" horiz-adv-x="519" 
d="M17 187q0 127 75.5 212.5t184.5 85.5q93 0 143.5 -55t50.5 -141q0 -128 -76 -213.5t-185 -85.5q-92 0 -142.5 55.5t-50.5 141.5zM121 189q0 -115 92 -115q65 0 109 62t44 151q0 114 -92 114q-65 0 -109 -62.5t-44 -149.5zM293 542q-60 0 -92.5 36t-27.5 97h72
q-3 -66 55 -66t78 66h75q-13 -63 -56 -98t-104 -35z" />
    <glyph glyph-name="Ohungarumlaut" unicode="&#x150;" horiz-adv-x="728" 
d="M316 -10q-125 0 -197.5 70.5t-72.5 199.5q0 109 44 200.5t129 148t193 56.5q126 0 198 -70t72 -199q0 -167 -102 -286.5t-264 -119.5zM323 79q74 0 132.5 46.5t87.5 116.5t29 147q0 89 -43 138t-124 49q-74 0 -132.5 -46t-87.5 -115.5t-29 -146.5q0 -90 43 -139.5
t124 -49.5zM302 696l76 147h116l-113 -147h-79zM474 696l76 147h116l-113 -147h-79z" />
    <glyph glyph-name="ohungarumlaut" unicode="&#x151;" horiz-adv-x="519" 
d="M17 187q0 127 75.5 212.5t184.5 85.5q93 0 143.5 -55t50.5 -141q0 -128 -76 -213.5t-185 -85.5q-92 0 -142.5 55.5t-50.5 141.5zM121 189q0 -115 92 -115q65 0 109 62t44 151q0 114 -92 114q-65 0 -109 -62.5t-44 -149.5zM171 531l76 147h116l-113 -147h-79zM343 531
l76 147h116l-113 -147h-79z" />
    <glyph glyph-name="OE" unicode="&#x152;" horiz-adv-x="868" 
d="M494 0q-28 0 -86 -5t-86 -5q-129 0 -202.5 74t-73.5 204q0 109 45 198t136 144t213 55q25 0 87 -3t91 -3h250l-30 -86h-216l-41 -193h211l-18 -86h-212l-44 -208h241l-19 -86h-246zM413 86l103 483q-32 8 -88 8q-127 0 -199 -90.5t-72 -217.5q0 -90 44.5 -140t133.5 -50
q39 0 78 7z" />
    <glyph glyph-name="oe" unicode="&#x153;" horiz-adv-x="822" 
d="M205 -10q-89 0 -138.5 55.5t-49.5 140.5q0 128 74.5 213.5t180.5 85.5q113 0 157 -97h2q30 45 79.5 71t106.5 26q78 0 120 -43t42 -114q0 -50 -22 -114l-295 -4q-1 -7 -1 -21q0 -55 31 -85.5t81 -30.5q61 0 129 35l29 -74q-76 -44 -168 -44q-60 0 -103.5 27t-62.5 75h-2
q-34 -48 -84.5 -75t-105.5 -27zM213 74q66 0 109.5 61t43.5 149q0 117 -92 117q-64 0 -108.5 -63t-44.5 -151q0 -53 23.5 -83t68.5 -30zM474 284l197 2q7 22 7 44q0 32 -18 53t-57 21q-45 0 -81.5 -34.5t-47.5 -85.5z" />
    <glyph glyph-name="Racute" unicode="&#x154;" horiz-adv-x="555" 
d="M8 0l141 659h142q109 0 162 -47.5t53 -121.5q0 -81 -47.5 -131t-127.5 -67v-2q13 -20 43 -84l92 -206h-114l-70 169q-35 78 -48 97h-64l-57 -266h-105zM188 352h52q73 0 116 33.5t43 94.5q0 93 -115 93h-48zM263 696l76 147h115l-112 -147h-79z" />
    <glyph glyph-name="racute" unicode="&#x155;" horiz-adv-x="345" 
d="M-5 0l102 473h82l-9 -93h2q51 105 132 105q35 0 63 -21l-44 -86q-21 12 -44 12q-42 0 -80.5 -50t-60.5 -154l-39 -186h-104zM188 531l76 147h115l-112 -147h-79z" />
    <glyph glyph-name="Rcommaaccent" unicode="&#x156;" horiz-adv-x="555" 
d="M8 0l141 659h142q109 0 162 -47.5t53 -121.5q0 -81 -47.5 -131t-127.5 -67v-2q13 -20 43 -84l92 -206h-114l-70 169q-35 78 -48 97h-64l-57 -266h-105zM188 352h52q73 0 116 33.5t43 94.5q0 93 -115 93h-48zM116 -237l-21 67q85 20 85 73q0 18 -10 45h93q11 -24 11 -54
q0 -108 -158 -131z" />
    <glyph glyph-name="rcommaaccent" unicode="&#x157;" horiz-adv-x="345" 
d="M-6 0l102 473h82l-9 -93h2q51 105 132 105q35 0 63 -21l-44 -86q-21 12 -44 12q-42 0 -80.5 -50t-60.5 -154l-39 -186h-104zM-56 -237l-21 67q85 20 85 73q0 18 -10 45h93q11 -24 11 -54q0 -108 -158 -131z" />
    <glyph glyph-name="Rcaron" unicode="&#x158;" horiz-adv-x="555" 
d="M8 0l141 659h142q109 0 162 -47.5t53 -121.5q0 -81 -47.5 -131t-127.5 -67v-2q13 -20 43 -84l92 -206h-114l-70 169q-35 78 -48 97h-64l-57 -266h-105zM188 352h52q73 0 116 33.5t43 94.5q0 93 -115 93h-48zM274 696l-83 147h80l49 -87l71 87h85l-120 -147h-82z" />
    <glyph glyph-name="rcaron" unicode="&#x159;" horiz-adv-x="345" 
d="M-5 0l102 473h82l-9 -93h2q51 105 132 105q35 0 63 -21l-44 -86q-21 12 -44 12q-42 0 -80.5 -50t-60.5 -154l-39 -186h-104zM192 531l-83 147h80l49 -87l71 87h85l-120 -147h-82z" />
    <glyph glyph-name="Sacute" unicode="&#x15a;" horiz-adv-x="496" 
d="M-1 36l42 83q64 -40 134 -40q53 0 90 24t37 76q0 36 -22 64.5t-53 49t-62.5 43t-53.5 58.5t-22 83q0 83 59 135.5t159 52.5q86 0 156 -34l-19 -90q-63 36 -136 36q-48 0 -78.5 -23t-30.5 -62q0 -32 22 -58t53.5 -47t62.5 -45t53 -62.5t22 -88.5q0 -98 -66.5 -149.5
t-169.5 -51.5q-96 0 -177 46zM264 696l76 147h115l-112 -147h-79z" />
    <glyph glyph-name="sacute" unicode="&#x15b;" horiz-adv-x="370" 
d="M-30 31l34 77q56 -35 115 -35q35 0 58.5 14.5t23.5 42.5q0 21 -16 38.5t-39.5 32.5t-46.5 32.5t-39 46t-16 65.5q0 60 43.5 100t123.5 40q73 0 130 -23l-16 -83q-63 24 -108 24q-30 0 -49.5 -13.5t-19.5 -40.5q0 -21 16 -39t39 -33t46.5 -32.5t39.5 -46t16 -65.5
q0 -68 -50.5 -105.5t-129.5 -37.5q-87 0 -155 41zM177 531l76 147h115l-112 -147h-79z" />
    <glyph glyph-name="Scircumflex" unicode="&#x15c;" horiz-adv-x="496" 
d="M-1 36l42 83q64 -40 134 -40q53 0 90 24t37 76q0 36 -22 64.5t-53 49t-62.5 43t-53.5 58.5t-22 83q0 83 59 135.5t159 52.5q86 0 156 -34l-19 -90q-63 36 -136 36q-48 0 -78.5 -23t-30.5 -62q0 -32 22 -58t53.5 -47t62.5 -45t53 -62.5t22 -88.5q0 -98 -66.5 -149.5
t-169.5 -51.5q-96 0 -177 46zM165 696l119 147h83l83 -147h-81l-49 87l-70 -87h-85z" />
    <glyph glyph-name="scircumflex" unicode="&#x15d;" horiz-adv-x="370" 
d="M-30 31l34 77q56 -35 115 -35q35 0 58.5 14.5t23.5 42.5q0 21 -16 38.5t-39.5 32.5t-46.5 32.5t-39 46t-16 65.5q0 60 43.5 100t123.5 40q73 0 130 -23l-16 -83q-63 24 -108 24q-30 0 -49.5 -13.5t-19.5 -40.5q0 -21 16 -39t39 -33t46.5 -32.5t39.5 -46t16 -65.5
q0 -68 -50.5 -105.5t-129.5 -37.5q-87 0 -155 41zM82 531l119 147h83l83 -147h-81l-49 87l-70 -87h-85z" />
    <glyph glyph-name="Scedilla" unicode="&#x15e;" horiz-adv-x="496" 
d="M45 -198l23 49q20 -10 47 -10q25 0 41 10t16 29q0 33 -76 31l39 82q-76 7 -136 43l42 83q64 -40 134 -40q53 0 90 24t37 76q0 36 -22 64.5t-53 49t-62.5 43t-53.5 58.5t-22 83q0 83 59 135.5t159 52.5q86 0 156 -34l-19 -90q-63 36 -136 36q-48 0 -78.5 -23t-30.5 -62
q0 -32 22 -58t53.5 -47t62.5 -45t53 -62.5t22 -88.5q0 -89 -56 -140t-146 -59l-20 -43q34 -2 53 -19t19 -46q0 -46 -38.5 -71t-100.5 -25q-42 0 -78 14z" />
    <glyph glyph-name="scedilla" unicode="&#x15f;" horiz-adv-x="370" 
d="M-18 -198l23 49q20 -10 47 -10q25 0 41 10t16 29q0 33 -77 31l41 84q-57 7 -103 36l34 77q56 -35 115 -35q35 0 58.5 14.5t23.5 42.5q0 20 -16 37.5t-39.5 32.5t-46.5 33t-39 46.5t-16 65.5q0 60 43.5 100t123.5 40q73 0 130 -23l-16 -83q-63 24 -108 24
q-30 0 -49.5 -13.5t-19.5 -40.5q0 -21 16 -39t39 -33t46.5 -32.5t39.5 -46t16 -65.5q0 -63 -44 -99.5t-115 -41.5l-20 -43q72 -5 72 -65q0 -46 -38.5 -71t-100.5 -25q-41 0 -77 14z" />
    <glyph glyph-name="Scaron" unicode="&#x160;" horiz-adv-x="496" 
d="M-1 36l42 83q64 -40 134 -40q53 0 90 24t37 76q0 36 -22 64.5t-53 49t-62.5 43t-53.5 58.5t-22 83q0 83 59 135.5t159 52.5q86 0 156 -34l-19 -90q-63 36 -136 36q-48 0 -78.5 -23t-30.5 -62q0 -32 22 -58t53.5 -47t62.5 -45t53 -62.5t22 -88.5q0 -98 -66.5 -149.5
t-169.5 -51.5q-96 0 -177 46zM268 696l-83 147h80l49 -87l71 87h85l-120 -147h-82z" />
    <glyph glyph-name="scaron" unicode="&#x161;" horiz-adv-x="370" 
d="M-30 31l34 77q56 -35 115 -35q35 0 58.5 14.5t23.5 42.5q0 21 -16 38.5t-39.5 32.5t-46.5 32.5t-39 46t-16 65.5q0 60 43.5 100t123.5 40q73 0 130 -23l-16 -83q-63 24 -108 24q-30 0 -49.5 -13.5t-19.5 -40.5q0 -21 16 -39t39 -33t46.5 -32.5t39.5 -46t16 -65.5
q0 -68 -50.5 -105.5t-129.5 -37.5q-87 0 -155 41zM185 531l-83 147h80l49 -87l71 87h85l-120 -147h-82z" />
    <glyph glyph-name="Tcommaaccent" unicode="&#x162;" horiz-adv-x="502" 
d="M127 0l122 573h-194l19 86h494l-35 -86h-179l-122 -573h-105zM70 -237l-21 67q85 20 85 73q0 18 -10 45h93q11 -24 11 -54q0 -108 -158 -131z" />
    <glyph glyph-name="Tcommaaccent" unicode="&#x21a;" horiz-adv-x="502" 
d="M127 0l122 573h-194l19 86h494l-35 -86h-179l-122 -573h-105zM70 -237l-21 67q85 20 85 73q0 18 -10 45h93q11 -24 11 -54q0 -108 -158 -131z" />
    <glyph glyph-name="tcommaaccent" unicode="&#x163;" horiz-adv-x="355" 
d="M157 -10q-118 0 -118 101q0 28 8 61l51 239h-81l19 82h80l24 108l109 29l-30 -137h128l-33 -82h-113l-54 -249q-3 -16 -3 -30q0 -38 39 -38q32 0 80 25l25 -74q-64 -35 -131 -35zM20 -237l-21 67q85 20 85 73q0 18 -10 45h93q11 -24 11 -54q0 -108 -158 -131z" />
    <glyph glyph-name="tcommaaccent" unicode="&#x21b;" horiz-adv-x="355" 
d="M157 -10q-118 0 -118 101q0 28 8 61l51 239h-81l19 82h80l24 108l109 29l-30 -137h128l-33 -82h-113l-54 -249q-3 -16 -3 -30q0 -38 39 -38q32 0 80 25l25 -74q-64 -35 -131 -35zM20 -237l-21 67q85 20 85 73q0 18 -10 45h93q11 -24 11 -54q0 -108 -158 -131z" />
    <glyph glyph-name="Tcaron" unicode="&#x164;" horiz-adv-x="502" 
d="M127 0l122 573h-194l19 86h494l-35 -86h-179l-122 -573h-105zM287 696l-83 147h80l49 -87l71 87h85l-120 -147h-82z" />
    <glyph glyph-name="tcaron" unicode="&#x165;" horiz-adv-x="355" 
d="M164 -10q-118 0 -118 101q0 28 8 61l51 239h-81l19 82h80l24 108l109 29l-30 -137h128l-33 -82h-113l-54 -249q-3 -16 -3 -30q0 -38 39 -38q32 0 80 25l25 -74q-64 -35 -131 -35zM321 503l-37 66q73 29 73 90q0 24 -11 49h90q12 -22 12 -52q0 -105 -127 -153z" />
    <glyph glyph-name="Tbar" unicode="&#x166;" horiz-adv-x="502" 
d="M127 0l57 271h-117l19 87h117l46 215h-194l19 86h494l-35 -86h-179l-46 -215h120l-19 -87h-120l-57 -271h-105z" />
    <glyph glyph-name="tbar" unicode="&#x167;" horiz-adv-x="355" 
d="M164 -10q-118 0 -118 101q0 26 7 58l13 65h-77l18 80h77l21 97h-81l19 82h80l24 109l108 26l-29 -135h128l-33 -82h-113l-21 -97h95l-19 -80h-93l-15 -68q-4 -20 -4 -34q0 -38 39 -38q32 0 80 25l25 -74q-64 -35 -131 -35z" />
    <glyph glyph-name="Utilde" unicode="&#x168;" horiz-adv-x="669" 
d="M277 -10q-105 0 -163 52t-58 145q0 34 10 79l84 393h105l-83 -384q-9 -40 -9 -73q0 -62 33.5 -93t94.5 -31q78 0 123 45q38 39 54 115l90 421h105l-92 -429q-24 -117 -85 -172q-74 -68 -209 -68zM265 722q4 56 30.5 85t63.5 29q31 0 69 -22.5t53 -22.5q26 0 32 39h71
q-4 -56 -30 -85t-64 -29q-31 0 -69 22.5t-53 22.5q-25 0 -31 -39h-72z" />
    <glyph glyph-name="utilde" unicode="&#x169;" horiz-adv-x="515" 
d="M145 -10q-52 0 -85.5 31t-33.5 92q0 36 13 96l56 264h103l-59 -276q-8 -32 -8 -59q0 -59 50 -59t90.5 43.5t56.5 113.5l51 237h103l-62 -286q-15 -75 -15 -113q0 -32 8 -62l-89 -19q-13 39 -13 89h-2q-30 -41 -73.5 -66.5t-90.5 -25.5zM153 549q4 57 30.5 85.5t63.5 28.5
q31 0 69 -22.5t53 -22.5q26 0 32 39h71q-4 -56 -30 -85t-64 -29q-31 0 -69 23t-53 23q-25 0 -31 -40h-72z" />
    <glyph glyph-name="Umacron" unicode="&#x16a;" horiz-adv-x="669" 
d="M277 -10q-105 0 -163 52t-58 145q0 34 10 79l84 393h105l-83 -384q-9 -40 -9 -73q0 -62 33.5 -93t94.5 -31q78 0 123 45q38 39 54 115l90 421h105l-92 -429q-24 -117 -85 -172q-74 -68 -209 -68zM279 709l16 80h273l-17 -80h-272z" />
    <glyph glyph-name="umacron" unicode="&#x16b;" horiz-adv-x="515" 
d="M145 -10q-52 0 -85.5 31t-33.5 92q0 36 13 96l56 264h103l-59 -276q-8 -32 -8 -59q0 -59 50 -59t90.5 43.5t56.5 113.5l51 237h103l-62 -286q-15 -75 -15 -113q0 -32 8 -62l-89 -19q-13 39 -13 89h-2q-30 -41 -73.5 -66.5t-90.5 -25.5zM167 570l17 80h273l-17 -80h-273z
" />
    <glyph glyph-name="Ubreve" unicode="&#x16c;" horiz-adv-x="669" 
d="M277 -10q-105 0 -163 52t-58 145q0 34 10 79l84 393h105l-83 -384q-9 -40 -9 -73q0 -62 33.5 -93t94.5 -31q78 0 123 45q38 39 54 115l90 421h105l-92 -429q-24 -117 -85 -172q-74 -68 -209 -68zM411 697q-60 0 -92.5 35.5t-27.5 97.5h72q-3 -67 55 -67q57 0 78 67h75
q-14 -63 -56.5 -98t-103.5 -35z" />
    <glyph glyph-name="ubreve" unicode="&#x16d;" horiz-adv-x="515" 
d="M145 -10q-52 0 -85.5 31t-33.5 92q0 36 13 96l56 264h103l-59 -276q-8 -32 -8 -59q0 -59 50 -59t90.5 43.5t56.5 113.5l51 237h103l-62 -286q-15 -75 -15 -113q0 -32 8 -62l-89 -19q-13 39 -13 89h-2q-30 -41 -73.5 -66.5t-90.5 -25.5zM300 542q-60 0 -92.5 36t-27.5 97
h72q-3 -66 55 -66t78 66h75q-13 -63 -56 -98t-104 -35z" />
    <glyph glyph-name="Uring" unicode="&#x16e;" horiz-adv-x="669" 
d="M277 -10q-105 0 -163 52t-58 145q0 34 10 79l84 393h105l-83 -384q-9 -40 -9 -73q0 -62 33.5 -93t94.5 -31q78 0 123 45q38 39 54 115l90 421h105l-92 -429q-24 -117 -85 -172q-74 -68 -209 -68zM407 648q-46 0 -74 22.5t-28 60.5q0 49 35.5 79.5t88.5 30.5
q46 0 73.5 -22t27.5 -61q0 -49 -35 -79.5t-88 -30.5zM411 696q23 0 37 17t14 41q0 18 -10.5 28.5t-27.5 10.5q-22 0 -36 -17t-14 -42q0 -17 10 -27.5t27 -10.5z" />
    <glyph glyph-name="uring" unicode="&#x16f;" horiz-adv-x="515" 
d="M145 -10q-52 0 -85.5 31t-33.5 92q0 36 13 96l56 264h103l-59 -276q-8 -32 -8 -59q0 -59 50 -59t90.5 43.5t56.5 113.5l51 237h103l-62 -286q-15 -75 -15 -113q0 -32 8 -62l-89 -19q-13 39 -13 89h-2q-30 -41 -73.5 -66.5t-90.5 -25.5zM296 523q-46 0 -73.5 22t-27.5 61
q0 49 35 79.5t88 30.5q46 0 74 -22t28 -61q0 -49 -35.5 -79.5t-88.5 -30.5zM301 571q22 0 36 17t14 42q0 17 -10 27.5t-27 10.5q-22 0 -36 -17t-14 -42q0 -17 10 -27.5t27 -10.5z" />
    <glyph glyph-name="Uhungarumlaut" unicode="&#x170;" horiz-adv-x="669" 
d="M277 -10q-105 0 -163 52t-58 145q0 34 10 79l84 393h105l-83 -384q-9 -40 -9 -73q0 -62 33.5 -93t94.5 -31q78 0 123 45q38 39 54 115l90 421h105l-92 -429q-24 -117 -85 -172q-74 -68 -209 -68zM282 696l76 147h116l-113 -147h-79zM454 696l76 147h116l-113 -147h-79z
" />
    <glyph glyph-name="uhungarumlaut" unicode="&#x171;" horiz-adv-x="515" 
d="M145 -10q-52 0 -85.5 31t-33.5 92q0 36 13 96l56 264h103l-59 -276q-8 -32 -8 -59q0 -59 50 -59t90.5 43.5t56.5 113.5l51 237h103l-62 -286q-15 -75 -15 -113q0 -32 8 -62l-89 -19q-13 39 -13 89h-2q-30 -41 -73.5 -66.5t-90.5 -25.5zM170 531l76 147h116l-113 -147h-79
zM342 531l76 147h116l-113 -147h-79z" />
    <glyph glyph-name="Uogonek" unicode="&#x172;" horiz-adv-x="669" 
d="M321 -203q-38 -11 -74 -11q-45 0 -68 20t-23 54q0 74 92 130v2q-91 7 -141.5 57.5t-50.5 137.5q0 34 10 79l84 393h105l-83 -384q-9 -40 -9 -73q0 -62 33.5 -93t93.5 -31q144 0 178 160l90 421h105l-92 -429q-20 -95 -63.5 -148.5t-115.5 -77.5q-57 -18 -103 -53.5
t-46 -70.5q0 -30 34 -30q17 0 38 7z" />
    <glyph glyph-name="uogonek" unicode="&#x173;" horiz-adv-x="515" 
d="M145 -10q-52 0 -85.5 31t-33.5 92q0 36 13 96l56 264h103l-59 -276q-8 -32 -8 -59q0 -59 50 -59t90.5 43.5t56.5 113.5l51 237h103l-62 -286q-15 -75 -15 -114q0 -37 8 -67q-57 -25 -97 -59t-40 -67q0 -30 34 -30q17 0 38 7l6 -60q-35 -11 -74 -11q-45 0 -68 20t-23 54
q0 86 130 152q-9 45 -8 70h-2q-30 -41 -73.5 -66.5t-90.5 -25.5z" />
    <glyph glyph-name="Wcircumflex" unicode="&#x174;" horiz-adv-x="862" 
d="M166 -4l-92 663h112l42 -358q9 -74 14 -149h2q27 69 61 135l130 260l-16 112h103l44 -359q11 -85 16 -148h2q23 67 56 137l170 370h114l-325 -663h-88l-38 273q-12 73 -17 131h-2q-28 -66 -62 -131l-139 -273h-87zM363 696l119 147h83l83 -147h-81l-49 87l-70 -87h-85z
" />
    <glyph glyph-name="wcircumflex" unicode="&#x175;" horiz-adv-x="690" 
d="M112 -3l-75 476h98l29 -211q9 -72 14 -126h2q19 45 50 111l111 226h70l26 -203q11 -75 15 -134h2q23 54 50 114l101 223h107l-242 -476h-77l-28 213q-8 60 -14 114h-2q-17 -40 -56 -117l-107 -210h-74zM240 531l119 147h83l83 -147h-81l-49 87l-70 -87h-85z" />
    <glyph glyph-name="Ycircumflex" unicode="&#x176;" horiz-adv-x="536" 
d="M166 0l54 257l-146 402h108l103 -305h2l195 305h117l-274 -408l-54 -251h-105zM195 696l119 147h83l83 -147h-81l-49 87l-70 -87h-85z" />
    <glyph glyph-name="ycircumflex" unicode="&#x177;" horiz-adv-x="470" 
d="M-123 -217l36 79q30 -15 61 -15q44 0 84.5 33.5t84.5 120.5l-109 472h102l47 -225q18 -90 27 -136h2q27 61 57 124l116 237h106l-251 -485q-65 -124 -125.5 -174.5t-148.5 -50.5q-56 0 -89 20zM123 531l119 147h83l83 -147h-81l-49 87l-70 -87h-85z" />
    <glyph glyph-name="Ydieresis" unicode="&#x178;" horiz-adv-x="536" 
d="M166 0l54 257l-146 402h108l103 -305h2l195 305h117l-274 -408l-54 -251h-105zM251 702q-22 0 -35 13t-13 34q0 27 17 45.5t41 18.5q22 0 35 -13t13 -34q0 -27 -17 -45.5t-41 -18.5zM436 702q-22 0 -35 13t-13 34q0 27 17 45.5t41 18.5q22 0 35 -13t13 -34
q0 -27 -17 -45.5t-41 -18.5z" />
    <glyph glyph-name="Zacute" unicode="&#x179;" horiz-adv-x="536" 
d="M-31 0l407 573h-273l-8 86h457l-403 -573h308l-20 -86h-468zM268 696l76 147h115l-112 -147h-79z" />
    <glyph glyph-name="zacute" unicode="&#x17a;" horiz-adv-x="402" 
d="M-41 0l266 391h-183l-8 82h359l-267 -391h211l-17 -82h-361zM173 531l76 147h115l-112 -147h-79z" />
    <glyph glyph-name="Zdotaccent" unicode="&#x17b;" horiz-adv-x="536" 
d="M-31 0l407 573h-273l-8 86h457l-403 -573h308l-20 -86h-468zM317 702q-27 0 -43 16t-16 41q0 32 21.5 51.5t49.5 19.5q27 0 43.5 -16t16.5 -40q0 -32 -21.5 -52t-50.5 -20z" />
    <glyph glyph-name="zdotaccent" unicode="&#x17c;" horiz-adv-x="402" 
d="M-41 0l266 391h-183l-8 82h359l-267 -391h211l-17 -82h-361zM231 560q-27 0 -43.5 16t-16.5 41q0 32 21.5 51.5t49.5 19.5q27 0 43.5 -16t16.5 -40q0 -32 -21.5 -52t-49.5 -20z" />
    <glyph glyph-name="Zcaron" unicode="&#x17d;" horiz-adv-x="536" 
d="M-31 0l407 573h-273l-8 86h457l-403 -573h308l-20 -86h-468zM276 696l-83 147h80l49 -87l71 87h85l-120 -147h-82z" />
    <glyph glyph-name="zcaron" unicode="&#x17e;" horiz-adv-x="402" 
d="M-41 0l266 391h-183l-8 82h359l-267 -391h211l-17 -82h-361zM185 531l-83 147h80l49 -87l71 87h85l-120 -147h-82z" />
    <glyph glyph-name="florin" unicode="&#x192;" horiz-adv-x="533" 
d="M-92 -140l37 83q29 -21 76 -21q39 0 66 25t42 88l61 271h-100l12 82h106l32 138q40 182 202 182q69 0 118 -30l-36 -83q-31 21 -77 21q-82 0 -107 -113l-26 -115h127l-29 -82h-117l-66 -294q-41 -182 -202 -182q-68 0 -119 30z" />
    <glyph glyph-name="Aringacute" unicode="&#x1fa;" horiz-adv-x="600" 
d="M-49 0l354 655q-55 19 -55 76q0 46 31 75.5t78 33.5l58 113h115l-98 -126q41 -23 41 -69q0 -39 -22 -66t-58 -36l123 -656h-110l-29 169h-224l-88 -169h-116zM202 254h163l-27 178q-2 13 -5.5 39.5t-5.5 39.5h-2q-18 -45 -37 -83zM356 696q22 0 36 17t14 41
q0 18 -10 28.5t-27 10.5q-22 0 -36 -17t-14 -42q0 -17 10 -27.5t27 -10.5z" />
    <glyph glyph-name="aringacute" unicode="&#x1fb;" horiz-adv-x="479" 
d="M271 516q-46 0 -74 22.5t-28 60.5q0 45 30 74.5t76 34.5l68 135h116l-112 -145q47 -21 47 -72q0 -49 -35 -79.5t-88 -30.5zM275 564q23 0 37 17t14 42q0 17 -10.5 27.5t-27.5 10.5q-22 0 -36 -17t-14 -42q0 -17 10 -27.5t27 -10.5zM125 -10q-58 0 -93 35.5t-35 91.5
q0 79 54 125q64 53 199 55h59q4 17 4 39q0 34 -19.5 51t-64.5 17q-61 0 -138 -34l-14 77q84 38 171 38q71 0 120 -32t49 -109q0 -34 -17 -111l-11 -46q-16 -74 -16 -114q0 -31 8 -61l-89 -19q-12 37 -14 80q-64 -83 -153 -83zM154 73q44 0 85 35t52 89l6 28h-33
q-103 0 -140 -33q-27 -22 -27 -61q0 -58 57 -58z" />
    <glyph glyph-name="AEacute" unicode="&#x1fc;" horiz-adv-x="814" 
d="M-66 0l479 659h361l-25 -86h-214l-26 -193h210l-12 -86h-210l-28 -208h240l-13 -86h-343l23 169h-200l-122 -169h-120zM239 254h149l38 267h-2q-70 -104 -78 -116zM486 696l76 147h115l-112 -147h-79z" />
    <glyph glyph-name="aeacute" unicode="&#x1fd;" horiz-adv-x="757" 
d="M133 -10q-60 0 -98 36.5t-38 94.5q0 85 68.5 125.5t185.5 41.5l57 1q4 21 4 45q0 35 -19 52.5t-65 17.5q-60 0 -137 -34l-14 77q84 38 165 38q113 0 144 -76h2q63 76 162 76q79 0 121.5 -43t42.5 -114q0 -60 -21 -109l-296 -4q0 -3 -0.5 -11t-0.5 -12q0 -56 31.5 -87.5
t81.5 -31.5q61 0 129 35l28 -74q-74 -44 -163 -44q-66 0 -110.5 29.5t-62.5 81.5h-2q-34 -54 -85.5 -82.5t-109.5 -28.5zM154 73q46 0 86.5 33t52.5 91l3 17h-41q-158 -2 -158 -83q0 -28 15 -43t42 -15zM410 289l197 3q7 17 7 38q0 32 -18 53t-57 21q-45 0 -81.5 -33
t-47.5 -82zM366 531l76 147h115l-112 -147h-79z" />
    <glyph glyph-name="Oslashacute" unicode="&#x1fe;" horiz-adv-x="729" 
d="M108 -33l-64 52l57 66q-55 72 -55 187q0 164 100.5 278.5t263.5 114.5q92 0 156 -43l58 66l64 -53l-59 -66q54 -73 54 -185q0 -164 -100.5 -279t-263.5 -115q-91 0 -154 43zM229 109q38 -30 100 -30q108 0 175.5 91.5t67.5 216.5q0 53 -18 92zM157 270q0 -60 18 -97
l328 372q-40 31 -102 31q-109 0 -176.5 -91t-67.5 -215zM378 696l76 147h115l-112 -147h-79z" />
    <glyph glyph-name="oslashacute" unicode="&#x1ff;" horiz-adv-x="519" 
d="M58 -26l-44 38l41 48q-38 51 -38 130q0 127 75.5 211t184.5 84q68 0 113 -31l40 46l43 -38l-41 -48q39 -55 39 -129q0 -127 -76 -211t-185 -84q-65 0 -112 31zM158 91q20 -18 55 -18q65 0 110 62t45 149q0 28 -6 48zM119 192q0 -28 6 -51l205 243q-21 18 -56 18
q-65 0 -110 -62t-45 -148zM250 531l76 147h115l-112 -147h-79z" />
    <glyph glyph-name="Scommaaccent" unicode="&#x218;" horiz-adv-x="496" 
d="M-1 36l42 83q64 -40 134 -40q53 0 90 24t37 76q0 36 -22 64.5t-53 49t-62.5 43t-53.5 58.5t-22 83q0 83 59 135.5t159 52.5q86 0 156 -34l-19 -90q-63 36 -136 36q-48 0 -78.5 -23t-30.5 -62q0 -32 22 -58t53.5 -47t62.5 -45t53 -62.5t22 -88.5q0 -98 -66.5 -149.5
t-169.5 -51.5q-96 0 -177 46zM61 -237l-21 67q85 20 85 73q0 18 -10 45h93q11 -24 11 -54q0 -108 -158 -131z" />
    <glyph glyph-name="scommaaccent" unicode="&#x219;" horiz-adv-x="370" 
d="M-30 31l34 77q56 -35 115 -35q35 0 58.5 14.5t23.5 42.5q0 21 -16 38.5t-39.5 32.5t-46.5 32.5t-39 46t-16 65.5q0 60 43.5 100t123.5 40q73 0 130 -23l-16 -83q-63 24 -108 24q-30 0 -49.5 -13.5t-19.5 -40.5q0 -21 16 -39t39 -33t46.5 -32.5t39.5 -46t16 -65.5
q0 -68 -50.5 -105.5t-129.5 -37.5q-87 0 -155 41zM3 -237l-21 67q85 20 85 73q0 18 -10 45h93q11 -24 11 -54q0 -108 -158 -131z" />
    <glyph glyph-name="circumflex" unicode="&#x2c6;" 
d="M45 531l119 147h83l83 -147h-81l-49 87l-70 -87h-85z" />
    <glyph glyph-name="circumflex" unicode="&#x302;" 
d="M45 531l119 147h83l83 -147h-81l-49 87l-70 -87h-85z" />
    <glyph glyph-name="caron" unicode="&#x2c7;" 
d="M148 531l-83 147h80l49 -87l71 87h85l-120 -147h-82z" />
    <glyph glyph-name="caron" unicode="&#x30c;" 
d="M148 531l-83 147h80l49 -87l71 87h85l-120 -147h-82z" />
    <glyph glyph-name="breve" unicode="&#x2d8;" 
d="M189 542q-60 0 -92.5 36t-27.5 97h72q-3 -66 55 -66t78 66h75q-13 -63 -56 -98t-104 -35z" />
    <glyph glyph-name="breve" unicode="&#x306;" 
d="M189 542q-60 0 -92.5 36t-27.5 97h72q-3 -66 55 -66t78 66h75q-13 -63 -56 -98t-104 -35z" />
    <glyph glyph-name="dotaccent" unicode="&#x2d9;" 
d="M194 560q-27 0 -43.5 16t-16.5 41q0 32 21.5 51.5t49.5 19.5q27 0 43.5 -16t16.5 -40q0 -32 -21.5 -52t-49.5 -20z" />
    <glyph glyph-name="dotaccent" unicode="&#x307;" 
d="M194 560q-27 0 -43.5 16t-16.5 41q0 32 21.5 51.5t49.5 19.5q27 0 43.5 -16t16.5 -40q0 -32 -21.5 -52t-49.5 -20z" />
    <glyph glyph-name="ring" unicode="&#x2da;" 
d="M189 523q-46 0 -73.5 22t-27.5 61q0 49 35 79.5t88 30.5q46 0 74 -22t28 -61q0 -49 -35.5 -79.5t-88.5 -30.5zM194 571q22 0 36 17t14 42q0 17 -10 27.5t-27 10.5q-22 0 -36 -17t-14 -42q0 -17 10 -27.5t27 -10.5z" />
    <glyph glyph-name="ring" unicode="&#x30a;" 
d="M189 523q-46 0 -73.5 22t-27.5 61q0 49 35 79.5t88 30.5q46 0 74 -22t28 -61q0 -49 -35.5 -79.5t-88.5 -30.5zM194 571q22 0 36 17t14 42q0 17 -10 27.5t-27 10.5q-22 0 -36 -17t-14 -42q0 -17 10 -27.5t27 -10.5z" />
    <glyph glyph-name="ogonek" unicode="&#x2db;" 
d="M168 -214q-45 0 -68 20t-23 54q0 85 130 153l91 -13q-134 -59 -134 -120q0 -30 34 -30q17 0 38 7l6 -60q-38 -11 -74 -11z" />
    <glyph glyph-name="ogonek" unicode="&#x328;" 
d="M168 -214q-45 0 -68 20t-23 54q0 85 130 153l91 -13q-134 -59 -134 -120q0 -30 34 -30q17 0 38 7l6 -60q-38 -11 -74 -11z" />
    <glyph glyph-name="tilde" unicode="&#x2dc;" 
d="M31 549q4 57 30.5 85.5t63.5 28.5q31 0 69 -22.5t53 -22.5q26 0 32 39h71q-4 -56 -30 -85t-64 -29q-31 0 -69 23t-53 23q-25 0 -31 -40h-72z" />
    <glyph glyph-name="tilde" unicode="&#x303;" 
d="M31 549q4 57 30.5 85.5t63.5 28.5q31 0 69 -22.5t53 -22.5q26 0 32 39h71q-4 -56 -30 -85t-64 -29q-31 0 -69 23t-53 23q-25 0 -31 -40h-72z" />
    <glyph glyph-name="hungarumlaut" unicode="&#x2dd;" 
d="M64 531l76 147h116l-113 -147h-79zM236 531l76 147h116l-113 -147h-79z" />
    <glyph glyph-name="hungarumlaut" unicode="&#x30b;" 
d="M64 531l76 147h116l-113 -147h-79zM236 531l76 147h116l-113 -147h-79z" />
    <glyph glyph-name="caronSlovak" unicode="&#x313;" 
d="M137 503l-37 66q73 29 73 90q0 24 -11 49h90q12 -22 12 -52q0 -105 -127 -153z" />
    <glyph glyph-name="caronSlovak" unicode="&#x315;" 
d="M137 503l-37 66q73 29 73 90q0 24 -11 49h90q12 -22 12 -52q0 -105 -127 -153z" />
    <glyph glyph-name="commaaccent" unicode="&#x326;" 
d="M119 -237l-21 67q85 20 85 73q0 18 -10 45h93q11 -24 11 -54q0 -108 -158 -131z" />
    <glyph glyph-name="commaaccent" unicode="&#xf6c3;" 
d="M119 -237l-21 67q85 20 85 73q0 18 -10 45h93q11 -24 11 -54q0 -108 -158 -131z" />
    <glyph glyph-name="Omega" unicode="&#x3a9;" horiz-adv-x="726" 
d="M-4 0l18 86h61q39 0 72 -6l1 2q-39 37 -66 95t-27 125q0 151 99.5 257t253.5 106q131 0 203 -71t72 -183q0 -192 -195 -330v-2q32 7 72 7h58l-18 -86h-250l15 70q206 137 206 332q0 77 -44.5 125.5t-125.5 48.5q-101 0 -169.5 -81t-68.5 -212q0 -60 24 -116t69 -97
l-14 -70h-246z" />
    <glyph glyph-name="Omega" unicode="&#x2126;" horiz-adv-x="726" 
d="M-4 0l18 86h61q39 0 72 -6l1 2q-39 37 -66 95t-27 125q0 151 99.5 257t253.5 106q131 0 203 -71t72 -183q0 -192 -195 -330v-2q32 7 72 7h58l-18 -86h-250l15 70q206 137 206 332q0 77 -44.5 125.5t-125.5 48.5q-101 0 -169.5 -81t-68.5 -212q0 -60 24 -116t69 -97
l-14 -70h-246z" />
    <glyph glyph-name="pi" unicode="&#x3c0;" horiz-adv-x="584" 
d="M34 0l84 391h-84l18 82h541l-33 -82h-87l-55 -260q-3 -14 -3 -22q0 -23 27 -23q15 0 29 5v-87q-31 -11 -71 -11q-93 0 -93 81q0 20 9 65l54 252h-149l-84 -391h-103z" />
    <glyph glyph-name="Wgrave" unicode="&#x1e80;" horiz-adv-x="862" 
d="M166 -4l-92 663h112l42 -358q9 -74 14 -149h2q27 69 61 135l130 260l-16 112h103l44 -359q11 -85 16 -148h2q23 67 56 137l170 370h114l-325 -663h-88l-38 273q-12 73 -17 131h-2q-28 -66 -62 -131l-139 -273h-87zM462 696l-85 147h115l49 -147h-79z" />
    <glyph glyph-name="wgrave" unicode="&#x1e81;" horiz-adv-x="690" 
d="M112 -3l-75 476h98l29 -211q9 -72 14 -126h2q19 45 50 111l111 226h70l26 -203q11 -75 15 -134h2q23 54 50 114l101 223h107l-242 -476h-77l-28 213q-8 60 -14 114h-2q-17 -40 -56 -117l-107 -210h-74zM360 531l-85 147h116l49 -147h-80z" />
    <glyph glyph-name="Wacute" unicode="&#x1e82;" horiz-adv-x="862" 
d="M166 -4l-92 663h112l42 -358q9 -74 14 -149h2q27 69 61 135l130 260l-16 112h103l44 -359q11 -85 16 -148h2q23 67 56 137l170 370h114l-325 -663h-88l-38 273q-12 73 -17 131h-2q-28 -66 -62 -131l-139 -273h-87zM451 696l76 147h115l-112 -147h-79z" />
    <glyph glyph-name="wacute" unicode="&#x1e83;" horiz-adv-x="690" 
d="M112 -3l-75 476h98l29 -211q9 -72 14 -126h2q19 45 50 111l111 226h70l26 -203q11 -75 15 -134h2q23 54 50 114l101 223h107l-242 -476h-77l-28 213q-8 60 -14 114h-2q-17 -40 -56 -117l-107 -210h-74zM334 531l76 147h115l-112 -147h-79z" />
    <glyph glyph-name="Wdieresis" unicode="&#x1e84;" horiz-adv-x="862" 
d="M166 -4l-92 663h112l42 -358q9 -74 14 -149h2q27 69 61 135l130 260l-16 112h103l44 -359q11 -85 16 -148h2q23 67 56 137l170 370h114l-325 -663h-88l-38 273q-12 73 -17 131h-2q-28 -66 -62 -131l-139 -273h-87zM413 702q-22 0 -35 13t-13 34q0 27 17 45.5t41 18.5
q22 0 35 -13t13 -34q0 -27 -17 -45.5t-41 -18.5zM598 702q-22 0 -35 13t-13 34q0 27 17 45.5t41 18.5q22 0 35 -13t13 -34q0 -27 -17 -45.5t-41 -18.5z" />
    <glyph glyph-name="wdieresis" unicode="&#x1e85;" horiz-adv-x="690" 
d="M112 -3l-75 476h98l29 -211q9 -72 14 -126h2q19 45 50 111l111 226h70l26 -203q11 -75 15 -134h2q23 54 50 114l101 223h107l-242 -476h-77l-28 213q-8 60 -14 114h-2q-17 -40 -56 -117l-107 -210h-74zM298 549q-22 0 -35 13t-13 34q0 28 17 46t42 18q21 0 34.5 -13
t13.5 -34q0 -27 -17.5 -45.5t-41.5 -18.5zM483 549q-22 0 -35 13t-13 34q0 28 17 46t42 18q21 0 34.5 -13t13.5 -34q0 -27 -17.5 -45.5t-41.5 -18.5z" />
    <glyph glyph-name="Ygrave" unicode="&#x1ef2;" horiz-adv-x="536" 
d="M166 0l54 257l-146 402h108l103 -305h2l195 305h117l-274 -408l-54 -251h-105zM295 696l-85 147h115l49 -147h-79z" />
    <glyph glyph-name="ygrave" unicode="&#x1ef3;" horiz-adv-x="470" 
d="M-123 -217l36 79q30 -15 61 -15q44 0 84.5 33.5t84.5 120.5l-109 472h102l47 -225q18 -90 27 -136h2q27 61 57 124l116 237h106l-251 -485q-65 -124 -125.5 -174.5t-148.5 -50.5q-56 0 -89 20zM228 531l-85 147h116l49 -147h-80z" />
    <glyph glyph-name="endash" unicode="&#x2013;" horiz-adv-x="450" 
d="M0 213v78h450v-78h-450z" />
    <glyph glyph-name="emdash" unicode="&#x2014;" horiz-adv-x="800" 
d="M0 213v78h800v-78h-800z" />
    <glyph glyph-name="quoteleft" unicode="&#x2018;" horiz-adv-x="213" 
d="M121 441q-13 42 -13 87q0 99 68 185l60 -22q-33 -66 -33 -133q0 -42 12 -89z" />
    <glyph glyph-name="quoteright" unicode="&#x2019;" horiz-adv-x="218" 
d="M119 455l-52 39q45 50 62 99t18 109h98q2 -153 -126 -247z" />
    <glyph glyph-name="quotesinglbase" unicode="&#x201a;" horiz-adv-x="259" 
d="M9 -141l-52 39q45 50 62 99t18 109h98q2 -153 -126 -247z" />
    <glyph glyph-name="quotedblleft" unicode="&#x201c;" horiz-adv-x="407" 
d="M121 441q-13 42 -13 87q0 99 68 185l60 -22q-33 -66 -33 -133q0 -42 12 -89zM314 441q-13 47 -13 87q0 98 69 185l60 -22q-34 -68 -34 -133q0 -36 12 -89z" />
    <glyph glyph-name="quotedblright" unicode="&#x201d;" horiz-adv-x="408" 
d="M119 455l-52 39q45 50 62 99t18 109h98q2 -153 -126 -247zM309 455l-51 39q44 50 61 99t18 109h98q3 -152 -126 -247z" />
    <glyph glyph-name="quotedblbase" unicode="&#x201e;" horiz-adv-x="450" 
d="M9 -136l-52 39q45 50 62 99t18 109h98q2 -153 -126 -247zM199 -136l-51 39q44 50 61 99t18 109h98q3 -152 -126 -247z" />
    <glyph glyph-name="dagger" unicode="&#x2020;" horiz-adv-x="492" 
d="M112 -48l28 135q21 101 46.5 200t27.5 109q-15 0 -73.5 -6.5t-83.5 -5.5l22 104q23 -1 78.5 -8t71.5 -8q5 22 12 79.5t12 80.5h104q-5 -24 -23 -81.5t-22 -78.5q13 1 72.5 8t84.5 6l-21 -104q-24 1 -78.5 7.5t-72.5 6.5q-5 -20 -19.5 -104t-31.5 -166l-36 -174h-98z" />
    <glyph glyph-name="daggerdbl" unicode="&#x2021;" horiz-adv-x="492" 
d="M110 -48q5 24 22.5 81.5t21.5 77.5q-12 -1 -72 -7.5t-85 -5.5l22 104q23 -1 78 -7t72 -7q3 11 8.5 45.5t11.5 61.5q5 25 14 58t11 43q-15 0 -73.5 -6.5t-83.5 -5.5l22 104q23 -1 78.5 -8t71.5 -8q5 23 12 81t11 79h104q-5 -24 -22.5 -81.5t-21.5 -78.5q13 1 72.5 8
t84.5 6l-22 -104q-24 1 -79 7t-71 7q-3 -13 -8.5 -46.5t-9.5 -55.5q-6 -29 -15.5 -63.5t-11.5 -42.5q14 0 73 6.5t84 5.5l-22 -104q-24 1 -79 7.5t-71 7.5q-6 -24 -13 -83t-10 -76h-104z" />
    <glyph glyph-name="bullet" unicode="&#x2022;" horiz-adv-x="322" 
d="M156 200q-48 0 -81 34.5t-33 82.5q0 50 32.5 84.5t81.5 34.5t81.5 -34.5t32.5 -84.5q0 -48 -33 -82.5t-81 -34.5z" />
    <glyph glyph-name="ellipsis" unicode="&#x2026;" horiz-adv-x="893" 
d="M91 -9q-23 0 -38.5 16.5t-15.5 39.5q0 29 19 49t46 20q24 0 39.5 -16.5t15.5 -40.5q0 -29 -19 -48.5t-47 -19.5zM385 -9q-23 0 -38.5 16.5t-15.5 39.5q0 29 18.5 49t46.5 20q24 0 39.5 -16.5t15.5 -40.5q0 -28 -19.5 -48t-46.5 -20zM680 -9q-23 0 -38.5 16.5t-15.5 39.5
q0 29 19 49t46 20q24 0 39.5 -16.5t15.5 -40.5q0 -29 -19 -48.5t-47 -19.5z" />
    <glyph glyph-name="perthousand" unicode="&#x2030;" horiz-adv-x="1233" 
d="M219 314q-64 0 -98 37t-34 100q0 92 49.5 153t133.5 61q64 0 98 -37t34 -100q0 -92 -49.5 -153t-133.5 -61zM226 379q43 0 67.5 47.5t24.5 101.5q0 72 -55 72q-43 0 -67.5 -47.5t-24.5 -101.5q0 -72 55 -72zM609 -10q-64 0 -98 37t-34 100q0 92 49.5 153t133.5 61
q64 0 98 -37t34 -100q0 -92 -49.5 -153t-133.5 -61zM616 55q43 0 67.5 47.5t24.5 101.5q0 72 -55 72q-43 0 -67.5 -47.5t-24.5 -101.5q0 -72 55 -72zM970 -10q-64 0 -98 37t-34 100q0 92 49.5 153t133.5 61q64 0 98 -37t34 -100q0 -92 -49.5 -153t-133.5 -61zM977 55
q43 0 67.5 47.5t24.5 101.5q0 72 -55 72q-43 0 -67.5 -47.5t-24.5 -101.5q0 -72 55 -72zM150 0l493 659h89l-493 -659h-89z" />
    <glyph glyph-name="guilsinglleft" unicode="&#x2039;" horiz-adv-x="327" 
d="M18 244l196 230l76 -52l-161 -183l106 -180l-83 -48z" />
    <glyph glyph-name="guilsinglright" unicode="&#x203a;" horiz-adv-x="327" 
d="M0 63l161 184l-104 179l82 48l135 -234l-198 -229z" />
    <glyph glyph-name="fraction" unicode="&#x2044;" horiz-adv-x="152" 
d="M-191 0l493 659h89l-493 -659h-89z" />
    <glyph glyph-name="fraction" unicode="&#x2215;" horiz-adv-x="152" 
d="M-191 0l493 659h89l-493 -659h-89z" />
    <glyph glyph-name="zerosuperior" unicode="&#x2070;" horiz-adv-x="381" 
d="M214 396q-64 0 -96.5 41.5t-32.5 110.5q0 107 49 177.5t129 70.5q64 0 96.5 -41.5t32.5 -110.5q0 -106 -49 -177t-129 -71zM217 465q39 0 63.5 59.5t24.5 122.5q0 80 -46 80q-38 0 -63 -59.5t-25 -122.5q0 -80 46 -80z" />
    <glyph glyph-name="foursuperior" unicode="&#x2074;" horiz-adv-x="381" 
d="M227 403l17 85h-160l-13 56l238 251h84l-53 -244h55l-13 -63h-56l-18 -85h-81zM258 550l8 35q17 72 25 101l-129 -137z" />
    <glyph glyph-name="fivesuperior" unicode="&#x2075;" horiz-adv-x="350" 
d="M50 419l26 64q43 -18 89 -18q40 0 64.5 16t24.5 47q0 32 -30 43q-17 7 -50 7h-67l44 210h237l-20 -71h-150l-17 -78h9q39 0 63 -9q68 -26 68 -95q0 -65 -48 -102t-130 -37q-63 0 -113 23z" />
    <glyph glyph-name="sixsuperior" unicode="&#x2076;" horiz-adv-x="367" 
d="M218 396q-62 0 -100.5 37.5t-38.5 108.5q0 108 63 181t160 73q50 0 88 -18l-24 -65q-31 14 -65 14q-43 0 -76.5 -28.5t-48.5 -71.5h2q33 23 75 23q49 0 81.5 -30.5t32.5 -80.5q0 -64 -42 -103.5t-107 -39.5zM220 464q28 0 45.5 18t17.5 47q0 23 -14 38.5t-39 15.5
q-28 0 -46 -16.5t-18 -45.5q0 -25 14 -41t40 -16z" />
    <glyph glyph-name="sevensuperior" unicode="&#x2077;" horiz-adv-x="314" 
d="M82 403q47 173 175 314h-163l-10 71h280v-44q-138 -155 -188 -341h-94z" />
    <glyph glyph-name="eightsuperior" unicode="&#x2078;" horiz-adv-x="381" 
d="M219 396q-64 0 -101.5 27.5t-37.5 75.5q0 38 22.5 65t59.5 41v1q-44 30 -44 80t40 80t104 30q62 0 97 -27.5t35 -72.5q0 -66 -72 -94v-1q57 -25 57 -85q0 -57 -45 -88.5t-115 -31.5zM223 465q27 0 48 13.5t21 39.5q0 35 -63 55q-63 -20 -63 -61q0 -23 16 -35t41 -12z
M249 631q59 16 59 58q0 19 -14 29.5t-35 10.5q-23 0 -39 -12.5t-16 -34.5q0 -17 12.5 -31t32.5 -20z" />
    <glyph glyph-name="ninesuperior" unicode="&#x2079;" horiz-adv-x="367" 
d="M65 414l24 65q28 -14 65 -14q95 0 124 94l-2 1q-31 -20 -74 -20q-50 0 -83 29.5t-33 82.5q0 65 41 104.5t104 39.5q65 0 104.5 -40t39.5 -113q0 -112 -57.5 -179.5t-160.5 -67.5q-56 0 -92 18zM286 629q2 16 2 24q0 38 -17 57t-42 19t-42 -18.5t-17 -48.5q0 -56 53 -56
q31 0 63 23z" />
    <glyph glyph-name="plussuperior" unicode="&#x207a;" horiz-adv-x="404" 
d="M193 434v129h-119v66h119v125h71v-125h119v-66h-119v-129h-71z" />
    <glyph glyph-name="minussuperior" unicode="&#x207b;" horiz-adv-x="404" 
d="M74 563v66h309v-66h-309z" />
    <glyph glyph-name="equalsuperior" unicode="&#x207c;" horiz-adv-x="404" 
d="M74 497v66h309v-66h-309zM74 629v66h309v-66h-309z" />
    <glyph glyph-name="parenleftsuperior" unicode="&#x207d;" horiz-adv-x="233" 
d="M142 356q-58 68 -58 178q0 175 154 301l45 -48q-118 -111 -118 -250q0 -89 35 -142z" />
    <glyph glyph-name="parenrightsuperior" unicode="&#x207e;" horiz-adv-x="233" 
d="M75 356l-45 48q118 111 118 250q0 87 -34 143l58 38q27 -31 42.5 -79.5t15.5 -97.5q0 -176 -155 -302z" />
    <glyph glyph-name="n.superior" unicode="&#x207f;" horiz-adv-x="360" 
d="M-8 270l72 332h65l-4 -55h1q52 64 117 64q37 0 60 -22t23 -64q0 -26 -8 -62l-41 -193h-82l43 199q4 21 4 39q0 31 -28 31q-30 0 -63.5 -33t-47.5 -100l-29 -136h-82z" />
    <glyph glyph-name="zeroinferior" unicode="&#x2080;" horiz-adv-x="381" 
d="M106 -187q-64 0 -96.5 41.5t-32.5 110.5q0 107 49 177.5t129 70.5q64 0 96.5 -41.5t32.5 -110.5q0 -106 -49 -177t-129 -71zM109 -118q39 0 63.5 59.5t24.5 122.5q0 80 -46 80q-38 0 -63 -59.5t-25 -122.5q0 -80 46 -80z" />
    <glyph glyph-name="oneinferior" unicode="&#x2081;" horiz-adv-x="321" 
d="M48 -180l64 299q-50 -25 -119 -37v73q74 14 149 57h74l-84 -392h-84z" />
    <glyph glyph-name="twoinferior" unicode="&#x2082;" horiz-adv-x="345" 
d="M-55 -180q8 56 35 99t59 67t63 42.5t51.5 37t20.5 39.5q0 36 -50 36q-47 0 -103 -28l-19 67q69 33 136 33q59 0 91.5 -27.5t32.5 -72.5q0 -41 -28 -74.5t-62 -51.5t-67.5 -43.5t-41.5 -51.5h172l-13 -72h-277z" />
    <glyph glyph-name="threeinferior" unicode="&#x2083;" horiz-adv-x="349" 
d="M-52 -164l27 64q42 -18 91 -18q40 0 61.5 15t21.5 42q0 46 -77 46h-54l11 63h40q47 1 72 16t25 41q0 38 -53 38q-43 0 -89 -18l-19 62q61 26 126 26q59 0 91 -26t32 -66q0 -75 -84 -101v-2q29 -5 48 -25.5t19 -52.5q0 -58 -45 -92.5t-127 -34.5q-66 0 -117 23z" />
    <glyph glyph-name="fourinferior" unicode="&#x2084;" horiz-adv-x="381" 
d="M119 -180l17 85h-160l-13 56l238 251h84l-53 -244h55l-13 -63h-56l-18 -85h-81zM150 -33l8 35q17 72 25 101l-129 -137z" />
    <glyph glyph-name="fiveinferior" unicode="&#x2085;" horiz-adv-x="350" 
d="M-57 -164l26 64q43 -18 89 -18q40 0 64.5 16t24.5 47q0 32 -30 43q-17 7 -50 7h-67l44 210h237l-20 -71h-150l-17 -78h9q39 0 63 -9q68 -26 68 -95q0 -65 -48 -102t-130 -37q-63 0 -113 23z" />
    <glyph glyph-name="sixinferior" unicode="&#x2086;" horiz-adv-x="367" 
d="M108 -187q-62 0 -100.5 37.5t-38.5 108.5q0 108 63 181t160 73q51 0 88 -18l-24 -65q-31 14 -65 14q-43 0 -76.5 -28.5t-48.5 -71.5h2q33 23 75 23q49 0 81.5 -30.5t32.5 -80.5q0 -64 -42 -103.5t-107 -39.5zM110 -119q28 0 45.5 18t17.5 47q0 23 -14 38.5t-39 15.5
q-28 0 -46 -16.5t-18 -45.5q0 -25 14 -41t40 -16z" />
    <glyph glyph-name="seveninferior" unicode="&#x2087;" horiz-adv-x="314" 
d="M-26 -180q47 173 175 314h-163l-10 71h280v-44q-138 -155 -188 -341h-94z" />
    <glyph glyph-name="eightinferior" unicode="&#x2088;" horiz-adv-x="381" 
d="M111 -187q-64 0 -101.5 27.5t-37.5 75.5q0 38 22.5 65t59.5 41v1q-44 30 -44 80t40 80t104 30q62 0 97 -27.5t35 -72.5q0 -66 -72 -94v-1q57 -25 57 -85q0 -57 -45 -88.5t-115 -31.5zM115 -118q27 0 48 13.5t21 39.5q0 35 -63 55q-63 -20 -63 -61q0 -23 16 -35t41 -12z
M141 48q59 16 59 58q0 19 -14 29.5t-35 10.5q-23 0 -39 -12.5t-16 -34.5q0 -17 12.5 -31t32.5 -20z" />
    <glyph glyph-name="nineinferior" unicode="&#x2089;" horiz-adv-x="367" 
d="M-43 -169l24 65q28 -14 65 -14q95 0 124 94l-2 1q-31 -20 -74 -20q-50 0 -83 29.5t-33 82.5q0 65 41 104.5t104 39.5q65 0 104.5 -40t39.5 -113q0 -112 -57.5 -179.5t-160.5 -67.5q-56 0 -92 18zM178 46q2 16 2 24q0 38 -17 57t-42 19t-42 -18.5t-17 -48.5q0 -56 53 -56
q31 0 63 23z" />
    <glyph glyph-name="plusinferior" unicode="&#x208a;" horiz-adv-x="404" 
d="M85 -149v129h-119v66h119v125h71v-125h119v-66h-119v-129h-71z" />
    <glyph glyph-name="minusinferior" unicode="&#x208b;" horiz-adv-x="404" 
d="M-34 -20v66h309v-66h-309z" />
    <glyph glyph-name="equalinferior" unicode="&#x208c;" horiz-adv-x="404" 
d="M-34 -86v66h309v-66h-309zM-34 46v66h309v-66h-309z" />
    <glyph glyph-name="parenleftinferior" unicode="&#x208d;" horiz-adv-x="233" 
d="M34 -227q-58 68 -58 178q0 175 154 301l45 -48q-118 -111 -118 -250q0 -89 35 -142z" />
    <glyph glyph-name="parenrightinferior" unicode="&#x208e;" horiz-adv-x="233" 
d="M-33 -227l-45 48q118 111 118 250q0 87 -34 143l58 38q27 -31 42.5 -79.5t15.5 -97.5q0 -176 -155 -302z" />
    <glyph glyph-name="Euro" unicode="&#x20ac;" horiz-adv-x="537" 
d="M23 211l8 68h62v5q0 44 8 92h-63l9 68h73q37 103 115.5 162t176.5 59q84 0 139 -34l-18 -90q-56 34 -114 34q-62 0 -109.5 -35t-74.5 -96h230l-22 -68h-231q-9 -47 -9 -84v-13h226l-22 -68h-198q18 -131 130 -131q59 0 120 35l21 -83q-65 -42 -154 -42q-99 0 -157 56.5
t-72 164.5h-74z" />
    <glyph glyph-name="litre" unicode="&#x2113;" horiz-adv-x="483" 
d="M223 -10q-71 0 -110 37.5t-39 107.5q0 15 3 33q-42 -13 -68 -19l-12 89q55 12 92 26l30 146q27 128 87.5 191.5t142.5 63.5q60 0 95 -33t35 -88q0 -98 -81.5 -189t-218.5 -150q-4 -30 -4 -43q0 -80 69 -80q54 0 120 45l37 -80q-88 -57 -178 -57zM202 315q75 40 124.5 103
t49.5 121q0 43 -36 43q-37 0 -69.5 -49t-52.5 -144z" />
    <glyph glyph-name="numero" unicode="&#x2116;" horiz-adv-x="1020" 
d="M8 0l141 659h98l153 -383q24 -64 31 -91h2q6 55 16 98l80 376h105l-142 -659h-88l-162 399q-18 47 -30 86h-2q-4 -49 -14 -94l-83 -391h-105zM608 135l13 64h317l-14 -64h-316zM798 263q-61 0 -98 36t-37 96q0 93 53 154.5t132 61.5q62 0 99 -36.5t37 -96.5
q0 -92 -53 -153.5t-133 -61.5zM802 332q46 0 74 42t28 96q0 72 -59 72q-46 0 -74.5 -42.5t-28.5 -96.5q0 -71 60 -71z" />
    <glyph glyph-name="published" unicode="&#x2117;" horiz-adv-x="773" 
d="M385 -10q-144 0 -238 96.5t-94 240.5t94 240.5t238 96.5t237.5 -96.5t93.5 -240.5t-93.5 -240.5t-237.5 -96.5zM385 45q116 0 192 79.5t76 202.5t-76 202.5t-192 79.5q-117 0 -193 -79.5t-76 -202.5t76 -202.5t193 -79.5zM347 131h-65v390h107q70 0 107.5 -34.5
t37.5 -94.5q0 -59 -37.5 -94t-108.5 -35h-41v-132zM347 321h44q77 0 77 70q0 72 -72 72h-49v-142z" />
    <glyph glyph-name="published" unicode="&#x24c5;" horiz-adv-x="773" 
d="M385 -10q-144 0 -238 96.5t-94 240.5t94 240.5t238 96.5t237.5 -96.5t93.5 -240.5t-93.5 -240.5t-237.5 -96.5zM385 45q116 0 192 79.5t76 202.5t-76 202.5t-192 79.5q-117 0 -193 -79.5t-76 -202.5t76 -202.5t193 -79.5zM347 131h-65v390h107q70 0 107.5 -34.5
t37.5 -94.5q0 -59 -37.5 -94t-108.5 -35h-41v-132zM347 321h44q77 0 77 70q0 72 -72 72h-49v-142z" />
    <glyph glyph-name="trademark" unicode="&#x2122;" horiz-adv-x="855" 
d="M180 264v326h-110v69h317l-18 -69h-105v-326h-84zM417 264v395h73l90 -130q30 -45 43 -70h3q18 34 41 68l89 132h77v-395h-84v192q0 44 3 76h-2q-13 -25 -35 -58l-71 -104h-39l-70 104q-22 33 -35 58h-2q3 -32 3 -76v-192h-84z" />
    <glyph glyph-name="estimated" unicode="&#x212e;" horiz-adv-x="754" 
d="M376 -10q-146 0 -248.5 84.5t-102.5 226.5q0 143 103 226.5t252 83.5q86 0 154.5 -28t110.5 -74.5t63.5 -104t19.5 -119.5h-556v-160q32 -46 88 -71.5t121 -25.5q134 0 209 91h90q-103 -129 -304 -129zM172 324h414v152q-68 97 -206 97q-139 0 -208 -97v-152z" />
    <glyph glyph-name="partialdiff" unicode="&#x2202;" horiz-adv-x="530" 
d="M203 -10q-86 0 -135 51.5t-47 136.5q2 114 73.5 183t173.5 69q64 0 119 -33h2v31q-4 80 -41.5 117t-94.5 37q-63 0 -130 -41l-36 72q86 52 176 52q102 0 166.5 -69t64.5 -196q0 -181 -81 -295.5t-210 -114.5zM214 74q65 0 110 65t59 169q-49 37 -106 37q-65 0 -107 -44.5
t-44 -110.5q-2 -52 21 -84t67 -32z" />
    <glyph glyph-name="Delta" unicode="&#x2206;" horiz-adv-x="608" 
d="M-42 0l354 662h86l126 -662h-566zM114 86h290l-57 330q-10 58 -14 96h-2q-15 -35 -45 -93z" />
    <glyph glyph-name="product" unicode="&#x220f;" horiz-adv-x="669" 
d="M6 -180l161 753h-88l19 86h634l-35 -86h-91l-161 -753h-105l161 753h-229l-161 -753h-105z" />
    <glyph glyph-name="summation" unicode="&#x2211;" horiz-adv-x="597" 
d="M-51 -181l336 435l-163 405h541l-41 -86h-346l131 -333l-260 -335h347l-19 -86h-526z" />
    <glyph glyph-name="minus" unicode="&#x2212;" horiz-adv-x="541" 
d="M17 208v86h472v-86h-472z" />
    <glyph glyph-name="radical" unicode="&#x221a;" horiz-adv-x="681" 
d="M209 -122l-52 423l-100 -28l-22 87l211 61l29 -273q7 -89 9 -150h2q22 56 60 138l329 691h113l-465 -949h-114z" />
    <glyph glyph-name="infinity" unicode="&#x221e;" horiz-adv-x="768" 
d="M201 97q-78 0 -124.5 50t-46.5 123q0 72 46.5 122.5t124.5 50.5q55 0 97.5 -28.5t84.5 -78.5q41 50 84 78.5t100 28.5q78 0 124.5 -50.5t46.5 -122.5q0 -73 -46.5 -123t-124.5 -50q-97 0 -184 106q-43 -50 -85 -78t-97 -28zM211 189q33 0 60.5 21t59.5 60
q-33 39 -60 59.5t-60 20.5q-34 0 -55.5 -22t-21.5 -58t21.5 -58.5t55.5 -22.5zM557 189q34 0 55.5 22.5t21.5 58.5t-21.5 58t-55.5 22q-33 0 -60 -20.5t-61 -59.5q33 -40 60.5 -60.5t60.5 -20.5z" />
    <glyph glyph-name="integral" unicode="&#x222b;" horiz-adv-x="323" 
d="M-159 -212l34 81q31 -17 62 -17q36 0 57 22.5t31 70.5l119 584q12 62 39 101q51 78 148 78q56 0 101 -26l-34 -80q-30 16 -61 16q-37 0 -58 -22t-31 -70l-119 -585q-12 -62 -38 -101q-52 -78 -148 -78q-57 0 -102 26z" />
    <glyph glyph-name="approxequal" unicode="&#x2248;" horiz-adv-x="541" 
d="M76 93l-51 65q69 69 144 69q39 0 107 -29.5t99 -29.5q42 0 89 43l52 -65q-69 -69 -144 -69q-38 0 -107 29.5t-99 29.5q-43 0 -90 -43zM76 290l-51 65q69 68 144 68q39 0 107 -29t99 -29q25 0 44 9.5t45 32.5l52 -64q-69 -69 -144 -69q-38 0 -107 29t-99 29q-42 0 -90 -42
z" />
    <glyph glyph-name="notequal" unicode="&#x2260;" horiz-adv-x="541" 
d="M98 17l47 95h-120v87h162l50 104h-212v86h254l44 90h103l-44 -90h115v-86h-157l-50 -104h207v-87h-249l-46 -95h-104z" />
    <glyph glyph-name="lessequal" unicode="&#x2264;" horiz-adv-x="541" 
d="M25 0v87h472v-87h-472zM46 278v90l424 148v-88l-321 -104v-2l321 -104v-88z" />
    <glyph glyph-name="greaterequal" unicode="&#x2265;" horiz-adv-x="540" 
d="M25 0v87h472v-87h-472zM51 130v88l322 104v2l-322 104v88l424 -148v-90z" />
    <glyph glyph-name="lozenge" unicode="&#x25ca;" horiz-adv-x="468" 
d="M127 0l-82 289l195 289h93l82 -289l-195 -289h-93zM184 82h2l144 214l-53 200h-2l-145 -214z" />
    <glyph glyph-name="fi.small" unicode="&#xe09c;" horiz-adv-x="638" 
d="M17 0l105 486h280l-27 -85h-168l-26 -122h166l-18 -79h-165l-44 -200h-103zM412 0l105 486h103l-105 -486h-103z" />
    <glyph glyph-name="fl.small" unicode="&#xe09d;" horiz-adv-x="763" 
d="M17 0l105 486h280l-27 -85h-168l-26 -122h166l-18 -79h-165l-44 -200h-103zM412 0l105 486h103l-87 -404h178l-18 -82h-281z" />
    <glyph glyph-name="ampersand.alt" unicode="&#xf030;" horiz-adv-x="734" 
d="M215 -10q-90 0 -144 46.5t-54 124.5q0 74 44 124t126 84q-42 76 -42 135q0 70 49 115.5t142 45.5q80 0 124 -36.5t44 -92.5q0 -66 -47.5 -112t-133.5 -84q58 -81 128 -161q69 66 118 159l78 -38q-51 -103 -133 -180q49 -43 96 -43q17 0 29 4l5 -79q-21 -7 -52 -7
q-75 0 -152 67q-107 -72 -225 -72zM228 74q71 0 147 49q-87 99 -144 178q-110 -47 -110 -130q0 -44 27 -70.5t80 -26.5zM279 406q124 51 124 124q0 24 -17 41.5t-52 17.5q-39 0 -62.5 -23.5t-23.5 -60.5q0 -42 31 -99z" />
    <glyph glyph-name="ampersand.smallalt" unicode="&#xf031;" horiz-adv-x="570" 
d="M169 -10q-72 0 -113.5 34.5t-41.5 93.5q0 104 125 156q-31 53 -31 96q0 53 41 88.5t112 35.5q62 0 98 -28.5t36 -72.5q0 -92 -132 -146q49 -65 84 -102q43 42 81 109l74 -32q-37 -72 -97 -129q31 -24 63 -24q16 0 25 3l6 -72q-20 -6 -44 -6q-60 0 -118 47
q-81 -51 -168 -51zM180 65q48 0 99 30q-69 80 -99 121q-75 -33 -75 -89q0 -27 20 -44.5t55 -17.5zM222 305q85 32 85 80q0 16 -12.5 26.5t-34.5 10.5q-28 0 -43.5 -15.5t-15.5 -38.5q0 -24 21 -63z" />
    <glyph glyph-name="CR" horiz-adv-x="175" 
 />
    <glyph glyph-name="fi.cap" horiz-adv-x="727" 
d="M8 0l141 659h333l-31 -86h-215l-42 -193h211l-18 -86h-211l-63 -294h-105zM473 0l141 659h105l-141 -659h-105z" />
    <glyph glyph-name="fl.cap" horiz-adv-x="892" 
d="M8 0l141 659h333l-31 -86h-215l-42 -193h211l-18 -86h-211l-63 -294h-105zM473 0l141 659h105l-122 -573h235l-20 -86h-339z" />
    <glyph glyph-name="germandbls.cap" horiz-adv-x="989" 
d="M-1 36l42 83q64 -40 134 -40q53 0 90 24t37 76q0 36 -22 64.5t-53 49t-62.5 43t-53.5 58.5t-22 83q0 83 59 135.5t159 52.5q86 0 156 -34l-19 -90q-63 36 -136 36q-48 0 -78.5 -23t-30.5 -62q0 -32 22 -58t53.5 -47t62.5 -45t53 -62.5t22 -88.5q0 -98 -66.5 -149.5
t-169.5 -51.5q-96 0 -177 46zM495 36l42 83q64 -40 134 -40q53 0 90 24t37 76q0 36 -22 64.5t-53 49t-62.5 43t-53.5 58.5t-22 83q0 83 59 135.5t159 52.5q86 0 156 -34l-19 -90q-63 36 -136 36q-48 0 -78.5 -23t-30.5 -62q0 -32 22 -58t53.5 -47t62.5 -45t53 -62.5
t22 -88.5q0 -98 -66.5 -149.5t-169.5 -51.5q-96 0 -177 46z" />
    <glyph glyph-name="A.small" horiz-adv-x="491" 
d="M-39 0l271 488h75l122 -488h-103l-24 108h-175l-57 -108h-109zM167 184h119l-19 94q-8 34 -14 74h-2q-16 -36 -34 -71z" />
    <glyph glyph-name="B.small" horiz-adv-x="472" 
d="M17 0l105 486h148q74 0 111 -32t37 -81q0 -38 -20 -69.5t-56 -47.5v-2q27 -8 46.5 -31.5t19.5 -55.5q0 -69 -58 -118t-159 -49h-174zM137 77h59q53 0 80.5 23t27.5 57q0 53 -75 53h-63zM181 282h53q36 0 58 22.5t22 51.5q0 53 -63 53h-43z" />
    <glyph glyph-name="C.small" horiz-adv-x="477" 
d="M251 -10q-99 0 -158 54t-59 148q0 131 81 216.5t206 85.5q66 0 127 -26l-20 -80q-48 25 -103 25q-77 0 -132 -58.5t-55 -153.5q0 -60 34 -95t93 -35t115 31l25 -76q-71 -36 -154 -36z" />
    <glyph glyph-name="D.small" horiz-adv-x="519" 
d="M17 0l105 486h129q109 0 173.5 -54t64.5 -153q0 -118 -81 -198.5t-235 -80.5h-156zM139 85h56q93 0 142 55t49 136q0 60 -37 92.5t-106 32.5h-36z" />
    <glyph glyph-name="E.small" horiz-adv-x="413" 
d="M17 0l105 486h280l-26 -81h-169l-25 -120h166l-18 -79h-165l-27 -125h189l-18 -81h-292z" />
    <glyph glyph-name="F.small" horiz-adv-x="395" 
d="M17 0l105 486h280l-27 -85h-168l-26 -122h166l-18 -79h-165l-44 -200h-103z" />
    <glyph glyph-name="G.small" horiz-adv-x="531" 
d="M258 -10q-105 0 -164.5 56t-59.5 152q0 77 32.5 143.5t100 109.5t157.5 43q80 0 152 -31l-21 -81q-60 31 -125 31q-79 0 -135 -57t-57 -149q-1 -62 33 -99t97 -37q33 0 60 11l33 154h103l-46 -214q-78 -32 -160 -32z" />
    <glyph glyph-name="H.small" horiz-adv-x="562" 
d="M17 0l105 486h103l-42 -197h217l42 197h103l-105 -486h-103l44 204h-217l-44 -204h-103z" />
    <glyph glyph-name="I.small" horiz-adv-x="243" 
d="M17 0l105 486h103l-105 -486h-103z" />
    <glyph glyph-name="J.small" horiz-adv-x="257" 
d="M-108 -116l27 79q24 -10 49 -10q35 0 51 22q12 18 18 48l100 463h103l-103 -478q-14 -62 -39 -91q-41 -47 -122 -47q-48 0 -84 14z" />
    <glyph glyph-name="K.small" horiz-adv-x="483" 
d="M17 0l105 486h103l-46 -212h2l188 212h114l-229 -249l165 -237h-113l-139 206h-2l-45 -206h-103z" />
    <glyph glyph-name="L.small" horiz-adv-x="367" 
d="M17 0l105 486h103l-87 -404h178l-18 -82h-281z" />
    <glyph glyph-name="M.small" horiz-adv-x="647" 
d="M17 0l105 486h84l75 -183q9 -20 32 -85h3q40 55 64 84l150 184h99l-105 -486h-103l45 207q14 65 25 106h-3q-18 -27 -56 -72l-112 -136h-46l-53 127q-23 51 -33 82h-2q-4 -28 -18 -88l-48 -226h-103z" />
    <glyph glyph-name="N.small" horiz-adv-x="575" 
d="M17 0l105 486h83l138 -247q14 -24 42 -80h2q7 44 18 93l50 234h103l-105 -486h-81l-134 244q-40 75 -47 89h-2q-7 -50 -18 -99l-51 -234h-103z" />
    <glyph glyph-name="O.small" horiz-adv-x="544" 
d="M231 -10q-90 0 -143.5 52.5t-53.5 139.5q0 133 78.5 222.5t200.5 89.5q91 0 144 -52.5t53 -140.5q0 -132 -78.5 -221.5t-200.5 -89.5zM240 71q71 0 119 66t48 158q0 54 -27.5 86t-75.5 32q-70 0 -118 -65.5t-48 -158.5q0 -54 27 -86t75 -32z" />
    <glyph glyph-name="P.small" horiz-adv-x="443" 
d="M17 0l105 486h122q81 0 125.5 -38.5t44.5 -101.5q0 -83 -60 -133.5t-175 -50.5h-24l-35 -162h-103zM172 242h31q54 0 83 27.5t29 71.5q0 28 -18.5 46.5t-56.5 18.5h-32z" />
    <glyph glyph-name="Q.small" horiz-adv-x="544" 
d="M158 1q-59 17 -91.5 65t-32.5 116q0 133 78.5 222.5t200.5 89.5q91 0 144 -52.5t53 -140.5q0 -119 -65 -204.5t-167 -101.5q37 -47 104 -47q33 0 59 10l21 -78q-34 -14 -86 -14q-68 0 -126 34.5t-92 100.5zM240 71q71 0 119 66t48 158q0 54 -27.5 86t-75.5 32
q-70 0 -118 -65.5t-48 -158.5q0 -54 27 -86t75 -32z" />
    <glyph glyph-name="R.small" horiz-adv-x="468" 
d="M17 0l105 486h129q89 0 131.5 -36t42.5 -92t-34 -96t-95 -57v-2q22 -26 57 -101l47 -102h-107l-39 88q-34 73 -52 91h-43l-39 -179h-103zM176 259h40q48 0 77.5 24t29.5 63q0 26 -19.5 43t-57.5 17h-38z" />
    <glyph glyph-name="S.small" horiz-adv-x="427" 
d="M6 29l33 76q60 -34 125 -34q39 0 62.5 16.5t23.5 48.5q0 27 -28.5 49.5t-62.5 38t-62.5 48.5t-28.5 80q0 64 48.5 103t124.5 39q75 0 145 -29l-21 -81q-58 30 -118 30q-33 0 -52.5 -15t-19.5 -41q0 -22 18.5 -40t45 -32t53.5 -30.5t45.5 -45.5t18.5 -67
q0 -76 -53.5 -114.5t-137.5 -38.5q-87 0 -159 39z" />
    <glyph glyph-name="T.small" horiz-adv-x="425" 
d="M110 0l87 404h-151l17 82h401l-28 -82h-136l-87 -404h-103z" />
    <glyph glyph-name="U.small" horiz-adv-x="550" 
d="M229 -10q-81 0 -132.5 36.5t-51.5 110.5q0 26 8 66l61 283h103l-63 -291q-5 -27 -5 -43q0 -38 23 -58t64 -20q72 0 107 51q18 27 30 83l60 278h103l-65 -296q-16 -75 -47 -116q-61 -84 -195 -84z" />
    <glyph glyph-name="V.small" horiz-adv-x="475" 
d="M165 -3l-109 489h100l44 -227q14 -69 21 -131h2q28 64 60 122l124 236h106l-271 -489h-77z" />
    <glyph glyph-name="W.small" horiz-adv-x="703" 
d="M140 -3l-84 489h100l38 -248q4 -23 12 -96h2q7 16 44 90l84 163l-16 91h91l42 -243q3 -16 15 -103h2q27 63 48 103l118 243h105l-255 -489h-80l-36 198l-10 70h-2q-12 -25 -35 -70l-103 -198h-80z" />
    <glyph glyph-name="X.small" horiz-adv-x="503" 
d="M-29 0l222 251l-134 235h106l93 -167l146 167h114l-216 -245l137 -241h-104l-99 173l-151 -173h-114z" />
    <glyph glyph-name="Y.small" horiz-adv-x="437" 
d="M118 0l41 192l-103 294h99l67 -212h2l144 212h107l-213 -297l-41 -189h-103z" />
    <glyph glyph-name="Z.small" horiz-adv-x="442" 
d="M-19 0l281 404h-200l-12 82h380l-281 -404h231l-18 -82h-381z" />
    <glyph glyph-name="Agrave.small" horiz-adv-x="491" 
d="M-39 0l271 488h75l122 -488h-103l-24 108h-175l-57 -108h-109zM167 184h119l-19 94q-8 34 -14 74h-2q-16 -36 -34 -71zM249 540l-85 147h116l49 -147h-80z" />
    <glyph glyph-name="Aacute.small" horiz-adv-x="491" 
d="M-39 0l271 488h75l122 -488h-103l-24 108h-175l-57 -108h-109zM167 184h119l-19 94q-8 34 -14 74h-2q-16 -36 -34 -71zM233 540l76 147h115l-112 -147h-79z" />
    <glyph glyph-name="Acircumflex.small" horiz-adv-x="491" 
d="M-39 0l271 488h75l122 -488h-103l-24 108h-175l-57 -108h-109zM167 184h119l-19 94q-8 34 -14 74h-2q-16 -36 -34 -71zM131 540l119 147h83l83 -147h-81l-49 87l-70 -87h-85z" />
    <glyph glyph-name="Atilde.small" horiz-adv-x="491" 
d="M-39 0l271 488h75l122 -488h-103l-24 108h-175l-57 -108h-109zM167 184h119l-19 94q-8 34 -14 74h-2q-16 -36 -34 -71zM132 558q4 57 30.5 85.5t63.5 28.5q31 0 69 -22.5t53 -22.5q26 0 32 39h71q-4 -56 -30 -85t-64 -29q-31 0 -69 23t-53 23q-25 0 -31 -40h-72z" />
    <glyph glyph-name="Adieresis.small" horiz-adv-x="491" 
d="M-39 0l271 488h75l122 -488h-103l-24 108h-175l-57 -108h-109zM167 184h119l-19 94q-8 34 -14 74h-2q-16 -36 -34 -71zM188 558q-22 0 -35 13t-13 34q0 28 17 46t42 18q21 0 34.5 -13t13.5 -34q0 -27 -17.5 -45.5t-41.5 -18.5zM373 558q-22 0 -35 13t-13 34q0 28 17 46
t42 18q21 0 34.5 -13t13.5 -34q0 -27 -17.5 -45.5t-41.5 -18.5z" />
    <glyph glyph-name="Amacron.small" horiz-adv-x="491" 
d="M-39 0l271 488h75l122 -488h-103l-24 108h-175l-57 -108h-109zM167 184h119l-19 94q-8 34 -14 74h-2q-16 -36 -34 -71zM143 579l17 80h273l-17 -80h-273z" />
    <glyph glyph-name="Abreve.small" horiz-adv-x="491" 
d="M-39 0l271 488h75l122 -488h-103l-24 108h-175l-57 -108h-109zM167 184h119l-19 94q-8 34 -14 74h-2q-16 -36 -34 -71zM276 551q-60 0 -92.5 36t-27.5 97h72q-3 -66 55 -66t78 66h75q-13 -63 -56 -98t-104 -35z" />
    <glyph glyph-name="Aring.small" horiz-adv-x="491" 
d="M-39 0l270 488q-61 14 -61 76q0 49 35 80t88 31q45 0 73 -22.5t28 -60.5q0 -41 -23.5 -69t-62.5 -36l122 -487h-103l-25 108h-174l-58 -108h-109zM167 184h120l-20 94q-3 13 -7.5 37t-6.5 37h-2q-13 -30 -33 -71zM275 529q23 0 37 17t14 42q0 18 -10.5 28.5t-27.5 10.5
q-22 0 -36 -17t-14 -42q0 -18 10 -28.5t27 -10.5z" />
    <glyph glyph-name="Aringacute.small" horiz-adv-x="491" 
d="M-39 0l270 488q-61 14 -61 76q0 46 29.5 75t76.5 34l64 125h115l-105 -136q44 -21 44 -70q0 -41 -23.5 -69t-62.5 -36l122 -487h-103l-25 108h-174l-58 -108h-109zM167 184h120l-20 94q-3 13 -7.5 37t-6.5 37h-2q-13 -30 -33 -71zM275 529q23 0 37 17t14 42
q0 18 -10.5 28.5t-27.5 10.5q-22 0 -36 -17t-14 -42q0 -18 10 -28.5t27 -10.5z" />
    <glyph glyph-name="Aogonek.small" horiz-adv-x="491" 
d="M-39 0l271 488h75l122 -488q-134 -60 -134 -120q0 -30 33 -30q18 0 38 7l7 -60q-39 -11 -75 -11q-45 0 -67.5 20t-22.5 54q0 81 117 146l-23 102h-175l-57 -108h-109zM167 184h119l-19 94q-8 34 -14 74h-2q-16 -36 -34 -71z" />
    <glyph glyph-name="AE.small" horiz-adv-x="648" 
d="M-56 0l362 486h309l-19 -81h-173l-16 -120h170l-11 -79h-170l-17 -125h194l-11 -81h-289l15 108h-153l-77 -108h-114zM187 184h112l26 189h-2z" />
    <glyph glyph-name="AEacute.small" horiz-adv-x="648" 
d="M-56 0l362 486h309l-19 -81h-173l-16 -120h170l-11 -79h-170l-17 -125h194l-11 -81h-289l15 108h-153l-77 -108h-114zM187 184h112l26 189h-2zM375 540l76 147h115l-112 -147h-79z" />
    <glyph glyph-name="Cacute.small" horiz-adv-x="477" 
d="M251 -10q-99 0 -158 54t-59 148q0 131 81 216.5t206 85.5q66 0 127 -26l-20 -80q-48 25 -103 25q-77 0 -132 -58.5t-55 -153.5q0 -60 34 -95t93 -35t115 31l25 -76q-71 -36 -154 -36zM262 540l76 147h115l-112 -147h-79z" />
    <glyph glyph-name="Ccircumflex.small" horiz-adv-x="477" 
d="M251 -10q-99 0 -158 54t-59 148q0 131 81 216.5t206 85.5q66 0 127 -26l-20 -80q-48 25 -103 25q-77 0 -132 -58.5t-55 -153.5q0 -60 34 -95t93 -35t115 31l25 -76q-71 -36 -154 -36zM166 540l119 147h83l83 -147h-81l-49 87l-70 -87h-85z" />
    <glyph glyph-name="Ccaron.small" horiz-adv-x="477" 
d="M251 -10q-99 0 -158 54t-59 148q0 131 81 216.5t206 85.5q66 0 127 -26l-20 -80q-48 25 -103 25q-77 0 -132 -58.5t-55 -153.5q0 -60 34 -95t93 -35t115 31l25 -76q-71 -36 -154 -36zM269 540l-83 147h80l49 -87l71 87h85l-120 -147h-82z" />
    <glyph glyph-name="Cdotaccent.small" horiz-adv-x="477" 
d="M251 -10q-99 0 -158 54t-59 148q0 131 81 216.5t206 85.5q66 0 127 -26l-20 -80q-48 25 -103 25q-77 0 -132 -58.5t-55 -153.5q0 -60 34 -95t93 -35t115 31l25 -76q-71 -36 -154 -36zM318 569q-27 0 -43.5 16t-16.5 41q0 32 21.5 51.5t49.5 19.5q27 0 43.5 -16t16.5 -40
q0 -32 -21.5 -52t-49.5 -20z" />
    <glyph glyph-name="Ccedilla.small" horiz-adv-x="477" 
d="M87 -198l23 49q20 -10 47 -10q25 0 41 10t16 29q0 33 -77 31l43 87q-68 16 -107 67t-39 127q0 131 81 216.5t206 85.5q66 0 127 -26l-20 -80q-48 25 -103 25q-77 0 -132 -58.5t-55 -153.5q0 -60 34 -95t93 -35t115 31l25 -76q-71 -36 -154 -36l-20 -41q72 -5 72 -65
q0 -46 -38.5 -71t-100.5 -25q-41 0 -77 14z" />
    <glyph glyph-name="Dcaron.small" horiz-adv-x="519" 
d="M17 0l105 486h129q109 0 173.5 -54t64.5 -153q0 -118 -81 -198.5t-235 -80.5h-156zM139 85h56q93 0 142 55t49 136q0 60 -37 92.5t-106 32.5h-36zM255 540l-83 147h80l49 -87l71 87h85l-120 -147h-82z" />
    <glyph glyph-name="Dcroat.small" horiz-adv-x="524" 
d="M22 0l46 210h-61l15 72h62l44 204h128q109 0 173.5 -54t64.5 -153q0 -118 -81 -198.5t-235 -80.5h-156zM144 85h56q94 0 143 55t49 136q0 60 -37.5 92.5t-106.5 32.5h-36l-26 -119h105l-16 -72h-104z" />
    <glyph glyph-name="Egrave.small" horiz-adv-x="413" 
d="M17 0l105 486h280l-26 -81h-169l-25 -120h166l-18 -79h-165l-27 -125h189l-18 -81h-292zM232 540l-85 147h116l49 -147h-80z" />
    <glyph glyph-name="Eacute.small" horiz-adv-x="413" 
d="M17 0l105 486h280l-26 -81h-169l-25 -120h166l-18 -79h-165l-27 -125h189l-18 -81h-292zM225 540l76 147h115l-112 -147h-79z" />
    <glyph glyph-name="Ecircumflex.small" horiz-adv-x="413" 
d="M17 0l105 486h280l-26 -81h-169l-25 -120h166l-18 -79h-165l-27 -125h189l-18 -81h-292zM130 540l119 147h83l83 -147h-81l-49 87l-70 -87h-85z" />
    <glyph glyph-name="Ecaron.small" horiz-adv-x="413" 
d="M17 0l105 486h280l-26 -81h-169l-25 -120h166l-18 -79h-165l-27 -125h189l-18 -81h-292zM228 540l-83 147h80l49 -87l71 87h85l-120 -147h-82z" />
    <glyph glyph-name="Edieresis.small" horiz-adv-x="413" 
d="M17 0l105 486h280l-26 -81h-169l-25 -120h166l-18 -79h-165l-27 -125h189l-18 -81h-292zM184 558q-22 0 -35 13t-13 34q0 28 17 46t42 18q21 0 34.5 -13t13.5 -34q0 -27 -17.5 -45.5t-41.5 -18.5zM369 558q-22 0 -35 13t-13 34q0 28 17 46t42 18q21 0 34.5 -13t13.5 -34
q0 -27 -17.5 -45.5t-41.5 -18.5z" />
    <glyph glyph-name="Emacron.small" horiz-adv-x="413" 
d="M17 0l105 486h280l-26 -81h-169l-25 -120h166l-18 -79h-165l-27 -125h189l-18 -81h-292zM139 579l17 80h273l-17 -80h-273z" />
    <glyph glyph-name="Ebreve.small" horiz-adv-x="413" 
d="M17 0l105 486h280l-26 -81h-169l-25 -120h166l-18 -79h-165l-27 -125h189l-18 -81h-292zM271 551q-60 0 -92.5 36t-27.5 97h72q-3 -66 55 -66t78 66h75q-13 -63 -56 -98t-104 -35z" />
    <glyph glyph-name="Edotaccent.small" horiz-adv-x="413" 
d="M17 0l105 486h280l-26 -81h-169l-25 -120h166l-18 -79h-165l-27 -125h189l-18 -81h-292zM273 569q-27 0 -43.5 16t-16.5 41q0 32 21.5 51.5t49.5 19.5q27 0 43.5 -16t16.5 -40q0 -32 -21.5 -52t-49.5 -20z" />
    <glyph glyph-name="Eogonek.small" horiz-adv-x="413" 
d="M17 0l105 486h280l-26 -81h-169l-25 -120h166l-18 -79h-165l-27 -125h189l-18 -81h-14q-132 -58 -132 -120q0 -30 33 -30q17 0 38 7l6 -60q-38 -11 -74 -11q-45 0 -67.5 20t-22.5 54q0 79 107 140h-166z" />
    <glyph glyph-name="Gcircumflex.small" horiz-adv-x="531" 
d="M258 -10q-105 0 -164.5 56t-59.5 152q0 77 32.5 143.5t100 109.5t157.5 43q80 0 152 -31l-21 -81q-60 31 -125 31q-79 0 -135 -57t-57 -149q-1 -62 33 -99t97 -37q33 0 60 11l33 154h103l-46 -214q-78 -32 -160 -32zM176 540l119 147h83l83 -147h-81l-49 87l-70 -87h-85z
" />
    <glyph glyph-name="Gbreve.small" horiz-adv-x="531" 
d="M258 -10q-105 0 -164.5 56t-59.5 152q0 77 32.5 143.5t100 109.5t157.5 43q80 0 152 -31l-21 -81q-60 31 -125 31q-79 0 -135 -57t-57 -149q-1 -62 33 -99t97 -37q33 0 60 11l33 154h103l-46 -214q-78 -32 -160 -32zM326 551q-60 0 -92.5 36t-27.5 97h72q-3 -66 55 -66
t78 66h75q-13 -63 -56 -98t-104 -35z" />
    <glyph glyph-name="Gdotaccent.small" horiz-adv-x="531" 
d="M258 -10q-105 0 -164.5 56t-59.5 152q0 77 32.5 143.5t100 109.5t157.5 43q80 0 152 -31l-21 -81q-60 31 -125 31q-79 0 -135 -57t-57 -149q-1 -62 33 -99t97 -37q33 0 60 11l33 154h103l-46 -214q-78 -32 -160 -32zM332 569q-27 0 -43.5 16t-16.5 41q0 32 21.5 51.5
t49.5 19.5q27 0 43.5 -16t16.5 -40q0 -32 -21.5 -52t-49.5 -20z" />
    <glyph glyph-name="Gcommaaccent.small" horiz-adv-x="531" 
d="M258 -10q-105 0 -164.5 56t-59.5 152q0 77 32.5 143.5t100 109.5t157.5 43q80 0 152 -31l-21 -81q-60 31 -125 31q-79 0 -135 -57t-57 -149q-1 -62 33 -99t97 -37q33 0 60 11l33 154h103l-46 -214q-78 -32 -160 -32zM122 -237l-21 67q85 20 85 73q0 18 -10 45h93
q11 -24 11 -54q0 -108 -158 -131z" />
    <glyph glyph-name="Hcircumflex.small" horiz-adv-x="562" 
d="M17 0l105 486h103l-42 -197h217l42 197h103l-105 -486h-103l44 204h-217l-44 -204h-103zM198 540l119 147h83l83 -147h-81l-49 87l-70 -87h-85z" />
    <glyph glyph-name="Hbar.small" horiz-adv-x="562" 
d="M17 0l76 354h-48l15 66h48l14 66h103l-14 -66h217l14 66h103l-14 -66h49l-15 -66h-49l-76 -354h-103l44 204h-217l-44 -204h-103zM183 289h217l13 65h-217z" />
    <glyph glyph-name="Igrave.small" horiz-adv-x="243" 
d="M17 0l105 486h103l-105 -486h-103zM154 540l-85 147h116l49 -147h-80z" />
    <glyph glyph-name="Iacute.small" horiz-adv-x="243" 
d="M17 0l105 486h103l-105 -486h-103zM132 540l76 147h115l-112 -147h-79z" />
    <glyph glyph-name="Icircumflex.small" horiz-adv-x="243" 
d="M17 0l105 486h103l-105 -486h-103zM37 540l119 147h83l83 -147h-81l-49 87l-70 -87h-85z" />
    <glyph glyph-name="Itilde.small" horiz-adv-x="243" 
d="M17 0l105 486h103l-105 -486h-103zM34 558q4 57 30.5 85.5t63.5 28.5q31 0 69 -22.5t53 -22.5q26 0 32 39h71q-4 -56 -30 -85t-64 -29q-31 0 -69 23t-53 23q-25 0 -31 -40h-72z" />
    <glyph glyph-name="Idieresis.small" horiz-adv-x="243" 
d="M17 0l105 486h103l-105 -486h-103zM96 558q-22 0 -35 13t-13 34q0 28 17 46t42 18q21 0 34.5 -13t13.5 -34q0 -27 -17.5 -45.5t-41.5 -18.5zM281 558q-22 0 -35 13t-13 34q0 28 17 46t42 18q21 0 34.5 -13t13.5 -34q0 -27 -17.5 -45.5t-41.5 -18.5z" />
    <glyph glyph-name="Imacron.small" horiz-adv-x="243" 
d="M17 0l105 486h103l-105 -486h-103zM51 579l17 80h273l-17 -80h-273z" />
    <glyph glyph-name="Ibreve.small" horiz-adv-x="243" 
d="M17 0l105 486h103l-105 -486h-103zM187 551q-60 0 -92.5 36t-27.5 97h72q-3 -66 55 -66t78 66h75q-13 -63 -56 -98t-104 -35z" />
    <glyph glyph-name="Idotaccent.small" horiz-adv-x="243" 
d="M17 0l105 486h103l-105 -486h-103zM197 569q-27 0 -43.5 16t-16.5 41q0 32 21.5 51.5t49.5 19.5q27 0 43.5 -16t16.5 -40q0 -32 -21.5 -52t-49.5 -20z" />
    <glyph glyph-name="Iogonek.small" horiz-adv-x="243" 
d="M18 7l104 479h103l-105 -486q-39 -26 -67.5 -59t-28.5 -61q0 -30 31 -30q17 0 37 7l7 -60q-39 -11 -76 -11q-45 0 -67.5 20t-22.5 55q0 65 85 146z" />
    <glyph glyph-name="dotlessi.small" horiz-adv-x="243" 
d="M17 0l105 486h103l-105 -486h-103z" />
    <glyph glyph-name="IJ.small" horiz-adv-x="500" 
d="M17 0l105 486h103l-105 -486h-103zM135 -116l27 79q24 -10 49 -10q35 0 51 22q12 18 18 48l100 463h103l-103 -478q-14 -62 -39 -91q-41 -47 -122 -47q-48 0 -84 14z" />
    <glyph glyph-name="Jcircumflex.small" horiz-adv-x="257" 
d="M-108 -116l27 79q24 -10 49 -10q35 0 51 22q12 18 18 48l100 463h103l-103 -478q-14 -62 -39 -91q-41 -47 -122 -47q-48 0 -84 14zM49 540l119 147h83l83 -147h-81l-49 87l-70 -87h-85z" />
    <glyph glyph-name="Kcommaaccent.small" horiz-adv-x="483" 
d="M17 0l105 486h103l-46 -212h2l188 212h114l-229 -249l165 -237h-113l-139 206h-2l-45 -206h-103zM99 -237l-21 67q85 20 85 73q0 18 -10 45h93q11 -24 11 -54q0 -108 -158 -131z" />
    <glyph glyph-name="Lacute.small" horiz-adv-x="378" 
d="M17 0l105 486h103l-87 -404h178l-18 -82h-281zM134 540l76 147h115l-112 -147h-79z" />
    <glyph glyph-name="Lcaron.small" horiz-adv-x="373" 
d="M17 0l105 486h103l-87 -404h178l-18 -82h-281zM280 330l-37 66q73 29 73 90q0 24 -11 49h90q12 -22 12 -52q0 -105 -127 -153z" />
    <glyph glyph-name="Lcommaaccent.small" horiz-adv-x="367" 
d="M17 0l105 486h103l-87 -404h178l-18 -82h-281zM46 -237l-21 67q85 20 85 73q0 18 -10 45h93q11 -24 11 -54q0 -108 -158 -131z" />
    <glyph glyph-name="Lslash.small" horiz-adv-x="367" 
d="M17 0l35 163l-52 -27l21 95l52 26l49 229h103l-35 -167l118 62l-21 -95l-118 -60l-31 -144h178l-18 -82h-281z" />
    <glyph glyph-name="Ldot.small" horiz-adv-x="374" 
d="M17 0l105 486h103l-87 -404h178l-18 -82h-281zM299 193q-23 0 -38.5 16.5t-15.5 39.5q0 29 18.5 49t46.5 20q24 0 39.5 -16.5t15.5 -40.5q0 -28 -19.5 -48t-46.5 -20z" />
    <glyph glyph-name="Nacute.small" horiz-adv-x="575" 
d="M17 0l105 486h83l138 -247q14 -24 42 -80h2q7 44 18 93l50 234h103l-105 -486h-81l-134 244q-40 75 -47 89h-2q-7 -50 -18 -99l-51 -234h-103zM304 540l76 147h115l-112 -147h-79z" />
    <glyph glyph-name="Ncaron.small" horiz-adv-x="575" 
d="M17 0l105 486h83l138 -247q14 -24 42 -80h2q7 44 18 93l50 234h103l-105 -486h-81l-134 244q-40 75 -47 89h-2q-7 -50 -18 -99l-51 -234h-103zM305 540l-83 147h80l49 -87l71 87h85l-120 -147h-82z" />
    <glyph glyph-name="Ntilde.small" horiz-adv-x="575" 
d="M17 0l105 486h83l138 -247q14 -24 42 -80h2q7 44 18 93l50 234h103l-105 -486h-81l-134 244q-40 75 -47 89h-2q-7 -50 -18 -99l-51 -234h-103zM202 558q4 57 30.5 85.5t63.5 28.5q31 0 69 -22.5t53 -22.5q26 0 32 39h71q-4 -56 -30 -85t-64 -29q-31 0 -69 23t-53 23
q-25 0 -31 -40h-72z" />
    <glyph glyph-name="Ncommaaccent.small" horiz-adv-x="575" 
d="M17 0l105 486h83l138 -247q14 -24 42 -80h2q7 44 18 93l50 234h103l-105 -486h-81l-134 244q-40 75 -47 89h-2q-7 -50 -18 -99l-51 -234h-103zM133 -237l-21 67q85 20 85 73q0 18 -10 45h93q11 -24 11 -54q0 -108 -158 -131z" />
    <glyph glyph-name="Ograve.small" horiz-adv-x="544" 
d="M231 -10q-90 0 -143.5 52.5t-53.5 139.5q0 133 78.5 222.5t200.5 89.5q91 0 144 -52.5t53 -140.5q0 -132 -78.5 -221.5t-200.5 -89.5zM240 71q71 0 119 66t48 158q0 54 -27.5 86t-75.5 32q-70 0 -118 -65.5t-48 -158.5q0 -54 27 -86t75 -32zM299 540l-85 147h116l49 -147
h-80z" />
    <glyph glyph-name="Oacute.small" horiz-adv-x="544" 
d="M231 -10q-90 0 -143.5 52.5t-53.5 139.5q0 133 78.5 222.5t200.5 89.5q91 0 144 -52.5t53 -140.5q0 -132 -78.5 -221.5t-200.5 -89.5zM240 71q71 0 119 66t48 158q0 54 -27.5 86t-75.5 32q-70 0 -118 -65.5t-48 -158.5q0 -54 27 -86t75 -32zM288 540l76 147h115
l-112 -147h-79z" />
    <glyph glyph-name="Ocircumflex.small" horiz-adv-x="544" 
d="M231 -10q-90 0 -143.5 52.5t-53.5 139.5q0 133 78.5 222.5t200.5 89.5q91 0 144 -52.5t53 -140.5q0 -132 -78.5 -221.5t-200.5 -89.5zM240 71q71 0 119 66t48 158q0 54 -27.5 86t-75.5 32q-70 0 -118 -65.5t-48 -158.5q0 -54 27 -86t75 -32zM182 540l119 147h83l83 -147
h-81l-49 87l-70 -87h-85z" />
    <glyph glyph-name="Otilde.small" horiz-adv-x="544" 
d="M231 -10q-90 0 -143.5 52.5t-53.5 139.5q0 133 78.5 222.5t200.5 89.5q91 0 144 -52.5t53 -140.5q0 -132 -78.5 -221.5t-200.5 -89.5zM240 71q71 0 119 66t48 158q0 54 -27.5 86t-75.5 32q-70 0 -118 -65.5t-48 -158.5q0 -54 27 -86t75 -32zM179 558q4 57 30.5 85.5
t63.5 28.5q31 0 69 -22.5t53 -22.5q26 0 32 39h71q-4 -56 -30 -85t-64 -29q-31 0 -69 23t-53 23q-25 0 -31 -40h-72z" />
    <glyph glyph-name="Odieresis.small" horiz-adv-x="544" 
d="M231 -10q-90 0 -143.5 52.5t-53.5 139.5q0 133 78.5 222.5t200.5 89.5q91 0 144 -52.5t53 -140.5q0 -132 -78.5 -221.5t-200.5 -89.5zM240 71q71 0 119 66t48 158q0 54 -27.5 86t-75.5 32q-70 0 -118 -65.5t-48 -158.5q0 -54 27 -86t75 -32zM244 558q-22 0 -35 13t-13 34
q0 28 17 46t42 18q21 0 34.5 -13t13.5 -34q0 -27 -17.5 -45.5t-41.5 -18.5zM429 558q-22 0 -35 13t-13 34q0 28 17 46t42 18q21 0 34.5 -13t13.5 -34q0 -27 -17.5 -45.5t-41.5 -18.5z" />
    <glyph glyph-name="Omacron.small" horiz-adv-x="544" 
d="M231 -10q-90 0 -143.5 52.5t-53.5 139.5q0 133 78.5 222.5t200.5 89.5q91 0 144 -52.5t53 -140.5q0 -132 -78.5 -221.5t-200.5 -89.5zM240 71q71 0 119 66t48 158q0 54 -27.5 86t-75.5 32q-70 0 -118 -65.5t-48 -158.5q0 -54 27 -86t75 -32zM195 579l17 80h273l-17 -80
h-273z" />
    <glyph glyph-name="Obreve.small" horiz-adv-x="544" 
d="M231 -10q-90 0 -143.5 52.5t-53.5 139.5q0 133 78.5 222.5t200.5 89.5q91 0 144 -52.5t53 -140.5q0 -132 -78.5 -221.5t-200.5 -89.5zM240 71q71 0 119 66t48 158q0 54 -27.5 86t-75.5 32q-70 0 -118 -65.5t-48 -158.5q0 -54 27 -86t75 -32zM331 551q-60 0 -92.5 36
t-27.5 97h72q-3 -66 55 -66t78 66h75q-13 -63 -56 -98t-104 -35z" />
    <glyph glyph-name="Ohungarumlaut.small" horiz-adv-x="544" 
d="M231 -10q-90 0 -143.5 52.5t-53.5 139.5q0 133 78.5 222.5t200.5 89.5q91 0 144 -52.5t53 -140.5q0 -132 -78.5 -221.5t-200.5 -89.5zM240 71q71 0 119 66t48 158q0 54 -27.5 86t-75.5 32q-70 0 -118 -65.5t-48 -158.5q0 -54 27 -86t75 -32zM205 540l76 147h116
l-113 -147h-79zM377 540l76 147h116l-113 -147h-79z" />
    <glyph glyph-name="Oslash.small" horiz-adv-x="544" 
d="M83 -21l-44 38l35 40q-40 51 -40 128q0 132 78.5 220.5t200.5 88.5q69 0 117 -34l39 45l44 -39l-40 -45q37 -49 37 -122q0 -132 -78.5 -220.5t-200.5 -88.5q-66 0 -112 29zM180 89q25 -19 60 -19q71 0 119.5 65.5t48.5 157.5q0 22 -7 45zM146 140l222 250q-26 24 -64 24
q-70 0 -118.5 -65.5t-48.5 -157.5q0 -29 9 -51z" />
    <glyph glyph-name="Oslashacute.small" horiz-adv-x="544" 
d="M83 -21l-44 38l35 40q-40 51 -40 128q0 132 78.5 220.5t200.5 88.5q69 0 117 -34l39 45l44 -39l-40 -45q37 -49 37 -122q0 -132 -78.5 -220.5t-200.5 -88.5q-66 0 -112 29zM180 89q25 -19 60 -19q71 0 119.5 65.5t48.5 157.5q0 22 -7 45zM146 140l222 250q-26 24 -64 24
q-70 0 -118.5 -65.5t-48.5 -157.5q0 -29 9 -51zM270 540l76 147h115l-112 -147h-79z" />
    <glyph glyph-name="OE.small" horiz-adv-x="703" 
d="M245 -8q-100 0 -155.5 52.5t-55.5 139.5q0 131 81.5 220t211.5 89q30 0 84.5 -3.5t80.5 -3.5h200l-26 -81h-169l-25 -120h165l-17 -79h-166l-26 -125h189l-18 -81h-205q-30 0 -81 -4t-68 -4zM257 72q28 0 67 6l70 327q-37 7 -67 7q-84 0 -136.5 -64t-52.5 -157
q0 -53 30.5 -86t88.5 -33z" />
    <glyph glyph-name="Racute.small" horiz-adv-x="468" 
d="M17 0l105 486h129q89 0 131.5 -36t42.5 -92t-34 -96t-95 -57v-2q22 -26 57 -101l47 -102h-107l-39 88q-34 73 -52 91h-43l-39 -179h-103zM176 259h40q48 0 77.5 24t29.5 63q0 26 -19.5 43t-57.5 17h-38zM221 540l76 147h115l-112 -147h-79z" />
    <glyph glyph-name="Rcaron.small" horiz-adv-x="468" 
d="M17 0l105 486h129q89 0 131.5 -36t42.5 -92t-34 -96t-95 -57v-2q22 -26 57 -101l47 -102h-107l-39 88q-34 73 -52 91h-43l-39 -179h-103zM176 259h40q48 0 77.5 24t29.5 63q0 26 -19.5 43t-57.5 17h-38zM233 540l-83 147h80l49 -87l71 87h85l-120 -147h-82z" />
    <glyph glyph-name="Rcommaaccent.small" horiz-adv-x="468" 
d="M17 0l105 486h129q89 0 131.5 -36t42.5 -92t-34 -96t-95 -57v-2q22 -26 57 -101l47 -102h-107l-39 88q-34 73 -52 91h-43l-39 -179h-103zM176 259h40q48 0 77.5 24t29.5 63q0 26 -19.5 43t-57.5 17h-38zM94 -237l-21 67q85 20 85 73q0 18 -10 45h93q11 -24 11 -54
q0 -108 -158 -131z" />
    <glyph glyph-name="germandbls.small" horiz-adv-x="855" 
d="M6 29l33 76q60 -34 125 -34q39 0 62.5 16.5t23.5 48.5q0 27 -28.5 49.5t-62.5 38t-62.5 48.5t-28.5 80q0 64 48.5 103t124.5 39q75 0 145 -29l-21 -81q-58 30 -118 30q-33 0 -52.5 -15t-19.5 -41q0 -22 18.5 -40t45 -32t53.5 -30.5t45.5 -45.5t18.5 -67
q0 -76 -53.5 -114.5t-137.5 -38.5q-87 0 -159 39zM433 29l33 76q60 -34 125 -34q39 0 62.5 16.5t23.5 48.5q0 27 -28.5 49.5t-62.5 38t-62.5 48.5t-28.5 80q0 64 48.5 103t124.5 39q75 0 145 -29l-21 -81q-58 30 -118 30q-33 0 -52.5 -15t-19.5 -41q0 -22 18.5 -40t45 -32
t53.5 -30.5t45.5 -45.5t18.5 -67q0 -76 -53.5 -114.5t-137.5 -38.5q-87 0 -159 39z" />
    <glyph glyph-name="Sacute.small" horiz-adv-x="427" 
d="M6 29l33 76q60 -34 125 -34q39 0 62.5 16.5t23.5 48.5q0 27 -28.5 49.5t-62.5 38t-62.5 48.5t-28.5 80q0 64 48.5 103t124.5 39q75 0 145 -29l-21 -81q-58 30 -118 30q-33 0 -52.5 -15t-19.5 -41q0 -22 18.5 -40t45 -32t53.5 -30.5t45.5 -45.5t18.5 -67
q0 -76 -53.5 -114.5t-137.5 -38.5q-87 0 -159 39zM210 540l76 147h115l-112 -147h-79z" />
    <glyph glyph-name="Scircumflex.small" horiz-adv-x="427" 
d="M6 29l33 76q60 -34 125 -34q39 0 62.5 16.5t23.5 48.5q0 27 -28.5 49.5t-62.5 38t-62.5 48.5t-28.5 80q0 64 48.5 103t124.5 39q75 0 145 -29l-21 -81q-58 30 -118 30q-33 0 -52.5 -15t-19.5 -41q0 -22 18.5 -40t45 -32t53.5 -30.5t45.5 -45.5t18.5 -67
q0 -76 -53.5 -114.5t-137.5 -38.5q-87 0 -159 39zM116 540l119 147h83l83 -147h-81l-49 87l-70 -87h-85z" />
    <glyph glyph-name="Scaron.small" horiz-adv-x="427" 
d="M6 29l33 76q60 -34 125 -34q39 0 62.5 16.5t23.5 48.5q0 27 -28.5 49.5t-62.5 38t-62.5 48.5t-28.5 80q0 64 48.5 103t124.5 39q75 0 145 -29l-21 -81q-58 30 -118 30q-33 0 -52.5 -15t-19.5 -41q0 -22 18.5 -40t45 -32t53.5 -30.5t45.5 -45.5t18.5 -67
q0 -76 -53.5 -114.5t-137.5 -38.5q-87 0 -159 39zM218 540l-83 147h80l49 -87l71 87h85l-120 -147h-82z" />
    <glyph glyph-name="Scedilla.small" horiz-adv-x="427" 
d="M25 -198l22 49q22 -10 47 -10q26 0 42 10t16 29q0 33 -77 31l40 83q-61 8 -109 35l33 76q60 -34 125 -34q39 0 62.5 16.5t23.5 48.5q0 27 -28.5 49.5t-62.5 38t-62.5 48.5t-28.5 80q0 64 48.5 103t124.5 39q75 0 145 -29l-21 -81q-58 30 -118 30q-33 0 -52.5 -15
t-19.5 -41q0 -22 18.5 -40t45 -32t53.5 -30.5t45.5 -45.5t18.5 -67q0 -70 -46.5 -108t-120.5 -43l-20 -43q72 -5 72 -65q0 -46 -38.5 -71t-100.5 -25q-41 0 -77 14z" />
    <glyph glyph-name="Scommaaccent.small" horiz-adv-x="427" 
d="M6 29l33 76q60 -34 125 -34q39 0 62.5 16.5t23.5 48.5q0 27 -28.5 49.5t-62.5 38t-62.5 48.5t-28.5 80q0 64 48.5 103t124.5 39q75 0 145 -29l-21 -81q-58 30 -118 30q-33 0 -52.5 -15t-19.5 -41q0 -22 18.5 -40t45 -32t53.5 -30.5t45.5 -45.5t18.5 -67
q0 -76 -53.5 -114.5t-137.5 -38.5q-87 0 -159 39zM42 -237l-21 67q85 20 85 73q0 18 -10 45h93q11 -24 11 -54q0 -108 -158 -131z" />
    <glyph glyph-name="Tcaron.small" horiz-adv-x="425" 
d="M110 0l87 404h-151l17 82h401l-28 -82h-136l-87 -404h-103zM228 540l-83 147h80l49 -87l71 87h85l-120 -147h-82z" />
    <glyph glyph-name="Tcommaaccent.small" horiz-adv-x="425" 
d="M110 0l87 404h-151l17 82h401l-28 -82h-136l-87 -404h-103zM50 -237l-21 67q85 20 85 73q0 18 -10 45h93q11 -24 11 -54q0 -108 -158 -131z" />
    <glyph glyph-name="Tbar.small" horiz-adv-x="425" 
d="M110 0l40 187h-86l15 72h87l31 145h-151l17 82h401l-28 -82h-136l-31 -145h91l-15 -72h-92l-40 -187h-103z" />
    <glyph glyph-name="Ugrave.small" horiz-adv-x="550" 
d="M229 -10q-81 0 -132.5 36.5t-51.5 110.5q0 26 8 66l61 283h103l-63 -291q-5 -27 -5 -43q0 -38 23 -58t64 -20q72 0 107 51q18 27 30 83l60 278h103l-65 -296q-16 -75 -47 -116q-61 -84 -195 -84zM301 540l-85 147h116l49 -147h-80z" />
    <glyph glyph-name="Uacute.small" horiz-adv-x="550" 
d="M229 -10q-81 0 -132.5 36.5t-51.5 110.5q0 26 8 66l61 283h103l-63 -291q-5 -27 -5 -43q0 -38 23 -58t64 -20q72 0 107 51q18 27 30 83l60 278h103l-65 -296q-16 -75 -47 -116q-61 -84 -195 -84zM288 540l76 147h115l-112 -147h-79z" />
    <glyph glyph-name="Ucircumflex.small" horiz-adv-x="550" 
d="M229 -10q-81 0 -132.5 36.5t-51.5 110.5q0 26 8 66l61 283h103l-63 -291q-5 -27 -5 -43q0 -38 23 -58t64 -20q72 0 107 51q18 27 30 83l60 278h103l-65 -296q-16 -75 -47 -116q-61 -84 -195 -84zM193 540l119 147h83l83 -147h-81l-49 87l-70 -87h-85z" />
    <glyph glyph-name="Utilde.small" horiz-adv-x="550" 
d="M229 -10q-81 0 -132.5 36.5t-51.5 110.5q0 26 8 66l61 283h103l-63 -291q-5 -27 -5 -43q0 -38 23 -58t64 -20q72 0 107 51q18 27 30 83l60 278h103l-65 -296q-16 -75 -47 -116q-61 -84 -195 -84zM187 558q4 57 30.5 85.5t63.5 28.5q31 0 69 -22.5t53 -22.5q26 0 32 39h71
q-4 -56 -30 -85t-64 -29q-31 0 -69 23t-53 23q-25 0 -31 -40h-72z" />
    <glyph glyph-name="Udieresis.small" horiz-adv-x="550" 
d="M229 -10q-81 0 -132.5 36.5t-51.5 110.5q0 26 8 66l61 283h103l-63 -291q-5 -27 -5 -43q0 -38 23 -58t64 -20q72 0 107 51q18 27 30 83l60 278h103l-65 -296q-16 -75 -47 -116q-61 -84 -195 -84zM248 558q-22 0 -35 13t-13 34q0 28 17 46t42 18q21 0 34.5 -13t13.5 -34
q0 -27 -17.5 -45.5t-41.5 -18.5zM433 558q-22 0 -35 13t-13 34q0 28 17 46t42 18q21 0 34.5 -13t13.5 -34q0 -27 -17.5 -45.5t-41.5 -18.5z" />
    <glyph glyph-name="Umacron.small" horiz-adv-x="550" 
d="M229 -10q-81 0 -132.5 36.5t-51.5 110.5q0 26 8 66l61 283h103l-63 -291q-5 -27 -5 -43q0 -38 23 -58t64 -20q72 0 107 51q18 27 30 83l60 278h103l-65 -296q-16 -75 -47 -116q-61 -84 -195 -84zM199 579l17 80h273l-17 -80h-273z" />
    <glyph glyph-name="Ubreve.small" horiz-adv-x="550" 
d="M229 -10q-81 0 -132.5 36.5t-51.5 110.5q0 26 8 66l61 283h103l-63 -291q-5 -27 -5 -43q0 -38 23 -58t64 -20q72 0 107 51q18 27 30 83l60 278h103l-65 -296q-16 -75 -47 -116q-61 -84 -195 -84zM333 551q-60 0 -92.5 36t-27.5 97h72q-3 -66 55 -66t78 66h75
q-13 -63 -56 -98t-104 -35z" />
    <glyph glyph-name="Uring.small" horiz-adv-x="550" 
d="M229 -10q-81 0 -132.5 36.5t-51.5 110.5q0 26 8 66l61 283h103l-63 -291q-5 -27 -5 -43q0 -38 23 -58t64 -20q72 0 107 51q18 27 30 83l60 278h103l-65 -296q-16 -75 -47 -116q-61 -84 -195 -84zM329 532q-46 0 -73.5 22t-27.5 61q0 49 35 79.5t88 30.5q46 0 74 -22
t28 -61q0 -49 -35.5 -79.5t-88.5 -30.5zM334 580q22 0 36 17t14 42q0 17 -10 27.5t-27 10.5q-22 0 -36 -17t-14 -42q0 -17 10 -27.5t27 -10.5z" />
    <glyph glyph-name="Uhungarumlaut.small" horiz-adv-x="550" 
d="M229 -10q-81 0 -132.5 36.5t-51.5 110.5q0 26 8 66l61 283h103l-63 -291q-5 -27 -5 -43q0 -38 23 -58t64 -20q72 0 107 51q18 27 30 83l60 278h103l-65 -296q-16 -75 -47 -116q-61 -84 -195 -84zM204 540l76 147h116l-113 -147h-79zM376 540l76 147h116l-113 -147h-79z
" />
    <glyph glyph-name="Uogonek.small" horiz-adv-x="550" 
d="M130 -140q0 73 88 129v2q-77 2 -125 38t-48 108q0 26 8 66l61 283h103l-63 -291q-5 -27 -5 -43q0 -38 23 -58t64 -20q73 0 108 53q16 23 28 77l61 282h103l-65 -296q-17 -78 -53 -124q-23 -29 -62 -51q-87 -52 -114 -81q-25 -28 -25 -54q0 -30 33 -30q18 0 38 7l7 -60
q-39 -11 -75 -11q-45 0 -67.5 20t-22.5 54z" />
    <glyph glyph-name="Wgrave.small" horiz-adv-x="703" 
d="M140 -3l-84 489h100l38 -248q4 -23 12 -96h2q7 16 44 90l84 163l-16 91h91l42 -243q3 -16 15 -103h2q27 63 48 103l118 243h105l-255 -489h-80l-36 198l-10 70h-2q-12 -25 -35 -70l-103 -198h-80zM362 540l-85 147h116l49 -147h-80z" />
    <glyph glyph-name="Wacute.small" horiz-adv-x="703" 
d="M140 -3l-84 489h100l38 -248q4 -23 12 -96h2q7 16 44 90l84 163l-16 91h91l42 -243q3 -16 15 -103h2q27 63 48 103l118 243h105l-255 -489h-80l-36 198l-10 70h-2q-12 -25 -35 -70l-103 -198h-80zM356 540l76 147h115l-112 -147h-79z" />
    <glyph glyph-name="Wcircumflex.small" horiz-adv-x="703" 
d="M140 -3l-84 489h100l38 -248q4 -23 12 -96h2q7 16 44 90l84 163l-16 91h91l42 -243q3 -16 15 -103h2q27 63 48 103l118 243h105l-255 -489h-80l-36 198l-10 70h-2q-12 -25 -35 -70l-103 -198h-80zM266 540l119 147h83l83 -147h-81l-49 87l-70 -87h-85z" />
    <glyph glyph-name="Wdieresis.small" horiz-adv-x="703" 
d="M140 -3l-84 489h100l38 -248q4 -23 12 -96h2q7 16 44 90l84 163l-16 91h91l42 -243q3 -16 15 -103h2q27 63 48 103l118 243h105l-255 -489h-80l-36 198l-10 70h-2q-12 -25 -35 -70l-103 -198h-80zM320 558q-22 0 -35 13t-13 34q0 28 17 46t42 18q21 0 34.5 -13t13.5 -34
q0 -27 -17.5 -45.5t-41.5 -18.5zM505 558q-22 0 -35 13t-13 34q0 28 17 46t42 18q21 0 34.5 -13t13.5 -34q0 -27 -17.5 -45.5t-41.5 -18.5z" />
    <glyph glyph-name="Ygrave.small" horiz-adv-x="437" 
d="M118 0l41 192l-103 294h99l67 -212h2l144 212h107l-213 -297l-41 -189h-103zM226 540l-85 147h116l49 -147h-80z" />
    <glyph glyph-name="Yacute.small" horiz-adv-x="437" 
d="M118 0l41 192l-103 294h99l67 -212h2l144 212h107l-213 -297l-41 -189h-103zM224 540l76 147h115l-112 -147h-79z" />
    <glyph glyph-name="Ycircumflex.small" horiz-adv-x="437" 
d="M118 0l41 192l-103 294h99l67 -212h2l144 212h107l-213 -297l-41 -189h-103zM122 540l119 147h83l83 -147h-81l-49 87l-70 -87h-85z" />
    <glyph glyph-name="Ydieresis.small" horiz-adv-x="437" 
d="M118 0l41 192l-103 294h99l67 -212h2l144 212h107l-213 -297l-41 -189h-103zM182 558q-22 0 -35 13t-13 34q0 28 17 46t42 18q21 0 34.5 -13t13.5 -34q0 -27 -17.5 -45.5t-41.5 -18.5zM367 558q-22 0 -35 13t-13 34q0 28 17 46t42 18q21 0 34.5 -13t13.5 -34
q0 -27 -17.5 -45.5t-41.5 -18.5z" />
    <glyph glyph-name="Zacute.small" horiz-adv-x="442" 
d="M-19 0l281 404h-200l-12 82h380l-281 -404h231l-18 -82h-381zM196 540l76 147h115l-112 -147h-79z" />
    <glyph glyph-name="Zcaron.small" horiz-adv-x="442" 
d="M-19 0l281 404h-200l-12 82h380l-281 -404h231l-18 -82h-381zM200 540l-83 147h80l49 -87l71 87h85l-120 -147h-82z" />
    <glyph glyph-name="Zdotaccent.small" horiz-adv-x="448" 
d="M-19 0l281 404h-200l-12 82h380l-281 -404h231l-18 -82h-381zM257 569q-27 0 -43.5 16t-16.5 41q0 32 21.5 51.5t49.5 19.5q27 0 43.5 -16t16.5 -40q0 -32 -21.5 -52t-49.5 -20z" />
    <glyph glyph-name="Eng.small" horiz-adv-x="575" 
d="M189 -180l26 80q27 -11 53 -11q34 0 50.5 19t26.5 65l12 55l-119 216q-40 75 -47 89h-2q-7 -50 -18 -99l-51 -234h-103l105 486h83l138 -246q14 -24 42 -80h2q6 38 18 93l50 233h103l-119 -550q-29 -131 -165 -131q-43 0 -85 15z" />
    <glyph glyph-name="Eth.small" horiz-adv-x="524" 
d="M22 0l46 210h-61l15 72h62l44 204h128q109 0 173.5 -54t64.5 -153q0 -118 -81 -198.5t-235 -80.5h-156zM144 85h56q94 0 143 55t49 136q0 60 -37.5 92.5t-106.5 32.5h-36l-26 -119h105l-16 -72h-104z" />
    <glyph glyph-name="Thorn.small" horiz-adv-x="446" 
d="M17 0l105 486h103l-17 -78h20q81 0 125 -39t44 -103q0 -83 -60 -133t-175 -50h-23l-19 -83h-103zM156 164h30q54 0 83.5 26.5t29.5 70.5q0 29 -18.5 47.5t-56.5 18.5h-33z" />
    <glyph glyph-name="a.superior" horiz-adv-x="340" 
d="M88 263q-41 0 -65 25t-24 67q0 66 48.5 96.5t130.5 30.5h37q2 14 2 22q0 40 -55 40q-46 0 -98 -22l-14 62q59 27 126 27q54 0 88 -24.5t34 -77.5q0 -28 -11 -72l-9 -36q-12 -46 -12 -79q0 -13 6 -43l-68 -15q-9 26 -10 49h-1q-47 -50 -105 -50zM113 330q27 0 53.5 23
t34.5 57l3 13h-24q-103 0 -103 -58q0 -35 36 -35z" />
    <glyph glyph-name="b.superior" horiz-adv-x="361" 
d="M96 263q-60 0 -99 17l104 483h81l-33 -152q-4 -23 -12 -45h2q39 45 92 45q41 0 69.5 -30t28.5 -84q0 -104 -66 -169t-167 -65zM116 332q57 0 95 44.5t38 107.5q0 58 -44 58q-29 0 -56 -28t-38 -79l-22 -100q12 -3 27 -3z" />
    <glyph glyph-name="c.superior" horiz-adv-x="309" 
d="M152 263q-65 0 -103 39t-38 105q0 84 53 144t138 60q54 0 92 -19l-15 -67q-39 17 -74 17q-51 0 -83 -38t-32 -92q0 -80 71 -80q43 0 85 24l23 -63q-52 -30 -117 -30z" />
    <glyph glyph-name="d.superior" horiz-adv-x="360" 
d="M166 263q-70 0 -111.5 38.5t-41.5 104.5q0 89 55.5 147t136.5 58q35 0 61 -8l36 160h81l-103 -477q-54 -23 -114 -23zM169 332q24 0 41 6l42 197q-16 7 -42 7q-52 0 -85 -37t-33 -94q0 -38 20.5 -58.5t56.5 -20.5z" />
    <glyph glyph-name="e.superior" horiz-adv-x="335" 
d="M152 263q-66 0 -104 38.5t-38 103.5q0 87 51 146.5t128 59.5q57 0 87 -30.5t30 -81.5q0 -33 -16 -83l-202 -3v-11q0 -34 19.5 -52.5t51.5 -18.5q44 0 94 25l23 -61q-57 -32 -124 -32zM100 474l125 2q4 12 4 25q0 19 -11.5 32t-35.5 13q-29 0 -51 -20.5t-31 -51.5z" />
    <glyph glyph-name="f.superior" horiz-adv-x="228" 
d="M-16 116l-53 53q65 58 91.5 135.5t49.5 232.5h-55l10 65h54l5 34q10 63 48 94.5t89 31.5q45 0 74 -18l-29 -62q-18 10 -40 10q-51 0 -61 -63l-5 -27h80l-26 -65h-63q-25 -171 -57 -263t-112 -158z" />
    <glyph glyph-name="g.superior" horiz-adv-x="363" 
d="M108 263q-41 0 -68 28.5t-27 86.5q0 97 55.5 165t155.5 68q65 0 119 -22l-69 -315q-18 -83 -59.5 -124t-124.5 -41q-60 0 -110 27l26 67q46 -23 84 -23q44 0 69 22.5t36 69.5l8 33h-1q-40 -42 -94 -42zM132 332q28 0 57 29t44 98l17 79q-20 4 -36 4q-57 0 -89.5 -45.5
t-32.5 -106.5q0 -58 40 -58z" />
    <glyph glyph-name="h.superior" horiz-adv-x="360" 
d="M-7 270l106 493h82l-34 -156q-3 -16 -18 -58h1q49 62 114 62q36 0 59 -22t23 -64q0 -26 -8 -62l-41 -193h-82l43 199q4 21 4 39q0 31 -28 31q-29 0 -62.5 -33t-48.5 -100l-29 -136h-81z" />
    <glyph glyph-name="i.superior" horiz-adv-x="163" 
d="M-8 270l72 332h81l-71 -332h-82zM119 653q-19 0 -31.5 12t-12.5 31q0 24 16.5 39t38.5 15q20 0 32 -12t12 -31q0 -24 -16.5 -39t-38.5 -15z" />
    <glyph glyph-name="j.superior" horiz-adv-x="184" 
d="M-44 109q-34 0 -66 14l25 65q16 -8 36 -8q41 0 54 54l79 368h81l-83 -385q-23 -108 -126 -108zM139 653q-19 0 -31.5 12t-12.5 31q0 24 16.5 39t39.5 15q19 0 31 -12t12 -31q0 -24 -16 -39t-39 -15z" />
    <glyph glyph-name="k.superior" horiz-adv-x="325" 
d="M-8 270l107 493h81l-59 -275h2l121 114h98l-162 -151l102 -181h-90l-83 157h-2l-33 -157h-82z" />
    <glyph glyph-name="l.superior" horiz-adv-x="194" 
d="M83 265q-73 0 -73 67q0 18 6 42l84 389h82l-84 -383q-4 -20 -4 -25q0 -19 22 -19q13 0 24 4v-66q-21 -9 -57 -9z" />
    <glyph glyph-name="m.superior" horiz-adv-x="548" 
d="M-6 270l71 332h66l-5 -55h2q48 64 110 64q69 0 78 -68q53 68 116 68q37 0 59.5 -21.5t22.5 -63.5q0 -24 -7 -58l-43 -198h-81l42 199q5 27 5 39q0 31 -27 31q-30 0 -59.5 -33.5t-43.5 -96.5l-30 -139h-82l43 199q5 27 5 39q0 31 -27 31q-30 0 -60.5 -33.5t-43.5 -96.5
l-30 -139h-81z" />
    <glyph glyph-name="o.superior" horiz-adv-x="364" 
d="M146 263q-61 0 -98 36.5t-37 95.5q0 93 53 154.5t132 61.5q61 0 98.5 -36.5t37.5 -96.5q0 -92 -53 -153.5t-133 -61.5zM150 332q46 0 74 42t28 97q0 71 -60 71q-45 0 -73.5 -42.5t-28.5 -96.5q0 -71 60 -71z" />
    <glyph glyph-name="p.superior" horiz-adv-x="362" 
d="M-42 109l105 486q55 16 108 16q77 0 118 -39t41 -104q0 -93 -57.5 -149t-136.5 -56q-37 0 -61 9l-35 -163h-82zM89 339q18 -7 42 -7q53 0 86 38t33 95q0 39 -22 58t-59 19q-24 0 -37 -5z" />
    <glyph glyph-name="q.superior" horiz-adv-x="363" 
d="M108 263q-41 0 -68 28.5t-27 86.5q0 97 55.5 165t155.5 68q65 0 119 -22l-104 -480h-82l29 135q5 25 17 62h-2q-39 -43 -93 -43zM132 332q28 0 56.5 29.5t43.5 97.5l18 79q-20 4 -36 4q-57 0 -89.5 -45.5t-32.5 -106.5q0 -58 40 -58z" />
    <glyph glyph-name="r.superior" horiz-adv-x="242" 
d="M-8 270l72 332h65l-4 -49h2q34 58 84 58q28 0 50 -18l-35 -68q-15 9 -32 9q-63 0 -92 -131l-28 -133h-82z" />
    <glyph glyph-name="s.superior" horiz-adv-x="259" 
d="M88 263q-64 0 -114 32l29 60q43 -26 84 -26q49 0 49 34q0 14 -17 28.5t-37 27t-37 36.5t-17 55q0 43 30.5 72t87.5 29q48 0 96 -17l-14 -66q-40 17 -75 17q-44 0 -44 -32q0 -16 17 -31t37 -27t37 -36t17 -55q0 -46 -36.5 -73.5t-92.5 -27.5z" />
    <glyph glyph-name="t.superior" horiz-adv-x="249" 
d="M110 263q-39 0 -60.5 19.5t-21.5 51.5q0 15 5 35l36 168h-54l14 65h54l15 71l86 24l-20 -95h89l-25 -65h-78l-34 -156q-4 -17 -4 -27q0 -20 23 -20q25 0 51 18l24 -61q-50 -28 -100 -28z" />
    <glyph glyph-name="u.superior" horiz-adv-x="365" 
d="M100 263q-36 0 -60.5 22t-24.5 68q0 27 9 66l39 183h82l-42 -193q-5 -23 -5 -40q0 -35 32 -35q31 0 58.5 29.5t38.5 78.5q1 3 14.5 68t19.5 92h82l-44 -201q-11 -50 -11 -78q0 -14 6 -44l-69 -15q-11 27 -11 54h-2q-48 -55 -112 -55z" />
    <glyph glyph-name="v.superior" horiz-adv-x="317" 
d="M87 268l-67 334h81l34 -229h2l115 229h88l-187 -334h-66z" />
    <glyph glyph-name="w.superior" horiz-adv-x="483" 
d="M74 268l-52 334h78l28 -218h3l99 218h62l26 -218h2l98 218h86l-166 -334h-67l-26 216h-3l-101 -216h-67z" />
    <glyph glyph-name="x.superior" horiz-adv-x="327" 
d="M-52 270l159 174l-90 158h83l59 -107l96 107h92l-153 -167l96 -165h-84l-64 114l-101 -114h-93z" />
    <glyph glyph-name="y.superior" horiz-adv-x="329" 
d="M-89 126l29 65q24 -11 44 -11q60 0 111 96l-77 326h82l48 -237h2l111 237h91l-177 -342q-41 -80 -86.5 -115.5t-106.5 -35.5q-42 0 -71 17z" />
    <glyph glyph-name="z.superior" horiz-adv-x="282" 
d="M-35 270l185 267h-121l-5 65h259l-185 -267h141l-13 -65h-261z" />
    <glyph glyph-name="grave.cap" 
d="M160 696l-85 147h115l49 -147h-79z" />
    <glyph glyph-name="acute.cap" 
d="M133 696l76 147h115l-112 -147h-79z" />
    <glyph glyph-name="circumflex.cap" 
d="M45 696l119 147h83l83 -147h-81l-49 87l-70 -87h-85z" />
    <glyph glyph-name="caron.cap" 
d="M148 696l-83 147h80l49 -87l71 87h85l-120 -147h-82z" />
    <glyph glyph-name="tilde.cap" 
d="M33 722q4 56 30.5 85t63.5 29q31 0 69 -22.5t53 -22.5q26 0 32 39h71q-4 -56 -30 -85t-64 -29q-31 0 -69 22.5t-53 22.5q-25 0 -31 -39h-72z" />
    <glyph glyph-name="dieresis.cap" 
d="M95 702q-22 0 -35 13t-13 34q0 27 17 45.5t41 18.5q22 0 35 -13t13 -34q0 -27 -17 -45.5t-41 -18.5zM280 702q-22 0 -35 13t-13 34q0 27 17 45.5t41 18.5q22 0 35 -13t13 -34q0 -27 -17 -45.5t-41 -18.5z" />
    <glyph glyph-name="macron.cap" 
d="M47 709l16 80h273l-17 -80h-272z" />
    <glyph glyph-name="breve.cap" 
d="M187 697q-60 0 -92.5 35.5t-27.5 97.5h72q-3 -67 55 -67q57 0 78 67h75q-14 -63 -56.5 -98t-103.5 -35z" />
    <glyph glyph-name="ring.cap" 
d="M181 648q-46 0 -74 22.5t-28 60.5q0 49 35.5 79.5t88.5 30.5q46 0 73.5 -22t27.5 -61q0 -49 -35 -79.5t-88 -30.5zM185 696q23 0 37 17t14 41q0 18 -10.5 28.5t-27.5 10.5q-22 0 -36 -17t-14 -42q0 -17 10 -27.5t27 -10.5z" />
    <glyph glyph-name="hungarumlaut.cap" 
d="M64 696l76 147h116l-113 -147h-79zM236 696l76 147h116l-113 -147h-79z" />
    <glyph glyph-name="dotaccent.cap" 
d="M189 702q-27 0 -43 16t-16 41q0 32 21.5 51.5t49.5 19.5q27 0 43.5 -16t16.5 -40q0 -32 -21.5 -52t-50.5 -20z" />
    <glyph glyph-name="hyphen.cap" horiz-adv-x="338" 
d="M30 291l19 88h254l-20 -88h-253z" />
    <glyph glyph-name="exclamdown.cap" horiz-adv-x="284" 
d="M16 -2l11 52q42 199 59.5 266t52.5 153h57q-1 -88 -12.5 -158.5t-52.5 -260.5l-11 -52h-104zM187 541q-24 0 -39.5 16t-15.5 40q0 29 19 48.5t47 19.5q24 0 39 -16t15 -40q0 -29 -18.5 -48.5t-46.5 -19.5z" />
    <glyph glyph-name="exclam.small" horiz-adv-x="247" 
d="M65 -9q-21 0 -35 14t-14 35q0 27 17 45t41 18q22 0 35.5 -14t13.5 -35q0 -27 -17 -45t-41 -18zM60 162q1 79 9.5 136.5t31.5 162.5l6 25h100l-6 -24q-27 -120 -40.5 -170t-43.5 -130h-57z" />
    <glyph glyph-name="exclamdown.small" horiz-adv-x="247" 
d="M3 0l5 24q28 124 41.5 172t43.5 127h56q-1 -80 -9 -137.5t-31 -160.5l-6 -25h-100zM135 382q-21 0 -35 14t-14 34q0 28 17 46t42 18q21 0 35 -14t14 -35q0 -27 -17 -45t-42 -18z" />
    <glyph glyph-name="questiondown.cap" horiz-adv-x="451" 
d="M168 -8q-69 0 -114.5 36.5t-45.5 98.5q0 53 31 95q21 30 71 69.5t90 82t54 95.5h68q-2 -52 -24 -94.5t-52.5 -71t-61 -53t-51.5 -51.5t-21 -56q0 -30 19.5 -46.5t55.5 -16.5q64 0 130 47l38 -72q-85 -63 -187 -63zM299 541q-24 0 -39.5 16.5t-15.5 40.5q0 28 19.5 48
t46.5 20q23 0 38.5 -16.5t15.5 -39.5q0 -29 -18.5 -49t-46.5 -20z" />
    <glyph glyph-name="question.small" horiz-adv-x="361" 
d="M94 -9q-21 0 -35 14.5t-14 34.5q0 27 17 45t42 18q22 0 35.5 -14t13.5 -35q0 -27 -17 -45t-42 -18zM82 162q1 37 17.5 66.5t38.5 47.5t44 33.5t37 31.5t15 33q0 42 -53 42q-46 0 -96 -36l-33 64q73 50 151 50q58 0 94.5 -27.5t36.5 -78.5q0 -31 -15 -55t-39 -41
t-49 -33.5t-49 -41t-35 -55.5h-65z" />
    <glyph glyph-name="questiondown.small" horiz-adv-x="361" 
d="M123 -9q-57 0 -93.5 28t-36.5 78q0 31 15 55.5t39 41.5t49 33t49 41t35 55h64q-1 -37 -17.5 -66.5t-38.5 -47.5t-44 -33t-37 -31t-15 -34q0 -42 54 -42q45 0 95 36l33 -64q-75 -50 -151 -50zM223 382q-22 0 -35.5 14t-13.5 35q0 28 16.5 45.5t41.5 17.5q22 0 35.5 -14
t13.5 -35q0 -27 -17 -45t-41 -18z" />
    <glyph glyph-name="quoteleft.small" horiz-adv-x="213" 
d="M84 268q-13 42 -13 87q0 99 68 185l60 -22q-33 -66 -33 -133q0 -43 12 -89z" />
    <glyph glyph-name="quoteright.small" horiz-adv-x="218" 
d="M82 282l-52 39q45 50 62 99t18 109h98q2 -153 -126 -247z" />
    <glyph glyph-name="quotedblleft.small" horiz-adv-x="407" 
d="M84 268q-13 42 -13 87q0 99 68 185l60 -22q-33 -66 -33 -133q0 -43 12 -89zM277 268q-13 47 -13 87q0 98 69 185l60 -22q-34 -68 -34 -133q0 -36 12 -89z" />
    <glyph glyph-name="quotedblright.small" horiz-adv-x="409" 
d="M82 282l-52 39q45 50 62 99t18 109h98q2 -153 -126 -247zM272 282l-51 39q44 50 61 99t18 109h98q3 -152 -126 -247z" />
    <glyph glyph-name="guilsinglleft.cap" horiz-adv-x="327" 
d="M36 331l196 230l76 -52l-161 -183l106 -180l-83 -48z" />
    <glyph glyph-name="guilsinglright.cap" horiz-adv-x="327" 
d="M19 150l161 184l-104 179l82 48l135 -234l-198 -229z" />
    <glyph glyph-name="guillemotleft.cap" horiz-adv-x="559" 
d="M36 331l196 230l76 -52l-161 -183l106 -180l-83 -48zM268 331l197 230l75 -52l-161 -183l106 -180l-83 -48z" />
    <glyph glyph-name="guillemotright.cap" horiz-adv-x="559" 
d="M95 98l-76 52l161 184l-104 179l82 48l135 -234zM329 98l-76 52l160 184l-104 179l82 48l135 -234z" />
    <glyph glyph-name="endash.cap" horiz-adv-x="450" 
d="M0 300v78h450v-78h-450z" />
    <glyph glyph-name="emdash.cap" horiz-adv-x="800" 
d="M0 300v78h800v-78h-800z" />
    <glyph glyph-name="periodcentered.cap" horiz-adv-x="249" 
d="M114 254q-23 0 -38.5 16.5t-15.5 39.5q0 29 18.5 49t46.5 20q24 0 39.5 -16.5t15.5 -40.5q0 -28 -19.5 -48t-46.5 -20z" />
    <glyph glyph-name="parenleft.cap" horiz-adv-x="338" 
d="M164 -180q-99 133 -99 365q0 170 67 342t205 300l58 -62q-106 -106 -164.5 -258.5t-58.5 -324.5q0 -105 16.5 -176t51.5 -138z" />
    <glyph glyph-name="parenright.cap" horiz-adv-x="338" 
d="M18 -180l-57 61q105 107 164 260t59 324q0 104 -17 175t-52 138l76 49q99 -135 99 -366q0 -170 -67 -341.5t-205 -299.5z" />
    <glyph glyph-name="parenleft.small" horiz-adv-x="310" 
d="M149 -152q-81 110 -81 285q0 303 218 504l53 -56q-174 -174 -174 -457q0 -77 12.5 -128.5t40.5 -102.5z" />
    <glyph glyph-name="parenright.small" horiz-adv-x="310" 
d="M18 -152l-52 56q173 173 173 456q0 132 -52 231l68 46q81 -112 81 -285q0 -304 -218 -504z" />
    <glyph glyph-name="bracketleft.cap" horiz-adv-x="341" 
d="M-4 -180l216 1007h198l-17 -80h-98l-181 -848h97l-17 -79h-198z" />
    <glyph glyph-name="bracketright.cap" horiz-adv-x="341" 
d="M-85 -180l17 79h97l182 848h-97l16 80h198l-215 -1007h-198z" />
    <glyph glyph-name="bracketleft.small" horiz-adv-x="315" 
d="M19 -147l168 778h170l-16 -73h-80l-136 -632h79l-15 -73h-170z" />
    <glyph glyph-name="bracketright.small" horiz-adv-x="315" 
d="M-46 -147l16 73h80l136 632h-79l15 73h170l-168 -778h-170z" />
    <glyph glyph-name="braceleft.cap" horiz-adv-x="355" 
d="M206 -173q-82 10 -119 42t-37 89q0 21 8 59l40 192q3 17 3 31q0 26 -13.5 37.5t-40.5 13.5l16 72q44 2 64 26q11 14 17 42l46 224q14 68 46 105q55 59 168 65v-91q-65 -8 -93 -41q-16 -20 -25 -64l-38 -187q-10 -49 -27 -74q-22 -31 -71 -43v-2q53 -11 53 -71
q0 -26 -6 -54l-35 -164q-6 -24 -6 -47q0 -31 18 -47.5t59 -22.5z" />
    <glyph glyph-name="braceright.cap" horiz-adv-x="355" 
d="M-50 -173v91q65 8 93 41q16 19 26 65l38 186q10 51 27 75q21 29 71 43v2q-54 9 -54 72q0 25 7 52l35 165q5 27 5 46q0 32 -18 48.5t-59 21.5l27 90q82 -10 119 -41.5t37 -88.5q0 -26 -7 -60l-40 -191q-4 -16 -4 -32q0 -47 54 -50l-15 -73q-46 -2 -64 -26q-12 -15 -17 -42
l-47 -223q-14 -71 -46 -105q-51 -59 -168 -66z" />
    <glyph glyph-name="braceleft.small" horiz-adv-x="310" 
d="M180 -158q-130 10 -130 106q0 24 5 49l30 145q3 14 3 24q0 37 -43 40l15 66q52 3 63 55l35 170q14 65 56.5 99t124.5 40v-83q-40 -5 -60.5 -22.5t-27.5 -55.5l-28 -141q-9 -45 -28 -66t-48 -30v-2q40 -9 40 -59q0 -13 -5 -36l-28 -126q-5 -20 -5 -39q0 -24 12.5 -36.5
t43.5 -16.5z" />
    <glyph glyph-name="braceright.small" horiz-adv-x="310" 
d="M-38 -158v83q40 5 60.5 22.5t28.5 55.5l28 140q9 46 28 67t47 30v1q-39 11 -39 60q0 18 4 35l29 126q5 22 5 39q0 24 -13 37t-44 17l26 81q130 -12 130 -106q0 -19 -6 -50l-30 -145q-2 -16 -2 -24q0 -35 42 -40l-15 -66q-52 -2 -63 -54l-35 -171q-13 -65 -56 -99
t-125 -39z" />
    <glyph glyph-name="at.cap" horiz-adv-x="774" 
d="M347 -29q-136 0 -223 90.5t-87 240.5q0 114 50.5 201.5t133 132.5t182.5 45q149 0 243.5 -87t94.5 -231q0 -108 -46.5 -165.5t-122.5 -57.5q-40 0 -66.5 21.5t-33.5 61.5h-2q-15 -32 -52.5 -57t-85.5 -25q-53 0 -92.5 38.5t-39.5 119.5q0 98 60 160.5t152 62.5
q82 0 147 -41l-21 -158q-4 -40 -4 -53q0 -65 47 -65q40 0 64 41.5t24 111.5q0 110 -69 184.5t-199 74.5q-124 0 -207.5 -84.5t-83.5 -225.5q0 -129 69 -200.5t176 -71.5q76 0 130 24l19 -61q-68 -27 -157 -27zM350 209q40 0 71 36.5t41 117.5l10 76q-28 17 -62 17
q-52 0 -88 -42.5t-36 -111.5q0 -93 64 -93z" />
    <glyph glyph-name="at.small" horiz-adv-x="651" 
d="M413 22l20 -57q-62 -25 -136 -25q-117 0 -192 77.5t-75 205.5q0 146 89 234.5t220 88.5q127 0 207.5 -74t80.5 -198q0 -92 -41 -142.5t-105 -50.5q-35 0 -58.5 19t-28.5 50h-2q-39 -68 -111 -68q-49 0 -78 33.5t-29 98.5q0 88 50 144t123 56q65 0 128 -36l-25 -138
q-4 -17 -4 -44q0 -54 39 -54q32 0 53 36t21 92q0 93 -55.5 154.5t-164.5 61.5q-103 0 -172 -71t-69 -188q0 -107 57 -167t146 -60q65 0 112 22zM384 278l11 63q-21 13 -47 13q-43 0 -71 -38t-28 -98q0 -34 13 -55t35 -21q64 0 87 136z" />
    <glyph glyph-name="copyright.small" horiz-adv-x="655" 
d="M327 -43q-122 0 -202 82t-80 205q0 122 80 204.5t202 82.5q123 0 203 -82t80 -205t-79.5 -205t-203.5 -82zM327 9q96 0 160.5 67t64.5 168t-64.5 168t-160.5 67t-160 -67t-64 -168t64 -168t160 -67zM331 88q-65 0 -104.5 42.5t-39.5 110.5q0 65 41 111t107 46
q47 0 80 -20v-58q-38 23 -76 23q-42 0 -66 -28t-24 -72q0 -46 23.5 -73t64.5 -27q33 0 71 22l21 -49q-45 -28 -98 -28z" />
    <glyph glyph-name="published.small" horiz-adv-x="655" 
d="M327 -43q-122 0 -202 82t-80 205q0 122 80 204.5t202 82.5q123 0 203 -82t80 -205t-79.5 -205t-203.5 -82zM327 9q96 0 160.5 67t64.5 168t-64.5 168t-160.5 67t-160 -67t-64 -168t64 -168t160 -67zM238 92v301h95q57 0 88.5 -26.5t31.5 -72.5q0 -47 -31.5 -75.5
t-91.5 -28.5h-31v-98h-61zM299 243h31q61 0 61 50q0 48 -57 48h-35v-98z" />
    <glyph glyph-name="Euro.OT" horiz-adv-x="533" 
d="M40 157l8 62h52q0 31 7 71h-54l9 62h64q31 77 93.5 122t143.5 45q69 0 124 -30l-19 -81q-52 30 -102 30q-88 0 -135 -86h180l-20 -62h-185q-8 -44 -8 -71h183l-21 -62h-155q18 -86 107 -86q53 0 108 33l20 -76q-64 -38 -138 -38q-80 0 -131.5 44t-65.5 123h-65z" />
    <glyph glyph-name="dollar.OT" horiz-adv-x="533" 
d="M148 -66l18 81q-69 6 -122 33l32 75q58 -30 124 -30q48 0 76.5 15.5t28.5 47.5q0 22 -20 39t-48 29.5t-56 28t-48 43t-20 65.5q0 54 38.5 93t115.5 47q2 9 7.5 35.5t7.5 38.5h75l-14 -75q63 -9 101 -26l-17 -81q-62 30 -128 30q-40 0 -63 -13.5t-23 -38.5
q0 -26 30.5 -46.5t66.5 -34.5t66.5 -46.5t30.5 -78.5q0 -63 -43 -102.5t-123 -47.5l-16 -81h-77z" />
    <glyph glyph-name="sterling.OT" horiz-adv-x="533" 
d="M44 0l7 62q70 23 91 161h-55l10 72h55l8 54q13 82 64.5 126t130.5 44q65 0 109 -23l-30 -78q-28 18 -70 18t-68 -25.5t-34 -69.5l-7 -46h154l-24 -72h-141q-17 -103 -55 -148v-2q31 4 71 4h145l-9 -77h-352z" />
    <glyph glyph-name="yen.OT" horiz-adv-x="533" 
d="M148 0l17 81h-121l13 67h122l13 60h-123l14 67h88l-80 235h97l66 -212h2l144 212h108l-169 -235h89l-14 -67h-123l-13 -60h124l-14 -67h-125l-17 -81h-98z" />
    <glyph glyph-name="zero.OT" horiz-adv-x="533" 
d="M213 -10q-88 0 -138.5 53t-50.5 143q0 136 75.5 222t185.5 86q88 0 138.5 -53t50.5 -143q0 -136 -75.5 -222t-185.5 -86zM223 74q62 0 104.5 64.5t42.5 151.5q0 56 -24 88t-71 32q-62 0 -104.5 -64.5t-42.5 -151.5q0 -56 24 -88t71 -32z" />
    <glyph glyph-name="one.OT" horiz-adv-x="533" 
d="M202 0l79 366q-31 -17 -84 -35t-92 -25v84q49 10 115 39t106 57h84l-105 -486h-103z" />
    <glyph glyph-name="two.OT" horiz-adv-x="533" 
d="M20 0q8 57 35 104t60.5 74.5t71.5 52.5t68.5 41.5t51 37.5t20.5 44q0 25 -21 41t-58 16q-63 0 -141 -36l-20 76q86 43 181 43q75 0 119 -37t44 -94q0 -39 -22.5 -71.5t-57 -56.5t-70.5 -45.5t-69 -49t-46 -58.5h236l-17 -82h-365z" />
    <glyph glyph-name="three.OT" horiz-adv-x="533" 
d="M-20 -170l29 80q52 -22 116 -22q86 0 136 40t50 96q0 89 -137 89h-89l10 79q244 3 244 139q0 39 -25.5 59.5t-68.5 20.5q-63 0 -149 -40l-24 75q96 48 190 48q81 0 130.5 -40.5t49.5 -107.5q0 -66 -37 -111.5t-95 -67.5v-2q46 -11 75.5 -44.5t29.5 -88.5
q0 -101 -79.5 -164t-210.5 -63q-83 0 -145 25z" />
    <glyph glyph-name="four.OT" horiz-adv-x="533" 
d="M211 -195l42 195h-251l-13 71l390 414h81l-85 -400h91l-18 -85h-92l-36 -171zM273 85l28 130q18 75 30 114h-2l-225 -245q14 0 46 0.5t47 0.5h76z" />
    <glyph glyph-name="five.OT" horiz-adv-x="533" 
d="M-27 -171l29 81q53 -22 114 -22q83 0 137.5 41t54.5 114q0 58 -41.5 79.5t-119.5 21.5h-81l71 342h355l-30 -82h-243l-37 -183h21q95 0 151.5 -43t56.5 -130q0 -104 -77.5 -173.5t-218.5 -69.5q-81 0 -142 24z" />
    <glyph glyph-name="six.OT" horiz-adv-x="533" 
d="M230 -10q-90 0 -146 60t-56 171q0 80 26 154t77.5 138t138 109.5t196.5 60.5l12 -84q-114 -15 -207 -81t-126 -166l2 -1q61 63 152 63q75 0 123 -48.5t48 -131.5q0 -101 -65.5 -172.5t-174.5 -71.5zM236 74q54 0 92.5 41t38.5 106q0 46 -27 77t-71 31q-37 0 -70 -20
t-51 -54q-16 -28 -16 -67q0 -49 27.5 -81.5t76.5 -32.5z" />
    <glyph glyph-name="seven.OT" horiz-adv-x="533" 
d="M68 -200q48 173 128 331.5t172 272.5h-288l-13 82h442v-37q-106 -127 -195.5 -296.5t-127.5 -329.5z" />
    <glyph glyph-name="eight.OT" horiz-adv-x="533" 
d="M228 -10q-100 0 -160 46t-60 124q0 68 42 113t111 67v3q-85 53 -85 139q0 78 62.5 130.5t165.5 52.5q96 0 151.5 -44t55.5 -114q0 -60 -40 -102.5t-101 -67.5v-2q108 -44 108 -148q0 -91 -73.5 -144t-176.5 -53zM233 72q58 0 96.5 29t38.5 80q0 42 -33.5 68t-99.5 48
q-52 -17 -84.5 -51t-32.5 -79q0 -47 34 -71t81 -24zM282 376q119 40 119 121q0 41 -28 63.5t-74 22.5q-48 0 -80.5 -27t-32.5 -72q0 -36 25.5 -64.5t70.5 -43.5z" />
    <glyph glyph-name="nine.OT" horiz-adv-x="533" 
d="M17 -200l-10 83q111 14 199.5 70.5t128.5 146.5h-2q-60 -34 -126 -34q-80 0 -129 51t-49 137q0 107 66 173.5t167 66.5q99 0 154 -65t55 -166q0 -80 -26 -153t-78 -138t-142 -110.5t-208 -61.5zM357 188q9 30 9 76q0 60 -27 103t-82 43q-56 0 -90 -41t-34 -104
q0 -116 103 -116q62 0 121 39z" />
    <glyph glyph-name="Euro.LT" horiz-adv-x="537" 
d="M23 211l8 68h62v5q0 44 8 92h-63l9 68h73q37 103 115.5 162t176.5 59q84 0 139 -34l-18 -90q-56 34 -114 34q-62 0 -109.5 -35t-74.5 -96h230l-22 -68h-231q-9 -47 -9 -84v-13h226l-22 -68h-198q18 -131 130 -131q59 0 120 35l21 -83q-65 -42 -154 -42q-99 0 -157 56.5
t-72 164.5h-74z" />
    <glyph glyph-name="dollar.LT" horiz-adv-x="537" 
d="M140 -84l22 101q-68 9 -123 42l37 77q56 -35 124 -35q51 0 88 22t37 72q0 33 -21 59t-51 45.5t-60 40.5t-51 55t-21 80q0 70 47.5 117t124.5 55l19 95h79l-20 -96q58 -6 107 -29l-19 -84q-61 33 -128 33q-43 0 -73 -20t-30 -59q0 -30 21 -54t51 -42t60 -39.5t51 -58
t21 -85.5q0 -80 -53 -130.5t-138 -60.5l-21 -101h-80z" />
    <glyph glyph-name="sterling.LT" horiz-adv-x="537" 
d="M25 0l10 68q32 11 55.5 37.5t36 66t18 63t10.5 58.5h-74l13 86h73l11 74q10 71 37 114q57 98 185 98q64 0 123 -26l-36 -81q-35 19 -80 19q-72 0 -105 -64q-15 -26 -22 -74l-8 -60h176l-27 -86h-161q-26 -169 -92 -214v-2q61 9 116 9h162l-13 -86h-408z" />
    <glyph glyph-name="yen.LT" horiz-adv-x="537" 
d="M148 0l24 116h-155l14 68h156l17 77h-158l15 69h125l-94 329h105l72 -299h2l181 299h113l-216 -329h126l-14 -69h-157l-16 -77h158l-14 -68h-159l-25 -116h-100z" />
    <glyph glyph-name="zero.LT" horiz-adv-x="537" 
d="M212 -10q-92 0 -139 58.5t-47 168.5q0 73 18 149t52 144.5t92 111.5t130 43q92 0 138.5 -58.5t46.5 -168.5q0 -74 -17.5 -149.5t-51.5 -144t-92 -111.5t-130 -43zM218 79q48 0 89 53.5t63.5 138t22.5 176.5q0 129 -81 129q-48 0 -89 -53.5t-63.5 -138t-22.5 -176.5
q0 -129 81 -129z" />
    <glyph glyph-name="one.LT" horiz-adv-x="537" 
d="M191 0l117 545q-28 -16 -91 -36.5t-106 -30.5v87q48 11 122 42t114 57h90l-143 -664h-103z" />
    <glyph glyph-name="two.LT" horiz-adv-x="537" 
d="M6 0q9 69 35 126t59.5 94.5t72 69t75 55t66.5 46t48 49.5t18 58q0 78 -99 78q-73 0 -161 -41l-19 83q104 47 200 47q87 0 138 -42t51 -116q0 -40 -16.5 -75.5t-43.5 -62t-60 -51t-68 -49t-66 -50.5t-56 -60t-35 -73h300l-19 -86h-420z" />
    <glyph glyph-name="three.LT" horiz-adv-x="538" 
d="M-3 30l42 82q57 -33 140 -33q40 0 75 10t62 39.5t27 73.5q0 49 -35.5 68.5t-111.5 19.5h-83l13 84h44q61 0 102 11q101 29 101 112q0 40 -28.5 59.5t-74.5 19.5q-70 0 -153 -33l-17 81q92 41 190 41q90 0 141.5 -41.5t51.5 -112.5q0 -125 -139 -170v-2q109 -26 109 -131
q0 -95 -75 -156.5t-199 -61.5q-111 0 -182 40z" />
    <glyph glyph-name="four.LT" horiz-adv-x="537" 
d="M251 0l35 167h-259l-10 76l391 421h88l-88 -412h94l-19 -85h-94l-35 -167h-103zM305 252l25 109q14 65 36 144l-232 -255q52 2 87 2h84z" />
    <glyph glyph-name="five.LT" horiz-adv-x="537" 
d="M0 28l42 83q56 -32 128 -32q70 0 121 35t51 103q0 101 -166 101h-83l72 341h363l-28 -86h-250l-36 -172h28q105 0 158 -48.5t53 -124.5q0 -106 -77.5 -172t-203.5 -66q-107 0 -172 38z" />
    <glyph glyph-name="six.LT" horiz-adv-x="537" 
d="M247 -10q-96 0 -152.5 59t-56.5 179q0 187 103.5 312t267.5 125q56 0 109 -19l-32 -80q-39 14 -80 14q-98 0 -167.5 -69.5t-94.5 -180.5h2q26 36 69 57.5t90 21.5q83 0 131.5 -49.5t48.5 -134.5q0 -103 -70 -169t-168 -66zM250 76q52 0 88.5 39.5t36.5 100.5
q0 48 -25.5 77.5t-74.5 29.5q-54 0 -90 -38.5t-36 -99.5q0 -48 26 -78.5t75 -30.5z" />
    <glyph glyph-name="seven.LT" horiz-adv-x="537" 
d="M93 0q73 305 304 573h-288l-14 86h439v-41q-259 -306 -332 -618h-109z" />
    <glyph glyph-name="eight.LT" horiz-adv-x="537" 
d="M233 -10q-100 0 -160 46t-60 124q0 131 154 180v3q-86 52 -86 139q0 78 63 130.5t166 52.5q96 0 151.5 -44t55.5 -114q0 -60 -40.5 -102.5t-101.5 -67.5v-2q109 -44 109 -148q0 -91 -73.5 -144t-177.5 -53zM239 72q58 0 96.5 29t38.5 80q0 42 -33.5 68t-99.5 48
q-52 -17 -84.5 -51t-32.5 -79q0 -47 34 -71t81 -24zM288 376q119 40 119 121q0 41 -28.5 63.5t-74.5 22.5q-47 0 -79.5 -27t-32.5 -72q0 -36 25.5 -64.5t70.5 -43.5z" />
    <glyph glyph-name="nine.LT" horiz-adv-x="537" 
d="M24 17l32 81q44 -22 101 -22q179 0 223 208h-2q-63 -46 -148 -46q-78 0 -129.5 48t-51.5 137q0 109 66.5 175.5t166.5 66.5q96 0 157 -63t61 -185q0 -198 -90.5 -312.5t-248.5 -114.5q-78 0 -137 27zM389 368q6 32 6 59q0 72 -30.5 112.5t-83.5 40.5q-54 0 -88 -44
t-34 -106q0 -47 25.5 -77t75.5 -30q62 0 129 45z" />
    <glyph glyph-name="Euro.OP" horiz-adv-x="533" 
d="M40 157l8 62h52q0 31 7 71h-54l9 62h64q31 77 93.5 122t143.5 45q69 0 124 -30l-19 -81q-52 30 -102 30q-88 0 -135 -86h180l-20 -62h-185q-8 -44 -8 -71h183l-21 -62h-155q18 -86 107 -86q53 0 108 33l20 -76q-64 -38 -138 -38q-80 0 -131.5 44t-65.5 123h-65z" />
    <glyph glyph-name="dollar.OP" horiz-adv-x="533" 
d="M148 -66l18 81q-69 6 -122 33l32 75q58 -30 124 -30q48 0 76.5 15.5t28.5 47.5q0 22 -20 39t-48 29.5t-56 28t-48 43t-20 65.5q0 54 38.5 93t115.5 47q2 9 7.5 35.5t7.5 38.5h75l-14 -75q63 -9 101 -26l-17 -81q-62 30 -128 30q-40 0 -63 -13.5t-23 -38.5
q0 -26 30.5 -46.5t66.5 -34.5t66.5 -46.5t30.5 -78.5q0 -63 -43 -102.5t-123 -47.5l-16 -81h-77z" />
    <glyph glyph-name="sterling.OP" horiz-adv-x="533" 
d="M44 0l7 62q70 23 91 161h-55l10 72h55l8 54q13 82 64.5 126t130.5 44q65 0 109 -23l-30 -78q-28 18 -70 18t-68 -25.5t-34 -69.5l-7 -46h154l-24 -72h-141q-17 -103 -55 -148v-2q31 4 71 4h145l-9 -77h-352z" />
    <glyph glyph-name="yen.OP" horiz-adv-x="533" 
d="M148 0l17 81h-121l13 67h122l13 60h-123l14 67h88l-80 235h97l66 -212h2l144 212h108l-169 -235h89l-14 -67h-123l-13 -60h124l-14 -67h-125l-17 -81h-98z" />
    <glyph glyph-name="zero.OP" horiz-adv-x="533" 
d="M214 -10q-87 0 -136.5 52.5t-49.5 143.5q0 136 73.5 222t182.5 86q88 0 137 -52.5t49 -143.5q0 -136 -73.5 -222t-182.5 -86zM223 74q62 0 102.5 64.5t40.5 151.5q0 55 -23 87.5t-68 32.5q-61 0 -102 -64.5t-41 -151.5q0 -55 23 -87.5t68 -32.5z" />
    <glyph glyph-name="one.OP" horiz-adv-x="397" 
d="M123 0l79 366q-68 -37 -148 -55v84q99 26 193 91h84l-105 -486h-103z" />
    <glyph glyph-name="two.OP" horiz-adv-x="502" 
d="M8 0q8 57 35 104t60.5 74.5t71 52.5t68.5 41.5t51 37.5t20 44q0 25 -20.5 41t-58.5 16q-61 0 -141 -36l-20 76q86 43 181 43q75 0 119 -37t44 -94q0 -39 -22.5 -71.5t-57 -56.5t-70.5 -45.5t-69 -49t-46 -58.5h237l-18 -82h-364z" />
    <glyph glyph-name="three.OP" horiz-adv-x="506" 
d="M-36 -170l29 80q52 -22 115 -22q86 0 136 40t50 96q0 44 -31.5 66.5t-104.5 22.5h-89l10 79q243 3 243 139q0 39 -25 59.5t-69 20.5q-62 0 -148 -40l-24 75q94 48 189 48q82 0 131.5 -40.5t49.5 -107.5q0 -66 -37 -111.5t-96 -67.5v-2q47 -10 76 -44t29 -89
q0 -101 -79 -164t-211 -63q-82 0 -144 25z" />
    <glyph glyph-name="four.OP" horiz-adv-x="533" 
d="M207 -195l42 195h-252l-12 71l390 414h81l-86 -400h91l-18 -85h-92l-36 -171zM268 85l28 130q15 64 31 114h-2l-226 -245q14 0 46 0.5t47 0.5h76z" />
    <glyph glyph-name="five.OP" horiz-adv-x="481" 
d="M-47 -171l30 81q51 -22 113 -22q83 0 137.5 41t54.5 114q0 58 -41.5 79.5t-119.5 21.5h-81l72 342h354l-29 -82h-243l-38 -183h22q95 0 151 -43t56 -130q0 -104 -77.5 -173.5t-218.5 -69.5q-79 0 -142 24z" />
    <glyph glyph-name="six.OP" horiz-adv-x="544" 
d="M235 -10q-89 0 -145.5 60t-56.5 171q0 80 26 154t77.5 138t138 109.5t196.5 60.5l12 -84q-114 -15 -207 -81t-126 -166l2 -1q61 63 152 63q75 0 123 -48.5t48 -131.5q0 -101 -65.5 -172.5t-174.5 -71.5zM241 74q54 0 92.5 41t38.5 106q0 46 -27 77t-71 31q-37 0 -70 -20
t-51 -54q-16 -30 -16 -67q0 -49 27.5 -81.5t76.5 -32.5z" />
    <glyph glyph-name="seven.OP" horiz-adv-x="483" 
d="M31 -200q48 174 128 332.5t172 271.5h-288l-13 82h442v-37q-107 -127 -196 -296.5t-127 -329.5z" />
    <glyph glyph-name="eight.OP" horiz-adv-x="562" 
d="M242 -10q-100 0 -160 46t-60 124q0 131 154 180v3q-86 52 -86 139q0 78 63 130.5t166 52.5q96 0 151 -44t55 -114q0 -60 -40 -102.5t-101 -67.5v-2q109 -44 109 -148q0 -91 -73.5 -144t-177.5 -53zM248 72q57 0 95.5 29t38.5 80q0 42 -33.5 68t-98.5 48
q-52 -17 -84.5 -51t-32.5 -79q0 -47 34 -71t81 -24zM297 376q118 40 118 121q0 41 -28 63.5t-74 22.5q-47 0 -79.5 -27t-32.5 -72q0 -36 25.5 -64.5t70.5 -43.5z" />
    <glyph glyph-name="nine.OP" horiz-adv-x="544" 
d="M22 -202l-10 83q111 14 199.5 71t128.5 148h-2q-58 -34 -126 -34q-80 0 -129 51t-49 137q0 107 66 173.5t167 66.5q99 0 154 -65t55 -166q0 -63 -15.5 -122.5t-50.5 -116.5t-87 -102.5t-129 -78t-172 -45.5zM362 188q9 30 9 76q0 60 -26.5 103t-81.5 43q-57 0 -91 -41
t-34 -104q0 -53 25 -84.5t78 -31.5q64 0 121 39z" />
    <glyph glyph-name="zero.dnom" horiz-adv-x="381" 
d="M139 -7q-64 0 -96.5 41.5t-32.5 110.5q0 107 49 177.5t129 70.5q64 0 96.5 -41.5t32.5 -110.5q0 -106 -49 -177t-129 -71zM142 62q39 0 63.5 59.5t24.5 122.5q0 80 -46 80q-38 0 -63 -59.5t-25 -122.5q0 -80 46 -80z" />
    <glyph glyph-name="one.dnom" horiz-adv-x="321" 
d="M83 0l64 299q-50 -25 -119 -37v73q74 14 149 57h74l-84 -392h-84z" />
    <glyph glyph-name="two.dnom" horiz-adv-x="345" 
d="M-25 0q8 56 35 99t59 67t63 42.5t51.5 37t20.5 39.5q0 36 -50 36q-47 0 -103 -28l-19 67q69 33 136 33q59 0 91.5 -27.5t32.5 -72.5q0 -41 -28 -74.5t-62 -51.5t-67.5 -43.5t-41.5 -51.5h172l-13 -72h-277z" />
    <glyph glyph-name="three.dnom" horiz-adv-x="349" 
d="M-17 16l27 64q42 -18 91 -18q40 0 61.5 15t21.5 42q0 46 -77 46h-54l11 63h40q47 1 72 16t25 41q0 38 -53 38q-43 0 -89 -18l-19 62q61 26 126 26q59 0 91 -26t32 -66q0 -75 -84 -101v-2q29 -5 48 -25.5t19 -52.5q0 -58 -45 -92.5t-127 -34.5q-66 0 -117 23z" />
    <glyph glyph-name="four.dnom" horiz-adv-x="381" 
d="M152 0l17 85h-160l-13 56l238 251h84l-53 -244h55l-13 -63h-56l-18 -85h-81zM183 147l8 35q17 72 25 101l-129 -137z" />
    <glyph glyph-name="five.dnom" horiz-adv-x="350" 
d="M-24 16l26 64q43 -18 89 -18q40 0 64.5 16t24.5 47q0 32 -30 43q-17 7 -50 7h-67l44 210h237l-20 -71h-150l-17 -78h9q39 0 63 -9q68 -26 68 -95q0 -65 -48 -102t-130 -37q-63 0 -113 23z" />
    <glyph glyph-name="six.dnom" horiz-adv-x="367" 
d="M144 -7q-62 0 -100.5 37.5t-38.5 108.5q0 108 63 181t160 73q50 0 88 -18l-24 -65q-31 14 -65 14q-43 0 -76.5 -28.5t-48.5 -71.5h2q33 23 75 23q49 0 81.5 -30.5t32.5 -80.5q0 -64 -42 -103.5t-107 -39.5zM146 61q28 0 45.5 18t17.5 47q0 23 -14 38.5t-39 15.5
q-28 0 -46 -16.5t-18 -45.5q0 -25 14 -41t40 -16z" />
    <glyph glyph-name="seven.dnom" horiz-adv-x="314" 
d="M7 0q47 173 175 314h-163l-10 71h280v-44q-138 -155 -188 -341h-94z" />
    <glyph glyph-name="eight.dnom" horiz-adv-x="381" 
d="M144 -7q-64 0 -101.5 27.5t-37.5 75.5q0 38 22.5 65t59.5 41v1q-44 30 -44 80t40 80t104 30q62 0 97 -27.5t35 -72.5q0 -66 -72 -94v-1q57 -25 57 -85q0 -57 -45 -88.5t-115 -31.5zM148 62q27 0 48 13.5t21 39.5q0 35 -63 55q-63 -20 -63 -61q0 -23 16 -35t41 -12z
M174 228q59 16 59 58q0 19 -14 29.5t-35 10.5q-23 0 -39 -12.5t-16 -34.5q0 -17 12.5 -31t32.5 -20z" />
    <glyph glyph-name="nine.dnom" horiz-adv-x="367" 
d="M-9 11l24 65q28 -14 65 -14q95 0 124 94l-2 1q-31 -20 -74 -20q-50 0 -83 29.5t-33 82.5q0 65 41 104.5t104 39.5q65 0 104.5 -40t39.5 -113q0 -112 -57.5 -179.5t-160.5 -67.5q-56 0 -92 18zM212 226q2 16 2 24q0 38 -17 57t-42 19t-42 -18.5t-17 -48.5q0 -56 53 -56
q31 0 63 23z" />
    <glyph glyph-name="plus.dnom" horiz-adv-x="404" 
d="M118 31v129h-119v66h119v125h71v-125h119v-66h-119v-129h-71z" />
    <glyph glyph-name="minus.dnom" horiz-adv-x="404" 
d="M-1 160v66h309v-66h-309z" />
    <glyph glyph-name="equal.dnom" horiz-adv-x="404" 
d="M-1 94v66h309v-66h-309zM-1 226v66h309v-66h-309z" />
    <glyph glyph-name="parenleft.dnom" horiz-adv-x="233" 
d="M67 -47q-58 68 -58 178q0 175 154 301l45 -48q-118 -111 -118 -250q0 -89 35 -142z" />
    <glyph glyph-name="parenright.dnom" horiz-adv-x="233" 
d="M0 -47l-45 48q118 111 118 250q0 87 -34 143l58 38q27 -31 42.5 -79.5t15.5 -97.5q0 -176 -155 -302z" />
    <glyph glyph-name="zero.numr" horiz-adv-x="381" 
d="M192 262q-64 0 -96.5 41.5t-32.5 110.5q0 107 49 177.5t129 70.5q64 0 96.5 -41.5t32.5 -110.5q0 -106 -49 -177t-129 -71zM195 331q39 0 63.5 59.5t24.5 122.5q0 80 -46 80q-38 0 -63 -59.5t-25 -122.5q0 -80 46 -80z" />
    <glyph glyph-name="one.numr" horiz-adv-x="321" 
d="M131 269l64 299q-50 -25 -119 -37v73q74 14 149 57h74l-84 -392h-84z" />
    <glyph glyph-name="two.numr" horiz-adv-x="345" 
d="M28 269q8 56 35 99t59 67t63 42.5t51.5 37t20.5 39.5q0 36 -50 36q-47 0 -103 -28l-19 67q69 33 136 33q59 0 91.5 -27.5t32.5 -72.5q0 -41 -28 -74.5t-62 -51.5t-67.5 -43.5t-41.5 -51.5h172l-13 -72h-277z" />
    <glyph glyph-name="three.numr" horiz-adv-x="349" 
d="M36 285l27 64q42 -18 91 -18q40 0 61.5 15t21.5 42q0 46 -77 46h-54l11 63h40q47 1 72 16t25 41q0 38 -53 38q-43 0 -89 -18l-19 62q61 26 126 26q59 0 91 -26t32 -66q0 -75 -84 -101v-2q29 -5 48 -25.5t19 -52.5q0 -58 -45 -92.5t-127 -34.5q-66 0 -117 23z" />
    <glyph glyph-name="four.numr" horiz-adv-x="381" 
d="M205 269l17 85h-160l-13 56l238 251h84l-53 -244h55l-13 -63h-56l-18 -85h-81zM236 416l8 35q17 72 25 101l-129 -137z" />
    <glyph glyph-name="five.numr" horiz-adv-x="350" 
d="M30 285l26 64q43 -18 89 -18q40 0 64.5 16t24.5 47q0 32 -30 43q-17 7 -50 7h-67l44 210h237l-20 -71h-150l-17 -78h9q39 0 63 -9q68 -26 68 -95q0 -65 -48 -102t-130 -37q-63 0 -113 23z" />
    <glyph glyph-name="six.numr" horiz-adv-x="367" 
d="M197 262q-62 0 -100.5 37.5t-38.5 108.5q0 108 63 181t160 73q51 0 88 -18l-24 -65q-31 14 -65 14q-43 0 -76.5 -28.5t-48.5 -71.5h2q33 23 75 23q49 0 81.5 -30.5t32.5 -80.5q0 -64 -42 -103.5t-107 -39.5zM199 330q28 0 45.5 18t17.5 47q0 23 -14 38.5t-39 15.5
q-28 0 -46 -16.5t-18 -45.5q0 -25 14 -41t40 -16z" />
    <glyph glyph-name="seven.numr" horiz-adv-x="314" 
d="M58 269q47 173 175 314h-163l-10 71h280v-44q-138 -155 -188 -341h-94z" />
    <glyph glyph-name="eight.numr" horiz-adv-x="381" 
d="M197 262q-64 0 -101.5 27.5t-37.5 75.5q0 38 22.5 65t59.5 41v1q-44 30 -44 80t40 80t104 30q62 0 97 -27.5t35 -72.5q0 -66 -72 -94v-1q57 -25 57 -85q0 -57 -45 -88.5t-115 -31.5zM201 331q27 0 48 13.5t21 39.5q0 35 -63 55q-63 -20 -63 -61q0 -23 16 -35t41 -12z
M227 497q59 16 59 58q0 19 -14 29.5t-35 10.5q-23 0 -39 -12.5t-16 -34.5q0 -17 12.5 -31t32.5 -20z" />
    <glyph glyph-name="nine.numr" horiz-adv-x="367" 
d="M42 280l24 65q28 -14 65 -14q95 0 124 94l-2 1q-31 -20 -74 -20q-50 0 -83 29.5t-33 82.5q0 65 41 104.5t104 39.5q65 0 104.5 -40t39.5 -113q0 -112 -57.5 -179.5t-160.5 -67.5q-56 0 -92 18zM263 495q2 16 2 24q0 38 -17 57t-42 19t-42 -18.5t-17 -48.5q0 -56 53 -56
q31 0 63 23z" />
    <glyph glyph-name="plus.numr" horiz-adv-x="404" 
d="M171 299v129h-119v66h119v125h71v-125h119v-66h-119v-129h-71z" />
    <glyph glyph-name="minus.numr" horiz-adv-x="404" 
d="M52 428v66h309v-66h-309z" />
    <glyph glyph-name="equal.numr" horiz-adv-x="404" 
d="M52 362v66h309v-66h-309zM52 494v66h309v-66h-309z" />
    <glyph glyph-name="parenleft.numr" horiz-adv-x="233" 
d="M120 221q-58 68 -58 178q0 175 154 301l45 -48q-118 -111 -118 -250q0 -89 35 -142z" />
    <glyph glyph-name="parenright.numr" horiz-adv-x="233" 
d="M53 221l-45 48q118 111 118 250q0 87 -34 143l58 38q27 -31 42.5 -79.5t15.5 -97.5q0 -176 -155 -302z" />
    <glyph glyph-name="ampersand.small" horiz-adv-x="603" 
d="M194 -10q-79 0 -127.5 37t-48.5 103q0 58 38.5 98.5t114.5 55.5v3q-62 24 -62 87q0 54 45.5 87t121.5 33q78 0 142 -32l-25 -72q-57 27 -113 27q-76 0 -76 -53q0 -47 73 -64l-14 -65q-72 1 -111 -24.5t-39 -68.5q0 -33 25 -54t71 -21q64 0 118 40t75 119h-56l15 71h230
l-26 -71h-76q-28 -116 -111.5 -176t-183.5 -60z" />
    </font>
</defs>
</svg>
